<svg width="543" height="196" viewBox="0 0 543 196" fill="none" xmlns="http://www.w3.org/2000/svg">
<path opacity="0.15" d="M155.613 0.399142V193H128.905L31.006 51.7468H29.2192V193H0.159762V0.399142H27.0562L125.049 141.84H126.836V0.399142H155.613ZM256.593 195.915C243.05 195.915 231.232 192.812 221.138 186.605C211.044 180.398 203.207 171.715 197.627 160.555C192.047 149.395 189.257 136.355 189.257 121.433C189.257 106.449 192.047 93.3454 197.627 82.1228C203.207 70.9003 211.044 62.1856 221.138 55.9788C231.232 49.7719 243.05 46.6685 256.593 46.6685C270.135 46.6685 281.953 49.7719 292.047 55.9788C302.141 62.1856 309.978 70.9003 315.558 82.1228C321.138 93.3454 323.928 106.449 323.928 121.433C323.928 136.355 321.138 149.395 315.558 160.555C309.978 171.715 302.141 180.398 292.047 186.605C281.953 192.812 270.135 195.915 256.593 195.915ZM256.687 172.31C265.464 172.31 272.737 169.991 278.505 165.351C284.273 160.712 288.536 154.536 291.295 146.825C294.116 139.113 295.527 130.618 295.527 121.339C295.527 112.123 294.116 103.659 291.295 95.9472C288.536 88.173 284.273 81.9348 278.505 77.2326C272.737 72.5304 265.464 70.1793 256.687 70.1793C247.847 70.1793 240.511 72.5304 234.68 77.2326C228.912 81.9348 224.618 88.173 221.797 95.9472C219.038 103.659 217.659 112.123 217.659 121.339C217.659 130.618 219.038 139.113 221.797 146.825C224.618 154.536 228.912 160.712 234.68 165.351C240.511 169.991 247.847 172.31 256.687 172.31ZM382.235 193L339.727 48.5494H368.786L397.093 154.63H398.504L426.905 48.5494H455.965L484.178 154.16H485.588L513.707 48.5494H542.767L500.353 193H471.67L442.328 88.7059H440.165L410.824 193H382.235Z" fill="#D79442"/>
</svg>
