<svg width="430" height="280" viewBox="0 0 430 280" fill="none" xmlns="http://www.w3.org/2000/svg">
<g clip-path="url(#clip0_1827_1012)">
<rect width="430" height="280" rx="16.2264" fill="url(#paint0_linear_1827_1012)"/>
<path d="M-13.8276 130L26.5127 170.191C38.8086 181.378 63.4031 203.751 90.2585 219.909C117.114 236.068 146.232 246.012 176.402 253.064C206.571 260.117 237.794 264.278 253.404 266.359L269.016 268.44" stroke="url(#paint1_linear_1827_1012)" stroke-width="8.11318"/>
<path d="M-20.3186 209.072L12.3608 209.072C28.8131 208.84 61.719 208.377 93.2566 211.671C124.794 214.966 154.964 222.019 182.556 236.154C210.148 250.288 235.163 271.506 247.67 282.113L260.177 292.722" stroke="url(#paint2_linear_1827_1012)" stroke-width="8.11318"/>
<path d="M-23.158 183.953L14.8863 202.134C28.8136 208.84 56.6692 222.253 84.8926 234.652C113.116 247.053 141.708 258.442 171.615 266.217C201.521 273.992 232.744 278.154 248.354 280.235L263.966 282.316" stroke="url(#paint3_linear_1827_1012)" stroke-width="8.11318"/>
<path d="M365.276 281.691C357.617 256.963 342.524 235.195 322.052 219.35C301.581 203.505 276.724 194.353 250.865 193.139C225.006 191.924 199.401 198.707 177.535 212.564C155.669 226.421 138.603 246.679 128.66 270.581L244.958 318.958L365.276 281.691Z" fill="url(#paint4_linear_1827_1012)"/>
<path d="M95.1276 -1.41987C95.1276 9.60745 54.7819 8.11869 37.4196 26.0496C28.5189 35.2418 27.0143 45.4945 19.2168 53.292C11.4193 61.0895 2.16233 67.2748 -8.02558 71.4948C-18.2135 75.7147 -29.1328 77.8867 -40.1602 77.8867L-40.1602 -6.08496L95.1276 -1.41987Z" fill="url(#paint5_linear_1827_1012)"/>
<g filter="url(#filter0_b_1827_1012)">
<path d="M0 261H102.774C111.735 261 119 268.265 119 277.226V279.66H0V261Z" fill="white" fill-opacity="0.3"/>
<path d="M21.1336 273.776C20.6847 273.774 20.3012 273.656 19.983 273.421C19.6648 273.186 19.4214 272.844 19.2529 272.395C19.0843 271.946 19 271.406 19 270.773C19 270.142 19.0843 269.603 19.2529 269.156C19.4233 268.71 19.6677 268.369 19.9858 268.134C20.3059 267.899 20.6885 267.781 21.1336 267.781C21.5786 267.781 21.9603 267.9 22.2785 268.137C22.5966 268.371 22.84 268.712 23.0086 269.159C23.179 269.604 23.2642 270.142 23.2642 270.773C23.2642 271.407 23.18 271.949 23.0114 272.398C22.8428 272.845 22.5995 273.187 22.2813 273.424C21.9631 273.658 21.5805 273.776 21.1336 273.776ZM21.1336 273.017C21.5275 273.017 21.8353 272.825 22.0569 272.441C22.2803 272.056 22.3921 271.5 22.3921 270.773C22.3921 270.29 22.341 269.882 22.2387 269.549C22.1383 269.213 21.9934 268.96 21.804 268.787C21.6165 268.613 21.393 268.526 21.1336 268.526C20.7415 268.526 20.4338 268.719 20.2103 269.105C19.9868 269.492 19.8741 270.048 19.8722 270.773C19.8722 271.258 19.9224 271.668 20.0228 272.003C20.125 272.336 20.2699 272.589 20.4574 272.762C20.6449 272.932 20.8703 273.017 21.1336 273.017ZM26.8544 270.401V271.139H24.2749V270.401H26.8544ZM29.8956 273.759C29.5396 273.759 29.2195 273.691 28.9354 273.554C28.6532 273.416 28.4278 273.227 28.2593 272.986C28.0907 272.745 28.0008 272.471 27.9894 272.162H28.8417C28.8625 272.412 28.9733 272.618 29.1741 272.779C29.3748 272.94 29.6153 273.02 29.8956 273.02C30.1191 273.02 30.317 272.969 30.4894 272.867C30.6636 272.763 30.8 272.62 30.8985 272.438C30.9989 272.256 31.0491 272.049 31.0491 271.816C31.0491 271.579 30.9979 271.368 30.8956 271.182C30.7934 270.996 30.6523 270.851 30.4723 270.745C30.2943 270.638 30.0898 270.585 29.8587 270.583C29.6826 270.583 29.5055 270.613 29.3275 270.674C29.1494 270.734 29.0055 270.814 28.8956 270.912L28.0917 270.793L28.4184 267.861H31.6172V268.614H29.1485L28.9638 270.242H28.9979C29.1116 270.132 29.2621 270.04 29.4496 269.966C29.639 269.892 29.8417 269.855 30.0576 269.855C30.4117 269.855 30.7271 269.94 31.0036 270.108C31.282 270.277 31.5008 270.507 31.6598 270.799C31.8208 271.088 31.9004 271.422 31.8985 271.799C31.9004 272.175 31.8151 272.512 31.6428 272.807C31.4723 273.102 31.2356 273.335 30.9326 273.506C30.6314 273.674 30.2858 273.759 29.8956 273.759ZM35.6016 275.316C35.4747 275.316 35.3592 275.305 35.255 275.284C35.1508 275.265 35.0732 275.245 35.0221 275.222L35.2266 274.526C35.3819 274.567 35.5202 274.585 35.6414 274.58C35.7626 274.574 35.8696 274.529 35.9624 274.443C36.0571 274.358 36.1404 274.219 36.2124 274.026L36.3175 273.736L34.7209 269.316H35.63L36.7351 272.702H36.7806L37.8857 269.316H38.7976L36.9993 274.262C36.916 274.489 36.8099 274.681 36.6812 274.838C36.5524 274.997 36.399 275.117 36.2209 275.196C36.0429 275.276 35.8365 275.316 35.6016 275.316ZM41.3282 273.767C40.8982 273.767 40.528 273.675 40.2174 273.492C39.9087 273.306 39.67 273.046 39.5015 272.71C39.3348 272.373 39.2515 271.978 39.2515 271.526C39.2515 271.079 39.3348 270.685 39.5015 270.344C39.67 270.003 39.9049 269.737 40.206 269.546C40.509 269.354 40.8632 269.259 41.2685 269.259C41.5147 269.259 41.7534 269.299 41.9844 269.381C42.2155 269.462 42.4229 269.59 42.6066 269.764C42.7903 269.939 42.9352 270.165 43.0412 270.443C43.1473 270.72 43.2003 271.056 43.2003 271.452V271.753H39.7316V271.117H42.3679C42.3679 270.893 42.3225 270.695 42.2316 270.523C42.1407 270.349 42.0128 270.211 41.8481 270.111C41.6852 270.011 41.4939 269.96 41.2742 269.96C41.0356 269.96 40.8272 270.019 40.6492 270.137C40.4731 270.252 40.3367 270.404 40.2401 270.591C40.1454 270.777 40.0981 270.978 40.0981 271.196V271.693C40.0981 271.985 40.1492 272.233 40.2515 272.438C40.3556 272.642 40.5005 272.799 40.6861 272.906C40.8717 273.013 41.0886 273.066 41.3367 273.066C41.4977 273.066 41.6445 273.043 41.777 272.997C41.9096 272.95 42.0242 272.88 42.1208 272.787C42.2174 272.694 42.2912 272.58 42.3424 272.443L43.1464 272.588C43.082 272.825 42.9664 273.032 42.7998 273.21C42.635 273.387 42.4276 273.524 42.1776 273.622C41.9295 273.719 41.6464 273.767 41.3282 273.767ZM45.4127 273.776C45.1362 273.776 44.8862 273.725 44.6627 273.622C44.4392 273.518 44.2621 273.368 44.1314 273.171C44.0026 272.974 43.9383 272.732 43.9383 272.446C43.9383 272.2 43.9856 271.997 44.0803 271.838C44.175 271.679 44.3028 271.553 44.4638 271.46C44.6248 271.368 44.8047 271.298 45.0036 271.25C45.2025 271.203 45.4051 271.167 45.6116 271.142C45.8729 271.112 46.085 271.087 46.2479 271.068C46.4108 271.048 46.5292 271.014 46.603 270.969C46.6769 270.924 46.7138 270.85 46.7138 270.747V270.727C46.7138 270.479 46.6437 270.287 46.5036 270.151C46.3653 270.014 46.1589 269.946 45.8843 269.946C45.5983 269.946 45.3729 270.01 45.2081 270.137C45.0453 270.262 44.9326 270.401 44.8701 270.554L44.0718 270.372C44.1665 270.107 44.3047 269.893 44.4866 269.73C44.6703 269.566 44.8814 269.446 45.1201 269.372C45.3587 269.297 45.6097 269.259 45.8729 269.259C46.0472 269.259 46.2318 269.28 46.4269 269.321C46.6239 269.361 46.8076 269.435 46.978 269.543C47.1504 269.651 47.2915 269.805 47.4013 270.006C47.5112 270.205 47.5661 270.463 47.5661 270.781V273.679H46.7366V273.083H46.7025C46.6475 273.192 46.5651 273.3 46.4553 273.406C46.3455 273.513 46.2044 273.601 46.032 273.671C45.8597 273.741 45.6532 273.776 45.4127 273.776ZM45.5973 273.094C45.8322 273.094 46.033 273.048 46.1996 272.955C46.3682 272.862 46.496 272.741 46.5831 272.591C46.6722 272.44 46.7167 272.278 46.7167 272.105V271.543C46.6864 271.573 46.6276 271.602 46.5405 271.628C46.4553 271.653 46.3578 271.674 46.2479 271.693C46.1381 271.71 46.0311 271.727 45.9269 271.742C45.8227 271.755 45.7356 271.766 45.6655 271.776C45.5008 271.797 45.3502 271.832 45.2138 271.881C45.0794 271.93 44.9714 272.001 44.89 272.094C44.8104 272.185 44.7706 272.306 44.7706 272.458C44.7706 272.668 44.8483 272.827 45.0036 272.935C45.1589 273.041 45.3568 273.094 45.5973 273.094ZM48.6975 273.679V269.316H49.5185V270.009H49.564C49.6435 269.774 49.7837 269.589 49.9844 269.455C50.1871 269.318 50.4162 269.25 50.6719 269.25C50.7249 269.25 50.7874 269.252 50.8594 269.256C50.9333 269.26 50.991 269.264 51.0327 269.27V270.083C50.9986 270.073 50.938 270.063 50.8509 270.051C50.7638 270.038 50.6767 270.031 50.5895 270.031C50.3888 270.031 50.2098 270.074 50.0526 270.159C49.8973 270.243 49.7742 270.359 49.6833 270.509C49.5924 270.656 49.5469 270.825 49.5469 271.014V273.679H48.6975ZM55.0377 270.381L54.2678 270.517C54.2356 270.419 54.1845 270.325 54.1144 270.236C54.0462 270.147 53.9534 270.074 53.836 270.017C53.7186 269.96 53.5718 269.932 53.3956 269.932C53.1551 269.932 52.9544 269.986 52.7934 270.094C52.6324 270.2 52.5519 270.337 52.5519 270.506C52.5519 270.652 52.6059 270.769 52.7138 270.858C52.8218 270.947 52.996 271.02 53.2366 271.077L53.9297 271.236C54.3312 271.329 54.6305 271.472 54.8275 271.665C55.0244 271.858 55.1229 272.109 55.1229 272.418C55.1229 272.679 55.0472 272.912 54.8956 273.117C54.746 273.319 54.5367 273.478 54.2678 273.594C54.0008 273.71 53.6911 273.767 53.3388 273.767C52.8502 273.767 52.4515 273.663 52.1428 273.455C51.8341 273.245 51.6447 272.946 51.5746 272.56L52.3956 272.435C52.4468 272.649 52.5519 272.811 52.711 272.921C52.8701 273.029 53.0775 273.083 53.3331 273.083C53.6116 273.083 53.8341 273.025 54.0008 272.909C54.1674 272.792 54.2508 272.649 54.2508 272.48C54.2508 272.344 54.1996 272.229 54.0973 272.137C53.997 272.044 53.8426 271.974 53.6343 271.926L52.8956 271.764C52.4884 271.672 52.1873 271.524 51.9922 271.321C51.7991 271.119 51.7025 270.862 51.7025 270.551C51.7025 270.294 51.7744 270.068 51.9184 269.875C52.0623 269.682 52.2612 269.531 52.515 269.424C52.7687 269.314 53.0595 269.259 53.3871 269.259C53.8587 269.259 54.2299 269.361 54.5008 269.566C54.7716 269.768 54.9506 270.04 55.0377 270.381ZM60.0547 273.767C59.6248 273.767 59.2545 273.675 58.9439 273.492C58.6352 273.306 58.3966 273.046 58.228 272.71C58.0614 272.373 57.978 271.978 57.978 271.526C57.978 271.079 58.0614 270.685 58.228 270.344C58.3966 270.003 58.6314 269.737 58.9326 269.546C59.2356 269.354 59.5898 269.259 59.9951 269.259C60.2413 269.259 60.4799 269.299 60.711 269.381C60.942 269.462 61.1494 269.59 61.3331 269.764C61.5169 269.939 61.6617 270.165 61.7678 270.443C61.8739 270.72 61.9269 271.056 61.9269 271.452V271.753H58.4581V271.117H61.0945C61.0945 270.893 61.0491 270.695 60.9581 270.523C60.8672 270.349 60.7394 270.211 60.5746 270.111C60.4117 270.011 60.2205 269.96 60.0008 269.96C59.7621 269.96 59.5538 270.019 59.3758 270.137C59.1996 270.252 59.0633 270.404 58.9667 270.591C58.872 270.777 58.8246 270.978 58.8246 271.196V271.693C58.8246 271.985 58.8758 272.233 58.978 272.438C59.0822 272.642 59.2271 272.799 59.4127 272.906C59.5983 273.013 59.8151 273.066 60.0633 273.066C60.2242 273.066 60.371 273.043 60.5036 272.997C60.6362 272.95 60.7508 272.88 60.8473 272.787C60.9439 272.694 61.0178 272.58 61.0689 272.443L61.8729 272.588C61.8085 272.825 61.693 273.032 61.5263 273.21C61.3616 273.387 61.1542 273.524 60.9042 273.622C60.6561 273.719 60.3729 273.767 60.0547 273.767ZM63.4383 269.316L64.4013 271.014L65.3729 269.316H66.3019L64.9411 271.497L66.3133 273.679H65.3843L64.4013 272.049L63.4212 273.679H62.4894L63.8473 271.497L62.5064 269.316H63.4383ZM67.1741 275.316V269.316H68.0036V270.023H68.0746C68.1239 269.932 68.1949 269.827 68.2877 269.708C68.3805 269.588 68.5093 269.484 68.6741 269.395C68.8388 269.304 69.0566 269.259 69.3275 269.259C69.6797 269.259 69.9941 269.348 70.2706 269.526C70.5472 269.704 70.764 269.96 70.9212 270.296C71.0803 270.631 71.1598 271.034 71.1598 271.506C71.1598 271.977 71.0812 272.382 70.9241 272.719C70.7669 273.054 70.5509 273.313 70.2763 273.495C70.0017 273.674 69.6883 273.764 69.336 273.764C69.0708 273.764 68.854 273.72 68.6854 273.631C68.5187 273.542 68.3881 273.438 68.2934 273.318C68.1987 273.199 68.1258 273.093 68.0746 273H68.0235V275.316H67.1741ZM68.0064 271.497C68.0064 271.804 68.0509 272.073 68.14 272.304C68.229 272.535 68.3578 272.716 68.5263 272.847C68.6949 272.976 68.9013 273.04 69.1456 273.04C69.3994 273.04 69.6116 272.973 69.782 272.838C69.9525 272.702 70.0812 272.517 70.1684 272.284C70.2574 272.051 70.3019 271.789 70.3019 271.497C70.3019 271.21 70.2583 270.951 70.1712 270.722C70.086 270.493 69.9572 270.312 69.7848 270.179C69.6144 270.047 69.4013 269.98 69.1456 269.98C68.8994 269.98 68.6911 270.044 68.5206 270.171C68.3521 270.298 68.2242 270.475 68.1371 270.702C68.05 270.929 68.0064 271.194 68.0064 271.497ZM73.9922 273.767C73.5623 273.767 73.192 273.675 72.8814 273.492C72.5727 273.306 72.3341 273.046 72.1655 272.71C71.9989 272.373 71.9155 271.978 71.9155 271.526C71.9155 271.079 71.9989 270.685 72.1655 270.344C72.3341 270.003 72.5689 269.737 72.8701 269.546C73.1731 269.354 73.5273 269.259 73.9326 269.259C74.1788 269.259 74.4174 269.299 74.6485 269.381C74.8795 269.462 75.0869 269.59 75.2706 269.764C75.4544 269.939 75.5992 270.165 75.7053 270.443C75.8114 270.72 75.8644 271.056 75.8644 271.452V271.753H72.3956V271.117H75.032C75.032 270.893 74.9866 270.695 74.8956 270.523C74.8047 270.349 74.6769 270.211 74.5121 270.111C74.3492 270.011 74.158 269.96 73.9383 269.96C73.6996 269.96 73.4913 270.019 73.3133 270.137C73.1371 270.252 73.0008 270.404 72.9042 270.591C72.8095 270.777 72.7621 270.978 72.7621 271.196V271.693C72.7621 271.985 72.8133 272.233 72.9155 272.438C73.0197 272.642 73.1646 272.799 73.3502 272.906C73.5358 273.013 73.7526 273.066 74.0008 273.066C74.1617 273.066 74.3085 273.043 74.4411 272.997C74.5737 272.95 74.6883 272.88 74.7848 272.787C74.8814 272.694 74.9553 272.58 75.0064 272.443L75.8104 272.588C75.746 272.825 75.6305 273.032 75.4638 273.21C75.2991 273.387 75.0917 273.524 74.8417 273.622C74.5936 273.719 74.3104 273.767 73.9922 273.767ZM76.8069 273.679V269.316H77.6279V270.009H77.6733C77.7529 269.774 77.893 269.589 78.0938 269.455C78.2964 269.318 78.5256 269.25 78.7813 269.25C78.8343 269.25 78.8968 269.252 78.9688 269.256C79.0427 269.26 79.1004 269.264 79.1421 269.27V270.083C79.108 270.073 79.0474 270.063 78.9603 270.051C78.8732 270.038 78.786 270.031 78.6989 270.031C78.4982 270.031 78.3192 270.074 78.162 270.159C78.0067 270.243 77.8836 270.359 77.7927 270.509C77.7017 270.656 77.6563 270.825 77.6563 271.014V273.679H76.8069ZM79.8772 273.679V269.316H80.7266V273.679H79.8772ZM80.3062 268.642C80.1584 268.642 80.0315 268.593 79.9255 268.495C79.8213 268.394 79.7692 268.275 79.7692 268.137C79.7692 267.996 79.8213 267.877 79.9255 267.779C80.0315 267.678 80.1584 267.628 80.3062 267.628C80.4539 267.628 80.5798 267.678 80.684 267.779C80.7901 267.877 80.8431 267.996 80.8431 268.137C80.8431 268.275 80.7901 268.394 80.684 268.495C80.5798 268.593 80.4539 268.642 80.3062 268.642ZM83.75 273.767C83.3201 273.767 82.9499 273.675 82.6392 273.492C82.3305 273.306 82.0919 273.046 81.9233 272.71C81.7567 272.373 81.6733 271.978 81.6733 271.526C81.6733 271.079 81.7567 270.685 81.9233 270.344C82.0919 270.003 82.3267 269.737 82.6279 269.546C82.9309 269.354 83.2851 269.259 83.6904 269.259C83.9366 269.259 84.1752 269.299 84.4063 269.381C84.6374 269.462 84.8447 269.59 85.0285 269.764C85.2122 269.939 85.3571 270.165 85.4631 270.443C85.5692 270.72 85.6222 271.056 85.6222 271.452V271.753H82.1535V271.117H84.7898C84.7898 270.893 84.7444 270.695 84.6535 270.523C84.5625 270.349 84.4347 270.211 84.2699 270.111C84.1071 270.011 83.9158 269.96 83.6961 269.96C83.4574 269.96 83.2491 270.019 83.0711 270.137C82.8949 270.252 82.7586 270.404 82.662 270.591C82.5673 270.777 82.5199 270.978 82.5199 271.196V271.693C82.5199 271.985 82.5711 272.233 82.6733 272.438C82.7775 272.642 82.9224 272.799 83.108 272.906C83.2936 273.013 83.5105 273.066 83.7586 273.066C83.9196 273.066 84.0663 273.043 84.1989 272.997C84.3315 272.95 84.4461 272.88 84.5427 272.787C84.6392 272.694 84.7131 272.58 84.7642 272.443L85.5682 272.588C85.5038 272.825 85.3883 273.032 85.2216 273.21C85.0569 273.387 84.8495 273.524 84.5995 273.622C84.3514 273.719 84.0682 273.767 83.75 273.767ZM87.4141 271.088V273.679H86.5647V269.316H87.38V270.026H87.434C87.5344 269.795 87.6916 269.609 87.9056 269.469C88.1215 269.329 88.3933 269.259 88.7209 269.259C89.0183 269.259 89.2787 269.321 89.5022 269.446C89.7257 269.569 89.899 269.753 90.0221 269.997C90.1452 270.242 90.2067 270.544 90.2067 270.904V273.679H89.3573V271.006C89.3573 270.69 89.2749 270.442 89.1101 270.264C88.9454 270.085 88.719 269.995 88.4312 269.995C88.2342 269.995 88.059 270.037 87.9056 270.122C87.7541 270.208 87.6338 270.333 87.5448 270.497C87.4577 270.66 87.4141 270.857 87.4141 271.088ZM93.184 273.767C92.7616 273.767 92.398 273.672 92.0931 273.48C91.7901 273.287 91.5571 273.021 91.3942 272.682C91.2313 272.343 91.1499 271.955 91.1499 271.517C91.1499 271.074 91.2332 270.683 91.3999 270.344C91.5666 270.003 91.8014 269.737 92.1044 269.546C92.4075 269.354 92.7645 269.259 93.1755 269.259C93.5069 269.259 93.8024 269.32 94.0618 269.443C94.3213 269.565 94.5306 269.735 94.6897 269.955C94.8507 270.174 94.9463 270.431 94.9766 270.725H94.1499C94.1044 270.52 94.0003 270.344 93.8374 270.196C93.6764 270.049 93.4605 269.975 93.1897 269.975C92.9529 269.975 92.7455 270.037 92.5675 270.162C92.3914 270.285 92.2541 270.461 92.1556 270.691C92.0571 270.918 92.0079 271.187 92.0079 271.497C92.0079 271.816 92.0562 272.09 92.1527 272.321C92.2493 272.552 92.3857 272.731 92.5618 272.858C92.7399 272.985 92.9491 273.049 93.1897 273.049C93.3507 273.049 93.4965 273.019 93.6272 272.96C93.7598 272.9 93.8705 272.814 93.9596 272.702C94.0505 272.59 94.1139 272.456 94.1499 272.299H94.9766C94.9463 272.581 94.8544 272.833 94.701 273.054C94.5476 273.276 94.3421 273.45 94.0846 273.577C93.8289 273.704 93.5287 273.767 93.184 273.767ZM97.7657 273.767C97.3357 273.767 96.9655 273.675 96.6549 273.492C96.3462 273.306 96.1075 273.046 95.939 272.71C95.7723 272.373 95.689 271.978 95.689 271.526C95.689 271.079 95.7723 270.685 95.939 270.344C96.1075 270.003 96.3424 269.737 96.6435 269.546C96.9465 269.354 97.3007 269.259 97.706 269.259C97.9522 269.259 98.1909 269.299 98.4219 269.381C98.653 269.462 98.8604 269.59 99.0441 269.764C99.2278 269.939 99.3727 270.165 99.4787 270.443C99.5848 270.72 99.6378 271.056 99.6378 271.452V271.753H96.1691V271.117H98.8054C98.8054 270.893 98.76 270.695 98.6691 270.523C98.5782 270.349 98.4503 270.211 98.2856 270.111C98.1227 270.011 97.9314 269.96 97.7117 269.96C97.4731 269.96 97.2647 270.019 97.0867 270.137C96.9106 270.252 96.7742 270.404 96.6776 270.591C96.5829 270.777 96.5356 270.978 96.5356 271.196V271.693C96.5356 271.985 96.5867 272.233 96.689 272.438C96.7931 272.642 96.938 272.799 97.1236 272.906C97.3092 273.013 97.5261 273.066 97.7742 273.066C97.9352 273.066 98.082 273.043 98.2145 272.997C98.3471 272.95 98.4617 272.88 98.5583 272.787C98.6549 272.694 98.7287 272.58 98.7799 272.443L99.5839 272.588C99.5195 272.825 99.4039 273.032 99.2373 273.21C99.0725 273.387 98.8651 273.524 98.6151 273.622C98.367 273.719 98.0839 273.767 97.7657 273.767Z" fill="white"/>
</g>
<g filter="url(#filter1_bd_1827_1012)">
<mask id="path-9-inside-1_1827_1012" fill="white">
<path d="M26 64.0566C26 61.8162 27.8162 60 30.0566 60H124.113C126.354 60 128.17 61.8162 128.17 64.0566V72C128.17 74.2404 126.354 76.0566 124.113 76.0566H30.0566C27.8162 76.0566 26 74.2404 26 72V64.0566Z"/>
</mask>
<path d="M26 64.0566C26 61.8162 27.8162 60 30.0566 60H124.113C126.354 60 128.17 61.8162 128.17 64.0566V72C128.17 74.2404 126.354 76.0566 124.113 76.0566H30.0566C27.8162 76.0566 26 74.2404 26 72V64.0566Z" fill="white" fill-opacity="0.15" shape-rendering="crispEdges"/>
<path d="M26 64.0566C26 61.5922 27.9978 59.5943 30.4623 59.5943H123.708C126.172 59.5943 128.17 61.5922 128.17 64.0566V64.0566C128.17 62.0402 126.354 60.4057 124.113 60.4057H30.0566C27.8162 60.4057 26 62.0402 26 64.0566V64.0566ZM128.17 72C128.17 74.4644 126.172 76.4623 123.708 76.4623H30.4623C27.9978 76.4623 26 74.4644 26 72V72C26 74.0164 27.8162 75.6509 30.0566 75.6509H124.113C126.354 75.6509 128.17 74.0164 128.17 72V72ZM26 76.0566V60V76.0566ZM128.17 60V76.0566V60Z" fill="url(#paint6_linear_1827_1012)" mask="url(#path-9-inside-1_1827_1012)"/>
<path d="M33.327 72.0283V64.7556H35.7844C36.3525 64.7556 36.8189 64.8527 37.1835 65.0468C37.5481 65.2385 37.818 65.5025 37.9932 65.8387C38.1684 66.1749 38.2559 66.5572 38.2559 66.9857C38.2559 67.4142 38.1684 67.7942 37.9932 68.1256C37.818 68.4571 37.5493 68.7175 37.1871 68.9069C36.8248 69.0939 36.362 69.1874 35.7986 69.1874H33.8099V68.392H35.7702C36.1584 68.392 36.4709 68.3351 36.7077 68.2215C36.9468 68.1079 37.1196 67.9469 37.2261 67.7385C37.335 67.5278 37.3895 67.2769 37.3895 66.9857C37.3895 66.6945 37.335 66.44 37.2261 66.2222C37.1172 66.0044 36.9432 65.8363 36.7041 65.718C36.465 65.5972 36.1489 65.5368 35.7559 65.5368H34.2077V72.0283H33.327ZM36.7503 68.7613L38.54 72.0283H37.5173L35.7559 68.7613H36.7503ZM41.8382 72.142C41.3126 72.142 40.8592 72.026 40.4781 71.7939C40.0993 71.5596 39.8069 71.2329 39.6009 70.8138C39.3973 70.3924 39.2955 69.9024 39.2955 69.3437C39.2955 68.7849 39.3973 68.2925 39.6009 67.8664C39.8069 67.4379 40.0934 67.1041 40.4603 66.865C40.8296 66.6235 41.2605 66.5028 41.7529 66.5028C42.037 66.5028 42.3176 66.5501 42.5945 66.6448C42.8715 66.7395 43.1237 66.8934 43.3509 67.1064C43.5782 67.3171 43.7593 67.5965 43.8943 67.9445C44.0292 68.2925 44.0967 68.721 44.0967 69.23V69.5851H39.8921V68.8607H43.2444C43.2444 68.5529 43.1829 68.2783 43.0597 68.0368C42.939 67.7954 42.7662 67.6048 42.5413 67.4651C42.3187 67.3254 42.056 67.2556 41.7529 67.2556C41.4191 67.2556 41.1303 67.3385 40.8865 67.5042C40.645 67.6675 40.4591 67.8806 40.3289 68.1434C40.1987 68.4062 40.1336 68.6879 40.1336 68.9885V69.4715C40.1336 69.8834 40.2046 70.2326 40.3467 70.5191C40.4911 70.8032 40.6911 71.0198 40.9468 71.1689C41.2025 71.3157 41.4996 71.3891 41.8382 71.3891C42.0583 71.3891 42.2572 71.3583 42.4347 71.2968C42.6147 71.2329 42.7697 71.1382 42.8999 71.0127C43.0302 70.8849 43.1308 70.7262 43.2018 70.5368L44.0115 70.7641C43.9262 71.0387 43.783 71.2802 43.5818 71.4885C43.3805 71.6945 43.132 71.8555 42.836 71.9715C42.5401 72.0851 42.2075 72.142 41.8382 72.142ZM46.9767 72.1562C46.631 72.1562 46.3173 72.0911 46.0356 71.9608C45.7539 71.8283 45.5302 71.6377 45.3644 71.3891C45.1987 71.1382 45.1159 70.8351 45.1159 70.48C45.1159 70.1675 45.1774 69.9142 45.3005 69.7201C45.4236 69.5236 45.5882 69.3697 45.7941 69.2584C46.0001 69.1472 46.2274 69.0643 46.4759 69.0099C46.7269 68.953 46.979 68.9081 47.2323 68.8749C47.5638 68.8323 47.8325 68.8003 48.0384 68.779C48.2468 68.7554 48.3983 68.7163 48.493 68.6618C48.5901 68.6074 48.6386 68.5127 48.6386 68.3778V68.3493C48.6386 67.999 48.5427 67.7267 48.3509 67.5326C48.1615 67.3385 47.8739 67.2414 47.488 67.2414C47.0879 67.2414 46.7742 67.329 46.547 67.5042C46.3197 67.6794 46.1599 67.8664 46.0676 68.0653L45.2721 67.7812C45.4142 67.4497 45.6035 67.1917 45.8403 67.007C46.0794 66.82 46.3398 66.6898 46.6215 66.6164C46.9056 66.5406 47.185 66.5028 47.4596 66.5028C47.6348 66.5028 47.836 66.5241 48.0633 66.5667C48.2929 66.6069 48.5143 66.691 48.7274 66.8188C48.9428 66.9466 49.1215 67.1396 49.2636 67.3976C49.4056 67.6557 49.4767 68.0013 49.4767 68.4346V72.0283H48.6386V71.2897H48.596C48.5392 71.4081 48.4445 71.5347 48.3119 71.6697C48.1793 71.8046 48.0029 71.9194 47.7828 72.0141C47.5626 72.1088 47.2939 72.1562 46.9767 72.1562ZM47.1045 71.4033C47.4359 71.4033 47.7153 71.3382 47.9426 71.208C48.1722 71.0778 48.345 70.9097 48.461 70.7037C48.5794 70.4978 48.6386 70.2812 48.6386 70.0539V69.2868C48.6031 69.3295 48.5249 69.3685 48.4042 69.404C48.2858 69.4372 48.1485 69.4668 47.9923 69.4928C47.8384 69.5165 47.6881 69.5378 47.5413 69.5567C47.3969 69.5733 47.2797 69.5875 47.1897 69.5993C46.9719 69.6278 46.7683 69.6739 46.5789 69.7378C46.3919 69.7994 46.2404 69.8929 46.1244 70.0184C46.0107 70.1415 45.9539 70.3096 45.9539 70.5226C45.9539 70.8138 46.0616 71.034 46.2771 71.1831C46.4949 71.3299 46.7707 71.4033 47.1045 71.4033ZM53.2222 72.142C52.7108 72.142 52.2705 72.0212 51.9012 71.7797C51.5319 71.5383 51.2478 71.2056 51.0489 70.7819C50.8501 70.3581 50.7506 69.874 50.7506 69.3295C50.7506 68.7755 50.8524 68.2866 51.056 67.8628C51.262 67.4367 51.5484 67.1041 51.9154 66.865C52.2847 66.6235 52.7156 66.5028 53.208 66.5028C53.5915 66.5028 53.9372 66.5738 54.2449 66.7158C54.5527 66.8579 54.8048 67.0567 55.0013 67.3124C55.1978 67.5681 55.3198 67.8664 55.3671 68.2073H54.529C54.4651 67.9587 54.3231 67.7385 54.1029 67.5468C53.8851 67.3527 53.5915 67.2556 53.2222 67.2556C52.8955 67.2556 52.609 67.3408 52.3628 67.5113C52.119 67.6794 51.9284 67.9173 51.7911 68.2251C51.6562 68.5305 51.5887 68.8891 51.5887 69.301C51.5887 69.7224 51.655 70.0894 51.7876 70.4019C51.9225 70.7144 52.1119 70.9571 52.3557 71.1299C52.6019 71.3027 52.8908 71.3891 53.2222 71.3891C53.44 71.3891 53.6377 71.3512 53.8153 71.2755C53.9928 71.1997 54.1431 71.0908 54.2662 70.9488C54.3894 70.8067 54.4769 70.6363 54.529 70.4374H55.3671C55.3198 70.7594 55.2026 71.0494 55.0155 71.3074C54.8309 71.5631 54.5858 71.7667 54.2805 71.9182C53.9774 72.0674 53.6247 72.142 53.2222 72.142ZM58.9644 66.5738V67.284H56.1377V66.5738H58.9644ZM56.9616 65.267H57.7996V70.4658C57.7996 70.7026 57.834 70.8801 57.9026 70.9985C57.9736 71.1145 58.0636 71.1926 58.1725 71.2329C58.2838 71.2707 58.401 71.2897 58.5241 71.2897C58.6164 71.2897 58.6921 71.2849 58.7513 71.2755C58.8105 71.2636 58.8579 71.2542 58.8934 71.2471L59.0638 71.9999C59.007 72.0212 58.9277 72.0425 58.8259 72.0638C58.7241 72.0875 58.5951 72.0993 58.4388 72.0993C58.2021 72.0993 57.9701 72.0484 57.7428 71.9466C57.5179 71.8448 57.3309 71.6898 57.1817 71.4814C57.0349 71.2731 56.9616 71.0103 56.9616 70.6931V65.267ZM63.1228 64.7556H64.0035V69.9545C64.0035 70.4185 63.9182 70.8126 63.7478 71.137C63.5773 71.4613 63.337 71.7075 63.0269 71.8756C62.7168 72.0437 62.351 72.1278 61.9296 72.1278C61.5319 72.1278 61.1779 72.0555 60.8678 71.9111C60.5577 71.7644 60.3138 71.556 60.1363 71.2861C59.9587 71.0162 59.8699 70.6955 59.8699 70.3238H60.7364C60.7364 70.5297 60.7873 70.7097 60.8891 70.8635C60.9933 71.0151 61.1353 71.1334 61.3153 71.2187C61.4952 71.3039 61.7 71.3465 61.9296 71.3465C62.1829 71.3465 62.3983 71.2932 62.5759 71.1867C62.7535 71.0802 62.8884 70.9239 62.9807 70.718C63.0754 70.5096 63.1228 70.2551 63.1228 69.9545V64.7556ZM69.7456 66.5738C69.703 66.2139 69.5302 65.9346 69.2272 65.7357C68.9242 65.5368 68.5525 65.4374 68.1121 65.4374C67.7902 65.4374 67.5084 65.4895 67.267 65.5937C67.0278 65.6978 66.8408 65.8411 66.7059 66.0233C66.5733 66.2056 66.507 66.4128 66.507 66.6448C66.507 66.8389 66.5532 67.0058 66.6455 67.1455C66.7402 67.2828 66.8609 67.3976 67.0077 67.49C67.1545 67.5799 67.3084 67.6545 67.4694 67.7137C67.6304 67.7705 67.7783 67.8167 67.9133 67.8522L68.6519 68.051C68.8413 68.1008 69.052 68.1694 69.284 68.257C69.5184 68.3446 69.7421 68.4642 69.9552 68.6157C70.1706 68.7648 70.3482 68.9566 70.4878 69.191C70.6275 69.4253 70.6974 69.713 70.6974 70.0539C70.6974 70.4469 70.5944 70.802 70.3884 71.1192C70.1848 71.4365 69.8865 71.6886 69.4935 71.8756C69.1029 72.0626 68.6282 72.1562 68.0695 72.1562C67.5487 72.1562 67.0977 72.0721 66.7165 71.904C66.3377 71.7359 66.0394 71.5016 65.8216 71.2009C65.6062 70.9002 65.4843 70.551 65.4559 70.1533H66.365C66.3886 70.4279 66.481 70.6552 66.642 70.8351C66.8053 71.0127 67.0113 71.1453 67.2599 71.2329C67.5108 71.3181 67.7807 71.3607 68.0695 71.3607C68.4057 71.3607 68.7075 71.3063 68.9751 71.1974C69.2426 71.0861 69.4545 70.9322 69.6107 70.7357C69.767 70.5368 69.8451 70.3048 69.8451 70.0397C69.8451 69.7982 69.7776 69.6017 69.6427 69.4502C69.5077 69.2987 69.3302 69.1756 69.11 69.0809C68.8898 68.9862 68.6519 68.9033 68.3962 68.8323L67.5013 68.5766C66.9331 68.4133 66.4833 68.1801 66.1519 67.877C65.8205 67.574 65.6547 67.1775 65.6547 66.6874C65.6547 66.2802 65.7648 65.9251 65.985 65.6221C66.2075 65.3167 66.5058 65.0799 66.8799 64.9118C67.2563 64.7414 67.6765 64.6562 68.1405 64.6562C68.6093 64.6562 69.026 64.7402 69.3905 64.9083C69.7551 65.074 70.0439 65.3013 70.257 65.5901C70.4724 65.8789 70.5861 66.2068 70.5979 66.5738H69.7456ZM77.2021 72.0283H74.9578V64.7556H77.3016C78.0071 64.7556 78.6108 64.9012 79.1127 65.1924C79.6146 65.4812 79.9993 65.8967 80.2668 66.4388C80.5343 66.9786 80.6681 67.6249 80.6681 68.3778C80.6681 69.1353 80.5331 69.7876 80.2632 70.3344C79.9933 70.8789 79.6003 71.298 79.0843 71.5915C78.5682 71.8827 77.9408 72.0283 77.2021 72.0283ZM75.8385 71.2471H77.1453C77.7467 71.2471 78.245 71.1311 78.6404 70.8991C79.0357 70.6671 79.3305 70.3368 79.5246 69.9083C79.7187 69.4798 79.8158 68.9696 79.8158 68.3778C79.8158 67.7906 79.7199 67.2852 79.5281 66.8614C79.3364 66.4353 79.0499 66.1086 78.6688 65.8813C78.2876 65.6517 77.8129 65.5368 77.2448 65.5368H75.8385V71.2471ZM84.3186 72.142C83.7931 72.142 83.3397 72.026 82.9585 71.7939C82.5798 71.5596 82.2874 71.2329 82.0814 70.8138C81.8778 70.3924 81.776 69.9024 81.776 69.3437C81.776 68.7849 81.8778 68.2925 82.0814 67.8664C82.2874 67.4379 82.5738 67.1041 82.9408 66.865C83.3101 66.6235 83.741 66.5028 84.2334 66.5028C84.5175 66.5028 84.798 66.5501 85.075 66.6448C85.352 66.7395 85.6041 66.8934 85.8314 67.1064C86.0587 67.3171 86.2398 67.5965 86.3747 67.9445C86.5097 68.2925 86.5771 68.721 86.5771 69.23V69.5851H82.3726V68.8607H85.7249C85.7249 68.5529 85.6633 68.2783 85.5402 68.0368C85.4195 67.7954 85.2467 67.6048 85.0218 67.4651C84.7992 67.3254 84.5364 67.2556 84.2334 67.2556C83.8996 67.2556 83.6108 67.3385 83.3669 67.5042C83.1254 67.6675 82.9396 67.8806 82.8094 68.1434C82.6792 68.4062 82.6141 68.6879 82.6141 68.9885V69.4715C82.6141 69.8834 82.6851 70.2326 82.8271 70.5191C82.9716 70.8032 83.1716 71.0198 83.4273 71.1689C83.683 71.3157 83.9801 71.3891 84.3186 71.3891C84.5388 71.3891 84.7377 71.3583 84.9152 71.2968C85.0951 71.2329 85.2502 71.1382 85.3804 71.0127C85.5106 70.8849 85.6112 70.7262 85.6823 70.5368L86.4919 70.7641C86.4067 71.0387 86.2635 71.2802 86.0622 71.4885C85.861 71.6945 85.6124 71.8555 85.3165 71.9715C85.0206 72.0851 84.6879 72.142 84.3186 72.142ZM92.1462 66.5738L90.1292 72.0283H89.2769L87.2599 66.5738H88.1689L89.6746 70.9204H89.7314L91.2371 66.5738H92.1462ZM95.344 72.142C94.8184 72.142 94.3651 72.026 93.9839 71.7939C93.6051 71.5596 93.3128 71.2329 93.1068 70.8138C92.9032 70.3924 92.8014 69.9024 92.8014 69.3437C92.8014 68.7849 92.9032 68.2925 93.1068 67.8664C93.3128 67.4379 93.5992 67.1041 93.9662 66.865C94.3355 66.6235 94.7664 66.5028 95.2588 66.5028C95.5429 66.5028 95.8234 66.5501 96.1004 66.6448C96.3774 66.7395 96.6295 66.8934 96.8568 67.1064C97.0841 67.3171 97.2652 67.5965 97.4001 67.9445C97.5351 68.2925 97.6025 68.721 97.6025 69.23V69.5851H93.398V68.8607H96.7503C96.7503 68.5529 96.6887 68.2783 96.5656 68.0368C96.4449 67.7954 96.272 67.6048 96.0471 67.4651C95.8246 67.3254 95.5618 67.2556 95.2588 67.2556C94.925 67.2556 94.6362 67.3385 94.3923 67.5042C94.1508 67.6675 93.965 67.8806 93.8348 68.1434C93.7046 68.4062 93.6395 68.6879 93.6395 68.9885V69.4715C93.6395 69.8834 93.7105 70.2326 93.8525 70.5191C93.997 70.8032 94.197 71.0198 94.4527 71.1689C94.7084 71.3157 95.0055 71.3891 95.344 71.3891C95.5642 71.3891 95.7631 71.3583 95.9406 71.2968C96.1205 71.2329 96.2756 71.1382 96.4058 71.0127C96.536 70.8849 96.6366 70.7262 96.7077 70.5368L97.5173 70.7641C97.4321 71.0387 97.2889 71.2802 97.0876 71.4885C96.8864 71.6945 96.6378 71.8555 96.3419 71.9715C96.046 72.0851 95.7133 72.142 95.344 72.142ZM99.7155 64.7556V72.0283H98.8774V64.7556H99.7155ZM103.466 72.142C102.974 72.142 102.542 72.0248 102.17 71.7904C101.801 71.556 101.512 71.2281 101.304 70.8067C101.098 70.3853 100.995 69.8929 100.995 69.3295C100.995 68.7613 101.098 68.2653 101.304 67.8415C101.512 67.4178 101.801 67.0887 102.17 66.8543C102.542 66.6199 102.974 66.5028 103.466 66.5028C103.959 66.5028 104.39 66.6199 104.759 66.8543C105.131 67.0887 105.419 67.4178 105.625 67.8415C105.834 68.2653 105.938 68.7613 105.938 69.3295C105.938 69.8929 105.834 70.3853 105.625 70.8067C105.419 71.2281 105.131 71.556 104.759 71.7904C104.39 72.0248 103.959 72.142 103.466 72.142ZM103.466 71.3891C103.84 71.3891 104.148 71.2932 104.39 71.1015C104.631 70.9097 104.81 70.6576 104.926 70.3451C105.042 70.0326 105.1 69.694 105.1 69.3295C105.1 68.9649 105.042 68.6251 104.926 68.3103C104.81 67.9954 104.631 67.7409 104.39 67.5468C104.148 67.3527 103.84 67.2556 103.466 67.2556C103.092 67.2556 102.785 67.3527 102.543 67.5468C102.302 67.7409 102.123 67.9954 102.007 68.3103C101.891 68.6251 101.833 68.9649 101.833 69.3295C101.833 69.694 101.891 70.0326 102.007 70.3451C102.123 70.6576 102.302 70.9097 102.543 71.1015C102.785 71.2932 103.092 71.3891 103.466 71.3891ZM107.217 74.0738V66.5738H108.027V67.4403H108.126C108.188 67.3456 108.273 67.2248 108.382 67.078C108.493 66.9289 108.652 66.7963 108.858 66.6803C109.066 66.5619 109.348 66.5028 109.703 66.5028C110.162 66.5028 110.567 66.6176 110.918 66.8472C111.268 67.0769 111.541 67.4024 111.738 67.8238C111.934 68.2452 112.033 68.7423 112.033 69.3153C112.033 69.8929 111.934 70.3936 111.738 70.8174C111.541 71.2388 111.269 71.5655 110.921 71.7975C110.573 72.0271 110.172 72.142 109.717 72.142C109.367 72.142 109.086 72.084 108.876 71.968C108.665 71.8496 108.503 71.7158 108.389 71.5667C108.275 71.4152 108.188 71.2897 108.126 71.1903H108.055V74.0738H107.217ZM108.041 69.301C108.041 69.713 108.101 70.0764 108.222 70.3912C108.343 70.7037 108.519 70.9488 108.751 71.1263C108.983 71.3015 109.267 71.3891 109.604 71.3891C109.954 71.3891 110.246 71.2968 110.481 71.1121C110.717 70.9251 110.895 70.6742 111.013 70.3593C111.134 70.0421 111.195 69.6893 111.195 69.301C111.195 68.9175 111.135 68.5719 111.017 68.2641C110.901 67.954 110.725 67.709 110.488 67.529C110.253 67.3467 109.959 67.2556 109.604 67.2556C109.263 67.2556 108.976 67.342 108.744 67.5148C108.512 67.6853 108.337 67.9244 108.219 68.2322C108.1 68.5376 108.041 68.8939 108.041 69.301ZM115.598 72.142C115.072 72.142 114.619 72.026 114.238 71.7939C113.859 71.5596 113.567 71.2329 113.361 70.8138C113.157 70.3924 113.055 69.9024 113.055 69.3437C113.055 68.7849 113.157 68.2925 113.361 67.8664C113.567 67.4379 113.853 67.1041 114.22 66.865C114.589 66.6235 115.02 66.5028 115.513 66.5028C115.797 66.5028 116.077 66.5501 116.354 66.6448C116.631 66.7395 116.883 66.8934 117.111 67.1064C117.338 67.3171 117.519 67.5965 117.654 67.9445C117.789 68.2925 117.856 68.721 117.856 69.23V69.5851H113.652V68.8607H117.004C117.004 68.5529 116.943 68.2783 116.82 68.0368C116.699 67.7954 116.526 67.6048 116.301 67.4651C116.079 67.3254 115.816 67.2556 115.513 67.2556C115.179 67.2556 114.89 67.3385 114.646 67.5042C114.405 67.6675 114.219 67.8806 114.089 68.1434C113.958 68.4062 113.893 68.6879 113.893 68.9885V69.4715C113.893 69.8834 113.964 70.2326 114.106 70.5191C114.251 70.8032 114.451 71.0198 114.707 71.1689C114.962 71.3157 115.259 71.3891 115.598 71.3891C115.818 71.3891 116.017 71.3583 116.195 71.2968C116.374 71.2329 116.53 71.1382 116.66 71.0127C116.79 70.8849 116.891 70.7262 116.962 70.5368L117.771 70.7641C117.686 71.0387 117.543 71.2802 117.342 71.4885C117.14 71.6945 116.892 71.8555 116.596 71.9715C116.3 72.0851 115.967 72.142 115.598 72.142ZM119.131 72.0283V66.5738H119.941V67.3976H119.998C120.097 67.1278 120.277 66.9088 120.538 66.7407C120.798 66.5726 121.092 66.4885 121.418 66.4885C121.48 66.4885 121.557 66.4897 121.649 66.4921C121.741 66.4945 121.811 66.498 121.859 66.5028V67.355C121.83 67.3479 121.765 67.3373 121.663 67.3231C121.564 67.3065 121.458 67.2982 121.347 67.2982C121.082 67.2982 120.845 67.3538 120.637 67.4651C120.431 67.574 120.268 67.7255 120.147 67.9197C120.029 68.1114 119.969 68.3304 119.969 68.5766V72.0283H119.131Z" fill="white"/>
</g>
<path d="M42.6619 97.6329H39.4744C39.3835 97.1102 39.2159 96.6471 38.9716 96.2437C38.7273 95.8346 38.4233 95.488 38.0597 95.2039C37.696 94.9198 37.2813 94.7068 36.8153 94.5647C36.3551 94.417 35.858 94.3431 35.3239 94.3431C34.375 94.3431 33.5341 94.5818 32.8011 95.059C32.0682 95.5306 31.4943 96.2238 31.0795 97.1386C30.6648 98.0477 30.4574 99.1585 30.4574 100.471C30.4574 101.806 30.6648 102.931 31.0795 103.846C31.5 104.755 32.0739 105.443 32.8011 105.908C33.5341 106.369 34.3722 106.599 35.3153 106.599C35.8381 106.599 36.3267 106.531 36.7812 106.394C37.2415 106.252 37.6534 106.045 38.017 105.772C38.3864 105.499 38.696 105.164 38.946 104.766C39.2017 104.369 39.3778 103.914 39.4744 103.403L42.6619 103.42C42.5426 104.249 42.2841 105.028 41.8864 105.755C41.4943 106.482 40.9801 107.124 40.3438 107.681C39.7074 108.232 38.9631 108.664 38.1108 108.977C37.2585 109.283 36.3125 109.437 35.2727 109.437C33.7386 109.437 32.3693 109.082 31.1648 108.372C29.9602 107.661 29.0114 106.636 28.3182 105.295C27.625 103.954 27.2784 102.346 27.2784 100.471C27.2784 98.5903 27.6278 96.9823 28.3267 95.6471C29.0256 94.3062 29.9773 93.2806 31.1818 92.5704C32.3864 91.8602 33.75 91.5051 35.2727 91.5051C36.2443 91.5051 37.1477 91.6414 37.983 91.9142C38.8182 92.1869 39.5625 92.5874 40.2159 93.1159C40.8693 93.6386 41.4063 94.2806 41.8267 95.042C42.2528 95.7977 42.5313 96.6613 42.6619 97.6329ZM51.1314 109.454C49.853 109.454 48.745 109.173 47.8075 108.61C46.87 108.048 46.1428 107.261 45.6257 106.249C45.1143 105.238 44.8587 104.056 44.8587 102.704C44.8587 101.352 45.1143 100.167 45.6257 99.1499C46.1428 98.1329 46.87 97.3431 47.8075 96.7806C48.745 96.2181 49.853 95.9369 51.1314 95.9369C52.4098 95.9369 53.5178 96.2181 54.4553 96.7806C55.3928 97.3431 56.1172 98.1329 56.6286 99.1499C57.1456 100.167 57.4041 101.352 57.4041 102.704C57.4041 104.056 57.1456 105.238 56.6286 106.249C56.1172 107.261 55.3928 108.048 54.4553 108.61C53.5178 109.173 52.4098 109.454 51.1314 109.454ZM51.1484 106.982C51.8416 106.982 52.4212 106.792 52.8871 106.411C53.353 106.025 53.6996 105.508 53.9268 104.86C54.1598 104.212 54.2763 103.491 54.2763 102.695C54.2763 101.894 54.1598 101.17 53.9268 100.522C53.6996 99.8687 53.353 99.3488 52.8871 98.9624C52.4212 98.5761 51.8416 98.3829 51.1484 98.3829C50.4382 98.3829 49.8473 98.5761 49.3757 98.9624C48.9098 99.3488 48.5604 99.8687 48.3274 100.522C48.1001 101.17 47.9865 101.894 47.9865 102.695C47.9865 103.491 48.1001 104.212 48.3274 104.86C48.5604 105.508 48.9098 106.025 49.3757 106.411C49.8473 106.792 50.4382 106.982 51.1484 106.982ZM64.8807 109.428C63.8523 109.428 62.9318 109.164 62.1193 108.636C61.3068 108.107 60.6648 107.34 60.1932 106.335C59.7216 105.329 59.4858 104.107 59.4858 102.67C59.4858 101.215 59.7244 99.988 60.2017 98.988C60.6847 97.9823 61.3352 97.2238 62.1534 96.7124C62.9716 96.1954 63.8835 95.9369 64.8892 95.9369C65.6563 95.9369 66.2869 96.0676 66.7812 96.3289C67.2756 96.5846 67.6676 96.8943 67.9574 97.2579C68.2472 97.6159 68.4716 97.9539 68.6307 98.2721H68.7585V91.7437H71.8523V109.198H68.8182V107.136H68.6307C68.4716 107.454 68.2415 107.792 67.9403 108.15C67.6392 108.502 67.2415 108.803 66.7472 109.053C66.2528 109.303 65.6307 109.428 64.8807 109.428ZM65.7415 106.897C66.3949 106.897 66.9517 106.721 67.4119 106.369C67.8722 106.011 68.2216 105.514 68.4602 104.877C68.6989 104.241 68.8182 103.499 68.8182 102.653C68.8182 101.806 68.6989 101.07 68.4602 100.445C68.2273 99.8204 67.8807 99.3346 67.4205 98.988C66.9659 98.6414 66.4063 98.4681 65.7415 98.4681C65.054 98.4681 64.4801 98.6471 64.0199 99.0051C63.5597 99.363 63.2131 99.8573 62.9801 100.488C62.7472 101.119 62.6307 101.84 62.6307 102.653C62.6307 103.471 62.7472 104.201 62.9801 104.843C63.2188 105.479 63.5682 105.982 64.0284 106.352C64.4943 106.715 65.0653 106.897 65.7415 106.897ZM80.9354 109.454C79.6229 109.454 78.4893 109.181 77.5348 108.636C76.5859 108.085 75.8558 107.306 75.3445 106.301C74.8331 105.289 74.5774 104.099 74.5774 102.729C74.5774 101.383 74.8331 100.201 75.3445 99.184C75.8615 98.1613 76.5831 97.3659 77.5092 96.7977C78.4354 96.2238 79.5234 95.9369 80.7734 95.9369C81.5803 95.9369 82.3416 96.0676 83.0575 96.3289C83.7791 96.5846 84.4155 96.9823 84.9666 97.5221C85.5234 98.0619 85.9609 98.7494 86.2791 99.5846C86.5973 100.414 86.7564 101.403 86.7564 102.551V103.497H76.0263V101.417H83.799C83.7933 100.826 83.6655 100.301 83.4155 99.8403C83.1655 99.3744 82.8161 99.0079 82.3672 98.7409C81.924 98.4738 81.407 98.3403 80.8161 98.3403C80.1854 98.3403 79.6314 98.4937 79.1541 98.8005C78.6768 99.1017 78.3047 99.4994 78.0376 99.9937C77.7763 100.482 77.6428 101.019 77.6371 101.604V103.42C77.6371 104.181 77.7763 104.835 78.0547 105.38C78.3331 105.92 78.7223 106.335 79.2223 106.624C79.7223 106.908 80.3075 107.051 80.978 107.051C81.4268 107.051 81.8331 106.988 82.1967 106.863C82.5604 106.732 82.8757 106.542 83.1428 106.292C83.4098 106.042 83.6115 105.732 83.7479 105.363L86.6286 105.687C86.4467 106.448 86.1001 107.113 85.5888 107.681C85.0831 108.244 84.4354 108.681 83.6456 108.994C82.8558 109.301 81.9524 109.454 80.9354 109.454ZM97.2372 114.107C96.8168 114.107 96.4276 114.073 96.0696 114.005C95.7173 113.943 95.4361 113.869 95.2259 113.783L95.9418 111.38C96.3906 111.511 96.7912 111.573 97.1435 111.568C97.4957 111.562 97.8054 111.451 98.0724 111.235C98.3452 111.025 98.5753 110.673 98.7628 110.178L99.027 109.471L94.2798 96.1073H97.5526L100.57 105.994H100.706L103.732 96.1073H107.013L101.771 110.783C101.527 111.477 101.203 112.07 100.8 112.565C100.396 113.065 99.902 113.445 99.3168 113.707C98.7372 113.974 98.044 114.107 97.2372 114.107ZM114.413 109.454C113.134 109.454 112.026 109.173 111.089 108.61C110.151 108.048 109.424 107.261 108.907 106.249C108.396 105.238 108.14 104.056 108.14 102.704C108.14 101.352 108.396 100.167 108.907 99.1499C109.424 98.1329 110.151 97.3431 111.089 96.7806C112.026 96.2181 113.134 95.9369 114.413 95.9369C115.691 95.9369 116.799 96.2181 117.737 96.7806C118.674 97.3431 119.398 98.1329 119.91 99.1499C120.427 100.167 120.685 101.352 120.685 102.704C120.685 104.056 120.427 105.238 119.91 106.249C119.398 107.261 118.674 108.048 117.737 108.61C116.799 109.173 115.691 109.454 114.413 109.454ZM114.43 106.982C115.123 106.982 115.702 106.792 116.168 106.411C116.634 106.025 116.981 105.508 117.208 104.86C117.441 104.212 117.558 103.491 117.558 102.695C117.558 101.894 117.441 101.17 117.208 100.522C116.981 99.8687 116.634 99.3488 116.168 98.9624C115.702 98.5761 115.123 98.3829 114.43 98.3829C113.719 98.3829 113.129 98.5761 112.657 98.9624C112.191 99.3488 111.842 99.8687 111.609 100.522C111.381 101.17 111.268 101.894 111.268 102.695C111.268 103.491 111.381 104.212 111.609 104.86C111.842 105.508 112.191 106.025 112.657 106.411C113.129 106.792 113.719 106.982 114.43 106.982ZM131.648 103.693V96.1073H134.733V109.198H131.741V106.872H131.605C131.31 107.604 130.824 108.204 130.148 108.67C129.477 109.136 128.651 109.369 127.668 109.369C126.81 109.369 126.051 109.178 125.392 108.798C124.739 108.411 124.227 107.852 123.858 107.119C123.489 106.38 123.304 105.488 123.304 104.443V96.1073H126.389V103.965C126.389 104.795 126.616 105.454 127.071 105.943C127.526 106.431 128.122 106.676 128.861 106.676C129.315 106.676 129.756 106.565 130.182 106.343C130.608 106.122 130.957 105.792 131.23 105.354C131.509 104.911 131.648 104.357 131.648 103.693ZM137.906 109.198V96.1073H140.897V98.2892H141.033C141.272 97.5335 141.681 96.9511 142.261 96.542C142.846 96.1272 143.513 95.9198 144.263 95.9198C144.434 95.9198 144.624 95.9284 144.835 95.9454C145.05 95.9568 145.229 95.9767 145.371 96.0051V98.8431C145.241 98.7977 145.033 98.7579 144.749 98.7238C144.471 98.684 144.201 98.6642 143.94 98.6642C143.377 98.6642 142.871 98.7863 142.423 99.0306C141.979 99.2693 141.63 99.6017 141.374 100.028C141.119 100.454 140.991 100.945 140.991 101.502V109.198H137.906ZM158.232 109.428C157.204 109.428 156.283 109.164 155.471 108.636C154.658 108.107 154.016 107.34 153.545 106.335C153.073 105.329 152.837 104.107 152.837 102.67C152.837 101.215 153.076 99.988 153.553 98.988C154.036 97.9823 154.687 97.2238 155.505 96.7124C156.323 96.1954 157.235 95.9369 158.241 95.9369C159.008 95.9369 159.638 96.0676 160.133 96.3289C160.627 96.5846 161.019 96.8943 161.309 97.2579C161.599 97.6159 161.823 97.9539 161.982 98.2721H162.11V91.7437H165.204V109.198H162.17V107.136H161.982C161.823 107.454 161.593 107.792 161.292 108.15C160.991 108.502 160.593 108.803 160.099 109.053C159.604 109.303 158.982 109.428 158.232 109.428ZM159.093 106.897C159.746 106.897 160.303 106.721 160.763 106.369C161.224 106.011 161.573 105.514 161.812 104.877C162.05 104.241 162.17 103.499 162.17 102.653C162.17 101.806 162.05 101.07 161.812 100.445C161.579 99.8204 161.232 99.3346 160.772 98.988C160.317 98.6414 159.758 98.4681 159.093 98.4681C158.406 98.4681 157.832 98.6471 157.371 99.0051C156.911 99.363 156.565 99.8573 156.332 100.488C156.099 101.119 155.982 101.84 155.982 102.653C155.982 103.471 156.099 104.201 156.332 104.843C156.57 105.479 156.92 105.982 157.38 106.352C157.846 106.715 158.417 106.897 159.093 106.897ZM168.491 109.198V96.1073H171.483V98.2892H171.619C171.858 97.5335 172.267 96.9511 172.847 96.542C173.432 96.1272 174.099 95.9198 174.849 95.9198C175.02 95.9198 175.21 95.9284 175.42 95.9454C175.636 95.9568 175.815 95.9767 175.957 96.0051V98.8431C175.827 98.7977 175.619 98.7579 175.335 98.7238C175.057 98.684 174.787 98.6642 174.526 98.6642C173.963 98.6642 173.457 98.7863 173.009 99.0306C172.565 99.2693 172.216 99.6017 171.96 100.028C171.705 100.454 171.577 100.945 171.577 101.502V109.198H168.491ZM183.263 109.454C181.951 109.454 180.817 109.181 179.863 108.636C178.914 108.085 178.184 107.306 177.673 106.301C177.161 105.289 176.906 104.099 176.906 102.729C176.906 101.383 177.161 100.201 177.673 99.184C178.19 98.1613 178.911 97.3659 179.837 96.7977C180.763 96.2238 181.852 95.9369 183.102 95.9369C183.908 95.9369 184.67 96.0676 185.386 96.3289C186.107 96.5846 186.744 96.9823 187.295 97.5221C187.852 98.0619 188.289 98.7494 188.607 99.5846C188.925 100.414 189.085 101.403 189.085 102.551V103.497H178.354V101.417H186.127C186.121 100.826 185.994 100.301 185.744 99.8403C185.494 99.3744 185.144 99.0079 184.695 98.7409C184.252 98.4738 183.735 98.3403 183.144 98.3403C182.513 98.3403 181.96 98.4937 181.482 98.8005C181.005 99.1017 180.633 99.4994 180.366 99.9937C180.104 100.482 179.971 101.019 179.965 101.604V103.42C179.965 104.181 180.104 104.835 180.383 105.38C180.661 105.92 181.05 106.335 181.55 106.624C182.05 106.908 182.636 107.051 183.306 107.051C183.755 107.051 184.161 106.988 184.525 106.863C184.888 106.732 185.204 106.542 185.471 106.292C185.738 106.042 185.94 105.732 186.076 105.363L188.957 105.687C188.775 106.448 188.428 107.113 187.917 107.681C187.411 108.244 186.763 108.681 185.974 108.994C185.184 109.301 184.281 109.454 183.263 109.454ZM195.462 109.462C194.632 109.462 193.885 109.315 193.22 109.019C192.561 108.718 192.038 108.275 191.652 107.69C191.271 107.104 191.081 106.383 191.081 105.525C191.081 104.786 191.217 104.176 191.49 103.693C191.763 103.21 192.135 102.823 192.607 102.533C193.078 102.244 193.609 102.025 194.2 101.877C194.797 101.724 195.413 101.613 196.05 101.545C196.817 101.465 197.439 101.394 197.916 101.332C198.393 101.264 198.74 101.161 198.956 101.025C199.178 100.883 199.288 100.664 199.288 100.369V100.318C199.288 99.6755 199.098 99.1784 198.717 98.8261C198.337 98.4738 197.788 98.2977 197.072 98.2977C196.317 98.2977 195.717 98.4624 195.274 98.792C194.837 99.1215 194.541 99.5107 194.388 99.9596L191.507 99.5505C191.734 98.7551 192.109 98.0903 192.632 97.5562C193.155 97.0164 193.794 96.613 194.55 96.346C195.305 96.0732 196.141 95.9369 197.055 95.9369C197.686 95.9369 198.314 96.0107 198.939 96.1585C199.564 96.3062 200.135 96.5505 200.652 96.8914C201.169 97.2267 201.584 97.684 201.896 98.2636C202.214 98.8431 202.374 99.5676 202.374 100.437V109.198H199.408V107.4H199.305C199.118 107.764 198.854 108.104 198.513 108.423C198.178 108.735 197.754 108.988 197.243 109.181C196.737 109.369 196.143 109.462 195.462 109.462ZM196.263 107.195C196.882 107.195 197.419 107.073 197.874 106.829C198.328 106.579 198.678 106.249 198.922 105.84C199.172 105.431 199.297 104.985 199.297 104.502V102.96C199.2 103.039 199.036 103.113 198.803 103.181C198.575 103.249 198.32 103.309 198.036 103.36C197.751 103.411 197.47 103.457 197.192 103.497C196.913 103.536 196.672 103.57 196.467 103.599C196.007 103.661 195.595 103.764 195.232 103.906C194.868 104.048 194.581 104.247 194.371 104.502C194.161 104.752 194.055 105.076 194.055 105.474C194.055 106.042 194.263 106.471 194.678 106.761C195.092 107.051 195.621 107.195 196.263 107.195ZM205.476 109.198V96.1073H208.425V98.3318H208.578C208.851 97.5818 209.303 96.9965 209.933 96.5761C210.564 96.1499 211.317 95.9369 212.192 95.9369C213.078 95.9369 213.825 96.1528 214.433 96.5846C215.047 97.0107 215.479 97.5931 215.729 98.3318H215.865C216.155 97.6045 216.643 97.0249 217.331 96.5931C218.024 96.1556 218.845 95.9369 219.794 95.9369C220.999 95.9369 221.982 96.3176 222.743 97.0789C223.504 97.8403 223.885 98.9511 223.885 100.411V109.198H220.791V100.889C220.791 100.076 220.575 99.4823 220.143 99.1073C219.712 98.7267 219.183 98.5363 218.558 98.5363C217.814 98.5363 217.232 98.7693 216.811 99.2352C216.396 99.6954 216.189 100.295 216.189 101.033V109.198H213.163V100.761C213.163 100.085 212.959 99.5448 212.55 99.1414C212.146 98.738 211.618 98.5363 210.964 98.5363C210.521 98.5363 210.118 98.6499 209.754 98.8772C209.391 99.0988 209.101 99.4142 208.885 99.8232C208.669 100.227 208.561 100.698 208.561 101.238V109.198H205.476ZM232.968 96.1073H236.053V109.948C236.053 110.891 235.874 111.67 235.516 112.283C235.158 112.897 234.641 113.354 233.965 113.656C233.289 113.957 232.468 114.107 231.502 114.107C231.388 114.107 231.283 114.104 231.187 114.099C231.09 114.099 230.985 114.096 230.871 114.09V111.576C230.957 111.582 231.033 111.585 231.102 111.585C231.17 111.59 231.241 111.593 231.315 111.593C231.906 111.593 232.329 111.448 232.585 111.158C232.84 110.874 232.968 110.457 232.968 109.906V96.1073ZM234.502 94.2494C234.008 94.2494 233.585 94.0874 233.232 93.7636C232.886 93.434 232.712 93.0392 232.712 92.5789C232.712 92.113 232.886 91.7181 233.232 91.3943C233.585 91.0647 234.008 90.8999 234.502 90.8999C234.991 90.8999 235.408 91.0647 235.755 91.3943C236.107 91.7181 236.283 92.113 236.283 92.5789C236.283 93.0392 236.107 93.434 235.755 93.7636C235.408 94.0874 234.991 94.2494 234.502 94.2494ZM244.936 109.454C243.658 109.454 242.55 109.173 241.612 108.61C240.675 108.048 239.947 107.261 239.43 106.249C238.919 105.238 238.663 104.056 238.663 102.704C238.663 101.352 238.919 100.167 239.43 99.1499C239.947 98.1329 240.675 97.3431 241.612 96.7806C242.55 96.2181 243.658 95.9369 244.936 95.9369C246.214 95.9369 247.322 96.2181 248.26 96.7806C249.197 97.3431 249.922 98.1329 250.433 99.1499C250.95 100.167 251.209 101.352 251.209 102.704C251.209 104.056 250.95 105.238 250.433 106.249C249.922 107.261 249.197 108.048 248.26 108.61C247.322 109.173 246.214 109.454 244.936 109.454ZM244.953 106.982C245.646 106.982 246.226 106.792 246.692 106.411C247.158 106.025 247.504 105.508 247.732 104.86C247.964 104.212 248.081 103.491 248.081 102.695C248.081 101.894 247.964 101.17 247.732 100.522C247.504 99.8687 247.158 99.3488 246.692 98.9624C246.226 98.5761 245.646 98.3829 244.953 98.3829C244.243 98.3829 243.652 98.5761 243.18 98.9624C242.714 99.3488 242.365 99.8687 242.132 100.522C241.905 101.17 241.791 101.894 241.791 102.695C241.791 103.491 241.905 104.212 242.132 104.86C242.365 105.508 242.714 106.025 243.18 106.411C243.652 106.792 244.243 106.982 244.953 106.982ZM253.964 109.198V91.7437H257.049V98.2721H257.177C257.336 97.9539 257.56 97.6159 257.85 97.2579C258.14 96.8943 258.532 96.5846 259.026 96.3289C259.521 96.0676 260.151 95.9369 260.918 95.9369C261.93 95.9369 262.842 96.1954 263.654 96.7124C264.472 97.2238 265.12 97.9823 265.597 98.988C266.08 99.988 266.322 101.215 266.322 102.67C266.322 104.107 266.086 105.329 265.614 106.335C265.143 107.34 264.501 108.107 263.688 108.636C262.876 109.164 261.955 109.428 260.927 109.428C260.177 109.428 259.555 109.303 259.06 109.053C258.566 108.803 258.168 108.502 257.867 108.15C257.572 107.792 257.342 107.454 257.177 107.136H256.998V109.198H253.964ZM256.989 102.653C256.989 103.499 257.109 104.241 257.347 104.877C257.592 105.514 257.941 106.011 258.396 106.369C258.856 106.721 259.413 106.897 260.066 106.897C260.748 106.897 261.319 106.715 261.779 106.352C262.239 105.982 262.586 105.479 262.819 104.843C263.058 104.201 263.177 103.471 263.177 102.653C263.177 101.84 263.06 101.119 262.827 100.488C262.594 99.8573 262.248 99.363 261.788 99.0051C261.327 98.6471 260.754 98.4681 260.066 98.4681C259.407 98.4681 258.847 98.6414 258.387 98.988C257.927 99.3346 257.577 99.8204 257.339 100.445C257.106 101.07 256.989 101.806 256.989 102.653ZM274.898 109.198V96.1073H277.983V109.198H274.898ZM276.449 94.2494C275.96 94.2494 275.54 94.0874 275.188 93.7636C274.835 93.434 274.659 93.0392 274.659 92.5789C274.659 92.113 274.835 91.7181 275.188 91.3943C275.54 91.0647 275.96 90.8999 276.449 90.8999C276.943 90.8999 277.364 91.0647 277.71 91.3943C278.063 91.7181 278.239 92.113 278.239 92.5789C278.239 93.0392 278.063 93.434 277.71 93.7636C277.364 94.0874 276.943 94.2494 276.449 94.2494ZM284.241 101.528V109.198H281.156V96.1073H284.104V98.3318H284.258C284.559 97.5988 285.039 97.0164 285.698 96.5846C286.363 96.1528 287.184 95.9369 288.161 95.9369C289.065 95.9369 289.852 96.1301 290.522 96.5164C291.198 96.9028 291.721 97.4624 292.09 98.1954C292.465 98.9284 292.65 99.8176 292.644 100.863V109.198H289.559V101.34C289.559 100.465 289.332 99.7806 288.877 99.2863C288.428 98.792 287.806 98.5448 287.011 98.5448C286.471 98.5448 285.991 98.6642 285.57 98.9028C285.156 99.1357 284.829 99.4738 284.59 99.917C284.357 100.36 284.241 100.897 284.241 101.528ZM302.317 96.1073V98.4937H294.792V96.1073H302.317ZM296.65 92.971H299.735V105.261C299.735 105.676 299.798 105.994 299.923 106.215C300.053 106.431 300.224 106.579 300.434 106.658C300.644 106.738 300.877 106.778 301.133 106.778C301.326 106.778 301.502 106.764 301.661 106.735C301.826 106.707 301.951 106.681 302.036 106.658L302.556 109.07C302.391 109.127 302.156 109.19 301.849 109.258C301.548 109.326 301.178 109.366 300.741 109.377C299.968 109.4 299.272 109.283 298.653 109.028C298.033 108.766 297.542 108.363 297.178 107.818C296.82 107.272 296.644 106.59 296.65 105.772V92.971ZM310.467 109.454C309.189 109.454 308.081 109.173 307.143 108.61C306.206 108.048 305.479 107.261 304.962 106.249C304.45 105.238 304.195 104.056 304.195 102.704C304.195 101.352 304.45 100.167 304.962 99.1499C305.479 98.1329 306.206 97.3431 307.143 96.7806C308.081 96.2181 309.189 95.9369 310.467 95.9369C311.746 95.9369 312.854 96.2181 313.791 96.7806C314.729 97.3431 315.453 98.1329 315.964 99.1499C316.482 100.167 316.74 101.352 316.74 102.704C316.74 104.056 316.482 105.238 315.964 106.249C315.453 107.261 314.729 108.048 313.791 108.61C312.854 109.173 311.746 109.454 310.467 109.454ZM310.484 106.982C311.178 106.982 311.757 106.792 312.223 106.411C312.689 106.025 313.036 105.508 313.263 104.86C313.496 104.212 313.612 103.491 313.612 102.695C313.612 101.894 313.496 101.17 313.263 100.522C313.036 99.8687 312.689 99.3488 312.223 98.9624C311.757 98.5761 311.178 98.3829 310.484 98.3829C309.774 98.3829 309.183 98.5761 308.712 98.9624C308.246 99.3488 307.896 99.8687 307.663 100.522C307.436 101.17 307.322 101.894 307.322 102.695C307.322 103.491 307.436 104.212 307.663 104.86C307.896 105.508 308.246 106.025 308.712 106.411C309.183 106.792 309.774 106.982 310.484 106.982ZM27.5852 138.198V125.107H30.5767V127.289H30.7131C30.9517 126.533 31.3608 125.951 31.9403 125.542C32.5256 125.127 33.1932 124.92 33.9432 124.92C34.1136 124.92 34.304 124.928 34.5142 124.945C34.7301 124.957 34.9091 124.977 35.0511 125.005V127.843C34.9205 127.798 34.7131 127.758 34.429 127.724C34.1506 127.684 33.8807 127.664 33.6193 127.664C33.0568 127.664 32.5511 127.786 32.1023 128.031C31.6591 128.269 31.3097 128.602 31.054 129.028C30.7983 129.454 30.6705 129.945 30.6705 130.502V138.198H27.5852ZM42.3572 138.454C41.0447 138.454 39.9112 138.181 38.9567 137.636C38.0078 137.085 37.2777 136.306 36.7663 135.301C36.255 134.289 35.9993 133.099 35.9993 131.729C35.9993 130.383 36.255 129.201 36.7663 128.184C37.2834 127.161 38.005 126.366 38.9311 125.798C39.8572 125.224 40.9453 124.937 42.1953 124.937C43.0021 124.937 43.7635 125.068 44.4794 125.329C45.201 125.585 45.8374 125.982 46.3885 126.522C46.9453 127.062 47.3828 127.749 47.701 128.585C48.0192 129.414 48.1783 130.403 48.1783 131.551V132.497H37.4482V130.417H45.2209C45.2152 129.826 45.0874 129.301 44.8374 128.84C44.5874 128.374 44.2379 128.008 43.7891 127.741C43.3459 127.474 42.8288 127.34 42.2379 127.34C41.6072 127.34 41.0533 127.494 40.576 127.801C40.0987 128.102 39.7266 128.499 39.4595 128.994C39.1982 129.482 39.0646 130.019 39.0589 130.604V132.42C39.0589 133.181 39.1982 133.835 39.4766 134.38C39.755 134.92 40.1442 135.335 40.6442 135.624C41.1442 135.908 41.7294 136.051 42.3999 136.051C42.8487 136.051 43.255 135.988 43.6186 135.863C43.9822 135.732 44.2976 135.542 44.5646 135.292C44.8317 135.042 45.0334 134.732 45.1697 134.363L48.0504 134.687C47.8686 135.448 47.522 136.113 47.0107 136.681C46.505 137.244 45.8572 137.681 45.0675 137.994C44.2777 138.301 43.3743 138.454 42.3572 138.454ZM54.5554 138.462C53.7259 138.462 52.9787 138.315 52.3139 138.019C51.6548 137.718 51.1321 137.275 50.7457 136.69C50.3651 136.104 50.1747 135.383 50.1747 134.525C50.1747 133.786 50.3111 133.176 50.5838 132.693C50.8565 132.21 51.2287 131.823 51.7003 131.533C52.1719 131.244 52.7031 131.025 53.294 130.877C53.8906 130.724 54.5071 130.613 55.1435 130.545C55.9105 130.465 56.5327 130.394 57.0099 130.332C57.4872 130.264 57.8338 130.161 58.0497 130.025C58.2713 129.883 58.3821 129.664 58.3821 129.369V129.318C58.3821 128.676 58.1918 128.178 57.8111 127.826C57.4304 127.474 56.8821 127.298 56.1662 127.298C55.4105 127.298 54.8111 127.462 54.3679 127.792C53.9304 128.122 53.6349 128.511 53.4815 128.96L50.6009 128.551C50.8281 127.755 51.2031 127.09 51.7259 126.556C52.2486 126.016 52.8878 125.613 53.6435 125.346C54.3991 125.073 55.2344 124.937 56.1491 124.937C56.7798 124.937 57.4077 125.011 58.0327 125.158C58.6577 125.306 59.2287 125.551 59.7457 125.891C60.2628 126.227 60.6776 126.684 60.9901 127.264C61.3082 127.843 61.4673 128.568 61.4673 129.437V138.198H58.5014V136.4H58.3991C58.2116 136.764 57.9474 137.104 57.6065 137.423C57.2713 137.735 56.848 137.988 56.3366 138.181C55.831 138.369 55.2372 138.462 54.5554 138.462ZM55.3565 136.195C55.9759 136.195 56.5128 136.073 56.9673 135.829C57.4219 135.579 57.7713 135.249 58.0156 134.84C58.2656 134.431 58.3906 133.985 58.3906 133.502V131.96C58.294 132.039 58.1293 132.113 57.8963 132.181C57.669 132.249 57.4134 132.309 57.1293 132.36C56.8452 132.411 56.5639 132.457 56.2855 132.497C56.0071 132.536 55.7656 132.57 55.5611 132.599C55.1009 132.661 54.6889 132.764 54.3253 132.906C53.9616 133.048 53.6747 133.247 53.4645 133.502C53.2543 133.752 53.1491 134.076 53.1491 134.474C53.1491 135.042 53.3565 135.471 53.7713 135.761C54.1861 136.051 54.7145 136.195 55.3565 136.195ZM67.6548 120.744V138.198H64.5696V120.744H67.6548ZM70.8274 138.198V125.107H73.9126V138.198H70.8274ZM72.3786 123.249C71.8899 123.249 71.4695 123.087 71.1172 122.764C70.7649 122.434 70.5888 122.039 70.5888 121.579C70.5888 121.113 70.7649 120.718 71.1172 120.394C71.4695 120.065 71.8899 119.9 72.3786 119.9C72.8729 119.9 73.2933 120.065 73.6399 120.394C73.9922 120.718 74.1683 121.113 74.1683 121.579C74.1683 122.039 73.9922 122.434 73.6399 122.764C73.2933 123.087 72.8729 123.249 72.3786 123.249ZM83.6222 125.107V127.494H76.0966V125.107H83.6222ZM77.9545 121.971H81.0398V134.261C81.0398 134.676 81.1023 134.994 81.2273 135.215C81.358 135.431 81.5284 135.579 81.7386 135.658C81.9489 135.738 82.1818 135.778 82.4375 135.778C82.6307 135.778 82.8068 135.764 82.9659 135.735C83.1307 135.707 83.2557 135.681 83.3409 135.658L83.8608 138.07C83.696 138.127 83.4602 138.19 83.1534 138.258C82.8523 138.326 82.483 138.366 82.0455 138.377C81.2727 138.4 80.5767 138.283 79.9574 138.028C79.3381 137.766 78.8466 137.363 78.483 136.818C78.125 136.272 77.9489 135.59 77.9545 134.772V121.971ZM88.12 143.107C87.6996 143.107 87.3104 143.073 86.9524 143.005C86.6001 142.943 86.3189 142.869 86.1087 142.783L86.8246 140.38C87.2734 140.511 87.674 140.573 88.0263 140.568C88.3786 140.562 88.6882 140.451 88.9553 140.235C89.228 140.025 89.4581 139.673 89.6456 139.178L89.9098 138.471L85.1626 125.107H88.4354L91.4524 134.994H91.5888L94.6143 125.107H97.8956L92.6541 139.783C92.4098 140.477 92.0859 141.07 91.6825 141.565C91.2791 142.065 90.7848 142.445 90.1996 142.707C89.62 142.974 88.9268 143.107 88.12 143.107ZM103.806 120.744L103.525 133.068H100.781L100.508 120.744H103.806ZM102.153 138.386C101.636 138.386 101.192 138.204 100.823 137.84C100.46 137.477 100.278 137.033 100.278 136.511C100.278 135.999 100.46 135.562 100.823 135.198C101.192 134.835 101.636 134.653 102.153 134.653C102.658 134.653 103.096 134.835 103.465 135.198C103.84 135.562 104.028 135.999 104.028 136.511C104.028 136.857 103.94 137.173 103.763 137.457C103.593 137.741 103.366 137.968 103.082 138.139C102.803 138.303 102.494 138.386 102.153 138.386Z" fill="white"/>
<path d="M27.2784 169.34V157.703H34.4943V159.215H29.0341V162.76H33.9773V164.266H29.0341V169.34H27.2784ZM36.517 169.34V160.613H38.2159V169.34H36.517ZM37.375 159.266C37.0795 159.266 36.8258 159.167 36.6136 158.971C36.4053 158.77 36.3011 158.531 36.3011 158.255C36.3011 157.974 36.4053 157.736 36.6136 157.539C36.8258 157.338 37.0795 157.238 37.375 157.238C37.6705 157.238 37.9223 157.338 38.1307 157.539C38.3428 157.736 38.4489 157.974 38.4489 158.255C38.4489 158.531 38.3428 158.77 38.1307 158.971C37.9223 159.167 37.6705 159.266 37.375 159.266ZM42.2003 164.158V169.34H40.5014V160.613H42.1321V162.033H42.2401C42.4408 161.571 42.7552 161.2 43.1832 160.919C43.6151 160.639 44.1586 160.499 44.8139 160.499C45.4086 160.499 45.9295 160.624 46.3764 160.874C46.8234 161.12 47.17 161.488 47.4162 161.976C47.6624 162.465 47.7855 163.069 47.7855 163.789V169.34H46.0866V163.993C46.0866 163.361 45.9219 162.866 45.5923 162.51C45.2628 162.15 44.8101 161.971 44.2344 161.971C43.8404 161.971 43.4901 162.056 43.1832 162.226C42.8802 162.397 42.6397 162.647 42.4616 162.976C42.2874 163.302 42.2003 163.696 42.2003 164.158ZM53.331 169.51C52.6264 169.51 51.9976 169.33 51.4446 168.971C50.8954 168.607 50.4635 168.09 50.1491 167.419C49.8385 166.745 49.6832 165.936 49.6832 164.993C49.6832 164.05 49.8404 163.243 50.1548 162.573C50.473 161.902 50.9086 161.389 51.4616 161.033C52.0147 160.677 52.6416 160.499 53.3423 160.499C53.884 160.499 54.3196 160.59 54.6491 160.772C54.9825 160.95 55.2401 161.158 55.4219 161.397C55.6075 161.635 55.7514 161.846 55.8537 162.027H55.956V157.703H57.6548V169.34H55.9957V167.982H55.8537C55.7514 168.167 55.6037 168.38 55.4105 168.618C55.2211 168.857 54.9598 169.065 54.6264 169.243C54.2931 169.421 53.8613 169.51 53.331 169.51ZM53.706 168.061C54.1946 168.061 54.6075 167.933 54.9446 167.675C55.2855 167.414 55.5431 167.052 55.7173 166.59C55.8954 166.128 55.9844 165.59 55.9844 164.976C55.9844 164.37 55.8973 163.84 55.723 163.385C55.5488 162.931 55.2931 162.577 54.956 162.323C54.6188 162.069 54.2022 161.942 53.706 161.942C53.1946 161.942 52.7685 162.075 52.4276 162.34C52.0866 162.605 51.8291 162.967 51.6548 163.425C51.4844 163.883 51.3991 164.4 51.3991 164.976C51.3991 165.56 51.4863 166.084 51.6605 166.55C51.8348 167.016 52.0923 167.385 52.4332 167.658C52.7779 167.927 53.2022 168.061 53.706 168.061ZM70.7969 160.76C70.7363 160.222 70.4863 159.806 70.0469 159.51C69.6075 159.211 69.0545 159.061 68.3878 159.061C67.9105 159.061 67.4976 159.137 67.1491 159.289C66.8007 159.436 66.5298 159.641 66.3366 159.902C66.1473 160.16 66.0526 160.453 66.0526 160.783C66.0526 161.06 66.117 161.298 66.2457 161.499C66.3783 161.7 66.5507 161.868 66.7628 162.005C66.9787 162.137 67.2098 162.249 67.456 162.34C67.7022 162.427 67.9389 162.499 68.1662 162.556L69.3026 162.851C69.6738 162.942 70.0545 163.065 70.4446 163.221C70.8348 163.376 71.1965 163.58 71.5298 163.834C71.8632 164.088 72.1321 164.402 72.3366 164.777C72.545 165.152 72.6491 165.601 72.6491 166.124C72.6491 166.783 72.4787 167.368 72.1378 167.88C71.8007 168.391 71.3101 168.794 70.6662 169.09C70.026 169.385 69.2514 169.533 68.3423 169.533C67.4711 169.533 66.7173 169.395 66.081 169.118C65.4446 168.842 64.9465 168.45 64.5866 167.942C64.2268 167.431 64.0279 166.825 63.9901 166.124H65.7514C65.7855 166.544 65.9219 166.895 66.1605 167.175C66.4029 167.452 66.7116 167.658 67.0866 167.794C67.4654 167.927 67.8802 167.993 68.331 167.993C68.8272 167.993 69.2685 167.916 69.6548 167.76C70.045 167.601 70.3518 167.382 70.5753 167.101C70.7988 166.817 70.9105 166.486 70.9105 166.107C70.9105 165.762 70.812 165.48 70.6151 165.26C70.4219 165.041 70.1586 164.859 69.8253 164.715C69.4957 164.571 69.1226 164.444 68.706 164.334L67.331 163.959C66.3991 163.705 65.6605 163.332 65.1151 162.84C64.5734 162.347 64.3026 161.696 64.3026 160.885C64.3026 160.215 64.4844 159.63 64.848 159.13C65.2116 158.63 65.7041 158.241 66.3253 157.965C66.9465 157.685 67.6473 157.544 68.4276 157.544C69.2154 157.544 69.9105 157.683 70.5128 157.959C71.1188 158.236 71.5961 158.616 71.9446 159.101C72.2931 159.582 72.4749 160.135 72.4901 160.76H70.7969ZM77.1506 169.533C76.5975 169.533 76.0975 169.431 75.6506 169.226C75.2036 169.018 74.8494 168.717 74.5881 168.323C74.3305 167.929 74.2017 167.446 74.2017 166.874C74.2017 166.382 74.2964 165.976 74.4858 165.658C74.6752 165.34 74.9309 165.088 75.2528 164.902C75.5748 164.717 75.9347 164.577 76.3324 164.482C76.7301 164.387 77.1354 164.315 77.5483 164.266C78.071 164.205 78.4953 164.156 78.821 164.118C79.1468 164.077 79.3835 164.01 79.5312 163.919C79.679 163.828 79.7528 163.681 79.7528 163.476V163.436C79.7528 162.94 79.6127 162.556 79.3324 162.283C79.0559 162.01 78.643 161.874 78.0938 161.874C77.5218 161.874 77.071 162.001 76.7415 162.255C76.4157 162.505 76.1903 162.783 76.0653 163.09L74.4688 162.726C74.6581 162.196 74.9347 161.768 75.2983 161.442C75.6657 161.113 76.0881 160.874 76.5653 160.726C77.0426 160.575 77.5445 160.499 78.071 160.499C78.4195 160.499 78.7888 160.541 79.179 160.624C79.5729 160.703 79.9403 160.851 80.2812 161.067C80.6259 161.283 80.9081 161.592 81.1278 161.993C81.3475 162.391 81.4574 162.908 81.4574 163.544V169.34H79.7983V168.147H79.7301C79.6203 168.366 79.4555 168.582 79.2358 168.794C79.0161 169.007 78.7339 169.183 78.3892 169.323C78.0445 169.463 77.6316 169.533 77.1506 169.533ZM77.5199 168.169C77.9896 168.169 78.3911 168.077 78.7244 167.891C79.0616 167.705 79.3172 167.463 79.4915 167.164C79.6695 166.861 79.7585 166.537 79.7585 166.192V165.067C79.6979 165.128 79.5805 165.185 79.4062 165.238C79.2358 165.287 79.0407 165.33 78.821 165.368C78.6013 165.402 78.3873 165.435 78.179 165.465C77.9706 165.491 77.7964 165.514 77.6562 165.533C77.3267 165.575 77.0256 165.645 76.7528 165.743C76.4839 165.842 76.268 165.984 76.1051 166.169C75.946 166.351 75.8665 166.594 75.8665 166.897C75.8665 167.317 76.0218 167.635 76.3324 167.851C76.643 168.063 77.0388 168.169 77.5199 168.169ZM85.419 157.703V169.34H83.7202V157.703H85.419ZM90.2443 169.533C89.6913 169.533 89.1913 169.431 88.7443 169.226C88.2973 169.018 87.9432 168.717 87.6818 168.323C87.4242 167.929 87.2955 167.446 87.2955 166.874C87.2955 166.382 87.3902 165.976 87.5795 165.658C87.7689 165.34 88.0246 165.088 88.3466 164.902C88.6686 164.717 89.0284 164.577 89.4261 164.482C89.8239 164.387 90.2292 164.315 90.642 164.266C91.1648 164.205 91.589 164.156 91.9148 164.118C92.2405 164.077 92.4773 164.01 92.625 163.919C92.7727 163.828 92.8466 163.681 92.8466 163.476V163.436C92.8466 162.94 92.7064 162.556 92.4261 162.283C92.1496 162.01 91.7367 161.874 91.1875 161.874C90.6155 161.874 90.1648 162.001 89.8352 162.255C89.5095 162.505 89.2841 162.783 89.1591 163.09L87.5625 162.726C87.7519 162.196 88.0284 161.768 88.392 161.442C88.7595 161.113 89.1818 160.874 89.6591 160.726C90.1364 160.575 90.6383 160.499 91.1648 160.499C91.5133 160.499 91.8826 160.541 92.2727 160.624C92.6667 160.703 93.0341 160.851 93.375 161.067C93.7197 161.283 94.0019 161.592 94.2216 161.993C94.4413 162.391 94.5511 162.908 94.5511 163.544V169.34H92.892V168.147H92.8239C92.714 168.366 92.5492 168.582 92.3295 168.794C92.1098 169.007 91.8277 169.183 91.483 169.323C91.1383 169.463 90.7254 169.533 90.2443 169.533ZM90.6136 168.169C91.0833 168.169 91.4848 168.077 91.8182 167.891C92.1553 167.705 92.411 167.463 92.5852 167.164C92.7633 166.861 92.8523 166.537 92.8523 166.192V165.067C92.7917 165.128 92.6742 165.185 92.5 165.238C92.3295 165.287 92.1345 165.33 91.9148 165.368C91.6951 165.402 91.4811 165.435 91.2727 165.465C91.0644 165.491 90.8902 165.514 90.75 165.533C90.4205 165.575 90.1193 165.645 89.8466 165.743C89.5777 165.842 89.3617 165.984 89.1989 166.169C89.0398 166.351 88.9602 166.594 88.9602 166.897C88.9602 167.317 89.1155 167.635 89.4261 167.851C89.7367 168.063 90.1326 168.169 90.6136 168.169ZM96.8139 169.34V160.613H98.456V161.999H98.5469C98.706 161.529 98.9863 161.16 99.3878 160.891C99.7931 160.618 100.251 160.482 100.763 160.482C100.869 160.482 100.994 160.486 101.138 160.493C101.286 160.501 101.401 160.51 101.484 160.522V162.147C101.416 162.128 101.295 162.107 101.121 162.084C100.946 162.058 100.772 162.044 100.598 162.044C100.196 162.044 99.8385 162.13 99.5241 162.3C99.2135 162.467 98.9673 162.7 98.7855 162.999C98.6037 163.294 98.5128 163.632 98.5128 164.01V169.34H96.8139ZM102.955 169.34V160.613H104.653V169.34H102.955ZM103.812 159.266C103.517 159.266 103.263 159.167 103.051 158.971C102.843 158.77 102.739 158.531 102.739 158.255C102.739 157.974 102.843 157.736 103.051 157.539C103.263 157.338 103.517 157.238 103.812 157.238C104.108 157.238 104.36 157.338 104.568 157.539C104.78 157.736 104.886 157.974 104.886 158.255C104.886 158.531 104.78 158.77 104.568 158.971C104.36 159.167 104.108 159.266 103.812 159.266ZM110.7 169.516C109.84 169.516 109.1 169.332 108.479 168.965C107.861 168.594 107.384 168.073 107.047 167.402C106.714 166.728 106.547 165.938 106.547 165.033C106.547 164.139 106.714 163.351 107.047 162.669C107.384 161.988 107.854 161.455 108.456 161.073C109.062 160.69 109.77 160.499 110.581 160.499C111.073 160.499 111.551 160.58 112.013 160.743C112.475 160.906 112.89 161.162 113.257 161.51C113.625 161.859 113.914 162.311 114.126 162.868C114.339 163.421 114.445 164.094 114.445 164.885V165.488H107.507V164.215H112.78C112.78 163.768 112.689 163.372 112.507 163.027C112.325 162.679 112.07 162.404 111.74 162.203C111.414 162.003 111.032 161.902 110.592 161.902C110.115 161.902 109.698 162.02 109.342 162.255C108.99 162.486 108.717 162.789 108.524 163.164C108.335 163.535 108.24 163.938 108.24 164.374V165.368C108.24 165.952 108.342 166.448 108.547 166.857C108.755 167.266 109.045 167.578 109.416 167.794C109.787 168.007 110.221 168.113 110.717 168.113C111.039 168.113 111.333 168.067 111.598 167.976C111.863 167.882 112.092 167.741 112.286 167.556C112.479 167.37 112.626 167.141 112.729 166.868L114.337 167.158C114.208 167.632 113.977 168.046 113.643 168.402C113.314 168.755 112.899 169.029 112.399 169.226C111.903 169.419 111.337 169.516 110.7 169.516ZM122.869 162.743L121.33 163.016C121.265 162.819 121.163 162.632 121.023 162.453C120.886 162.275 120.701 162.13 120.466 162.016C120.231 161.902 119.938 161.846 119.585 161.846C119.104 161.846 118.703 161.953 118.381 162.169C118.059 162.382 117.898 162.656 117.898 162.993C117.898 163.285 118.006 163.52 118.222 163.698C118.438 163.876 118.786 164.022 119.267 164.135L120.653 164.453C121.456 164.639 122.055 164.925 122.449 165.311C122.843 165.698 123.04 166.2 123.04 166.817C123.04 167.34 122.888 167.806 122.585 168.215C122.286 168.62 121.867 168.938 121.33 169.169C120.795 169.4 120.176 169.516 119.472 169.516C118.494 169.516 117.697 169.308 117.08 168.891C116.462 168.471 116.083 167.874 115.943 167.101L117.585 166.851C117.688 167.279 117.898 167.603 118.216 167.823C118.534 168.039 118.949 168.147 119.46 168.147C120.017 168.147 120.462 168.031 120.795 167.8C121.129 167.565 121.295 167.279 121.295 166.942C121.295 166.669 121.193 166.44 120.989 166.255C120.788 166.069 120.479 165.929 120.062 165.834L118.585 165.51C117.771 165.325 117.169 165.029 116.778 164.624C116.392 164.219 116.199 163.705 116.199 163.084C116.199 162.569 116.343 162.118 116.631 161.732C116.919 161.346 117.316 161.044 117.824 160.828C118.331 160.609 118.913 160.499 119.568 160.499C120.511 160.499 121.254 160.703 121.795 161.113C122.337 161.518 122.695 162.061 122.869 162.743ZM138.905 165.721V160.613H140.609V169.34H138.939V167.828H138.848C138.647 168.294 138.325 168.683 137.882 168.993C137.443 169.3 136.895 169.453 136.24 169.453C135.679 169.453 135.183 169.33 134.751 169.084C134.323 168.834 133.986 168.465 133.74 167.976C133.498 167.488 133.376 166.883 133.376 166.164V160.613H135.075V165.959C135.075 166.554 135.24 167.027 135.57 167.38C135.899 167.732 136.327 167.908 136.854 167.908C137.172 167.908 137.488 167.828 137.803 167.669C138.121 167.51 138.384 167.27 138.592 166.948C138.804 166.626 138.909 166.217 138.905 165.721ZM142.892 172.613V160.613H144.551V162.027H144.693C144.792 161.846 144.934 161.635 145.119 161.397C145.305 161.158 145.563 160.95 145.892 160.772C146.222 160.59 146.657 160.499 147.199 160.499C147.903 160.499 148.532 160.677 149.085 161.033C149.638 161.389 150.072 161.902 150.386 162.573C150.705 163.243 150.864 164.05 150.864 164.993C150.864 165.936 150.706 166.745 150.392 167.419C150.078 168.09 149.646 168.607 149.097 168.971C148.547 169.33 147.92 169.51 147.216 169.51C146.686 169.51 146.252 169.421 145.915 169.243C145.581 169.065 145.32 168.857 145.131 168.618C144.941 168.38 144.795 168.167 144.693 167.982H144.591V172.613H142.892ZM144.557 164.976C144.557 165.59 144.646 166.128 144.824 166.59C145.002 167.052 145.259 167.414 145.597 167.675C145.934 167.933 146.347 168.061 146.835 168.061C147.343 168.061 147.767 167.927 148.108 167.658C148.449 167.385 148.706 167.016 148.881 166.55C149.059 166.084 149.148 165.56 149.148 164.976C149.148 164.4 149.061 163.883 148.886 163.425C148.716 162.967 148.458 162.605 148.114 162.34C147.773 162.075 147.347 161.942 146.835 161.942C146.343 161.942 145.926 162.069 145.585 162.323C145.248 162.577 144.992 162.931 144.818 163.385C144.644 163.84 144.557 164.37 144.557 164.976ZM161.075 160.613V161.976H156.308V160.613H161.075ZM157.587 158.522H159.286V166.777C159.286 167.107 159.335 167.355 159.433 167.522C159.532 167.685 159.659 167.796 159.814 167.857C159.973 167.914 160.145 167.942 160.331 167.942C160.467 167.942 160.587 167.933 160.689 167.914C160.791 167.895 160.871 167.88 160.928 167.868L161.234 169.272C161.136 169.31 160.996 169.347 160.814 169.385C160.632 169.427 160.405 169.45 160.132 169.453C159.685 169.461 159.268 169.382 158.882 169.215C158.496 169.048 158.183 168.791 157.945 168.442C157.706 168.094 157.587 167.656 157.587 167.13V158.522ZM166.537 169.516C165.719 169.516 165.005 169.328 164.395 168.953C163.785 168.578 163.312 168.054 162.974 167.38C162.637 166.705 162.469 165.917 162.469 165.016C162.469 164.111 162.637 163.319 162.974 162.641C163.312 161.963 163.785 161.436 164.395 161.061C165.005 160.686 165.719 160.499 166.537 160.499C167.355 160.499 168.069 160.686 168.679 161.061C169.289 161.436 169.762 161.963 170.099 162.641C170.437 163.319 170.605 164.111 170.605 165.016C170.605 165.917 170.437 166.705 170.099 167.38C169.762 168.054 169.289 168.578 168.679 168.953C168.069 169.328 167.355 169.516 166.537 169.516ZM166.543 168.09C167.073 168.09 167.512 167.95 167.861 167.669C168.209 167.389 168.467 167.016 168.634 166.55C168.804 166.084 168.889 165.571 168.889 165.01C168.889 164.453 168.804 163.942 168.634 163.476C168.467 163.007 168.209 162.63 167.861 162.346C167.512 162.061 167.073 161.919 166.543 161.919C166.009 161.919 165.565 162.061 165.213 162.346C164.865 162.63 164.605 163.007 164.435 163.476C164.268 163.942 164.185 164.453 164.185 165.01C164.185 165.571 164.268 166.084 164.435 166.55C164.605 167.016 164.865 167.389 165.213 167.669C165.565 167.95 166.009 168.09 166.543 168.09ZM176.713 169.34V168.067L180.651 163.988C181.071 163.544 181.418 163.156 181.69 162.823C181.967 162.486 182.173 162.166 182.31 161.863C182.446 161.56 182.514 161.238 182.514 160.897C182.514 160.51 182.423 160.177 182.241 159.897C182.06 159.613 181.812 159.395 181.497 159.243C181.183 159.088 180.829 159.01 180.435 159.01C180.018 159.01 179.654 159.096 179.344 159.266C179.033 159.436 178.795 159.677 178.628 159.988C178.461 160.298 178.378 160.662 178.378 161.078H176.702C176.702 160.37 176.865 159.751 177.19 159.221C177.516 158.69 177.963 158.279 178.531 157.988C179.099 157.692 179.745 157.544 180.469 157.544C181.2 157.544 181.844 157.69 182.401 157.982C182.961 158.27 183.399 158.664 183.713 159.164C184.027 159.66 184.185 160.221 184.185 160.846C184.185 161.277 184.103 161.7 183.94 162.113C183.781 162.525 183.503 162.986 183.105 163.493C182.707 163.997 182.154 164.609 181.446 165.328L179.134 167.749V167.834H184.372V169.34H176.713ZM190.366 169.499C189.654 169.499 189.014 169.363 188.446 169.09C187.882 168.813 187.431 168.435 187.094 167.953C186.757 167.472 186.577 166.923 186.554 166.306H188.259C188.3 166.806 188.522 167.217 188.923 167.539C189.325 167.861 189.806 168.022 190.366 168.022C190.813 168.022 191.209 167.919 191.554 167.715C191.902 167.507 192.175 167.221 192.372 166.857C192.573 166.493 192.673 166.078 192.673 165.613C192.673 165.139 192.571 164.717 192.366 164.346C192.162 163.974 191.88 163.683 191.52 163.471C191.164 163.258 190.755 163.15 190.293 163.147C189.94 163.147 189.586 163.207 189.23 163.328C188.874 163.45 188.586 163.609 188.366 163.806L186.759 163.567L187.412 157.703H193.81V159.209H188.872L188.503 162.465H188.571C188.798 162.245 189.099 162.061 189.474 161.914C189.853 161.766 190.259 161.692 190.69 161.692C191.399 161.692 192.029 161.861 192.582 162.198C193.139 162.535 193.577 162.995 193.895 163.578C194.217 164.158 194.376 164.825 194.372 165.578C194.376 166.332 194.205 167.005 193.861 167.596C193.52 168.186 193.046 168.652 192.44 168.993C191.838 169.33 191.147 169.499 190.366 169.499ZM196.607 169.34V157.703H198.362V167.828H203.635V169.34H196.607ZM205.638 169.34V157.703H209.786C210.691 157.703 211.441 157.868 212.036 158.198C212.63 158.527 213.075 158.978 213.371 159.55C213.666 160.118 213.814 160.758 213.814 161.471C213.814 162.186 213.664 162.83 213.365 163.402C213.07 163.971 212.623 164.421 212.024 164.755C211.429 165.084 210.681 165.249 209.78 165.249H206.928V163.76H209.621C210.193 163.76 210.657 163.662 211.013 163.465C211.369 163.264 211.63 162.991 211.797 162.647C211.964 162.302 212.047 161.91 212.047 161.471C212.047 161.031 211.964 160.641 211.797 160.3C211.63 159.959 211.367 159.692 211.007 159.499C210.651 159.306 210.181 159.209 209.598 159.209H207.393V169.34H205.638ZM215.621 169.34H213.757L217.945 157.703H219.973L224.161 169.34H222.297L219.007 159.817H218.916L215.621 169.34ZM215.933 164.783H221.979V166.26H215.933V164.783Z" fill="white"/>
<g filter="url(#filter2_d_1827_1012)">
<rect x="26" y="185.34" width="86.283" height="23.1132" rx="11.5566" fill="#FFF7F7" shape-rendering="crispEdges"/>
<path d="M37.6586 201.396V192.669H39.2396V196.679H39.3461L42.751 192.669H44.6814L41.3064 196.585L44.7112 201.396H42.8106L40.2069 197.655L39.2396 198.797V201.396H37.6586ZM47.2542 197.561V201.396H45.7116V194.851H47.186V195.963H47.2627C47.4133 195.597 47.6533 195.306 47.9829 195.09C48.3153 194.874 48.7258 194.766 49.2144 194.766C49.6661 194.766 50.0596 194.862 50.3948 195.056C50.7329 195.249 50.9942 195.529 51.1789 195.895C51.3664 196.262 51.4587 196.706 51.4559 197.229V201.396H49.9133V197.468C49.9133 197.03 49.7996 196.688 49.5724 196.441C49.3479 196.193 49.0368 196.07 48.6391 196.07C48.3692 196.07 48.1292 196.129 47.9189 196.249C47.7116 196.365 47.5482 196.534 47.4289 196.756C47.3124 196.977 47.2542 197.246 47.2542 197.561ZM55.8792 201.524C55.24 201.524 54.686 201.384 54.2172 201.102C53.7485 200.821 53.3849 200.428 53.1263 199.922C52.8706 199.416 52.7428 198.825 52.7428 198.149C52.7428 197.473 52.8706 196.881 53.1263 196.372C53.3849 195.864 53.7485 195.469 54.2172 195.188C54.686 194.906 55.24 194.766 55.8792 194.766C56.5184 194.766 57.0724 194.906 57.5411 195.188C58.0099 195.469 58.3721 195.864 58.6278 196.372C58.8863 196.881 59.0155 197.473 59.0155 198.149C59.0155 198.825 58.8863 199.416 58.6278 199.922C58.3721 200.428 58.0099 200.821 57.5411 201.102C57.0724 201.384 56.5184 201.524 55.8792 201.524ZM55.8877 200.289C56.2343 200.289 56.5241 200.193 56.757 200.003C56.99 199.81 57.1633 199.551 57.2769 199.227C57.3934 198.904 57.4516 198.543 57.4516 198.145C57.4516 197.744 57.3934 197.382 57.2769 197.058C57.1633 196.732 56.99 196.472 56.757 196.279C56.5241 196.085 56.2343 195.989 55.8877 195.989C55.5326 195.989 55.2371 196.085 55.0013 196.279C54.7684 196.472 54.5937 196.732 54.4772 197.058C54.3635 197.382 54.3067 197.744 54.3067 198.145C54.3067 198.543 54.3635 198.904 54.4772 199.227C54.5937 199.551 54.7684 199.81 55.0013 200.003C55.2371 200.193 55.5326 200.289 55.8877 200.289ZM61.4882 201.396L59.6388 194.851H61.2112L62.3618 199.453H62.4214L63.5976 194.851H65.153L66.3291 199.428H66.393L67.5265 194.851H69.1032L67.2496 201.396H65.643L64.4157 196.973H64.3263L63.099 201.396H61.4882ZM73.2251 192.669H75.1597L77.7506 198.993H77.8529L80.4438 192.669H82.3785V201.396H80.8614V195.401H80.7805L78.3685 201.371H77.235L74.8231 195.388H74.7421V201.396H73.2251V192.669ZM86.887 201.524C86.2478 201.524 85.6938 201.384 85.2251 201.102C84.7563 200.821 84.3927 200.428 84.1341 199.922C83.8785 199.416 83.7506 198.825 83.7506 198.149C83.7506 197.473 83.8785 196.881 84.1341 196.372C84.3927 195.864 84.7563 195.469 85.2251 195.188C85.6938 194.906 86.2478 194.766 86.887 194.766C87.5262 194.766 88.0802 194.906 88.5489 195.188C89.0177 195.469 89.3799 195.864 89.6356 196.372C89.8941 196.881 90.0233 197.473 90.0233 198.149C90.0233 198.825 89.8941 199.416 89.6356 199.922C89.3799 200.428 89.0177 200.821 88.5489 201.102C88.0802 201.384 87.5262 201.524 86.887 201.524ZM86.8955 200.289C87.2421 200.289 87.5319 200.193 87.7648 200.003C87.9978 199.81 88.1711 199.551 88.2847 199.227C88.4012 198.904 88.4594 198.543 88.4594 198.145C88.4594 197.744 88.4012 197.382 88.2847 197.058C88.1711 196.732 87.9978 196.472 87.7648 196.279C87.5319 196.085 87.2421 195.989 86.8955 195.989C86.5404 195.989 86.2449 196.085 86.0091 196.279C85.7762 196.472 85.6015 196.732 85.485 197.058C85.3714 197.382 85.3145 197.744 85.3145 198.145C85.3145 198.543 85.3714 198.904 85.485 199.227C85.6015 199.551 85.7762 199.81 86.0091 200.003C86.2449 200.193 86.5404 200.289 86.8955 200.289ZM91.3327 201.396V194.851H92.8284V195.942H92.8966C93.0159 195.564 93.2204 195.273 93.5102 195.068C93.8028 194.861 94.1366 194.757 94.5116 194.757C94.5969 194.757 94.692 194.762 94.7971 194.77C94.9051 194.776 94.9946 194.786 95.0656 194.8V196.219C95.0003 196.196 94.8966 196.176 94.7545 196.159C94.6153 196.139 94.4804 196.129 94.3497 196.129C94.0684 196.129 93.8156 196.191 93.5912 196.313C93.3696 196.432 93.1949 196.598 93.067 196.811C92.9392 197.024 92.8753 197.27 92.8753 197.548V201.396H91.3327ZM98.7187 201.524C98.0624 201.524 97.4956 201.388 97.0184 201.115C96.5439 200.84 96.1789 200.45 95.9232 199.948C95.6675 199.442 95.5397 198.847 95.5397 198.162C95.5397 197.489 95.6675 196.898 95.9232 196.389C96.1817 195.878 96.5425 195.48 97.0056 195.196C97.4687 194.909 98.0127 194.766 98.6377 194.766C99.0411 194.766 99.4218 194.831 99.7797 194.962C100.141 195.09 100.459 195.289 100.734 195.558C101.013 195.828 101.231 196.172 101.391 196.59C101.55 197.004 101.629 197.499 101.629 198.073V198.546H96.2641V197.506H100.15C100.148 197.21 100.084 196.948 99.9587 196.718C99.8337 196.485 99.659 196.301 99.4346 196.168C99.213 196.034 98.9545 195.968 98.659 195.968C98.3437 195.968 98.0667 196.044 97.828 196.198C97.5894 196.348 97.4033 196.547 97.2698 196.794C97.1391 197.039 97.0724 197.307 97.0695 197.6V198.507C97.0695 198.888 97.1391 199.215 97.2783 199.487C97.4175 199.757 97.6121 199.965 97.8621 200.11C98.1121 200.252 98.4047 200.323 98.74 200.323C98.9644 200.323 99.1675 200.291 99.3493 200.229C99.5312 200.164 99.6888 200.068 99.8224 199.943C99.9559 199.818 100.057 199.664 100.125 199.479L101.565 199.641C101.474 200.021 101.301 200.354 101.045 200.638C100.793 200.919 100.469 201.138 100.074 201.294C99.6789 201.448 99.2272 201.524 98.7187 201.524Z" fill="#208CB7"/>
</g>
<path d="M420.459 -36.1428C418.278 -36.8912 416.078 -37.5845 413.862 -38.2221C414.234 -39.7433 414.577 -41.2461 414.881 -42.7225C419.876 -66.9669 416.611 -86.4986 405.458 -92.9294C394.766 -99.0944 377.279 -92.666 359.618 -77.296C357.878 -75.7785 356.176 -74.2173 354.514 -72.6138C353.402 -73.6801 352.27 -74.7256 351.119 -75.7499C332.609 -92.184 314.057 -99.1104 302.917 -92.6612C292.234 -86.477 289.07 -68.1158 293.567 -45.1389C294.014 -42.8632 294.519 -40.5993 295.081 -38.3494C292.455 -37.6032 289.921 -36.8089 287.496 -35.9635C265.795 -28.3974 251.937 -16.5406 251.937 -4.2419C251.937 8.46034 266.815 21.201 289.417 28.9264C291.249 29.5502 293.097 30.1282 294.958 30.6598C294.354 33.0831 293.817 35.5229 293.349 37.9761C289.062 60.5543 292.41 78.4816 303.064 84.6265C314.068 90.9725 332.537 84.4504 350.52 68.7297C351.979 67.4517 353.405 66.1374 354.798 64.7881C356.597 66.5244 358.445 68.2101 360.338 69.8434C377.758 84.8331 394.963 90.886 405.607 84.7242C416.6 78.3599 420.173 59.1012 415.535 35.6703C415.169 33.8346 414.759 32.0081 414.306 30.1923C415.603 29.808 416.876 29.4124 418.117 29.0009C441.614 21.2162 456.902 8.63008 456.902 -4.2419C456.902 -16.5854 442.596 -28.5223 420.459 -36.1428ZM415.363 20.6902C414.242 21.0609 413.093 21.4188 411.92 21.7671C409.326 13.5549 405.826 4.82301 401.542 -4.19946C405.63 -13.0066 408.996 -21.6271 411.517 -29.7857C413.614 -29.1788 415.648 -28.5391 417.61 -27.8641C436.577 -21.3341 448.146 -11.6807 448.146 -4.2419C448.146 3.68129 435.652 13.9672 415.363 20.6902ZM406.945 37.3708C408.996 47.7312 409.289 57.0988 407.93 64.4223C406.71 71.0028 404.255 75.3895 401.219 77.1469C394.76 80.8859 380.947 76.026 366.049 63.2061C364.288 61.6875 362.569 60.1203 360.895 58.5063C366.671 52.19 372.443 44.8473 378.076 36.6919C387.985 35.8128 397.346 34.3748 405.835 32.4125C406.244 34.0563 406.614 35.7095 406.945 37.3708ZM321.814 76.5008C315.503 78.729 310.477 78.793 307.439 77.0412C300.973 73.3126 298.286 58.9178 301.952 39.6095C302.388 37.3278 302.887 35.0587 303.448 32.8048C311.844 34.6623 321.137 35.9977 331.069 36.8032C336.741 44.7832 342.679 52.1179 348.664 58.5407C347.392 59.7714 346.09 60.9706 344.759 62.1372C336.806 69.0884 328.837 74.0204 321.814 76.5008ZM292.25 20.6414C282.255 17.225 274.001 12.7854 268.344 7.94073C263.26 3.58762 260.694 -0.735069 260.694 -4.2419C260.694 -11.7055 271.82 -21.2252 290.378 -27.6952C292.631 -28.4798 294.988 -29.2204 297.434 -29.9154C299.999 -21.5727 303.363 -12.8496 307.423 -4.02892C303.31 4.92229 299.898 13.7846 297.308 22.2258C295.609 21.7392 293.922 21.2109 292.25 20.6414ZM302.16 -46.821C298.308 -66.5065 300.866 -81.3561 307.304 -85.0831C314.161 -89.0527 329.323 -83.3929 345.305 -69.2023C346.347 -68.2748 347.372 -67.3286 348.38 -66.364C342.425 -59.9692 336.541 -52.6889 330.92 -44.7561C321.28 -43.8626 312.053 -42.4279 303.569 -40.5055C303.046 -42.5983 302.576 -44.7046 302.16 -46.821ZM390.573 -24.9882C388.569 -28.4495 386.491 -31.8671 384.34 -35.2389C390.879 -34.4118 397.145 -33.3141 403.029 -31.9723C401.263 -26.3101 399.061 -20.3909 396.47 -14.322C394.575 -17.9163 392.609 -21.4724 390.573 -24.9882ZM354.518 -60.1053C358.557 -55.7298 362.601 -50.8451 366.58 -45.5448C358.509 -45.9259 350.425 -45.9275 342.355 -45.5496C346.337 -50.801 350.416 -55.6794 354.518 -60.1053ZM318.232 -24.929C316.221 -21.4415 314.292 -17.9075 312.446 -14.33C309.897 -20.3773 307.715 -26.3237 305.933 -32.0659C311.781 -33.3742 318.017 -34.4438 324.516 -35.2557C322.341 -31.8634 320.245 -28.4196 318.232 -24.929ZM324.702 27.3948C317.989 26.6454 311.659 25.631 305.812 24.358C307.622 18.5133 309.852 12.4404 312.456 6.26337C314.31 9.84354 316.247 13.3796 318.266 16.8687C320.343 20.4556 322.494 23.9689 324.702 27.3948ZM354.76 52.2388C350.609 47.7616 346.47 42.808 342.428 37.4805C346.352 37.6343 350.353 37.7127 354.42 37.7127C358.597 37.7127 362.727 37.619 366.792 37.4381C362.801 42.8617 358.771 47.8225 354.76 52.2388ZM396.552 5.94791C399.292 12.1929 401.601 18.2338 403.434 23.9785C397.492 25.3347 391.076 26.4268 384.315 27.2379C386.481 23.8035 388.579 20.3265 390.607 16.8087C392.669 13.233 394.651 9.61182 396.552 5.94791ZM383.023 12.434C379.918 17.8274 376.639 23.1185 373.19 28.2987C366.943 28.7412 360.682 28.961 354.42 28.9577C348.041 28.9577 341.837 28.7591 335.862 28.3716C332.324 23.2033 328.982 17.903 325.844 12.482C322.721 7.08971 319.804 1.58076 317.099 -4.03293C319.797 -9.64794 322.706 -15.1595 325.818 -20.5558L325.817 -20.555C328.929 -25.9528 332.244 -31.2305 335.756 -36.3766C341.851 -36.8378 348.102 -37.078 354.419 -37.078C360.765 -37.078 367.024 -36.8354 373.118 -36.371C376.594 -31.2326 379.888 -25.9731 382.994 -20.6023C386.117 -15.2178 389.064 -9.73314 391.83 -4.15703C389.092 1.4761 386.154 7.00993 383.023 12.434ZM401.085 -85.3441C407.948 -81.3857 410.618 -65.4232 406.305 -44.4903C406.03 -43.1549 405.721 -41.7946 405.385 -40.4151C396.88 -42.3782 387.646 -43.8378 377.979 -44.7449C372.347 -52.765 366.511 -60.0565 360.653 -66.3688C362.188 -67.8488 363.76 -69.2904 365.367 -70.6923C380.499 -83.8605 394.642 -89.0599 401.085 -85.3441ZM354.42 -22.5446C364.528 -22.5446 372.722 -14.35 372.722 -4.2419C372.722 5.86625 364.528 14.0609 354.42 14.0609C344.311 14.0609 336.117 5.86625 336.117 -4.2419C336.117 -14.35 344.311 -22.5446 354.42 -22.5446Z" fill="#00D8FF"/>
</g>
<defs>
<filter id="filter0_b_1827_1012" x="-4.0566" y="256.943" width="127.113" height="26.7734" filterUnits="userSpaceOnUse" color-interpolation-filters="sRGB">
<feFlood flood-opacity="0" result="BackgroundImageFix"/>
<feGaussianBlur in="BackgroundImageFix" stdDeviation="2.0283"/>
<feComposite in2="SourceAlpha" operator="in" result="effect1_backgroundBlur_1827_1012"/>
<feBlend mode="normal" in="SourceGraphic" in2="effect1_backgroundBlur_1827_1012" result="shape"/>
</filter>
<filter id="filter1_bd_1827_1012" x="15.8585" y="52.2248" width="122.453" height="36.3397" filterUnits="userSpaceOnUse" color-interpolation-filters="sRGB">
<feFlood flood-opacity="0" result="BackgroundImageFix"/>
<feGaussianBlur in="BackgroundImageFix" stdDeviation="2.0283"/>
<feComposite in2="SourceAlpha" operator="in" result="effect1_backgroundBlur_1827_1012"/>
<feColorMatrix in="SourceAlpha" type="matrix" values="0 0 0 0 0 0 0 0 0 0 0 0 0 0 0 0 0 0 127 0" result="hardAlpha"/>
<feOffset dy="2.36635"/>
<feGaussianBlur stdDeviation="5.07076"/>
<feComposite in2="hardAlpha" operator="out"/>
<feColorMatrix type="matrix" values="0 0 0 0 0.385 0 0 0 0 0.385 0 0 0 0 0.385 0 0 0 0.2 0"/>
<feBlend mode="normal" in2="effect1_backgroundBlur_1827_1012" result="effect2_dropShadow_1827_1012"/>
<feBlend mode="normal" in="SourceGraphic" in2="effect2_dropShadow_1827_1012" result="shape"/>
</filter>
<filter id="filter2_d_1827_1012" x="15.8585" y="177.565" width="106.566" height="43.3963" filterUnits="userSpaceOnUse" color-interpolation-filters="sRGB">
<feFlood flood-opacity="0" result="BackgroundImageFix"/>
<feColorMatrix in="SourceAlpha" type="matrix" values="0 0 0 0 0 0 0 0 0 0 0 0 0 0 0 0 0 0 127 0" result="hardAlpha"/>
<feOffset dy="2.36635"/>
<feGaussianBlur stdDeviation="5.07076"/>
<feComposite in2="hardAlpha" operator="out"/>
<feColorMatrix type="matrix" values="0 0 0 0 0.385 0 0 0 0 0.385 0 0 0 0 0.385 0 0 0 0.2 0"/>
<feBlend mode="normal" in2="BackgroundImageFix" result="effect1_dropShadow_1827_1012"/>
<feBlend mode="normal" in="SourceGraphic" in2="effect1_dropShadow_1827_1012" result="shape"/>
</filter>
<linearGradient id="paint0_linear_1827_1012" x1="192.689" y1="415.909" x2="415.492" y2="-26.6534" gradientUnits="userSpaceOnUse">
<stop stop-color="#00D8FF"/>
<stop offset="1" stop-color="#383668"/>
</linearGradient>
<linearGradient id="paint1_linear_1827_1012" x1="-22.956" y1="155.08" x2="271.295" y2="262.179" gradientUnits="userSpaceOnUse">
<stop stop-color="#1E84B0" stop-opacity="0.17"/>
<stop offset="0.505" stop-color="#1FDDFF"/>
<stop offset="1" stop-color="#13A2CD" stop-opacity="0"/>
</linearGradient>
<linearGradient id="paint2_linear_1827_1012" x1="-42.6298" y1="180.099" x2="262.027" y2="287.641" gradientUnits="userSpaceOnUse">
<stop stop-color="#5FFFEC" stop-opacity="0.5"/>
<stop offset="0.894077" stop-color="#12A7D1" stop-opacity="0"/>
</linearGradient>
<linearGradient id="paint3_linear_1827_1012" x1="-24.3169" y1="187.137" x2="260.833" y2="290.923" gradientUnits="userSpaceOnUse">
<stop stop-color="#159EC9" stop-opacity="0"/>
<stop offset="0.77" stop-color="#7087FF"/>
</linearGradient>
<linearGradient id="paint4_linear_1827_1012" x1="336.231" y1="237.116" x2="186.542" y2="220.382" gradientUnits="userSpaceOnUse">
<stop stop-color="#1893BC"/>
<stop offset="0.921326" stop-color="#1798C3" stop-opacity="0"/>
</linearGradient>
<linearGradient id="paint5_linear_1827_1012" x1="27.4837" y1="-6.08496" x2="10.3446" y2="64.0943" gradientUnits="userSpaceOnUse">
<stop stop-color="#14A4CE"/>
<stop offset="1" stop-color="#13A3CD" stop-opacity="0"/>
</linearGradient>
<linearGradient id="paint6_linear_1827_1012" x1="128.17" y1="68.0283" x2="26" y2="68.0283" gradientUnits="userSpaceOnUse">
<stop offset="0.1" stop-color="#ABE0F8" stop-opacity="0"/>
<stop offset="0.5" stop-color="#ABE0F8"/>
<stop offset="0.9" stop-color="#ABE0F8" stop-opacity="0"/>
</linearGradient>
<clipPath id="clip0_1827_1012">
<rect width="430" height="280" rx="16.2264" fill="white"/>
</clipPath>
</defs>
</svg>
