<svg width="430" height="280" viewBox="0 0 430 280" fill="none" xmlns="http://www.w3.org/2000/svg">
<g clip-path="url(#clip0_1827_1110)">
<rect width="430" height="280" rx="16.2264" fill="url(#paint0_linear_1827_1110)"/>
<path opacity="0.34" d="M423.125 60.0465C395.959 62.685 370.385 74.0759 350.253 92.5048C330.121 110.934 316.519 135.403 311.495 162.231C306.472 189.058 310.298 216.791 322.398 241.256C334.498 265.72 354.218 285.593 378.588 297.882L435.301 185.414L423.125 60.0465Z" fill="url(#paint1_linear_1827_1110)"/>
<path d="M-1.62256 130.873L38.7177 171.064C51.0137 182.251 75.6082 204.624 102.464 220.782C129.319 236.94 158.437 246.884 188.607 253.937C218.776 260.989 249.999 265.151 265.609 267.232L281.221 269.313" stroke="url(#paint2_linear_1827_1110)" stroke-width="8.11318"/>
<path d="M-8.11353 209.945L24.5658 209.945C41.0182 209.712 73.9241 209.25 105.462 212.544C136.999 215.838 167.17 222.891 194.761 237.026C222.353 251.16 247.368 272.378 259.875 282.986L272.383 293.595" stroke="url(#paint3_linear_1827_1110)" stroke-width="8.11318"/>
<path d="M-10.9529 184.826L27.0914 203.007C41.0186 209.712 68.8743 223.125 97.0977 235.525C125.321 247.925 153.913 259.314 183.82 267.089C213.726 274.865 244.949 279.026 260.559 281.108L276.171 283.188" stroke="url(#paint4_linear_1827_1110)" stroke-width="8.11318"/>
<path d="M354.182 283.691C346.522 258.963 331.43 237.195 310.958 221.35C290.486 205.505 265.63 196.353 239.771 195.139C213.912 193.924 188.307 200.707 166.441 214.564C144.574 228.421 127.509 248.679 117.566 272.581L233.863 320.958L354.182 283.691Z" fill="url(#paint5_linear_1827_1110)"/>
<g filter="url(#filter0_b_1827_1110)">
<path d="M95.1276 -1.41987C95.1276 9.60745 54.7819 8.11869 37.4196 26.0496C28.5189 35.2418 27.0143 45.4945 19.2168 53.292C11.4193 61.0895 2.16234 67.2748 -8.02558 71.4948C-18.2135 75.7147 -29.1328 77.8867 -40.1602 77.8867L-40.1602 -6.08496L95.1276 -1.41987Z" fill="url(#paint6_linear_1827_1110)"/>
</g>
<g filter="url(#filter1_b_1827_1110)">
<path d="M0 261H102.774C111.735 261 119 268.265 119 277.226V279.66H0V261Z" fill="white" fill-opacity="0.15"/>
<path d="M20.8601 272.776C20.4113 272.774 20.0277 272.656 19.7096 272.421C19.3914 272.186 19.148 271.844 18.9794 271.395C18.8109 270.946 18.7266 270.406 18.7266 269.773C18.7266 269.142 18.8109 268.603 18.9794 268.156C19.1499 267.71 19.3942 267.369 19.7124 267.134C20.0325 266.899 20.4151 266.781 20.8601 266.781C21.3052 266.781 21.6868 266.9 22.005 267.137C22.3232 267.371 22.5666 267.712 22.7351 268.159C22.9056 268.604 22.9908 269.142 22.9908 269.773C22.9908 270.407 22.9065 270.949 22.738 271.398C22.5694 271.845 22.326 272.187 22.0079 272.424C21.6897 272.658 21.3071 272.776 20.8601 272.776ZM20.8601 272.017C21.2541 272.017 21.5618 271.825 21.7834 271.441C22.0069 271.056 22.1187 270.5 22.1187 269.773C22.1187 269.29 22.0675 268.882 21.9652 268.549C21.8649 268.213 21.72 267.96 21.5306 267.787C21.3431 267.613 21.1196 267.526 20.8601 267.526C20.4681 267.526 20.1603 267.719 19.9368 268.105C19.7133 268.492 19.6007 269.048 19.5988 269.773C19.5988 270.258 19.649 270.668 19.7493 271.003C19.8516 271.336 19.9965 271.589 20.184 271.762C20.3715 271.932 20.5969 272.017 20.8601 272.017ZM26.581 269.401V270.139H24.0015V269.401H26.581ZM27.5796 271.543V270.833L30.0938 266.861H30.6535V267.906H30.2983L28.5 270.753V270.799H31.9461V271.543H27.5796ZM30.3381 272.679V271.327L30.3438 271.003V266.861H31.1762V272.679H30.3381ZM35.6016 274.316C35.4747 274.316 35.3592 274.305 35.255 274.284C35.1508 274.265 35.0732 274.245 35.0221 274.222L35.2266 273.526C35.3819 273.567 35.5202 273.585 35.6414 273.58C35.7626 273.574 35.8696 273.529 35.9624 273.443C36.0571 273.358 36.1404 273.219 36.2124 273.026L36.3175 272.736L34.7209 268.316H35.63L36.7351 271.702H36.7806L37.8857 268.316H38.7976L36.9993 273.262C36.916 273.489 36.8099 273.681 36.6812 273.838C36.5524 273.997 36.399 274.117 36.2209 274.196C36.0429 274.276 35.8365 274.316 35.6016 274.316ZM41.3282 272.767C40.8982 272.767 40.528 272.675 40.2174 272.492C39.9087 272.306 39.67 272.046 39.5015 271.71C39.3348 271.373 39.2515 270.978 39.2515 270.526C39.2515 270.079 39.3348 269.685 39.5015 269.344C39.67 269.003 39.9049 268.737 40.206 268.546C40.509 268.354 40.8632 268.259 41.2685 268.259C41.5147 268.259 41.7534 268.299 41.9844 268.381C42.2155 268.462 42.4229 268.59 42.6066 268.764C42.7903 268.939 42.9352 269.165 43.0412 269.443C43.1473 269.72 43.2003 270.056 43.2003 270.452V270.753H39.7316V270.117H42.3679C42.3679 269.893 42.3225 269.695 42.2316 269.523C42.1407 269.349 42.0128 269.211 41.8481 269.111C41.6852 269.011 41.4939 268.96 41.2742 268.96C41.0356 268.96 40.8272 269.019 40.6492 269.137C40.4731 269.252 40.3367 269.404 40.2401 269.591C40.1454 269.777 40.0981 269.978 40.0981 270.196V270.693C40.0981 270.985 40.1492 271.233 40.2515 271.438C40.3556 271.642 40.5005 271.799 40.6861 271.906C40.8717 272.013 41.0886 272.066 41.3367 272.066C41.4977 272.066 41.6445 272.043 41.777 271.997C41.9096 271.95 42.0242 271.88 42.1208 271.787C42.2174 271.694 42.2912 271.58 42.3424 271.443L43.1464 271.588C43.082 271.825 42.9664 272.032 42.7998 272.21C42.635 272.387 42.4276 272.524 42.1776 272.622C41.9295 272.719 41.6464 272.767 41.3282 272.767ZM45.4127 272.776C45.1362 272.776 44.8862 272.725 44.6627 272.622C44.4392 272.518 44.2621 272.368 44.1314 272.171C44.0026 271.974 43.9383 271.732 43.9383 271.446C43.9383 271.2 43.9856 270.997 44.0803 270.838C44.175 270.679 44.3028 270.553 44.4638 270.46C44.6248 270.368 44.8047 270.298 45.0036 270.25C45.2025 270.203 45.4051 270.167 45.6116 270.142C45.8729 270.112 46.085 270.087 46.2479 270.068C46.4108 270.048 46.5292 270.014 46.603 269.969C46.6769 269.924 46.7138 269.85 46.7138 269.747V269.727C46.7138 269.479 46.6437 269.287 46.5036 269.151C46.3653 269.014 46.1589 268.946 45.8843 268.946C45.5983 268.946 45.3729 269.01 45.2081 269.137C45.0453 269.262 44.9326 269.401 44.8701 269.554L44.0718 269.372C44.1665 269.107 44.3047 268.893 44.4866 268.73C44.6703 268.566 44.8814 268.446 45.1201 268.372C45.3587 268.297 45.6097 268.259 45.8729 268.259C46.0472 268.259 46.2318 268.28 46.4269 268.321C46.6239 268.361 46.8076 268.435 46.978 268.543C47.1504 268.651 47.2915 268.805 47.4013 269.006C47.5112 269.205 47.5661 269.463 47.5661 269.781V272.679H46.7366V272.083H46.7025C46.6475 272.192 46.5651 272.3 46.4553 272.406C46.3455 272.513 46.2044 272.601 46.032 272.671C45.8597 272.741 45.6532 272.776 45.4127 272.776ZM45.5973 272.094C45.8322 272.094 46.033 272.048 46.1996 271.955C46.3682 271.862 46.496 271.741 46.5831 271.591C46.6722 271.44 46.7167 271.278 46.7167 271.105V270.543C46.6864 270.573 46.6276 270.602 46.5405 270.628C46.4553 270.653 46.3578 270.674 46.2479 270.693C46.1381 270.71 46.0311 270.727 45.9269 270.742C45.8227 270.755 45.7356 270.766 45.6655 270.776C45.5008 270.797 45.3502 270.832 45.2138 270.881C45.0794 270.93 44.9714 271.001 44.89 271.094C44.8104 271.185 44.7706 271.306 44.7706 271.458C44.7706 271.668 44.8483 271.827 45.0036 271.935C45.1589 272.041 45.3568 272.094 45.5973 272.094ZM48.6975 272.679V268.316H49.5185V269.009H49.564C49.6435 268.774 49.7837 268.589 49.9844 268.455C50.1871 268.318 50.4162 268.25 50.6719 268.25C50.7249 268.25 50.7874 268.252 50.8594 268.256C50.9333 268.26 50.991 268.264 51.0327 268.27V269.083C50.9986 269.073 50.938 269.063 50.8509 269.051C50.7638 269.038 50.6767 269.031 50.5895 269.031C50.3888 269.031 50.2098 269.074 50.0526 269.159C49.8973 269.243 49.7742 269.359 49.6833 269.509C49.5924 269.656 49.5469 269.825 49.5469 270.014V272.679H48.6975ZM55.0377 269.381L54.2678 269.517C54.2356 269.419 54.1845 269.325 54.1144 269.236C54.0462 269.147 53.9534 269.074 53.836 269.017C53.7186 268.96 53.5718 268.932 53.3956 268.932C53.1551 268.932 52.9544 268.986 52.7934 269.094C52.6324 269.2 52.5519 269.337 52.5519 269.506C52.5519 269.652 52.6059 269.769 52.7138 269.858C52.8218 269.947 52.996 270.02 53.2366 270.077L53.9297 270.236C54.3312 270.329 54.6305 270.472 54.8275 270.665C55.0244 270.858 55.1229 271.109 55.1229 271.418C55.1229 271.679 55.0472 271.912 54.8956 272.117C54.746 272.319 54.5367 272.478 54.2678 272.594C54.0008 272.71 53.6911 272.767 53.3388 272.767C52.8502 272.767 52.4515 272.663 52.1428 272.455C51.8341 272.245 51.6447 271.946 51.5746 271.56L52.3956 271.435C52.4468 271.649 52.5519 271.811 52.711 271.921C52.8701 272.029 53.0775 272.083 53.3331 272.083C53.6116 272.083 53.8341 272.025 54.0008 271.909C54.1674 271.792 54.2508 271.649 54.2508 271.48C54.2508 271.344 54.1996 271.229 54.0973 271.137C53.997 271.044 53.8426 270.974 53.6343 270.926L52.8956 270.764C52.4884 270.672 52.1873 270.524 51.9922 270.321C51.7991 270.119 51.7025 269.862 51.7025 269.551C51.7025 269.294 51.7744 269.068 51.9184 268.875C52.0623 268.682 52.2612 268.531 52.515 268.424C52.7687 268.314 53.0595 268.259 53.3871 268.259C53.8587 268.259 54.2299 268.361 54.5008 268.566C54.7716 268.768 54.9506 269.04 55.0377 269.381ZM60.0547 272.767C59.6248 272.767 59.2545 272.675 58.9439 272.492C58.6352 272.306 58.3966 272.046 58.228 271.71C58.0614 271.373 57.978 270.978 57.978 270.526C57.978 270.079 58.0614 269.685 58.228 269.344C58.3966 269.003 58.6314 268.737 58.9326 268.546C59.2356 268.354 59.5898 268.259 59.9951 268.259C60.2413 268.259 60.4799 268.299 60.711 268.381C60.942 268.462 61.1494 268.59 61.3331 268.764C61.5169 268.939 61.6617 269.165 61.7678 269.443C61.8739 269.72 61.9269 270.056 61.9269 270.452V270.753H58.4581V270.117H61.0945C61.0945 269.893 61.0491 269.695 60.9581 269.523C60.8672 269.349 60.7394 269.211 60.5746 269.111C60.4117 269.011 60.2205 268.96 60.0008 268.96C59.7621 268.96 59.5538 269.019 59.3758 269.137C59.1996 269.252 59.0633 269.404 58.9667 269.591C58.872 269.777 58.8246 269.978 58.8246 270.196V270.693C58.8246 270.985 58.8758 271.233 58.978 271.438C59.0822 271.642 59.2271 271.799 59.4127 271.906C59.5983 272.013 59.8151 272.066 60.0633 272.066C60.2242 272.066 60.371 272.043 60.5036 271.997C60.6362 271.95 60.7508 271.88 60.8473 271.787C60.9439 271.694 61.0178 271.58 61.0689 271.443L61.8729 271.588C61.8085 271.825 61.693 272.032 61.5263 272.21C61.3616 272.387 61.1542 272.524 60.9042 272.622C60.6561 272.719 60.3729 272.767 60.0547 272.767ZM63.4383 268.316L64.4013 270.014L65.3729 268.316H66.3019L64.9411 270.497L66.3133 272.679H65.3843L64.4013 271.049L63.4212 272.679H62.4894L63.8473 270.497L62.5064 268.316H63.4383ZM67.1741 274.316V268.316H68.0036V269.023H68.0746C68.1239 268.932 68.1949 268.827 68.2877 268.708C68.3805 268.588 68.5093 268.484 68.6741 268.395C68.8388 268.304 69.0566 268.259 69.3275 268.259C69.6797 268.259 69.9941 268.348 70.2706 268.526C70.5472 268.704 70.764 268.96 70.9212 269.296C71.0803 269.631 71.1598 270.034 71.1598 270.506C71.1598 270.977 71.0812 271.382 70.9241 271.719C70.7669 272.054 70.5509 272.313 70.2763 272.495C70.0017 272.674 69.6883 272.764 69.336 272.764C69.0708 272.764 68.854 272.72 68.6854 272.631C68.5187 272.542 68.3881 272.438 68.2934 272.318C68.1987 272.199 68.1258 272.093 68.0746 272H68.0235V274.316H67.1741ZM68.0064 270.497C68.0064 270.804 68.0509 271.073 68.14 271.304C68.229 271.535 68.3578 271.716 68.5263 271.847C68.6949 271.976 68.9013 272.04 69.1456 272.04C69.3994 272.04 69.6116 271.973 69.782 271.838C69.9525 271.702 70.0812 271.517 70.1684 271.284C70.2574 271.051 70.3019 270.789 70.3019 270.497C70.3019 270.21 70.2583 269.951 70.1712 269.722C70.086 269.493 69.9572 269.312 69.7848 269.179C69.6144 269.047 69.4013 268.98 69.1456 268.98C68.8994 268.98 68.6911 269.044 68.5206 269.171C68.3521 269.298 68.2242 269.475 68.1371 269.702C68.05 269.929 68.0064 270.194 68.0064 270.497ZM73.9922 272.767C73.5623 272.767 73.192 272.675 72.8814 272.492C72.5727 272.306 72.3341 272.046 72.1655 271.71C71.9989 271.373 71.9155 270.978 71.9155 270.526C71.9155 270.079 71.9989 269.685 72.1655 269.344C72.3341 269.003 72.5689 268.737 72.8701 268.546C73.1731 268.354 73.5273 268.259 73.9326 268.259C74.1788 268.259 74.4174 268.299 74.6485 268.381C74.8795 268.462 75.0869 268.59 75.2706 268.764C75.4544 268.939 75.5992 269.165 75.7053 269.443C75.8114 269.72 75.8644 270.056 75.8644 270.452V270.753H72.3956V270.117H75.032C75.032 269.893 74.9866 269.695 74.8956 269.523C74.8047 269.349 74.6769 269.211 74.5121 269.111C74.3492 269.011 74.158 268.96 73.9383 268.96C73.6996 268.96 73.4913 269.019 73.3133 269.137C73.1371 269.252 73.0008 269.404 72.9042 269.591C72.8095 269.777 72.7621 269.978 72.7621 270.196V270.693C72.7621 270.985 72.8133 271.233 72.9155 271.438C73.0197 271.642 73.1646 271.799 73.3502 271.906C73.5358 272.013 73.7526 272.066 74.0008 272.066C74.1617 272.066 74.3085 272.043 74.4411 271.997C74.5737 271.95 74.6883 271.88 74.7848 271.787C74.8814 271.694 74.9553 271.58 75.0064 271.443L75.8104 271.588C75.746 271.825 75.6305 272.032 75.4638 272.21C75.2991 272.387 75.0917 272.524 74.8417 272.622C74.5936 272.719 74.3104 272.767 73.9922 272.767ZM76.8069 272.679V268.316H77.6279V269.009H77.6733C77.7529 268.774 77.893 268.589 78.0938 268.455C78.2964 268.318 78.5256 268.25 78.7813 268.25C78.8343 268.25 78.8968 268.252 78.9688 268.256C79.0427 268.26 79.1004 268.264 79.1421 268.27V269.083C79.108 269.073 79.0474 269.063 78.9603 269.051C78.8732 269.038 78.786 269.031 78.6989 269.031C78.4982 269.031 78.3192 269.074 78.162 269.159C78.0067 269.243 77.8836 269.359 77.7927 269.509C77.7017 269.656 77.6563 269.825 77.6563 270.014V272.679H76.8069ZM79.8772 272.679V268.316H80.7266V272.679H79.8772ZM80.3062 267.642C80.1584 267.642 80.0315 267.593 79.9255 267.495C79.8213 267.394 79.7692 267.275 79.7692 267.137C79.7692 266.996 79.8213 266.877 79.9255 266.779C80.0315 266.678 80.1584 266.628 80.3062 266.628C80.4539 266.628 80.5798 266.678 80.684 266.779C80.7901 266.877 80.8431 266.996 80.8431 267.137C80.8431 267.275 80.7901 267.394 80.684 267.495C80.5798 267.593 80.4539 267.642 80.3062 267.642ZM83.75 272.767C83.3201 272.767 82.9499 272.675 82.6392 272.492C82.3305 272.306 82.0919 272.046 81.9233 271.71C81.7567 271.373 81.6733 270.978 81.6733 270.526C81.6733 270.079 81.7567 269.685 81.9233 269.344C82.0919 269.003 82.3267 268.737 82.6279 268.546C82.9309 268.354 83.2851 268.259 83.6904 268.259C83.9366 268.259 84.1752 268.299 84.4063 268.381C84.6374 268.462 84.8447 268.59 85.0285 268.764C85.2122 268.939 85.3571 269.165 85.4631 269.443C85.5692 269.72 85.6222 270.056 85.6222 270.452V270.753H82.1535V270.117H84.7898C84.7898 269.893 84.7444 269.695 84.6535 269.523C84.5625 269.349 84.4347 269.211 84.2699 269.111C84.1071 269.011 83.9158 268.96 83.6961 268.96C83.4574 268.96 83.2491 269.019 83.0711 269.137C82.8949 269.252 82.7586 269.404 82.662 269.591C82.5673 269.777 82.5199 269.978 82.5199 270.196V270.693C82.5199 270.985 82.5711 271.233 82.6733 271.438C82.7775 271.642 82.9224 271.799 83.108 271.906C83.2936 272.013 83.5105 272.066 83.7586 272.066C83.9196 272.066 84.0663 272.043 84.1989 271.997C84.3315 271.95 84.4461 271.88 84.5427 271.787C84.6392 271.694 84.7131 271.58 84.7642 271.443L85.5682 271.588C85.5038 271.825 85.3883 272.032 85.2216 272.21C85.0569 272.387 84.8495 272.524 84.5995 272.622C84.3514 272.719 84.0682 272.767 83.75 272.767ZM87.4141 270.088V272.679H86.5647V268.316H87.38V269.026H87.434C87.5344 268.795 87.6916 268.609 87.9056 268.469C88.1215 268.329 88.3933 268.259 88.7209 268.259C89.0183 268.259 89.2787 268.321 89.5022 268.446C89.7257 268.569 89.899 268.753 90.0221 268.997C90.1452 269.242 90.2067 269.544 90.2067 269.904V272.679H89.3573V270.006C89.3573 269.69 89.2749 269.442 89.1101 269.264C88.9454 269.085 88.719 268.995 88.4312 268.995C88.2342 268.995 88.059 269.037 87.9056 269.122C87.7541 269.208 87.6338 269.333 87.5448 269.497C87.4577 269.66 87.4141 269.857 87.4141 270.088ZM93.184 272.767C92.7616 272.767 92.398 272.672 92.0931 272.48C91.7901 272.287 91.5571 272.021 91.3942 271.682C91.2313 271.343 91.1499 270.955 91.1499 270.517C91.1499 270.074 91.2332 269.683 91.3999 269.344C91.5666 269.003 91.8014 268.737 92.1044 268.546C92.4075 268.354 92.7645 268.259 93.1755 268.259C93.5069 268.259 93.8024 268.32 94.0618 268.443C94.3213 268.565 94.5306 268.735 94.6897 268.955C94.8507 269.174 94.9463 269.431 94.9766 269.725H94.1499C94.1044 269.52 94.0003 269.344 93.8374 269.196C93.6764 269.049 93.4605 268.975 93.1897 268.975C92.9529 268.975 92.7455 269.037 92.5675 269.162C92.3914 269.285 92.2541 269.461 92.1556 269.691C92.0571 269.918 92.0079 270.187 92.0079 270.497C92.0079 270.816 92.0562 271.09 92.1527 271.321C92.2493 271.552 92.3857 271.731 92.5618 271.858C92.7399 271.985 92.9491 272.049 93.1897 272.049C93.3507 272.049 93.4965 272.019 93.6272 271.96C93.7598 271.9 93.8705 271.814 93.9596 271.702C94.0505 271.59 94.1139 271.456 94.1499 271.299H94.9766C94.9463 271.581 94.8544 271.833 94.701 272.054C94.5476 272.276 94.3421 272.45 94.0846 272.577C93.8289 272.704 93.5287 272.767 93.184 272.767ZM97.7657 272.767C97.3357 272.767 96.9655 272.675 96.6549 272.492C96.3462 272.306 96.1075 272.046 95.939 271.71C95.7723 271.373 95.689 270.978 95.689 270.526C95.689 270.079 95.7723 269.685 95.939 269.344C96.1075 269.003 96.3424 268.737 96.6435 268.546C96.9465 268.354 97.3007 268.259 97.706 268.259C97.9522 268.259 98.1909 268.299 98.4219 268.381C98.653 268.462 98.8604 268.59 99.0441 268.764C99.2278 268.939 99.3727 269.165 99.4787 269.443C99.5848 269.72 99.6378 270.056 99.6378 270.452V270.753H96.1691V270.117H98.8054C98.8054 269.893 98.76 269.695 98.6691 269.523C98.5782 269.349 98.4503 269.211 98.2856 269.111C98.1227 269.011 97.9314 268.96 97.7117 268.96C97.4731 268.96 97.2647 269.019 97.0867 269.137C96.9106 269.252 96.7742 269.404 96.6776 269.591C96.5829 269.777 96.5356 269.978 96.5356 270.196V270.693C96.5356 270.985 96.5867 271.233 96.689 271.438C96.7931 271.642 96.938 271.799 97.1236 271.906C97.3092 272.013 97.5261 272.066 97.7742 272.066C97.9352 272.066 98.082 272.043 98.2145 271.997C98.3471 271.95 98.4617 271.88 98.5583 271.787C98.6549 271.694 98.7287 271.58 98.7799 271.443L99.5839 271.588C99.5195 271.825 99.4039 272.032 99.2373 272.21C99.0725 272.387 98.8651 272.524 98.6151 272.622C98.367 272.719 98.0839 272.767 97.7657 272.767Z" fill="white"/>
</g>
<g clip-path="url(#clip1_1827_1110)">
<path d="M347.08 -46.0005C315.623 -46.0005 317.587 -32.359 317.587 -32.359L317.622 -18.2261H347.641V-13.983H305.699C305.699 -13.983 285.57 -16.2659 285.57 15.4736C285.57 47.214 303.139 46.0884 303.139 46.0884H313.625V31.3596C313.625 31.3596 313.059 13.7904 330.913 13.7904H360.686C360.686 13.7904 377.414 14.0607 377.414 -2.37601V-29.5531C377.414 -29.5531 379.954 -46.0005 347.08 -46.0005ZM330.528 -36.4964C331.237 -36.497 331.94 -36.3577 332.595 -36.0866C333.251 -35.8154 333.846 -35.4177 334.348 -34.9161C334.849 -34.4145 335.247 -33.8189 335.518 -33.1634C335.789 -32.5079 335.929 -31.8054 335.928 -31.0961C335.929 -30.3867 335.789 -29.6842 335.518 -29.0287C335.247 -28.3732 334.849 -27.7776 334.348 -27.2761C333.846 -26.7745 333.251 -26.3767 332.595 -26.1055C331.94 -25.8344 331.237 -25.6951 330.528 -25.6958C329.818 -25.6951 329.116 -25.8344 328.46 -26.1055C327.805 -26.3767 327.209 -26.7745 326.708 -27.2761C326.206 -27.7776 325.808 -28.3732 325.537 -29.0287C325.266 -29.6842 325.127 -30.3867 325.127 -31.0961C325.127 -31.8054 325.266 -32.5079 325.537 -33.1634C325.808 -33.8189 326.206 -34.4145 326.708 -34.9161C327.209 -35.4177 327.805 -35.8154 328.46 -36.0866C329.116 -36.3577 329.818 -36.497 330.528 -36.4964Z" fill="url(#paint7_linear_1827_1110)"/>
<path d="M347.974 77.2652C379.43 77.2652 377.466 63.6237 377.466 63.6237L377.431 49.4913H347.412V45.2482H389.354C389.354 45.2482 409.483 47.531 409.483 15.7906C409.483 -15.9493 391.913 -14.8237 391.913 -14.8237H381.428V-0.0953809C381.428 -0.0953809 381.994 17.4738 364.14 17.4738H334.367C334.367 17.4738 317.639 17.2035 317.639 33.6407V60.8183C317.639 60.8183 315.099 77.2652 347.973 77.2652M364.525 67.762C363.816 67.7626 363.113 67.6234 362.458 67.3522C361.802 67.0811 361.207 66.6833 360.705 66.1817C360.204 65.6801 359.806 65.0846 359.535 64.4291C359.264 63.7736 359.124 63.0711 359.125 62.3617C359.124 61.6523 359.263 60.9497 359.535 60.2942C359.806 59.6387 360.203 59.043 360.705 58.5414C361.207 58.0397 361.802 57.642 362.458 57.3708C363.113 57.0996 363.816 56.9603 364.525 56.9609C365.235 56.9603 365.937 57.0995 366.593 57.3707C367.248 57.6419 367.844 58.0396 368.345 58.5412C368.847 59.0428 369.245 59.6384 369.516 60.2939C369.787 60.9494 369.926 61.6519 369.926 62.3612C369.926 63.0706 369.787 63.7731 369.516 64.4286C369.245 65.0841 368.847 65.6796 368.345 66.1812C367.844 66.6828 367.248 67.0806 366.593 67.3518C365.937 67.6229 365.235 67.7626 364.525 67.762Z" fill="url(#paint8_linear_1827_1110)"/>
</g>
<g filter="url(#filter2_bd_1827_1110)">
<mask id="path-12-inside-1_1827_1110" fill="white">
<path d="M26 64.0566C26 61.8162 27.8162 60 30.0566 60H119.113C121.354 60 123.17 61.8162 123.17 64.0566V72C123.17 74.2404 121.354 76.0566 119.113 76.0566H30.0566C27.8162 76.0566 26 74.2404 26 72V64.0566Z"/>
</mask>
<path d="M26 64.0566C26 61.8162 27.8162 60 30.0566 60H119.113C121.354 60 123.17 61.8162 123.17 64.0566V72C123.17 74.2404 121.354 76.0566 119.113 76.0566H30.0566C27.8162 76.0566 26 74.2404 26 72V64.0566Z" fill="white" fill-opacity="0.15" shape-rendering="crispEdges"/>
<path d="M26 64.0566C26 61.5922 27.9978 59.5943 30.4623 59.5943H118.708C121.172 59.5943 123.17 61.5922 123.17 64.0566V64.0566C123.17 62.0402 121.354 60.4057 119.113 60.4057H30.0566C27.8162 60.4057 26 62.0402 26 64.0566V64.0566ZM123.17 72C123.17 74.4644 121.172 76.4623 118.708 76.4623H30.4623C27.9978 76.4623 26 74.4644 26 72V72C26 74.0164 27.8162 75.6509 30.0566 75.6509H119.113C121.354 75.6509 123.17 74.0164 123.17 72V72ZM26 76.0566V60V76.0566ZM123.17 60V76.0566V60Z" fill="url(#paint9_linear_1827_1110)" mask="url(#path-12-inside-1_1827_1110)"/>
<path d="M33.7567 72.0283V64.7556H36.214C36.7846 64.7556 37.251 64.8586 37.6132 65.0645C37.9778 65.2681 38.2477 65.5439 38.4229 65.892C38.598 66.24 38.6856 66.6282 38.6856 67.0567C38.6856 67.4852 38.598 67.8747 38.4229 68.2251C38.25 68.5754 37.9825 68.8548 37.6203 69.0631C37.2581 69.2691 36.7941 69.3721 36.2282 69.3721H34.4669V68.5908H36.1998C36.5905 68.5908 36.9041 68.5233 37.1409 68.3884C37.3776 68.2535 37.5493 68.0712 37.6558 67.8415C37.7647 67.6095 37.8192 67.3479 37.8192 67.0567C37.8192 66.7655 37.7647 66.5051 37.6558 66.2755C37.5493 66.0458 37.3765 65.8659 37.1373 65.7357C36.8982 65.6031 36.581 65.5368 36.1856 65.5368H34.6373V72.0283H33.7567ZM40.5305 74.0738C40.3884 74.0738 40.2617 74.0619 40.1505 74.0383C40.0392 74.017 39.9623 73.9956 39.9197 73.9743L40.1327 73.2357C40.3363 73.2878 40.5162 73.3067 40.6725 73.2925C40.8287 73.2783 40.9672 73.2085 41.088 73.083C41.2111 72.9599 41.3235 72.7599 41.4253 72.4829L41.5816 72.0567L39.5645 66.5738H40.4736L41.9793 70.9204H42.0361L43.5418 66.5738H44.4509L42.1356 72.8238C42.0314 73.1055 41.9024 73.3387 41.7485 73.5233C41.5946 73.7104 41.4159 73.8489 41.2123 73.9388C41.011 74.0288 40.7838 74.0738 40.5305 74.0738ZM47.9292 66.5738V67.284H45.1025V66.5738H47.9292ZM45.9264 65.267H46.7645V70.4658C46.7645 70.7026 46.7988 70.8801 46.8675 70.9985C46.9385 71.1145 47.0284 71.1926 47.1373 71.2329C47.2486 71.2707 47.3658 71.2897 47.4889 71.2897C47.5812 71.2897 47.657 71.2849 47.7162 71.2755C47.7754 71.2636 47.8227 71.2542 47.8582 71.2471L48.0287 71.9999C47.9719 72.0212 47.8925 72.0425 47.7907 72.0638C47.689 72.0875 47.5599 72.0993 47.4037 72.0993C47.1669 72.0993 46.9349 72.0484 46.7077 71.9466C46.4827 71.8448 46.2957 71.6898 46.1466 71.4814C45.9998 71.2731 45.9264 71.0103 45.9264 70.6931V65.267ZM50.1452 68.7471V72.0283H49.3071V64.7556H50.1452V67.426H50.2162C50.344 67.1443 50.5358 66.9206 50.7915 66.7549C51.0495 66.5868 51.3928 66.5028 51.8213 66.5028C52.193 66.5028 52.5185 66.5773 52.7979 66.7265C53.0772 66.8733 53.2938 67.0993 53.4477 67.4047C53.604 67.7078 53.6821 68.0937 53.6821 68.5624V72.0283H52.844V68.6192C52.844 68.186 52.7316 67.851 52.5067 67.6143C52.2841 67.3751 51.9752 67.2556 51.5798 67.2556C51.3052 67.2556 51.059 67.3136 50.8412 67.4296C50.6257 67.5456 50.4553 67.7149 50.3298 67.9374C50.2067 68.1599 50.1452 68.4298 50.1452 68.7471ZM57.4312 72.142C56.9388 72.142 56.5067 72.0248 56.135 71.7904C55.7657 71.556 55.4769 71.2281 55.2686 70.8067C55.0626 70.3853 54.9596 69.8929 54.9596 69.3295C54.9596 68.7613 55.0626 68.2653 55.2686 67.8415C55.4769 67.4178 55.7657 67.0887 56.135 66.8543C56.5067 66.6199 56.9388 66.5028 57.4312 66.5028C57.9236 66.5028 58.3545 66.6199 58.7238 66.8543C59.0955 67.0887 59.3843 67.4178 59.5903 67.8415C59.7986 68.2653 59.9028 68.7613 59.9028 69.3295C59.9028 69.8929 59.7986 70.3853 59.5903 70.8067C59.3843 71.2281 59.0955 71.556 58.7238 71.7904C58.3545 72.0248 57.9236 72.142 57.4312 72.142ZM57.4312 71.3891C57.8052 71.3891 58.113 71.2932 58.3545 71.1015C58.596 70.9097 58.7747 70.6576 58.8907 70.3451C59.0067 70.0326 59.0647 69.694 59.0647 69.3295C59.0647 68.9649 59.0067 68.6251 58.8907 68.3103C58.7747 67.9954 58.596 67.7409 58.3545 67.5468C58.113 67.3527 57.8052 67.2556 57.4312 67.2556C57.0571 67.2556 56.7494 67.3527 56.5079 67.5468C56.2664 67.7409 56.0877 67.9954 55.9717 68.3103C55.8557 68.6251 55.7977 68.9649 55.7977 69.3295C55.7977 69.694 55.8557 70.0326 55.9717 70.3451C56.0877 70.6576 56.2664 70.9097 56.5079 71.1015C56.7494 71.2932 57.0571 71.3891 57.4312 71.3891ZM62.0202 68.7471V72.0283H61.1821V66.5738H61.9917V67.426H62.0628C62.1906 67.1491 62.3847 66.9265 62.6452 66.7584C62.9056 66.588 63.2417 66.5028 63.6537 66.5028C64.023 66.5028 64.3461 66.5785 64.6231 66.73C64.9001 66.8792 65.1156 67.1064 65.2694 67.4118C65.4233 67.7149 65.5003 68.0984 65.5003 68.5624V72.0283H64.6622V68.6192C64.6622 68.1907 64.5509 67.8569 64.3284 67.6178C64.1059 67.3763 63.8005 67.2556 63.4122 67.2556C63.1447 67.2556 62.9056 67.3136 62.6949 67.4296C62.4865 67.5456 62.322 67.7149 62.2013 67.9374C62.0805 68.1599 62.0202 68.4298 62.0202 68.7471ZM72.2021 72.0283H69.9578V64.7556H72.3016C73.0071 64.7556 73.6108 64.9012 74.1127 65.1924C74.6146 65.4812 74.9993 65.8967 75.2668 66.4388C75.5343 66.9786 75.6681 67.6249 75.6681 68.3778C75.6681 69.1353 75.5331 69.7876 75.2632 70.3344C74.9933 70.8789 74.6003 71.298 74.0843 71.5915C73.5682 71.8827 72.9408 72.0283 72.2021 72.0283ZM70.8385 71.2471H72.1453C72.7467 71.2471 73.245 71.1311 73.6404 70.8991C74.0357 70.6671 74.3305 70.3368 74.5246 69.9083C74.7187 69.4798 74.8158 68.9696 74.8158 68.3778C74.8158 67.7906 74.7199 67.2852 74.5281 66.8614C74.3364 66.4353 74.0499 66.1086 73.6688 65.8813C73.2876 65.6517 72.8129 65.5368 72.2448 65.5368H70.8385V71.2471ZM79.3186 72.142C78.7931 72.142 78.3397 72.026 77.9585 71.7939C77.5798 71.5596 77.2874 71.2329 77.0814 70.8138C76.8778 70.3924 76.776 69.9024 76.776 69.3437C76.776 68.7849 76.8778 68.2925 77.0814 67.8664C77.2874 67.4379 77.5738 67.1041 77.9408 66.865C78.3101 66.6235 78.741 66.5028 79.2334 66.5028C79.5175 66.5028 79.798 66.5501 80.075 66.6448C80.352 66.7395 80.6041 66.8934 80.8314 67.1064C81.0587 67.3171 81.2398 67.5965 81.3747 67.9445C81.5097 68.2925 81.5771 68.721 81.5771 69.23V69.5851H77.3726V68.8607H80.7249C80.7249 68.5529 80.6633 68.2783 80.5402 68.0368C80.4195 67.7954 80.2467 67.6048 80.0218 67.4651C79.7992 67.3254 79.5364 67.2556 79.2334 67.2556C78.8996 67.2556 78.6108 67.3385 78.3669 67.5042C78.1254 67.6675 77.9396 67.8806 77.8094 68.1434C77.6792 68.4062 77.6141 68.6879 77.6141 68.9885V69.4715C77.6141 69.8834 77.6851 70.2326 77.8271 70.5191C77.9716 70.8032 78.1716 71.0198 78.4273 71.1689C78.683 71.3157 78.9801 71.3891 79.3186 71.3891C79.5388 71.3891 79.7377 71.3583 79.9152 71.2968C80.0951 71.2329 80.2502 71.1382 80.3804 71.0127C80.5106 70.8849 80.6112 70.7262 80.6823 70.5368L81.4919 70.7641C81.4067 71.0387 81.2635 71.2802 81.0622 71.4885C80.861 71.6945 80.6124 71.8555 80.3165 71.9715C80.0206 72.0851 79.6879 72.142 79.3186 72.142ZM87.1462 66.5738L85.1292 72.0283H84.2769L82.2599 66.5738H83.1689L84.6746 70.9204H84.7314L86.2371 66.5738H87.1462ZM90.344 72.142C89.8184 72.142 89.3651 72.026 88.9839 71.7939C88.6051 71.5596 88.3128 71.2329 88.1068 70.8138C87.9032 70.3924 87.8014 69.9024 87.8014 69.3437C87.8014 68.7849 87.9032 68.2925 88.1068 67.8664C88.3128 67.4379 88.5992 67.1041 88.9662 66.865C89.3355 66.6235 89.7664 66.5028 90.2588 66.5028C90.5429 66.5028 90.8234 66.5501 91.1004 66.6448C91.3774 66.7395 91.6295 66.8934 91.8568 67.1064C92.0841 67.3171 92.2652 67.5965 92.4001 67.9445C92.5351 68.2925 92.6025 68.721 92.6025 69.23V69.5851H88.398V68.8607H91.7503C91.7503 68.5529 91.6887 68.2783 91.5656 68.0368C91.4449 67.7954 91.272 67.6048 91.0471 67.4651C90.8246 67.3254 90.5618 67.2556 90.2588 67.2556C89.925 67.2556 89.6362 67.3385 89.3923 67.5042C89.1508 67.6675 88.965 67.8806 88.8348 68.1434C88.7046 68.4062 88.6395 68.6879 88.6395 68.9885V69.4715C88.6395 69.8834 88.7105 70.2326 88.8525 70.5191C88.997 70.8032 89.197 71.0198 89.4527 71.1689C89.7084 71.3157 90.0055 71.3891 90.344 71.3891C90.5642 71.3891 90.7631 71.3583 90.9406 71.2968C91.1205 71.2329 91.2756 71.1382 91.4058 71.0127C91.536 70.8849 91.6366 70.7262 91.7077 70.5368L92.5173 70.7641C92.4321 71.0387 92.2889 71.2802 92.0876 71.4885C91.8864 71.6945 91.6378 71.8555 91.3419 71.9715C91.046 72.0851 90.7133 72.142 90.344 72.142ZM94.7155 64.7556V72.0283H93.8774V64.7556H94.7155ZM98.4664 72.142C97.9739 72.142 97.5419 72.0248 97.1702 71.7904C96.8009 71.556 96.512 71.2281 96.3037 70.8067C96.0977 70.3853 95.9948 69.8929 95.9948 69.3295C95.9948 68.7613 96.0977 68.2653 96.3037 67.8415C96.512 67.4178 96.8009 67.0887 97.1702 66.8543C97.5419 66.6199 97.9739 66.5028 98.4664 66.5028C98.9588 66.5028 99.3896 66.6199 99.759 66.8543C100.131 67.0887 100.419 67.4178 100.625 67.8415C100.834 68.2653 100.938 68.7613 100.938 69.3295C100.938 69.8929 100.834 70.3853 100.625 70.8067C100.419 71.2281 100.131 71.556 99.759 71.7904C99.3896 72.0248 98.9588 72.142 98.4664 72.142ZM98.4664 71.3891C98.8404 71.3891 99.1482 71.2932 99.3896 71.1015C99.6311 70.9097 99.8099 70.6576 99.9259 70.3451C100.042 70.0326 100.1 69.694 100.1 69.3295C100.1 68.9649 100.042 68.6251 99.9259 68.3103C99.8099 67.9954 99.6311 67.7409 99.3896 67.5468C99.1482 67.3527 98.8404 67.2556 98.4664 67.2556C98.0923 67.2556 97.7845 67.3527 97.5431 67.5468C97.3016 67.7409 97.1228 67.9954 97.0068 68.3103C96.8908 68.6251 96.8328 68.9649 96.8328 69.3295C96.8328 69.694 96.8908 70.0326 97.0068 70.3451C97.1228 70.6576 97.3016 70.9097 97.5431 71.1015C97.7845 71.2932 98.0923 71.3891 98.4664 71.3891ZM102.217 74.0738V66.5738H103.027V67.4403H103.126C103.188 67.3456 103.273 67.2248 103.382 67.078C103.493 66.9289 103.652 66.7963 103.858 66.6803C104.066 66.5619 104.348 66.5028 104.703 66.5028C105.162 66.5028 105.567 66.6176 105.918 66.8472C106.268 67.0769 106.541 67.4024 106.738 67.8238C106.934 68.2452 107.033 68.7423 107.033 69.3153C107.033 69.8929 106.934 70.3936 106.738 70.8174C106.541 71.2388 106.269 71.5655 105.921 71.7975C105.573 72.0271 105.172 72.142 104.717 72.142C104.367 72.142 104.086 72.084 103.876 71.968C103.665 71.8496 103.503 71.7158 103.389 71.5667C103.275 71.4152 103.188 71.2897 103.126 71.1903H103.055V74.0738H102.217ZM103.041 69.301C103.041 69.713 103.101 70.0764 103.222 70.3912C103.343 70.7037 103.519 70.9488 103.751 71.1263C103.983 71.3015 104.267 71.3891 104.604 71.3891C104.954 71.3891 105.246 71.2968 105.481 71.1121C105.717 70.9251 105.895 70.6742 106.013 70.3593C106.134 70.0421 106.195 69.6893 106.195 69.301C106.195 68.9175 106.135 68.5719 106.017 68.2641C105.901 67.954 105.725 67.709 105.488 67.529C105.253 67.3467 104.959 67.2556 104.604 67.2556C104.263 67.2556 103.976 67.342 103.744 67.5148C103.512 67.6853 103.337 67.9244 103.219 68.2322C103.1 68.5376 103.041 68.8939 103.041 69.301ZM110.598 72.142C110.072 72.142 109.619 72.026 109.238 71.7939C108.859 71.5596 108.567 71.2329 108.361 70.8138C108.157 70.3924 108.055 69.9024 108.055 69.3437C108.055 68.7849 108.157 68.2925 108.361 67.8664C108.567 67.4379 108.853 67.1041 109.22 66.865C109.589 66.6235 110.02 66.5028 110.513 66.5028C110.797 66.5028 111.077 66.5501 111.354 66.6448C111.631 66.7395 111.883 66.8934 112.111 67.1064C112.338 67.3171 112.519 67.5965 112.654 67.9445C112.789 68.2925 112.856 68.721 112.856 69.23V69.5851H108.652V68.8607H112.004C112.004 68.5529 111.943 68.2783 111.82 68.0368C111.699 67.7954 111.526 67.6048 111.301 67.4651C111.079 67.3254 110.816 67.2556 110.513 67.2556C110.179 67.2556 109.89 67.3385 109.646 67.5042C109.405 67.6675 109.219 67.8806 109.089 68.1434C108.958 68.4062 108.893 68.6879 108.893 68.9885V69.4715C108.893 69.8834 108.964 70.2326 109.106 70.5191C109.251 70.8032 109.451 71.0198 109.707 71.1689C109.962 71.3157 110.259 71.3891 110.598 71.3891C110.818 71.3891 111.017 71.3583 111.195 71.2968C111.374 71.2329 111.53 71.1382 111.66 71.0127C111.79 70.8849 111.891 70.7262 111.962 70.5368L112.771 70.7641C112.686 71.0387 112.543 71.2802 112.342 71.4885C112.14 71.6945 111.892 71.8555 111.596 71.9715C111.3 72.0851 110.967 72.142 110.598 72.142ZM114.131 72.0283V66.5738H114.941V67.3976H114.998C115.097 67.1278 115.277 66.9088 115.538 66.7407C115.798 66.5726 116.092 66.4885 116.418 66.4885C116.48 66.4885 116.557 66.4897 116.649 66.4921C116.741 66.4945 116.811 66.498 116.859 66.5028V67.355C116.83 67.3479 116.765 67.3373 116.663 67.3231C116.564 67.3065 116.458 67.2982 116.347 67.2982C116.082 67.2982 115.845 67.3538 115.637 67.4651C115.431 67.574 115.268 67.7255 115.147 67.9197C115.029 68.1114 114.969 68.3304 114.969 68.5766V72.0283H114.131Z" fill="white"/>
</g>
<path d="M37.2074 94.5137C37.1278 93.7694 36.7926 93.1898 36.2017 92.775C35.6165 92.3603 34.8551 92.1529 33.9176 92.1529C33.2585 92.1529 32.6932 92.2523 32.2216 92.4512C31.75 92.65 31.3892 92.9199 31.1392 93.2608C30.8892 93.6017 30.7614 93.9909 30.7557 94.4284C30.7557 94.7921 30.8381 95.1074 31.0028 95.3745C31.1733 95.6415 31.4034 95.8688 31.6932 96.0563C31.983 96.2381 32.304 96.3915 32.6562 96.5165C33.0085 96.6415 33.3636 96.7466 33.7216 96.8319L35.358 97.2409C36.017 97.3944 36.6506 97.6017 37.2585 97.8631C37.8722 98.1245 38.4205 98.454 38.9034 98.8517C39.392 99.2495 39.7784 99.7296 40.0625 100.292C40.3466 100.855 40.4886 101.514 40.4886 102.269C40.4886 103.292 40.2273 104.193 39.7045 104.971C39.1818 105.744 38.4261 106.349 37.4375 106.786C36.4545 107.218 35.2642 107.434 33.8665 107.434C32.5085 107.434 31.3295 107.224 30.3295 106.803C29.3352 106.383 28.5568 105.769 27.9943 104.963C27.4375 104.156 27.1364 103.173 27.0909 102.014H30.2017C30.2472 102.622 30.4347 103.127 30.7642 103.531C31.0938 103.934 31.5227 104.235 32.0511 104.434C32.5852 104.633 33.1818 104.732 33.8409 104.732C34.5284 104.732 35.1307 104.63 35.6477 104.426C36.1705 104.215 36.5795 103.926 36.875 103.556C37.1705 103.181 37.321 102.744 37.3267 102.244C37.321 101.789 37.1875 101.414 36.9261 101.119C36.6648 100.818 36.2983 100.568 35.8267 100.369C35.3608 100.164 34.8153 99.9824 34.1903 99.8233L32.2045 99.312C30.767 98.9426 29.6307 98.383 28.7955 97.633C27.9659 96.8773 27.5511 95.8745 27.5511 94.6245C27.5511 93.5961 27.8295 92.6955 28.3864 91.9228C28.9489 91.15 29.7131 90.5506 30.679 90.1245C31.6449 89.6926 32.7386 89.4767 33.9602 89.4767C35.1989 89.4767 36.2841 89.6926 37.2159 90.1245C38.1534 90.5506 38.8892 91.1444 39.4233 91.9057C39.9574 92.6614 40.233 93.5307 40.25 94.5137H37.2074ZM48.8814 107.426C47.5746 107.426 46.4524 107.139 45.5149 106.565C44.5831 105.991 43.8643 105.198 43.3587 104.187C42.8587 103.17 42.6087 101.999 42.6087 100.676C42.6087 99.3461 42.8643 98.1728 43.3757 97.1557C43.8871 96.133 44.6087 95.3375 45.5405 94.7694C46.478 94.1955 47.5859 93.9086 48.8643 93.9086C49.9268 93.9086 50.8672 94.1046 51.6854 94.4966C52.5092 94.883 53.1655 95.4313 53.6541 96.1415C54.1428 96.8461 54.4212 97.6699 54.4893 98.6131H51.5405C51.4212 97.9824 51.1371 97.4569 50.6882 97.0364C50.245 96.6103 49.6513 96.3972 48.907 96.3972C48.2763 96.3972 47.7223 96.5676 47.245 96.9086C46.7678 97.2438 46.3956 97.7267 46.1286 98.3574C45.8672 98.9881 45.7365 99.7438 45.7365 100.624C45.7365 101.517 45.8672 102.284 46.1286 102.926C46.3899 103.562 46.7564 104.053 47.228 104.4C47.7053 104.741 48.2649 104.911 48.907 104.911C49.3615 104.911 49.7678 104.826 50.1257 104.656C50.4893 104.48 50.7933 104.227 51.0376 103.897C51.282 103.568 51.4496 103.167 51.5405 102.695H54.4893C54.4155 103.622 54.1428 104.443 53.6712 105.159C53.1996 105.869 52.5575 106.426 51.745 106.829C50.9325 107.227 49.978 107.426 48.8814 107.426ZM57.0227 107.17V94.079H60.0142V96.2608H60.1506C60.3892 95.5051 60.7983 94.9228 61.3778 94.5137C61.9631 94.0989 62.6307 93.8915 63.3807 93.8915C63.5511 93.8915 63.7415 93.9 63.9517 93.9171C64.1676 93.9284 64.3466 93.9483 64.4886 93.9767V96.8148C64.358 96.7694 64.1506 96.7296 63.8665 96.6955C63.5881 96.6557 63.3182 96.6358 63.0568 96.6358C62.4943 96.6358 61.9886 96.758 61.5398 97.0023C61.0966 97.2409 60.7472 97.5733 60.4915 97.9995C60.2358 98.4256 60.108 98.9171 60.108 99.4739V107.17H57.0227ZM66.5384 107.17V94.079H69.6236V107.17H66.5384ZM68.0895 92.2211C67.6009 92.2211 67.1804 92.0591 66.8281 91.7353C66.4759 91.4057 66.2997 91.0108 66.2997 90.5506C66.2997 90.0847 66.4759 89.6898 66.8281 89.3659C67.1804 89.0364 67.6009 88.8716 68.0895 88.8716C68.5838 88.8716 69.0043 89.0364 69.3509 89.3659C69.7031 89.6898 69.8793 90.0847 69.8793 90.5506C69.8793 91.0108 69.7031 91.4057 69.3509 91.7353C69.0043 92.0591 68.5838 92.2211 68.0895 92.2211ZM72.7962 112.079V94.079H75.8303V96.2438H76.0092C76.1683 95.9256 76.3928 95.5875 76.6825 95.2296C76.9723 94.8659 77.3643 94.5563 77.8587 94.3006C78.353 94.0392 78.9837 93.9086 79.7507 93.9086C80.7621 93.9086 81.674 94.1671 82.4865 94.6841C83.3047 95.1955 83.9524 95.954 84.4297 96.9597C84.9126 97.9597 85.1541 99.187 85.1541 100.642C85.1541 102.079 84.9183 103.301 84.4467 104.306C83.9751 105.312 83.3331 106.079 82.5206 106.607C81.7081 107.136 80.7876 107.4 79.7592 107.4C79.0092 107.4 78.3871 107.275 77.8928 107.025C77.3984 106.775 77.0007 106.474 76.6996 106.122C76.4041 105.764 76.174 105.426 76.0092 105.107H75.8814V112.079H72.7962ZM75.8217 100.624C75.8217 101.471 75.9411 102.213 76.1797 102.849C76.424 103.485 76.7734 103.982 77.228 104.34C77.6882 104.693 78.245 104.869 78.8984 104.869C79.5803 104.869 80.1513 104.687 80.6115 104.323C81.0717 103.954 81.4183 103.451 81.6513 102.815C81.8899 102.173 82.0092 101.443 82.0092 100.624C82.0092 99.812 81.8928 99.0904 81.6598 98.4597C81.4268 97.829 81.0803 97.3347 80.62 96.9767C80.1598 96.6188 79.5859 96.4398 78.8984 96.4398C78.2393 96.4398 77.6797 96.6131 77.2195 96.9597C76.7592 97.3063 76.4098 97.7921 76.1712 98.4171C75.9382 99.0421 75.8217 99.7779 75.8217 100.624ZM94.3331 94.079V96.4654H86.8075V94.079H94.3331ZM88.6655 90.9426H91.7507V103.232C91.7507 103.647 91.8132 103.965 91.9382 104.187C92.0689 104.403 92.2393 104.551 92.4496 104.63C92.6598 104.71 92.8928 104.749 93.1484 104.749C93.3416 104.749 93.5178 104.735 93.6768 104.707C93.8416 104.678 93.9666 104.653 94.0518 104.63L94.5717 107.042C94.407 107.099 94.1712 107.161 93.8643 107.23C93.5632 107.298 93.1939 107.338 92.7564 107.349C91.9837 107.372 91.2876 107.255 90.6683 106.999C90.049 106.738 89.5575 106.335 89.1939 105.789C88.8359 105.244 88.6598 104.562 88.6655 103.744V90.9426ZM96.9134 107.17V94.079H99.9986V107.17H96.9134ZM98.4645 92.2211C97.9759 92.2211 97.5554 92.0591 97.2031 91.7353C96.8509 91.4057 96.6747 91.0108 96.6747 90.5506C96.6747 90.0847 96.8509 89.6898 97.2031 89.3659C97.5554 89.0364 97.9759 88.8716 98.4645 88.8716C98.9588 88.8716 99.3793 89.0364 99.7259 89.3659C100.078 89.6898 100.254 90.0847 100.254 90.5506C100.254 91.0108 100.078 91.4057 99.7259 91.7353C99.3793 92.0591 98.9588 92.2211 98.4645 92.2211ZM106.256 99.4995V107.17H103.171V94.079H106.12V96.3034H106.273C106.575 95.5705 107.055 94.9881 107.714 94.5563C108.379 94.1245 109.2 93.9086 110.177 93.9086C111.08 93.9086 111.867 94.1017 112.538 94.4881C113.214 94.8745 113.737 95.4341 114.106 96.1671C114.481 96.9 114.665 97.7892 114.66 98.8347V107.17H111.575V99.312C111.575 98.437 111.347 97.7523 110.893 97.258C110.444 96.7637 109.822 96.5165 109.026 96.5165C108.487 96.5165 108.006 96.6358 107.586 96.8745C107.171 97.1074 106.844 97.4455 106.606 97.8887C106.373 98.3319 106.256 98.8688 106.256 99.4995ZM123.489 112.352C122.381 112.352 121.43 112.201 120.634 111.9C119.839 111.605 119.2 111.207 118.717 110.707C118.234 110.207 117.898 109.653 117.711 109.045L120.489 108.372C120.614 108.627 120.796 108.88 121.035 109.13C121.273 109.386 121.594 109.596 121.998 109.761C122.407 109.931 122.921 110.017 123.54 110.017C124.415 110.017 125.14 109.803 125.714 109.377C126.288 108.957 126.575 108.264 126.575 107.298V104.818H126.421C126.262 105.136 126.029 105.463 125.722 105.798C125.421 106.133 125.021 106.414 124.521 106.642C124.026 106.869 123.404 106.982 122.654 106.982C121.648 106.982 120.737 106.747 119.918 106.275C119.106 105.798 118.458 105.088 117.975 104.144C117.498 103.195 117.259 102.008 117.259 100.582C117.259 99.1444 117.498 97.9313 117.975 96.9426C118.458 95.9483 119.109 95.1955 119.927 94.6841C120.745 94.1671 121.657 93.9086 122.663 93.9086C123.43 93.9086 124.06 94.0392 124.555 94.3006C125.055 94.5563 125.452 94.8659 125.748 95.2296C126.043 95.5875 126.268 95.9256 126.421 96.2438H126.592V94.079H129.634V107.383C129.634 108.502 129.367 109.428 128.833 110.161C128.299 110.894 127.569 111.443 126.643 111.806C125.717 112.17 124.665 112.352 123.489 112.352ZM123.515 104.562C124.168 104.562 124.725 104.403 125.185 104.085C125.646 103.767 125.995 103.309 126.234 102.713C126.472 102.116 126.592 101.4 126.592 100.565C126.592 99.7409 126.472 99.0194 126.234 98.4C126.001 97.7807 125.654 97.3006 125.194 96.9597C124.739 96.6131 124.18 96.4398 123.515 96.4398C122.827 96.4398 122.254 96.6188 121.793 96.9767C121.333 97.3347 120.987 97.8262 120.754 98.4512C120.521 99.0705 120.404 99.775 120.404 100.565C120.404 101.366 120.521 102.068 120.754 102.67C120.992 103.267 121.342 103.732 121.802 104.068C122.268 104.397 122.839 104.562 123.515 104.562ZM140.667 112.079C140.246 112.079 139.857 112.045 139.499 111.977C139.147 111.914 138.866 111.84 138.656 111.755L139.371 109.352C139.82 109.482 140.221 109.545 140.573 109.539C140.925 109.534 141.235 109.423 141.502 109.207C141.775 108.997 142.005 108.644 142.192 108.15L142.457 107.443L137.71 94.079H140.982L143.999 103.965H144.136L147.161 94.079H150.442L145.201 108.755C144.957 109.448 144.633 110.042 144.229 110.536C143.826 111.036 143.332 111.417 142.746 111.678C142.167 111.945 141.474 112.079 140.667 112.079ZM157.842 107.426C156.564 107.426 155.456 107.144 154.518 106.582C153.581 106.019 152.854 105.232 152.337 104.221C151.825 103.21 151.57 102.028 151.57 100.676C151.57 99.3233 151.825 98.1387 152.337 97.1216C152.854 96.1046 153.581 95.3148 154.518 94.7523C155.456 94.1898 156.564 93.9086 157.842 93.9086C159.121 93.9086 160.229 94.1898 161.166 94.7523C162.104 95.3148 162.828 96.1046 163.339 97.1216C163.857 98.1387 164.115 99.3233 164.115 100.676C164.115 102.028 163.857 103.21 163.339 104.221C162.828 105.232 162.104 106.019 161.166 106.582C160.229 107.144 159.121 107.426 157.842 107.426ZM157.859 104.954C158.553 104.954 159.132 104.764 159.598 104.383C160.064 103.997 160.411 103.48 160.638 102.832C160.871 102.184 160.987 101.463 160.987 100.667C160.987 99.8659 160.871 99.1415 160.638 98.4938C160.411 97.8404 160.064 97.3205 159.598 96.9341C159.132 96.5478 158.553 96.3546 157.859 96.3546C157.149 96.3546 156.558 96.5478 156.087 96.9341C155.621 97.3205 155.271 97.8404 155.038 98.4938C154.811 99.1415 154.697 99.8659 154.697 100.667C154.697 101.463 154.811 102.184 155.038 102.832C155.271 103.48 155.621 103.997 156.087 104.383C156.558 104.764 157.149 104.954 157.859 104.954ZM175.077 101.664V94.079H178.163V107.17H175.171V104.843H175.035C174.739 105.576 174.254 106.176 173.577 106.642C172.907 107.107 172.08 107.34 171.097 107.34C170.239 107.34 169.481 107.15 168.822 106.769C168.168 106.383 167.657 105.823 167.288 105.09C166.918 104.352 166.734 103.46 166.734 102.414V94.079H169.819V101.937C169.819 102.767 170.046 103.426 170.501 103.914C170.955 104.403 171.552 104.647 172.29 104.647C172.745 104.647 173.185 104.536 173.612 104.315C174.038 104.093 174.387 103.764 174.66 103.326C174.938 102.883 175.077 102.329 175.077 101.664ZM181.335 107.17V94.079H184.327V96.2608H184.463C184.702 95.5051 185.111 94.9228 185.69 94.5137C186.276 94.0989 186.943 93.8915 187.693 93.8915C187.864 93.8915 188.054 93.9 188.264 93.9171C188.48 93.9284 188.659 93.9483 188.801 93.9767V96.8148C188.67 96.7694 188.463 96.7296 188.179 96.6955C187.901 96.6557 187.631 96.6358 187.369 96.6358C186.807 96.6358 186.301 96.758 185.852 97.0023C185.409 97.2409 185.06 97.5733 184.804 97.9995C184.548 98.4256 184.42 98.9171 184.42 99.4739V107.17H181.335ZM207.151 97.5392L204.338 97.8461C204.259 97.562 204.119 97.2949 203.92 97.0449C203.727 96.7949 203.466 96.5932 203.136 96.4398C202.807 96.2864 202.403 96.2097 201.926 96.2097C201.284 96.2097 200.744 96.3489 200.307 96.6273C199.875 96.9057 199.662 97.2665 199.668 97.7097C199.662 98.0904 199.801 98.4 200.085 98.6387C200.375 98.8773 200.852 99.0733 201.517 99.2267L203.75 99.704C204.989 99.9711 205.909 100.394 206.511 100.974C207.119 101.553 207.426 102.312 207.432 103.249C207.426 104.073 207.185 104.801 206.707 105.431C206.236 106.056 205.58 106.545 204.739 106.897C203.898 107.249 202.932 107.426 201.841 107.426C200.239 107.426 198.949 107.09 197.972 106.42C196.994 105.744 196.412 104.803 196.224 103.599L199.233 103.309C199.369 103.9 199.659 104.346 200.102 104.647C200.545 104.948 201.122 105.099 201.832 105.099C202.565 105.099 203.153 104.948 203.597 104.647C204.045 104.346 204.27 103.974 204.27 103.531C204.27 103.156 204.125 102.846 203.835 102.602C203.551 102.357 203.108 102.17 202.506 102.039L200.273 101.57C199.017 101.309 198.088 100.869 197.486 100.249C196.884 99.6245 196.585 98.8347 196.591 97.8801C196.585 97.0733 196.804 96.3745 197.247 95.7836C197.696 95.187 198.318 94.7267 199.114 94.4029C199.915 94.0733 200.838 93.9086 201.884 93.9086C203.418 93.9086 204.625 94.2353 205.506 94.8887C206.392 95.5421 206.94 96.4256 207.151 97.5392ZM218.32 101.664V94.079H221.405V107.17H218.413V104.843H218.277C217.982 105.576 217.496 106.176 216.82 106.642C216.149 107.107 215.322 107.34 214.339 107.34C213.482 107.34 212.723 107.15 212.064 106.769C211.411 106.383 210.899 105.823 210.53 105.09C210.161 104.352 209.976 103.46 209.976 102.414V94.079H213.061V101.937C213.061 102.767 213.288 103.426 213.743 103.914C214.197 104.403 214.794 104.647 215.533 104.647C215.987 104.647 216.428 104.536 216.854 104.315C217.28 104.093 217.629 103.764 217.902 103.326C218.18 102.883 218.32 102.329 218.32 101.664ZM230.288 107.426C228.981 107.426 227.859 107.139 226.921 106.565C225.989 105.991 225.271 105.198 224.765 104.187C224.265 103.17 224.015 101.999 224.015 100.676C224.015 99.3461 224.271 98.1728 224.782 97.1557C225.293 96.133 226.015 95.3375 226.947 94.7694C227.884 94.1955 228.992 93.9086 230.271 93.9086C231.333 93.9086 232.273 94.1046 233.092 94.4966C233.915 94.883 234.572 95.4313 235.06 96.1415C235.549 96.8461 235.827 97.6699 235.896 98.6131H232.947C232.827 97.9824 232.543 97.4569 232.094 97.0364C231.651 96.6103 231.058 96.3972 230.313 96.3972C229.683 96.3972 229.129 96.5676 228.651 96.9086C228.174 97.2438 227.802 97.7267 227.535 98.3574C227.273 98.9881 227.143 99.7438 227.143 100.624C227.143 101.517 227.273 102.284 227.535 102.926C227.796 103.562 228.163 104.053 228.634 104.4C229.112 104.741 229.671 104.911 230.313 104.911C230.768 104.911 231.174 104.826 231.532 104.656C231.896 104.48 232.2 104.227 232.444 103.897C232.688 103.568 232.856 103.167 232.947 102.695H235.896C235.822 103.622 235.549 104.443 235.077 105.159C234.606 105.869 233.964 106.426 233.151 106.829C232.339 107.227 231.384 107.426 230.288 107.426ZM244.139 107.426C242.832 107.426 241.71 107.139 240.773 106.565C239.841 105.991 239.122 105.198 238.616 104.187C238.116 103.17 237.866 101.999 237.866 100.676C237.866 99.3461 238.122 98.1728 238.634 97.1557C239.145 96.133 239.866 95.3375 240.798 94.7694C241.736 94.1955 242.844 93.9086 244.122 93.9086C245.185 93.9086 246.125 94.1046 246.943 94.4966C247.767 94.883 248.423 95.4313 248.912 96.1415C249.401 96.8461 249.679 97.6699 249.747 98.6131H246.798C246.679 97.9824 246.395 97.4569 245.946 97.0364C245.503 96.6103 244.909 96.3972 244.165 96.3972C243.534 96.3972 242.98 96.5676 242.503 96.9086C242.026 97.2438 241.653 97.7267 241.386 98.3574C241.125 98.9881 240.994 99.7438 240.994 100.624C240.994 101.517 241.125 102.284 241.386 102.926C241.648 103.562 242.014 104.053 242.486 104.4C242.963 104.741 243.523 104.911 244.165 104.911C244.619 104.911 245.026 104.826 245.384 104.656C245.747 104.48 246.051 104.227 246.295 103.897C246.54 103.568 246.707 103.167 246.798 102.695H249.747C249.673 103.622 249.401 104.443 248.929 105.159C248.457 105.869 247.815 106.426 247.003 106.829C246.19 107.227 245.236 107.426 244.139 107.426ZM258.076 107.426C256.763 107.426 255.63 107.153 254.675 106.607C253.727 106.056 252.996 105.278 252.485 104.272C251.974 103.261 251.718 102.07 251.718 100.701C251.718 99.3546 251.974 98.1728 252.485 97.1557C253.002 96.133 253.724 95.3375 254.65 94.7694C255.576 94.1955 256.664 93.9086 257.914 93.9086C258.721 93.9086 259.482 94.0392 260.198 94.3006C260.92 94.5563 261.556 94.954 262.107 95.4938C262.664 96.0336 263.102 96.7211 263.42 97.5563C263.738 98.3858 263.897 99.3745 263.897 100.522V101.468H253.167V99.3887H260.94C260.934 98.7978 260.806 98.2722 260.556 97.812C260.306 97.3461 259.957 96.9796 259.508 96.7125C259.065 96.4455 258.548 96.312 257.957 96.312C257.326 96.312 256.772 96.4654 256.295 96.7722C255.817 97.0733 255.445 97.4711 255.178 97.9654C254.917 98.454 254.783 98.9909 254.778 99.5762V101.392C254.778 102.153 254.917 102.806 255.195 103.352C255.474 103.892 255.863 104.306 256.363 104.596C256.863 104.88 257.448 105.022 258.119 105.022C258.567 105.022 258.974 104.96 259.337 104.835C259.701 104.704 260.016 104.514 260.283 104.264C260.55 104.014 260.752 103.704 260.888 103.335L263.769 103.659C263.587 104.42 263.241 105.085 262.729 105.653C262.224 106.215 261.576 106.653 260.786 106.965C259.996 107.272 259.093 107.426 258.076 107.426ZM276.854 97.5392L274.041 97.8461C273.962 97.562 273.822 97.2949 273.624 97.0449C273.43 96.7949 273.169 96.5932 272.839 96.4398C272.51 96.2864 272.107 96.2097 271.629 96.2097C270.987 96.2097 270.447 96.3489 270.01 96.6273C269.578 96.9057 269.365 97.2665 269.371 97.7097C269.365 98.0904 269.504 98.4 269.788 98.6387C270.078 98.8773 270.555 99.0733 271.22 99.2267L273.453 99.704C274.692 99.9711 275.612 100.394 276.214 100.974C276.822 101.553 277.129 102.312 277.135 103.249C277.129 104.073 276.888 104.801 276.411 105.431C275.939 106.056 275.283 106.545 274.442 106.897C273.601 107.249 272.635 107.426 271.544 107.426C269.942 107.426 268.652 107.09 267.675 106.42C266.697 105.744 266.115 104.803 265.928 103.599L268.936 103.309C269.072 103.9 269.362 104.346 269.805 104.647C270.249 104.948 270.825 105.099 271.536 105.099C272.268 105.099 272.857 104.948 273.3 104.647C273.749 104.346 273.973 103.974 273.973 103.531C273.973 103.156 273.828 102.846 273.538 102.602C273.254 102.357 272.811 102.17 272.209 102.039L269.976 101.57C268.72 101.309 267.791 100.869 267.189 100.249C266.587 99.6245 266.288 98.8347 266.294 97.8801C266.288 97.0733 266.507 96.3745 266.95 95.7836C267.399 95.187 268.021 94.7267 268.817 94.4029C269.618 94.0733 270.541 93.9086 271.587 93.9086C273.121 93.9086 274.328 94.2353 275.209 94.8887C276.095 95.5421 276.643 96.4256 276.854 97.5392ZM290.026 97.5392L287.213 97.8461C287.134 97.562 286.994 97.2949 286.795 97.0449C286.602 96.7949 286.341 96.5932 286.011 96.4398C285.682 96.2864 285.278 96.2097 284.801 96.2097C284.159 96.2097 283.619 96.3489 283.182 96.6273C282.75 96.9057 282.537 97.2665 282.543 97.7097C282.537 98.0904 282.676 98.4 282.96 98.6387C283.25 98.8773 283.727 99.0733 284.392 99.2267L286.625 99.704C287.864 99.9711 288.784 100.394 289.386 100.974C289.994 101.553 290.301 102.312 290.307 103.249C290.301 104.073 290.06 104.801 289.582 105.431C289.111 106.056 288.455 106.545 287.614 106.897C286.773 107.249 285.807 107.426 284.716 107.426C283.114 107.426 281.824 107.09 280.847 106.42C279.869 105.744 279.287 104.803 279.099 103.599L282.108 103.309C282.244 103.9 282.534 104.346 282.977 104.647C283.42 104.948 283.997 105.099 284.707 105.099C285.44 105.099 286.028 104.948 286.472 104.647C286.92 104.346 287.145 103.974 287.145 103.531C287.145 103.156 287 102.846 286.71 102.602C286.426 102.357 285.983 102.17 285.381 102.039L283.148 101.57C281.892 101.309 280.963 100.869 280.361 100.249C279.759 99.6245 279.46 98.8347 279.466 97.8801C279.46 97.0733 279.679 96.3745 280.122 95.7836C280.571 95.187 281.193 94.7267 281.989 94.4029C282.79 94.0733 283.713 93.9086 284.759 93.9086C286.293 93.9086 287.5 94.2353 288.381 94.8887C289.267 95.5421 289.815 96.4256 290.026 97.5392ZM296.473 104.784L296.362 105.721C296.283 106.437 296.141 107.164 295.936 107.903C295.737 108.647 295.527 109.332 295.305 109.957C295.084 110.582 294.905 111.073 294.768 111.431H292.689C292.768 111.085 292.876 110.613 293.013 110.017C293.155 109.42 293.291 108.749 293.422 108.005C293.553 107.261 293.641 106.505 293.686 105.738L293.746 104.784H296.473ZM311.053 107.426C309.775 107.426 308.667 107.144 307.729 106.582C306.792 106.019 306.065 105.232 305.548 104.221C305.036 103.21 304.781 102.028 304.781 100.676C304.781 99.3233 305.036 98.1387 305.548 97.1216C306.065 96.1046 306.792 95.3148 307.729 94.7523C308.667 94.1898 309.775 93.9086 311.053 93.9086C312.332 93.9086 313.44 94.1898 314.377 94.7523C315.315 95.3148 316.039 96.1046 316.55 97.1216C317.067 98.1387 317.326 99.3233 317.326 100.676C317.326 102.028 317.067 103.21 316.55 104.221C316.039 105.232 315.315 106.019 314.377 106.582C313.44 107.144 312.332 107.426 311.053 107.426ZM311.07 104.954C311.763 104.954 312.343 104.764 312.809 104.383C313.275 103.997 313.621 103.48 313.849 102.832C314.082 102.184 314.198 101.463 314.198 100.667C314.198 99.8659 314.082 99.1415 313.849 98.4938C313.621 97.8404 313.275 97.3205 312.809 96.9341C312.343 96.5478 311.763 96.3546 311.07 96.3546C310.36 96.3546 309.769 96.5478 309.298 96.9341C308.832 97.3205 308.482 97.8404 308.249 98.4938C308.022 99.1415 307.908 99.8659 307.908 100.667C307.908 101.463 308.022 102.184 308.249 102.832C308.482 103.48 308.832 103.997 309.298 104.383C309.769 104.764 310.36 104.954 311.07 104.954ZM323.03 99.4995V107.17H319.945V94.079H322.893V96.3034H323.047C323.348 95.5705 323.828 94.9881 324.487 94.5563C325.152 94.1245 325.973 93.9086 326.95 93.9086C327.854 93.9086 328.641 94.1017 329.311 94.4881C329.987 94.8745 330.51 95.4341 330.879 96.1671C331.254 96.9 331.439 97.7892 331.433 98.8347V107.17H328.348V99.312C328.348 98.437 328.121 97.7523 327.666 97.258C327.217 96.7637 326.595 96.5165 325.8 96.5165C325.26 96.5165 324.78 96.6358 324.359 96.8745C323.945 97.1074 323.618 97.4455 323.379 97.8887C323.146 98.3319 323.03 98.8688 323.03 99.4995ZM340.365 107.426C339.053 107.426 337.919 107.153 336.964 106.607C336.016 106.056 335.286 105.278 334.774 104.272C334.263 103.261 334.007 102.07 334.007 100.701C334.007 99.3546 334.263 98.1728 334.774 97.1557C335.291 96.133 336.013 95.3375 336.939 94.7694C337.865 94.1955 338.953 93.9086 340.203 93.9086C341.01 93.9086 341.771 94.0392 342.487 94.3006C343.209 94.5563 343.845 94.954 344.396 95.4938C344.953 96.0336 345.391 96.7211 345.709 97.5563C346.027 98.3858 346.186 99.3745 346.186 100.522V101.468H335.456V99.3887H343.229C343.223 98.7978 343.095 98.2722 342.845 97.812C342.595 97.3461 342.246 96.9796 341.797 96.7125C341.354 96.4455 340.837 96.312 340.246 96.312C339.615 96.312 339.061 96.4654 338.584 96.7722C338.107 97.0733 337.734 97.4711 337.467 97.9654C337.206 98.454 337.072 98.9909 337.067 99.5762V101.392C337.067 102.153 337.206 102.806 337.484 103.352C337.763 103.892 338.152 104.306 338.652 104.596C339.152 104.88 339.737 105.022 340.408 105.022C340.857 105.022 341.263 104.96 341.626 104.835C341.99 104.704 342.305 104.514 342.572 104.264C342.839 104.014 343.041 103.704 343.178 103.335L346.058 103.659C345.876 104.42 345.53 105.085 345.018 105.653C344.513 106.215 343.865 106.653 343.075 106.965C342.286 107.272 341.382 107.426 340.365 107.426ZM30.6705 118.715V136.17H27.5852V118.715H30.6705ZM33.843 136.17V123.079H36.9283V136.17H33.843ZM35.3942 121.221C34.9055 121.221 34.4851 121.059 34.1328 120.735C33.7805 120.406 33.6044 120.011 33.6044 119.551C33.6044 119.085 33.7805 118.69 34.1328 118.366C34.4851 118.036 34.9055 117.872 35.3942 117.872C35.8885 117.872 36.3089 118.036 36.6555 118.366C37.0078 118.69 37.1839 119.085 37.1839 119.551C37.1839 120.011 37.0078 120.406 36.6555 120.735C36.3089 121.059 35.8885 121.221 35.3942 121.221ZM43.1861 128.499V136.17H40.1009V123.079H43.0497V125.303H43.2031C43.5043 124.57 43.9844 123.988 44.6435 123.556C45.3082 123.124 46.1293 122.909 47.1065 122.909C48.0099 122.909 48.7969 123.102 49.4673 123.488C50.1435 123.874 50.6662 124.434 51.0355 125.167C51.4105 125.9 51.5952 126.789 51.5895 127.835V136.17H48.5043V128.312C48.5043 127.437 48.277 126.752 47.8224 126.258C47.3736 125.764 46.7514 125.517 45.956 125.517C45.4162 125.517 44.9361 125.636 44.5156 125.874C44.1009 126.107 43.7741 126.445 43.5355 126.889C43.3026 127.332 43.1861 127.869 43.1861 128.499ZM60.5213 136.426C59.2088 136.426 58.0753 136.153 57.1207 135.607C56.1719 135.056 55.4418 134.278 54.9304 133.272C54.419 132.261 54.1634 131.07 54.1634 129.701C54.1634 128.355 54.419 127.173 54.9304 126.156C55.4474 125.133 56.169 124.338 57.0952 123.769C58.0213 123.195 59.1094 122.909 60.3594 122.909C61.1662 122.909 61.9276 123.039 62.6435 123.301C63.3651 123.556 64.0014 123.954 64.5526 124.494C65.1094 125.034 65.5469 125.721 65.8651 126.556C66.1832 127.386 66.3423 128.374 66.3423 129.522V130.468H55.6122V128.389H63.3849C63.3793 127.798 63.2514 127.272 63.0014 126.812C62.7514 126.346 62.402 125.98 61.9531 125.713C61.5099 125.445 60.9929 125.312 60.402 125.312C59.7713 125.312 59.2173 125.465 58.7401 125.772C58.2628 126.073 57.8906 126.471 57.6236 126.965C57.3622 127.454 57.2287 127.991 57.223 128.576V130.392C57.223 131.153 57.3622 131.806 57.6406 132.352C57.919 132.892 58.3082 133.306 58.8082 133.596C59.3082 133.88 59.8935 134.022 60.5639 134.022C61.0128 134.022 61.419 133.96 61.7827 133.835C62.1463 133.704 62.4616 133.514 62.7287 133.264C62.9957 133.014 63.1974 132.704 63.3338 132.335L66.2145 132.659C66.0327 133.42 65.6861 134.085 65.1747 134.653C64.669 135.215 64.0213 135.653 63.2315 135.965C62.4418 136.272 61.5384 136.426 60.5213 136.426ZM78.6726 136.434C77.843 136.434 77.0959 136.286 76.4311 135.991C75.772 135.69 75.2493 135.247 74.8629 134.661C74.4822 134.076 74.2919 133.355 74.2919 132.497C74.2919 131.758 74.4283 131.147 74.701 130.664C74.9737 130.181 75.3459 129.795 75.8175 129.505C76.2891 129.215 76.8203 128.997 77.4112 128.849C78.0078 128.695 78.6243 128.585 79.2607 128.517C80.0277 128.437 80.6499 128.366 81.1271 128.303C81.6044 128.235 81.951 128.133 82.1669 127.997C82.3885 127.855 82.4993 127.636 82.4993 127.34V127.289C82.4993 126.647 82.3089 126.15 81.9283 125.798C81.5476 125.445 80.9993 125.269 80.2834 125.269C79.5277 125.269 78.9283 125.434 78.4851 125.764C78.0476 126.093 77.7521 126.482 77.5987 126.931L74.718 126.522C74.9453 125.727 75.3203 125.062 75.843 124.528C76.3658 123.988 77.005 123.585 77.7607 123.318C78.5163 123.045 79.3516 122.909 80.2663 122.909C80.897 122.909 81.5249 122.982 82.1499 123.13C82.7749 123.278 83.3459 123.522 83.8629 123.863C84.38 124.198 84.7947 124.656 85.1072 125.235C85.4254 125.815 85.5845 126.539 85.5845 127.409V136.17H82.6186V134.372H82.5163C82.3288 134.735 82.0646 135.076 81.7237 135.394C81.3885 135.707 80.9652 135.96 80.4538 136.153C79.9482 136.34 79.3544 136.434 78.6726 136.434ZM79.4737 134.167C80.093 134.167 80.63 134.045 81.0845 133.801C81.5391 133.551 81.8885 133.221 82.1328 132.812C82.3828 132.403 82.5078 131.957 82.5078 131.474V129.931C82.4112 130.011 82.2464 130.085 82.0135 130.153C81.7862 130.221 81.5305 130.281 81.2464 130.332C80.9624 130.383 80.6811 130.428 80.4027 130.468C80.1243 130.508 79.8828 130.542 79.6783 130.57C79.218 130.633 78.8061 130.735 78.4425 130.877C78.0788 131.019 77.7919 131.218 77.5817 131.474C77.3714 131.724 77.2663 132.048 77.2663 132.445C77.2663 133.014 77.4737 133.443 77.8885 133.732C78.3033 134.022 78.8317 134.167 79.4737 134.167ZM95.2237 123.079V125.465H87.6982V123.079H95.2237ZM89.5561 119.943H92.6413V132.232C92.6413 132.647 92.7038 132.965 92.8288 133.187C92.9595 133.403 93.13 133.551 93.3402 133.63C93.5504 133.71 93.7834 133.749 94.0391 133.749C94.2322 133.749 94.4084 133.735 94.5675 133.707C94.7322 133.678 94.8572 133.653 94.9425 133.63L95.4624 136.042C95.2976 136.099 95.0618 136.161 94.755 136.23C94.4538 136.298 94.0845 136.338 93.647 136.349C92.8743 136.372 92.1783 136.255 91.5589 135.999C90.9396 135.738 90.4482 135.335 90.0845 134.789C89.7266 134.244 89.5504 133.562 89.5561 132.744V119.943ZM107.524 136.434C106.695 136.434 105.947 136.286 105.283 135.991C104.624 135.69 104.101 135.247 103.714 134.661C103.334 134.076 103.143 133.355 103.143 132.497C103.143 131.758 103.28 131.147 103.553 130.664C103.825 130.181 104.197 129.795 104.669 129.505C105.141 129.215 105.672 128.997 106.263 128.849C106.859 128.695 107.476 128.585 108.112 128.517C108.879 128.437 109.501 128.366 109.979 128.303C110.456 128.235 110.803 128.133 111.018 127.997C111.24 127.855 111.351 127.636 111.351 127.34V127.289C111.351 126.647 111.161 126.15 110.78 125.798C110.399 125.445 109.851 125.269 109.135 125.269C108.379 125.269 107.78 125.434 107.337 125.764C106.899 126.093 106.604 126.482 106.45 126.931L103.57 126.522C103.797 125.727 104.172 125.062 104.695 124.528C105.217 123.988 105.857 123.585 106.612 123.318C107.368 123.045 108.203 122.909 109.118 122.909C109.749 122.909 110.376 122.982 111.001 123.13C111.626 123.278 112.197 123.522 112.714 123.863C113.232 124.198 113.646 124.656 113.959 125.235C114.277 125.815 114.436 126.539 114.436 127.409V136.17H111.47V134.372H111.368C111.18 134.735 110.916 135.076 110.575 135.394C110.24 135.707 109.817 135.96 109.305 136.153C108.8 136.34 108.206 136.434 107.524 136.434ZM108.325 134.167C108.945 134.167 109.482 134.045 109.936 133.801C110.391 133.551 110.74 133.221 110.984 132.812C111.234 132.403 111.359 131.957 111.359 131.474V129.931C111.263 130.011 111.098 130.085 110.865 130.153C110.638 130.221 110.382 130.281 110.098 130.332C109.814 130.383 109.533 130.428 109.254 130.468C108.976 130.508 108.734 130.542 108.53 130.57C108.07 130.633 107.658 130.735 107.294 130.877C106.93 131.019 106.643 131.218 106.433 131.474C106.223 131.724 106.118 132.048 106.118 132.445C106.118 133.014 106.325 133.443 106.74 133.732C107.155 134.022 107.683 134.167 108.325 134.167ZM130.028 123.079V125.465H122.503V123.079H130.028ZM124.361 119.943H127.446V132.232C127.446 132.647 127.509 132.965 127.634 133.187C127.764 133.403 127.935 133.551 128.145 133.63C128.355 133.71 128.588 133.749 128.844 133.749C129.037 133.749 129.213 133.735 129.372 133.707C129.537 133.678 129.662 133.653 129.747 133.63L130.267 136.042C130.102 136.099 129.866 136.161 129.56 136.23C129.259 136.298 128.889 136.338 128.452 136.349C127.679 136.372 126.983 136.255 126.364 135.999C125.744 135.738 125.253 135.335 124.889 134.789C124.531 134.244 124.355 133.562 124.361 132.744V119.943ZM132.609 136.17V123.079H135.694V136.17H132.609ZM134.16 121.221C133.671 121.221 133.251 121.059 132.898 120.735C132.546 120.406 132.37 120.011 132.37 119.551C132.37 119.085 132.546 118.69 132.898 118.366C133.251 118.036 133.671 117.872 134.16 117.872C134.654 117.872 135.075 118.036 135.421 118.366C135.773 118.69 135.95 119.085 135.95 119.551C135.95 120.011 135.773 120.406 135.421 120.735C135.075 121.059 134.654 121.221 134.16 121.221ZM138.866 136.17V123.079H141.815V125.303H141.969C142.241 124.553 142.693 123.968 143.324 123.548C143.955 123.122 144.707 122.909 145.582 122.909C146.469 122.909 147.216 123.124 147.824 123.556C148.438 123.982 148.869 124.565 149.119 125.303H149.256C149.545 124.576 150.034 123.997 150.722 123.565C151.415 123.127 152.236 122.909 153.185 122.909C154.389 122.909 155.372 123.289 156.134 124.051C156.895 124.812 157.276 125.923 157.276 127.383V136.17H154.182V127.86C154.182 127.048 153.966 126.454 153.534 126.079C153.102 125.698 152.574 125.508 151.949 125.508C151.205 125.508 150.622 125.741 150.202 126.207C149.787 126.667 149.58 127.267 149.58 128.005V136.17H146.554V127.732C146.554 127.056 146.349 126.517 145.94 126.113C145.537 125.71 145.009 125.508 144.355 125.508C143.912 125.508 143.509 125.622 143.145 125.849C142.781 126.07 142.491 126.386 142.276 126.795C142.06 127.198 141.952 127.67 141.952 128.21V136.17H138.866ZM166.201 136.426C164.888 136.426 163.755 136.153 162.8 135.607C161.852 135.056 161.121 134.278 160.61 133.272C160.099 132.261 159.843 131.07 159.843 129.701C159.843 128.355 160.099 127.173 160.61 126.156C161.127 125.133 161.849 124.338 162.775 123.769C163.701 123.195 164.789 122.909 166.039 122.909C166.846 122.909 167.607 123.039 168.323 123.301C169.045 123.556 169.681 123.954 170.232 124.494C170.789 125.034 171.227 125.721 171.545 126.556C171.863 127.386 172.022 128.374 172.022 129.522V130.468H161.292V128.389H169.065C169.059 127.798 168.931 127.272 168.681 126.812C168.431 126.346 168.082 125.98 167.633 125.713C167.19 125.445 166.673 125.312 166.082 125.312C165.451 125.312 164.897 125.465 164.42 125.772C163.942 126.073 163.57 126.471 163.303 126.965C163.042 127.454 162.908 127.991 162.903 128.576V130.392C162.903 131.153 163.042 131.806 163.32 132.352C163.599 132.892 163.988 133.306 164.488 133.596C164.988 133.88 165.573 134.022 166.244 134.022C166.692 134.022 167.099 133.96 167.462 133.835C167.826 133.704 168.141 133.514 168.408 133.264C168.675 133.014 168.877 132.704 169.013 132.335L171.894 132.659C171.712 133.42 171.366 134.085 170.854 134.653C170.349 135.215 169.701 135.653 168.911 135.965C168.121 136.272 167.218 136.426 166.201 136.426ZM178.408 118.715L178.126 131.039H175.382L175.109 118.715H178.408ZM176.754 136.357C176.237 136.357 175.794 136.176 175.425 135.812C175.061 135.448 174.879 135.005 174.879 134.482C174.879 133.971 175.061 133.534 175.425 133.17C175.794 132.806 176.237 132.624 176.754 132.624C177.26 132.624 177.697 132.806 178.067 133.17C178.442 133.534 178.629 133.971 178.629 134.482C178.629 134.829 178.541 135.144 178.365 135.428C178.195 135.713 177.967 135.94 177.683 136.11C177.405 136.275 177.095 136.357 176.754 136.357Z" fill="white"/>
<path d="M27.2784 165.283V153.647H34.4943V155.158H29.0341V158.704H33.9773V160.209H29.0341V165.283H27.2784ZM36.517 165.283V156.556H38.2159V165.283H36.517ZM37.375 155.209C37.0795 155.209 36.8258 155.111 36.6136 154.914C36.4053 154.713 36.3011 154.474 36.3011 154.198C36.3011 153.918 36.4053 153.679 36.6136 153.482C36.8258 153.281 37.0795 153.181 37.375 153.181C37.6705 153.181 37.9223 153.281 38.1307 153.482C38.3428 153.679 38.4489 153.918 38.4489 154.198C38.4489 154.474 38.3428 154.713 38.1307 154.914C37.9223 155.111 37.6705 155.209 37.375 155.209ZM42.2003 160.101V165.283H40.5014V156.556H42.1321V157.976H42.2401C42.4408 157.514 42.7552 157.143 43.1832 156.863C43.6151 156.582 44.1586 156.442 44.8139 156.442C45.4086 156.442 45.9295 156.567 46.3764 156.817C46.8234 157.064 47.17 157.431 47.4162 157.92C47.6624 158.408 47.7855 159.012 47.7855 159.732V165.283H46.0866V159.937C46.0866 159.304 45.9219 158.81 45.5923 158.454C45.2628 158.094 44.8101 157.914 44.2344 157.914C43.8404 157.914 43.4901 157.999 43.1832 158.17C42.8802 158.34 42.6397 158.59 42.4616 158.92C42.2874 159.245 42.2003 159.639 42.2003 160.101ZM53.331 165.454C52.6264 165.454 51.9976 165.274 51.4446 164.914C50.8954 164.55 50.4635 164.033 50.1491 163.363C49.8385 162.689 49.6832 161.88 49.6832 160.937C49.6832 159.993 49.8404 159.187 50.1548 158.516C50.473 157.846 50.9086 157.332 51.4616 156.976C52.0147 156.62 52.6416 156.442 53.3423 156.442C53.884 156.442 54.3196 156.533 54.6491 156.715C54.9825 156.893 55.2401 157.101 55.4219 157.34C55.6075 157.579 55.7514 157.789 55.8537 157.971H55.956V153.647H57.6548V165.283H55.9957V163.925H55.8537C55.7514 164.111 55.6037 164.323 55.4105 164.562C55.2211 164.8 54.9598 165.009 54.6264 165.187C54.2931 165.365 53.8613 165.454 53.331 165.454ZM53.706 164.005C54.1946 164.005 54.6075 163.876 54.9446 163.618C55.2855 163.357 55.5431 162.995 55.7173 162.533C55.8954 162.071 55.9844 161.533 55.9844 160.92C55.9844 160.314 55.8973 159.783 55.723 159.329C55.5488 158.874 55.2931 158.52 54.956 158.266C54.6188 158.012 54.2022 157.885 53.706 157.885C53.1946 157.885 52.7685 158.018 52.4276 158.283C52.0866 158.548 51.8291 158.91 51.6548 159.368C51.4844 159.827 51.3991 160.344 51.3991 160.92C51.3991 161.503 51.4863 162.028 51.6605 162.493C51.8348 162.959 52.0923 163.329 52.4332 163.601C52.7779 163.87 53.2022 164.005 53.706 164.005ZM70.7969 156.704C70.7363 156.166 70.4863 155.749 70.0469 155.454C69.6075 155.154 69.0545 155.005 68.3878 155.005C67.9105 155.005 67.4976 155.081 67.1491 155.232C66.8007 155.38 66.5298 155.584 66.3366 155.846C66.1473 156.103 66.0526 156.397 66.0526 156.726C66.0526 157.003 66.117 157.242 66.2457 157.442C66.3783 157.643 66.5507 157.812 66.7628 157.948C66.9787 158.081 67.2098 158.192 67.456 158.283C67.7022 158.37 67.9389 158.442 68.1662 158.499L69.3026 158.795C69.6738 158.885 70.0545 159.009 70.4446 159.164C70.8348 159.319 71.1965 159.524 71.5298 159.778C71.8632 160.031 72.1321 160.346 72.3366 160.721C72.545 161.096 72.6491 161.545 72.6491 162.067C72.6491 162.726 72.4787 163.312 72.1378 163.823C71.8007 164.334 71.3101 164.738 70.6662 165.033C70.026 165.329 69.2514 165.476 68.3423 165.476C67.4711 165.476 66.7173 165.338 66.081 165.062C65.4446 164.785 64.9465 164.393 64.5866 163.885C64.2268 163.374 64.0279 162.768 63.9901 162.067H65.7514C65.7855 162.488 65.9219 162.838 66.1605 163.118C66.4029 163.395 66.7116 163.601 67.0866 163.738C67.4654 163.87 67.8802 163.937 68.331 163.937C68.8272 163.937 69.2685 163.859 69.6548 163.704C70.045 163.545 70.3518 163.325 70.5753 163.045C70.7988 162.76 70.9105 162.429 70.9105 162.05C70.9105 161.706 70.812 161.423 70.6151 161.204C70.4219 160.984 70.1586 160.802 69.8253 160.658C69.4957 160.514 69.1226 160.387 68.706 160.278L67.331 159.903C66.3991 159.649 65.6605 159.276 65.1151 158.783C64.5734 158.291 64.3026 157.639 64.3026 156.829C64.3026 156.158 64.4844 155.573 64.848 155.073C65.2116 154.573 65.7041 154.185 66.3253 153.908C66.9465 153.628 67.6473 153.488 68.4276 153.488C69.2154 153.488 69.9105 153.626 70.5128 153.903C71.1188 154.179 71.5961 154.56 71.9446 155.045C72.2931 155.526 72.4749 156.079 72.4901 156.704H70.7969ZM77.1506 165.476C76.5975 165.476 76.0975 165.374 75.6506 165.17C75.2036 164.961 74.8494 164.66 74.5881 164.266C74.3305 163.872 74.2017 163.389 74.2017 162.817C74.2017 162.325 74.2964 161.92 74.4858 161.601C74.6752 161.283 74.9309 161.031 75.2528 160.846C75.5748 160.66 75.9347 160.52 76.3324 160.425C76.7301 160.331 77.1354 160.259 77.5483 160.209C78.071 160.149 78.4953 160.099 78.821 160.062C79.1468 160.02 79.3835 159.954 79.5312 159.863C79.679 159.772 79.7528 159.624 79.7528 159.42V159.38C79.7528 158.884 79.6127 158.499 79.3324 158.226C79.0559 157.954 78.643 157.817 78.0938 157.817C77.5218 157.817 77.071 157.944 76.7415 158.198C76.4157 158.448 76.1903 158.726 76.0653 159.033L74.4688 158.67C74.6581 158.139 74.9347 157.711 75.2983 157.385C75.6657 157.056 76.0881 156.817 76.5653 156.67C77.0426 156.518 77.5445 156.442 78.071 156.442C78.4195 156.442 78.7888 156.484 79.179 156.567C79.5729 156.647 79.9403 156.795 80.2812 157.01C80.6259 157.226 80.9081 157.535 81.1278 157.937C81.3475 158.334 81.4574 158.851 81.4574 159.488V165.283H79.7983V164.09H79.7301C79.6203 164.31 79.4555 164.526 79.2358 164.738C79.0161 164.95 78.7339 165.126 78.3892 165.266C78.0445 165.406 77.6316 165.476 77.1506 165.476ZM77.5199 164.113C77.9896 164.113 78.3911 164.02 78.7244 163.834C79.0616 163.649 79.3172 163.406 79.4915 163.107C79.6695 162.804 79.7585 162.48 79.7585 162.135V161.01C79.6979 161.071 79.5805 161.128 79.4062 161.181C79.2358 161.23 79.0407 161.274 78.821 161.312C78.6013 161.346 78.3873 161.378 78.179 161.408C77.9706 161.435 77.7964 161.457 77.6562 161.476C77.3267 161.518 77.0256 161.588 76.7528 161.687C76.4839 161.785 76.268 161.927 76.1051 162.113C75.946 162.295 75.8665 162.537 75.8665 162.84C75.8665 163.26 76.0218 163.579 76.3324 163.795C76.643 164.007 77.0388 164.113 77.5199 164.113ZM85.419 153.647V165.283H83.7202V153.647H85.419ZM90.2443 165.476C89.6913 165.476 89.1913 165.374 88.7443 165.17C88.2973 164.961 87.9432 164.66 87.6818 164.266C87.4242 163.872 87.2955 163.389 87.2955 162.817C87.2955 162.325 87.3902 161.92 87.5795 161.601C87.7689 161.283 88.0246 161.031 88.3466 160.846C88.6686 160.66 89.0284 160.52 89.4261 160.425C89.8239 160.331 90.2292 160.259 90.642 160.209C91.1648 160.149 91.589 160.099 91.9148 160.062C92.2405 160.02 92.4773 159.954 92.625 159.863C92.7727 159.772 92.8466 159.624 92.8466 159.42V159.38C92.8466 158.884 92.7064 158.499 92.4261 158.226C92.1496 157.954 91.7367 157.817 91.1875 157.817C90.6155 157.817 90.1648 157.944 89.8352 158.198C89.5095 158.448 89.2841 158.726 89.1591 159.033L87.5625 158.67C87.7519 158.139 88.0284 157.711 88.392 157.385C88.7595 157.056 89.1818 156.817 89.6591 156.67C90.1364 156.518 90.6383 156.442 91.1648 156.442C91.5133 156.442 91.8826 156.484 92.2727 156.567C92.6667 156.647 93.0341 156.795 93.375 157.01C93.7197 157.226 94.0019 157.535 94.2216 157.937C94.4413 158.334 94.5511 158.851 94.5511 159.488V165.283H92.892V164.09H92.8239C92.714 164.31 92.5492 164.526 92.3295 164.738C92.1098 164.95 91.8277 165.126 91.483 165.266C91.1383 165.406 90.7254 165.476 90.2443 165.476ZM90.6136 164.113C91.0833 164.113 91.4848 164.02 91.8182 163.834C92.1553 163.649 92.411 163.406 92.5852 163.107C92.7633 162.804 92.8523 162.48 92.8523 162.135V161.01C92.7917 161.071 92.6742 161.128 92.5 161.181C92.3295 161.23 92.1345 161.274 91.9148 161.312C91.6951 161.346 91.4811 161.378 91.2727 161.408C91.0644 161.435 90.8902 161.457 90.75 161.476C90.4205 161.518 90.1193 161.588 89.8466 161.687C89.5777 161.785 89.3617 161.927 89.1989 162.113C89.0398 162.295 88.9602 162.537 88.9602 162.84C88.9602 163.26 89.1155 163.579 89.4261 163.795C89.7367 164.007 90.1326 164.113 90.6136 164.113ZM96.8139 165.283V156.556H98.456V157.942H98.5469C98.706 157.473 98.9863 157.103 99.3878 156.834C99.7931 156.562 100.251 156.425 100.763 156.425C100.869 156.425 100.994 156.429 101.138 156.437C101.286 156.444 101.401 156.454 101.484 156.465V158.09C101.416 158.071 101.295 158.05 101.121 158.028C100.946 158.001 100.772 157.988 100.598 157.988C100.196 157.988 99.8385 158.073 99.5241 158.243C99.2135 158.41 98.9673 158.643 98.7855 158.942C98.6037 159.238 98.5128 159.575 98.5128 159.954V165.283H96.8139ZM102.955 165.283V156.556H104.653V165.283H102.955ZM103.812 155.209C103.517 155.209 103.263 155.111 103.051 154.914C102.843 154.713 102.739 154.474 102.739 154.198C102.739 153.918 102.843 153.679 103.051 153.482C103.263 153.281 103.517 153.181 103.812 153.181C104.108 153.181 104.36 153.281 104.568 153.482C104.78 153.679 104.886 153.918 104.886 154.198C104.886 154.474 104.78 154.713 104.568 154.914C104.36 155.111 104.108 155.209 103.812 155.209ZM110.7 165.459C109.84 165.459 109.1 165.276 108.479 164.908C107.861 164.537 107.384 164.016 107.047 163.346C106.714 162.671 106.547 161.882 106.547 160.976C106.547 160.082 106.714 159.295 107.047 158.613C107.384 157.931 107.854 157.399 108.456 157.016C109.062 156.634 109.77 156.442 110.581 156.442C111.073 156.442 111.551 156.524 112.013 156.687C112.475 156.849 112.89 157.105 113.257 157.454C113.625 157.802 113.914 158.255 114.126 158.812C114.339 159.365 114.445 160.037 114.445 160.829V161.431H107.507V160.158H112.78C112.78 159.711 112.689 159.315 112.507 158.971C112.325 158.622 112.07 158.348 111.74 158.147C111.414 157.946 111.032 157.846 110.592 157.846C110.115 157.846 109.698 157.963 109.342 158.198C108.99 158.429 108.717 158.732 108.524 159.107C108.335 159.478 108.24 159.882 108.24 160.317V161.312C108.24 161.895 108.342 162.391 108.547 162.8C108.755 163.209 109.045 163.522 109.416 163.738C109.787 163.95 110.221 164.056 110.717 164.056C111.039 164.056 111.333 164.01 111.598 163.92C111.863 163.825 112.092 163.685 112.286 163.499C112.479 163.314 112.626 163.084 112.729 162.812L114.337 163.101C114.208 163.575 113.977 163.99 113.643 164.346C113.314 164.698 112.899 164.973 112.399 165.17C111.903 165.363 111.337 165.459 110.7 165.459ZM122.869 158.687L121.33 158.959C121.265 158.762 121.163 158.575 121.023 158.397C120.886 158.219 120.701 158.073 120.466 157.959C120.231 157.846 119.938 157.789 119.585 157.789C119.104 157.789 118.703 157.897 118.381 158.113C118.059 158.325 117.898 158.599 117.898 158.937C117.898 159.228 118.006 159.463 118.222 159.641C118.438 159.819 118.786 159.965 119.267 160.079L120.653 160.397C121.456 160.582 122.055 160.868 122.449 161.255C122.843 161.641 123.04 162.143 123.04 162.76C123.04 163.283 122.888 163.749 122.585 164.158C122.286 164.564 121.867 164.882 121.33 165.113C120.795 165.344 120.176 165.459 119.472 165.459C118.494 165.459 117.697 165.251 117.08 164.834C116.462 164.414 116.083 163.817 115.943 163.045L117.585 162.795C117.688 163.223 117.898 163.546 118.216 163.766C118.534 163.982 118.949 164.09 119.46 164.09C120.017 164.09 120.462 163.974 120.795 163.743C121.129 163.509 121.295 163.223 121.295 162.885C121.295 162.613 121.193 162.384 120.989 162.198C120.788 162.012 120.479 161.872 120.062 161.778L118.585 161.454C117.771 161.268 117.169 160.973 116.778 160.567C116.392 160.162 116.199 159.649 116.199 159.028C116.199 158.512 116.343 158.062 116.631 157.675C116.919 157.289 117.316 156.988 117.824 156.772C118.331 156.552 118.913 156.442 119.568 156.442C120.511 156.442 121.254 156.647 121.795 157.056C122.337 157.461 122.695 158.005 122.869 158.687ZM138.905 161.664V156.556H140.609V165.283H138.939V163.772H138.848C138.647 164.238 138.325 164.626 137.882 164.937C137.443 165.243 136.895 165.397 136.24 165.397C135.679 165.397 135.183 165.274 134.751 165.028C134.323 164.778 133.986 164.408 133.74 163.92C133.498 163.431 133.376 162.827 133.376 162.107V156.556H135.075V161.903C135.075 162.497 135.24 162.971 135.57 163.323C135.899 163.675 136.327 163.851 136.854 163.851C137.172 163.851 137.488 163.772 137.803 163.613C138.121 163.454 138.384 163.213 138.592 162.891C138.804 162.569 138.909 162.16 138.905 161.664ZM142.892 168.556V156.556H144.551V157.971H144.693C144.792 157.789 144.934 157.579 145.119 157.34C145.305 157.101 145.563 156.893 145.892 156.715C146.222 156.533 146.657 156.442 147.199 156.442C147.903 156.442 148.532 156.62 149.085 156.976C149.638 157.332 150.072 157.846 150.386 158.516C150.705 159.187 150.864 159.993 150.864 160.937C150.864 161.88 150.706 162.689 150.392 163.363C150.078 164.033 149.646 164.55 149.097 164.914C148.547 165.274 147.92 165.454 147.216 165.454C146.686 165.454 146.252 165.365 145.915 165.187C145.581 165.009 145.32 164.8 145.131 164.562C144.941 164.323 144.795 164.111 144.693 163.925H144.591V168.556H142.892ZM144.557 160.92C144.557 161.533 144.646 162.071 144.824 162.533C145.002 162.995 145.259 163.357 145.597 163.618C145.934 163.876 146.347 164.005 146.835 164.005C147.343 164.005 147.767 163.87 148.108 163.601C148.449 163.329 148.706 162.959 148.881 162.493C149.059 162.028 149.148 161.503 149.148 160.92C149.148 160.344 149.061 159.827 148.886 159.368C148.716 158.91 148.458 158.548 148.114 158.283C147.773 158.018 147.347 157.885 146.835 157.885C146.343 157.885 145.926 158.012 145.585 158.266C145.248 158.52 144.992 158.874 144.818 159.329C144.644 159.783 144.557 160.314 144.557 160.92ZM161.075 156.556V157.92H156.308V156.556H161.075ZM157.587 154.465H159.286V162.721C159.286 163.05 159.335 163.298 159.433 163.465C159.532 163.628 159.659 163.74 159.814 163.8C159.973 163.857 160.145 163.885 160.331 163.885C160.467 163.885 160.587 163.876 160.689 163.857C160.791 163.838 160.871 163.823 160.928 163.812L161.234 165.215C161.136 165.253 160.996 165.291 160.814 165.329C160.632 165.37 160.405 165.393 160.132 165.397C159.685 165.404 159.268 165.325 158.882 165.158C158.496 164.992 158.183 164.734 157.945 164.385C157.706 164.037 157.587 163.599 157.587 163.073V154.465ZM166.537 165.459C165.719 165.459 165.005 165.272 164.395 164.897C163.785 164.522 163.312 163.997 162.974 163.323C162.637 162.649 162.469 161.861 162.469 160.959C162.469 160.054 162.637 159.262 162.974 158.584C163.312 157.906 163.785 157.38 164.395 157.005C165.005 156.63 165.719 156.442 166.537 156.442C167.355 156.442 168.069 156.63 168.679 157.005C169.289 157.38 169.762 157.906 170.099 158.584C170.437 159.262 170.605 160.054 170.605 160.959C170.605 161.861 170.437 162.649 170.099 163.323C169.762 163.997 169.289 164.522 168.679 164.897C168.069 165.272 167.355 165.459 166.537 165.459ZM166.543 164.033C167.073 164.033 167.512 163.893 167.861 163.613C168.209 163.332 168.467 162.959 168.634 162.493C168.804 162.028 168.889 161.514 168.889 160.954C168.889 160.397 168.804 159.885 168.634 159.42C168.467 158.95 168.209 158.573 167.861 158.289C167.512 158.005 167.073 157.863 166.543 157.863C166.009 157.863 165.565 158.005 165.213 158.289C164.865 158.573 164.605 158.95 164.435 159.42C164.268 159.885 164.185 160.397 164.185 160.954C164.185 161.514 164.268 162.028 164.435 162.493C164.605 162.959 164.865 163.332 165.213 163.613C165.565 163.893 166.009 164.033 166.543 164.033ZM176.713 165.283V164.01L180.651 159.931C181.071 159.488 181.418 159.099 181.69 158.766C181.967 158.429 182.173 158.109 182.31 157.806C182.446 157.503 182.514 157.181 182.514 156.84C182.514 156.454 182.423 156.12 182.241 155.84C182.06 155.556 181.812 155.338 181.497 155.187C181.183 155.031 180.829 154.954 180.435 154.954C180.018 154.954 179.654 155.039 179.344 155.209C179.033 155.38 178.795 155.62 178.628 155.931C178.461 156.242 178.378 156.605 178.378 157.022H176.702C176.702 156.314 176.865 155.694 177.19 155.164C177.516 154.634 177.963 154.223 178.531 153.931C179.099 153.635 179.745 153.488 180.469 153.488C181.2 153.488 181.844 153.634 182.401 153.925C182.961 154.213 183.399 154.607 183.713 155.107C184.027 155.603 184.185 156.164 184.185 156.789C184.185 157.221 184.103 157.643 183.94 158.056C183.781 158.469 183.503 158.929 183.105 159.437C182.707 159.94 182.154 160.552 181.446 161.272L179.134 163.692V163.778H184.372V165.283H176.713ZM190.577 165.476C189.679 165.473 188.912 165.236 188.276 164.766C187.639 164.296 187.152 163.613 186.815 162.715C186.478 161.817 186.31 160.736 186.31 159.471C186.31 158.209 186.478 157.132 186.815 156.238C187.156 155.344 187.645 154.662 188.281 154.192C188.921 153.723 189.687 153.488 190.577 153.488C191.467 153.488 192.23 153.724 192.866 154.198C193.503 154.668 193.99 155.349 194.327 156.243C194.668 157.134 194.838 158.209 194.838 159.471C194.838 160.74 194.67 161.823 194.332 162.721C193.995 163.615 193.509 164.298 192.872 164.772C192.236 165.242 191.471 165.476 190.577 165.476ZM190.577 163.959C191.365 163.959 191.98 163.575 192.423 162.806C192.87 162.037 193.094 160.925 193.094 159.471C193.094 158.505 192.991 157.689 192.787 157.022C192.586 156.351 192.296 155.844 191.918 155.499C191.543 155.151 191.096 154.976 190.577 154.976C189.793 154.976 189.177 155.363 188.73 156.135C188.283 156.908 188.058 158.02 188.054 159.471C188.054 160.44 188.154 161.26 188.355 161.931C188.56 162.598 188.849 163.103 189.224 163.448C189.599 163.789 190.05 163.959 190.577 163.959ZM197.013 165.283V153.647H198.768V163.772H204.041V165.283H197.013ZM206.044 165.283V153.647H210.192C211.097 153.647 211.847 153.812 212.442 154.141C213.036 154.471 213.482 154.921 213.777 155.493C214.072 156.062 214.22 156.702 214.22 157.414C214.22 158.13 214.071 158.774 213.771 159.346C213.476 159.914 213.029 160.365 212.43 160.698C211.836 161.028 211.088 161.192 210.186 161.192H207.334V159.704H210.027C210.599 159.704 211.063 159.605 211.419 159.408C211.775 159.207 212.036 158.935 212.203 158.59C212.37 158.245 212.453 157.853 212.453 157.414C212.453 156.974 212.37 156.584 212.203 156.243C212.036 155.903 211.773 155.635 211.413 155.442C211.057 155.249 210.588 155.153 210.004 155.153H207.8V165.283H206.044ZM216.027 165.283H214.163L218.351 153.647H220.379L224.567 165.283H222.703L219.413 155.76H219.322L216.027 165.283ZM216.339 160.726H222.385V162.204H216.339V160.726Z" fill="white"/>
<g filter="url(#filter3_d_1827_1110)">
<rect x="26" y="181.283" width="86.283" height="23.1132" rx="11.5566" fill="#FFF7F7" shape-rendering="crispEdges"/>
<path d="M37.6586 197.34V188.613H39.2396V192.623H39.3461L42.751 188.613H44.6814L41.3064 192.529L44.7112 197.34H42.8106L40.2069 193.598L39.2396 194.74V197.34H37.6586ZM47.2542 193.505V197.34H45.7116V190.794H47.186V191.907H47.2627C47.4133 191.54 47.6533 191.249 47.9829 191.033C48.3153 190.817 48.7258 190.709 49.2144 190.709C49.6661 190.709 50.0596 190.806 50.3948 190.999C50.7329 191.192 50.9942 191.472 51.1789 191.838C51.3664 192.205 51.4587 192.65 51.4559 193.172V197.34H49.9133V193.411C49.9133 192.973 49.7996 192.631 49.5724 192.384C49.3479 192.137 49.0368 192.013 48.6391 192.013C48.3692 192.013 48.1292 192.073 47.9189 192.192C47.7116 192.309 47.5482 192.478 47.4289 192.699C47.3124 192.921 47.2542 193.189 47.2542 193.505ZM55.8792 197.468C55.24 197.468 54.686 197.327 54.2172 197.046C53.7485 196.765 53.3849 196.371 53.1263 195.865C52.8706 195.36 52.7428 194.769 52.7428 194.093C52.7428 193.417 52.8706 192.824 53.1263 192.316C53.3849 191.807 53.7485 191.412 54.2172 191.131C54.686 190.85 55.24 190.709 55.8792 190.709C56.5184 190.709 57.0724 190.85 57.5411 191.131C58.0099 191.412 58.3721 191.807 58.6278 192.316C58.8863 192.824 59.0155 193.417 59.0155 194.093C59.0155 194.769 58.8863 195.36 58.6278 195.865C58.3721 196.371 58.0099 196.765 57.5411 197.046C57.0724 197.327 56.5184 197.468 55.8792 197.468ZM55.8877 196.232C56.2343 196.232 56.5241 196.137 56.757 195.946C56.99 195.753 57.1633 195.495 57.2769 195.171C57.3934 194.847 57.4516 194.486 57.4516 194.088C57.4516 193.688 57.3934 193.326 57.2769 193.002C57.1633 192.675 56.99 192.415 56.757 192.222C56.5241 192.029 56.2343 191.932 55.8877 191.932C55.5326 191.932 55.2371 192.029 55.0013 192.222C54.7684 192.415 54.5937 192.675 54.4772 193.002C54.3635 193.326 54.3067 193.688 54.3067 194.088C54.3067 194.486 54.3635 194.847 54.4772 195.171C54.5937 195.495 54.7684 195.753 55.0013 195.946C55.2371 196.137 55.5326 196.232 55.8877 196.232ZM61.4882 197.34L59.6388 190.794H61.2112L62.3618 195.397H62.4214L63.5976 190.794H65.153L66.3291 195.371H66.393L67.5265 190.794H69.1032L67.2496 197.34H65.643L64.4157 192.917H64.3263L63.099 197.34H61.4882ZM73.2251 188.613H75.1597L77.7506 194.936H77.8529L80.4438 188.613H82.3785V197.34H80.8614V191.344H80.7805L78.3685 197.314H77.235L74.8231 191.331H74.7421V197.34H73.2251V188.613ZM86.887 197.468C86.2478 197.468 85.6938 197.327 85.2251 197.046C84.7563 196.765 84.3927 196.371 84.1341 195.865C83.8785 195.36 83.7506 194.769 83.7506 194.093C83.7506 193.417 83.8785 192.824 84.1341 192.316C84.3927 191.807 84.7563 191.412 85.2251 191.131C85.6938 190.85 86.2478 190.709 86.887 190.709C87.5262 190.709 88.0802 190.85 88.5489 191.131C89.0177 191.412 89.3799 191.807 89.6356 192.316C89.8941 192.824 90.0233 193.417 90.0233 194.093C90.0233 194.769 89.8941 195.36 89.6356 195.865C89.3799 196.371 89.0177 196.765 88.5489 197.046C88.0802 197.327 87.5262 197.468 86.887 197.468ZM86.8955 196.232C87.2421 196.232 87.5319 196.137 87.7648 195.946C87.9978 195.753 88.1711 195.495 88.2847 195.171C88.4012 194.847 88.4594 194.486 88.4594 194.088C88.4594 193.688 88.4012 193.326 88.2847 193.002C88.1711 192.675 87.9978 192.415 87.7648 192.222C87.5319 192.029 87.2421 191.932 86.8955 191.932C86.5404 191.932 86.2449 192.029 86.0091 192.222C85.7762 192.415 85.6015 192.675 85.485 193.002C85.3714 193.326 85.3145 193.688 85.3145 194.088C85.3145 194.486 85.3714 194.847 85.485 195.171C85.6015 195.495 85.7762 195.753 86.0091 195.946C86.2449 196.137 86.5404 196.232 86.8955 196.232ZM91.3327 197.34V190.794H92.8284V191.885H92.8966C93.0159 191.507 93.2204 191.216 93.5102 191.012C93.8028 190.804 94.1366 190.701 94.5116 190.701C94.5969 190.701 94.692 190.705 94.7971 190.713C94.9051 190.719 94.9946 190.729 95.0656 190.743V192.162C95.0003 192.14 94.8966 192.12 94.7545 192.103C94.6153 192.083 94.4804 192.073 94.3497 192.073C94.0684 192.073 93.8156 192.134 93.5912 192.256C93.3696 192.375 93.1949 192.542 93.067 192.755C92.9392 192.968 92.8753 193.213 92.8753 193.492V197.34H91.3327ZM98.7187 197.468C98.0624 197.468 97.4956 197.331 97.0184 197.059C96.5439 196.783 96.1789 196.394 95.9232 195.891C95.6675 195.385 95.5397 194.79 95.5397 194.105C95.5397 193.432 95.6675 192.841 95.9232 192.333C96.1817 191.821 96.5425 191.424 97.0056 191.14C97.4687 190.853 98.0127 190.709 98.6377 190.709C99.0411 190.709 99.4218 190.775 99.7797 190.905C100.141 191.033 100.459 191.232 100.734 191.502C101.013 191.772 101.231 192.115 101.391 192.533C101.55 192.948 101.629 193.442 101.629 194.016V194.489H96.2641V193.449H100.15C100.148 193.154 100.084 192.891 99.9587 192.661C99.8337 192.428 99.659 192.245 99.4346 192.111C99.213 191.978 98.9545 191.911 98.659 191.911C98.3437 191.911 98.0667 191.988 97.828 192.141C97.5894 192.292 97.4033 192.49 97.2698 192.738C97.1391 192.982 97.0724 193.25 97.0695 193.543V194.451C97.0695 194.831 97.1391 195.158 97.2783 195.431C97.4175 195.701 97.6121 195.908 97.8621 196.053C98.1121 196.195 98.4047 196.266 98.74 196.266C98.9644 196.266 99.1675 196.235 99.3493 196.172C99.5312 196.107 99.6888 196.012 99.8224 195.887C99.9559 195.762 100.057 195.607 100.125 195.422L101.565 195.584C101.474 195.965 101.301 196.297 101.045 196.581C100.793 196.863 100.469 197.081 100.074 197.238C99.6789 197.391 99.2272 197.468 98.7187 197.468Z" fill="#208CB7"/>
</g>
</g>
<defs>
<filter id="filter0_b_1827_1110" x="-44.2168" y="-10.1416" width="143.401" height="92.0849" filterUnits="userSpaceOnUse" color-interpolation-filters="sRGB">
<feFlood flood-opacity="0" result="BackgroundImageFix"/>
<feGaussianBlur in="BackgroundImageFix" stdDeviation="2.0283"/>
<feComposite in2="SourceAlpha" operator="in" result="effect1_backgroundBlur_1827_1110"/>
<feBlend mode="normal" in="SourceGraphic" in2="effect1_backgroundBlur_1827_1110" result="shape"/>
</filter>
<filter id="filter1_b_1827_1110" x="-4.0566" y="256.943" width="127.113" height="26.7734" filterUnits="userSpaceOnUse" color-interpolation-filters="sRGB">
<feFlood flood-opacity="0" result="BackgroundImageFix"/>
<feGaussianBlur in="BackgroundImageFix" stdDeviation="2.0283"/>
<feComposite in2="SourceAlpha" operator="in" result="effect1_backgroundBlur_1827_1110"/>
<feBlend mode="normal" in="SourceGraphic" in2="effect1_backgroundBlur_1827_1110" result="shape"/>
</filter>
<filter id="filter2_bd_1827_1110" x="15.8585" y="52.2248" width="117.453" height="36.3397" filterUnits="userSpaceOnUse" color-interpolation-filters="sRGB">
<feFlood flood-opacity="0" result="BackgroundImageFix"/>
<feGaussianBlur in="BackgroundImageFix" stdDeviation="2.0283"/>
<feComposite in2="SourceAlpha" operator="in" result="effect1_backgroundBlur_1827_1110"/>
<feColorMatrix in="SourceAlpha" type="matrix" values="0 0 0 0 0 0 0 0 0 0 0 0 0 0 0 0 0 0 127 0" result="hardAlpha"/>
<feOffset dy="2.36635"/>
<feGaussianBlur stdDeviation="5.07076"/>
<feComposite in2="hardAlpha" operator="out"/>
<feColorMatrix type="matrix" values="0 0 0 0 0.385 0 0 0 0 0.385 0 0 0 0 0.385 0 0 0 0.2 0"/>
<feBlend mode="normal" in2="effect1_backgroundBlur_1827_1110" result="effect2_dropShadow_1827_1110"/>
<feBlend mode="normal" in="SourceGraphic" in2="effect2_dropShadow_1827_1110" result="shape"/>
</filter>
<filter id="filter3_d_1827_1110" x="15.8585" y="173.508" width="106.566" height="43.3963" filterUnits="userSpaceOnUse" color-interpolation-filters="sRGB">
<feFlood flood-opacity="0" result="BackgroundImageFix"/>
<feColorMatrix in="SourceAlpha" type="matrix" values="0 0 0 0 0 0 0 0 0 0 0 0 0 0 0 0 0 0 127 0" result="hardAlpha"/>
<feOffset dy="2.36635"/>
<feGaussianBlur stdDeviation="5.07076"/>
<feComposite in2="hardAlpha" operator="out"/>
<feColorMatrix type="matrix" values="0 0 0 0 0.385 0 0 0 0 0.385 0 0 0 0 0.385 0 0 0 0.2 0"/>
<feBlend mode="normal" in2="BackgroundImageFix" result="effect1_dropShadow_1827_1110"/>
<feBlend mode="normal" in="SourceGraphic" in2="effect1_dropShadow_1827_1110" result="shape"/>
</filter>
<linearGradient id="paint0_linear_1827_1110" x1="192.689" y1="415.909" x2="415.492" y2="-26.6534" gradientUnits="userSpaceOnUse">
<stop offset="0.03375" stop-color="#5A55CB"/>
<stop offset="1" stop-color="#3F3AB4"/>
</linearGradient>
<linearGradient id="paint1_linear_1827_1110" x1="217.68" y1="165.509" x2="439.963" y2="297.691" gradientUnits="userSpaceOnUse">
<stop offset="0.0262783" stop-color="#1893BC"/>
<stop offset="0.454154" stop-color="#1798C3" stop-opacity="0"/>
</linearGradient>
<linearGradient id="paint2_linear_1827_1110" x1="2.02839" y1="160.689" x2="283.5" y2="263.051" gradientUnits="userSpaceOnUse">
<stop stop-color="#4D47BD" stop-opacity="0"/>
<stop offset="0.424" stop-color="#D7B945"/>
<stop offset="0.90265" stop-color="#8F829D" stop-opacity="0"/>
</linearGradient>
<linearGradient id="paint3_linear_1827_1110" x1="-30.4247" y1="180.971" x2="274.232" y2="288.513" gradientUnits="userSpaceOnUse">
<stop stop-color="#40B69A" stop-opacity="0.5"/>
<stop offset="0.894077" stop-color="#7871AB" stop-opacity="0"/>
</linearGradient>
<linearGradient id="paint4_linear_1827_1110" x1="-12.1118" y1="188.01" x2="273.038" y2="291.796" gradientUnits="userSpaceOnUse">
<stop stop-color="#159EC9" stop-opacity="0"/>
<stop offset="0.929" stop-color="#5AFF74"/>
</linearGradient>
<linearGradient id="paint5_linear_1827_1110" x1="337.712" y1="206.967" x2="89.4482" y2="210.212" gradientUnits="userSpaceOnUse">
<stop stop-color="#FFE053"/>
<stop offset="0.744725" stop-color="#5550C7" stop-opacity="0"/>
</linearGradient>
<linearGradient id="paint6_linear_1827_1110" x1="27.4837" y1="-6.08496" x2="15.4153" y2="74.6414" gradientUnits="userSpaceOnUse">
<stop offset="0.0377139" stop-color="#FFE053"/>
<stop offset="1" stop-color="#544FC5" stop-opacity="0"/>
</linearGradient>
<linearGradient id="paint7_linear_1827_1110" x1="1476.36" y1="1062.72" x2="7617.05" y2="7142.15" gradientUnits="userSpaceOnUse">
<stop stop-color="#387EB8"/>
<stop offset="1" stop-color="#366994"/>
</linearGradient>
<linearGradient id="paint8_linear_1827_1110" x1="2075.24" y1="1880.37" x2="8669.64" y2="8114.26" gradientUnits="userSpaceOnUse">
<stop stop-color="#FFE052"/>
<stop offset="1" stop-color="#FFC331"/>
</linearGradient>
<linearGradient id="paint9_linear_1827_1110" x1="123.17" y1="68.0283" x2="26" y2="68.0283" gradientUnits="userSpaceOnUse">
<stop offset="0.1" stop-color="#ABE0F8" stop-opacity="0"/>
<stop offset="0.5" stop-color="#ABE0F8"/>
<stop offset="0.9" stop-color="#ABE0F8" stop-opacity="0"/>
</linearGradient>
<clipPath id="clip0_1827_1110">
<rect width="430" height="280" rx="16.2264" fill="white"/>
</clipPath>
<clipPath id="clip1_1827_1110">
<rect width="124.214" height="123.726" fill="white" transform="translate(285.499 -46.0425)"/>
</clipPath>
</defs>
</svg>
