<svg width="1060" height="308" viewBox="0 0 1060 308" fill="none" xmlns="http://www.w3.org/2000/svg">
<g clip-path="url(#clip0_1794_830)">
<rect width="1060" height="308" rx="40" fill="url(#paint0_linear_1794_830)"/>
<path d="M-4 -22.5L95.4435 76.576C125.754 104.153 186.383 159.305 252.584 199.137C318.786 238.969 390.566 263.483 464.937 280.868C539.309 298.253 616.277 308.511 654.758 313.642L693.242 318.771" stroke="url(#paint1_linear_1794_830)" stroke-width="19.9999"/>
<path d="M-20.0003 172.422L60.5582 172.422C101.115 171.849 182.232 170.709 259.976 178.829C337.719 186.951 412.093 204.337 480.11 239.182C548.127 274.024 609.792 326.328 640.623 352.478L671.455 378.63" stroke="url(#paint2_linear_1794_830)" stroke-width="19.9999"/>
<path d="M-27.0002 110.5L66.7835 155.319C101.116 171.848 169.783 204.913 239.357 235.479C308.93 266.048 379.414 294.123 453.137 313.289C526.86 332.457 603.828 342.715 642.309 347.846L680.793 352.975" stroke="url(#paint3_linear_1794_830)" stroke-width="19.9999"/>
<path d="M886.099 413.633C867.218 352.675 830.013 299.015 779.548 259.956C729.082 220.896 667.808 198.335 604.063 195.342C540.318 192.349 477.198 209.07 423.295 243.229C369.392 277.388 327.323 327.326 302.814 386.247L589.5 505.5L886.099 413.633Z" fill="url(#paint4_linear_1794_830)"/>
<path d="M234.5 -3.5C234.5 23.6836 135.043 20.0137 92.2431 64.2155C70.302 86.8752 66.5928 112.149 47.3711 131.371C28.1494 150.593 5.32986 165.84 -19.7845 176.243C-44.8989 186.646 -71.8164 192 -99 192L-99 -15L234.5 -3.5Z" fill="url(#paint5_linear_1794_830)"/>
<g filter="url(#filter0_bd_1794_830)">
<mask id="path-7-inside-1_1794_830" fill="white">
<path d="M62 68C62 62.4772 66.4772 58 72 58H208C213.523 58 218 62.4772 218 68V75C218 80.5228 213.523 85 208 85H72C66.4772 85 62 80.5228 62 75V68Z"/>
</mask>
<path d="M62 68C62 62.4772 66.4772 58 72 58H208C213.523 58 218 62.4772 218 68V75C218 80.5228 213.523 85 208 85H72C66.4772 85 62 80.5228 62 75V68Z" fill="white" fill-opacity="0.15" shape-rendering="crispEdges"/>
<path d="M62 68C62 61.9249 66.9249 57 73 57H207C213.075 57 218 61.9249 218 68C218 63.0294 213.523 59 208 59H72C66.4772 59 62 63.0294 62 68ZM218 75C218 81.0751 213.075 86 207 86H73C66.9249 86 62 81.0751 62 75C62 79.9706 66.4772 84 72 84H208C213.523 84 218 79.9706 218 75ZM62 85V58V85ZM218 58V85V58Z" fill="url(#paint6_linear_1794_830)" mask="url(#path-7-inside-1_1794_830)"/>
<path d="M78.7388 77V66.8182H82.1792C82.9746 66.8182 83.6275 66.9541 84.138 67.2259C84.6484 67.4943 85.0262 67.8639 85.2715 68.3345C85.5167 68.8052 85.6394 69.3404 85.6394 69.9403C85.6394 70.5402 85.5167 71.0722 85.2715 71.5362C85.0262 72.0002 84.65 72.3648 84.1429 72.63C83.6358 72.8918 82.9879 73.0227 82.199 73.0227H79.415V71.9091H82.1593C82.7028 71.9091 83.1403 71.8295 83.4718 71.6705C83.8065 71.5114 84.0485 71.286 84.1976 70.9943C84.3501 70.6993 84.4263 70.348 84.4263 69.9403C84.4263 69.5327 84.3501 69.1764 84.1976 68.8714C84.0452 68.5665 83.8016 68.3312 83.4668 68.1655C83.132 67.9964 82.6896 67.9119 82.1394 67.9119H79.9718V77H78.7388ZM83.5314 72.4261L86.0371 77H84.6053L82.1394 72.4261H83.5314ZM90.6545 77.1591C89.9187 77.1591 89.284 76.9967 88.7504 76.6719C88.2201 76.3438 87.8107 75.8864 87.5224 75.2997C87.2373 74.7098 87.0948 74.0237 87.0948 73.2415C87.0948 72.4593 87.2373 71.7699 87.5224 71.1733C87.8107 70.5734 88.2118 70.1061 88.7255 69.7713C89.2425 69.4332 89.8458 69.2642 90.5352 69.2642C90.9329 69.2642 91.3256 69.3305 91.7134 69.4631C92.1012 69.5956 92.4542 69.8111 92.7724 70.1094C93.0906 70.4044 93.3441 70.7955 93.533 71.2827C93.7219 71.7699 93.8164 72.3698 93.8164 73.0824V73.5795H87.93V72.5653H92.6232C92.6232 72.1345 92.5371 71.75 92.3647 71.4119C92.1957 71.0739 91.9537 70.8071 91.6388 70.6115C91.3273 70.416 90.9594 70.3182 90.5352 70.3182C90.0678 70.3182 89.6635 70.4342 89.3221 70.6662C88.984 70.8949 88.7238 71.1932 88.5415 71.5611C88.3593 71.929 88.2681 72.3234 88.2681 72.7443V73.4205C88.2681 73.9972 88.3675 74.486 88.5664 74.8871C88.7686 75.2848 89.0487 75.5881 89.4066 75.7969C89.7646 76.0024 90.1805 76.1051 90.6545 76.1051C90.9627 76.1051 91.2411 76.062 91.4897 75.9759C91.7416 75.8864 91.9587 75.7538 92.141 75.5781C92.3233 75.3991 92.4641 75.1771 92.5636 74.9119L93.6971 75.2301C93.5778 75.6146 93.3772 75.9527 93.0955 76.2443C92.8138 76.5327 92.4658 76.758 92.0515 76.9205C91.6372 77.0795 91.1715 77.1591 90.6545 77.1591ZM97.8484 77.179C97.3645 77.179 96.9253 77.0878 96.5309 76.9055C96.1365 76.7199 95.8233 76.4531 95.5913 76.1051C95.3593 75.7538 95.2433 75.3295 95.2433 74.8324C95.2433 74.3949 95.3294 74.0402 95.5018 73.7685C95.6741 73.4934 95.9045 73.2779 96.1928 73.1222C96.4812 72.9664 96.7994 72.8504 97.1474 72.7741C97.4987 72.6946 97.8517 72.6316 98.2063 72.5852C98.6703 72.5256 99.0465 72.4808 99.3349 72.451C99.6265 72.4179 99.8387 72.3632 99.9712 72.2869C100.107 72.2107 100.175 72.0781 100.175 71.8892V71.8494C100.175 71.3589 100.041 70.9777 99.7724 70.706C99.5072 70.4342 99.1045 70.2983 98.5643 70.2983C98.0041 70.2983 97.565 70.4209 97.2468 70.6662C96.9286 70.9115 96.7049 71.1733 96.5756 71.4517L95.462 71.054C95.6609 70.59 95.926 70.2287 96.2575 69.9702C96.5922 69.7083 96.9568 69.526 97.3512 69.4233C97.7489 69.3172 98.14 69.2642 98.5245 69.2642C98.7698 69.2642 99.0515 69.294 99.3697 69.3537C99.6912 69.41 100.001 69.5277 100.299 69.7067C100.601 69.8857 100.851 70.1558 101.05 70.517C101.249 70.8783 101.348 71.3622 101.348 71.9688V77H100.175V75.9659H100.115C100.036 76.1316 99.9033 76.3089 99.7177 76.4979C99.5321 76.6868 99.2852 76.8475 98.9769 76.9801C98.6687 77.1127 98.2925 77.179 97.8484 77.179ZM98.0273 76.125C98.4914 76.125 98.8825 76.0339 99.2006 75.8516C99.5221 75.6693 99.7641 75.4339 99.9265 75.1456C100.092 74.8572 100.175 74.554 100.175 74.2358V73.1619C100.125 73.2216 100.016 73.2763 99.8469 73.326C99.6812 73.3724 99.489 73.4138 99.2702 73.4503C99.0548 73.4834 98.8443 73.5133 98.6388 73.5398C98.4367 73.563 98.2726 73.5829 98.1467 73.5994C97.8417 73.6392 97.5567 73.7038 97.2915 73.7933C97.0297 73.8795 96.8176 74.0104 96.6552 74.1861C96.4961 74.3584 96.4165 74.5937 96.4165 74.892C96.4165 75.2997 96.5674 75.608 96.869 75.8168C97.1739 76.0223 97.56 76.125 98.0273 76.125ZM106.592 77.1591C105.876 77.1591 105.26 76.9901 104.743 76.652C104.226 76.3139 103.828 75.8482 103.55 75.255C103.271 74.6617 103.132 73.9839 103.132 73.2216C103.132 72.446 103.274 71.7616 103.559 71.1683C103.848 70.5717 104.249 70.1061 104.763 69.7713C105.28 69.4332 105.883 69.2642 106.572 69.2642C107.109 69.2642 107.593 69.3636 108.024 69.5625C108.455 69.7614 108.808 70.0398 109.083 70.3977C109.358 70.7557 109.529 71.1733 109.595 71.6506H108.422C108.332 71.3026 108.133 70.9943 107.825 70.7259C107.52 70.4541 107.109 70.3182 106.592 70.3182C106.135 70.3182 105.734 70.4375 105.389 70.6761C105.048 70.9115 104.781 71.2446 104.589 71.6754C104.4 72.103 104.305 72.6051 104.305 73.1818C104.305 73.7718 104.398 74.2855 104.584 74.723C104.773 75.1605 105.038 75.5002 105.379 75.7422C105.724 75.9841 106.128 76.1051 106.592 76.1051C106.897 76.1051 107.174 76.0521 107.422 75.946C107.671 75.84 107.881 75.6875 108.054 75.4886C108.226 75.2898 108.349 75.0511 108.422 74.7727H109.595C109.529 75.2235 109.365 75.6295 109.103 75.9908C108.844 76.3487 108.501 76.6338 108.074 76.8459C107.649 77.0547 107.156 77.1591 106.592 77.1591ZM114.631 69.3636V70.358H110.674V69.3636H114.631ZM111.827 67.5341H113.001V74.8125C113.001 75.1439 113.049 75.3925 113.145 75.5582C113.244 75.7206 113.37 75.83 113.523 75.8864C113.678 75.9394 113.842 75.9659 114.015 75.9659C114.144 75.9659 114.25 75.9593 114.333 75.946C114.416 75.9295 114.482 75.9162 114.532 75.9062L114.77 76.9602C114.691 76.9901 114.58 77.0199 114.437 77.0497C114.295 77.0829 114.114 77.0994 113.895 77.0994C113.564 77.0994 113.239 77.0282 112.921 76.8857C112.606 76.7431 112.344 76.526 112.135 76.2344C111.93 75.9427 111.827 75.5748 111.827 75.1307V67.5341ZM120.453 66.8182H121.686V74.0966C121.686 74.7462 121.567 75.2981 121.328 75.7521C121.089 76.2062 120.753 76.5509 120.319 76.7862C119.885 77.0215 119.372 77.1392 118.782 77.1392C118.226 77.1392 117.73 77.0381 117.296 76.8359C116.862 76.6304 116.52 76.3388 116.272 75.9609C116.023 75.5831 115.899 75.134 115.899 74.6136H117.112C117.112 74.902 117.183 75.1539 117.326 75.3693C117.472 75.5814 117.671 75.7472 117.922 75.8665C118.174 75.9858 118.461 76.0455 118.782 76.0455C119.137 76.0455 119.439 75.9709 119.687 75.8217C119.936 75.6726 120.125 75.4538 120.254 75.1655C120.387 74.8738 120.453 74.5175 120.453 74.0966V66.8182ZM129.725 69.3636C129.665 68.8598 129.423 68.4688 128.999 68.1903C128.575 67.9119 128.055 67.7727 127.438 67.7727C126.987 67.7727 126.593 67.8456 126.255 67.9915C125.92 68.1373 125.658 68.3378 125.469 68.593C125.284 68.8482 125.191 69.1383 125.191 69.4631C125.191 69.7348 125.256 69.9685 125.385 70.1641C125.517 70.3563 125.686 70.517 125.892 70.6463C126.097 70.7723 126.313 70.8767 126.538 70.9595C126.764 71.0391 126.971 71.1037 127.16 71.1534L128.194 71.4318C128.459 71.5014 128.754 71.5975 129.079 71.7202C129.407 71.8428 129.72 72.0102 130.018 72.2223C130.32 72.4311 130.568 72.6996 130.764 73.0277C130.96 73.3558 131.057 73.7585 131.057 74.2358C131.057 74.786 130.913 75.2831 130.625 75.7273C130.34 76.1714 129.922 76.5244 129.372 76.7862C128.825 77.0481 128.161 77.179 127.378 77.179C126.649 77.179 126.018 77.0613 125.484 76.826C124.954 76.5907 124.536 76.2625 124.231 75.8416C123.93 75.4207 123.759 74.9318 123.719 74.375H124.992C125.025 74.7595 125.154 75.0777 125.38 75.3295C125.608 75.5781 125.897 75.7637 126.245 75.8864C126.596 76.0057 126.974 76.0653 127.378 76.0653C127.849 76.0653 128.272 75.9891 128.646 75.8366C129.021 75.6809 129.317 75.4654 129.536 75.1903C129.755 74.9119 129.864 74.5871 129.864 74.2159C129.864 73.8778 129.77 73.6027 129.581 73.3906C129.392 73.1785 129.143 73.0062 128.835 72.8736C128.527 72.741 128.194 72.625 127.836 72.5256L126.583 72.1676C125.787 71.9389 125.158 71.6125 124.694 71.1882C124.23 70.764 123.998 70.2088 123.998 69.5227C123.998 68.9527 124.152 68.4555 124.46 68.0312C124.772 67.6037 125.189 67.2723 125.713 67.0369C126.24 66.7983 126.828 66.679 127.478 66.679C128.134 66.679 128.717 66.7966 129.228 67.032C129.738 67.264 130.143 67.5821 130.441 67.9865C130.742 68.3909 130.902 68.8499 130.918 69.3636H129.725ZM140.164 77H137.022V66.8182H140.303C141.291 66.8182 142.136 67.022 142.839 67.4297C143.541 67.834 144.08 68.4157 144.455 69.1747C144.829 69.9304 145.016 70.8352 145.016 71.8892C145.016 72.9498 144.827 73.8629 144.45 74.6286C144.072 75.3909 143.522 75.9775 142.799 76.3885C142.076 76.7962 141.198 77 140.164 77ZM138.255 75.9062H140.085C140.926 75.9062 141.624 75.7438 142.178 75.419C142.731 75.0942 143.144 74.6319 143.415 74.032C143.687 73.4321 143.823 72.7178 143.823 71.8892C143.823 71.0672 143.689 70.3596 143.42 69.7663C143.152 69.1697 142.751 68.7124 142.217 68.3942C141.684 68.0727 141.019 67.9119 140.224 67.9119H138.255V75.9062ZM150.127 77.1591C149.391 77.1591 148.757 76.9967 148.223 76.6719C147.693 76.3438 147.283 75.8864 146.995 75.2997C146.71 74.7098 146.567 74.0237 146.567 73.2415C146.567 72.4593 146.71 71.7699 146.995 71.1733C147.283 70.5734 147.684 70.1061 148.198 69.7713C148.715 69.4332 149.318 69.2642 150.008 69.2642C150.406 69.2642 150.798 69.3305 151.186 69.4631C151.574 69.5956 151.927 69.8111 152.245 70.1094C152.563 70.4044 152.817 70.7955 153.006 71.2827C153.195 71.7699 153.289 72.3698 153.289 73.0824V73.5795H147.403V72.5653H152.096C152.096 72.1345 152.01 71.75 151.837 71.4119C151.668 71.0739 151.426 70.8071 151.112 70.6115C150.8 70.416 150.432 70.3182 150.008 70.3182C149.54 70.3182 149.136 70.4342 148.795 70.6662C148.457 70.8949 148.196 71.1932 148.014 71.5611C147.832 71.929 147.741 72.3234 147.741 72.7443V73.4205C147.741 73.9972 147.84 74.486 148.039 74.8871C148.241 75.2848 148.521 75.5881 148.879 75.7969C149.237 76.0024 149.653 76.1051 150.127 76.1051C150.435 76.1051 150.714 76.062 150.962 75.9759C151.214 75.8864 151.431 75.7538 151.614 75.5781C151.796 75.3991 151.937 75.1771 152.036 74.9119L153.17 75.2301C153.05 75.6146 152.85 75.9527 152.568 76.2443C152.286 76.5327 151.938 76.758 151.524 76.9205C151.11 77.0795 150.644 77.1591 150.127 77.1591ZM161.086 69.3636L158.262 77H157.069L154.245 69.3636H155.518L157.626 75.4489H157.705L159.813 69.3636H161.086ZM165.563 77.1591C164.827 77.1591 164.192 76.9967 163.659 76.6719C163.128 76.3438 162.719 75.8864 162.431 75.2997C162.146 74.7098 162.003 74.0237 162.003 73.2415C162.003 72.4593 162.146 71.7699 162.431 71.1733C162.719 70.5734 163.12 70.1061 163.634 69.7713C164.151 69.4332 164.754 69.2642 165.443 69.2642C165.841 69.2642 166.234 69.3305 166.622 69.4631C167.009 69.5956 167.362 69.8111 167.681 70.1094C167.999 70.4044 168.252 70.7955 168.441 71.2827C168.63 71.7699 168.725 72.3698 168.725 73.0824V73.5795H162.838V72.5653H167.531C167.531 72.1345 167.445 71.75 167.273 71.4119C167.104 71.0739 166.862 70.8071 166.547 70.6115C166.235 70.416 165.868 70.3182 165.443 70.3182C164.976 70.3182 164.572 70.4342 164.23 70.6662C163.892 70.8949 163.632 71.1932 163.45 71.5611C163.267 71.929 163.176 72.3234 163.176 72.7443V73.4205C163.176 73.9972 163.276 74.486 163.475 74.8871C163.677 75.2848 163.957 75.5881 164.315 75.7969C164.673 76.0024 165.089 76.1051 165.563 76.1051C165.871 76.1051 166.149 76.062 166.398 75.9759C166.65 75.8864 166.867 75.7538 167.049 75.5781C167.231 75.3991 167.372 75.1771 167.472 74.9119L168.605 75.2301C168.486 75.6146 168.285 75.9527 168.004 76.2443C167.722 76.5327 167.374 76.758 166.96 76.9205C166.545 77.0795 166.08 77.1591 165.563 77.1591ZM171.683 66.8182V77H170.509V66.8182H171.683ZM176.934 77.1591C176.245 77.1591 175.64 76.995 175.119 76.6669C174.602 76.3388 174.198 75.8797 173.906 75.2898C173.618 74.6998 173.474 74.0104 173.474 73.2216C173.474 72.4261 173.618 71.7318 173.906 71.1385C174.198 70.5452 174.602 70.0845 175.119 69.7564C175.64 69.4283 176.245 69.2642 176.934 69.2642C177.623 69.2642 178.227 69.4283 178.744 69.7564C179.264 70.0845 179.668 70.5452 179.957 71.1385C180.248 71.7318 180.394 72.4261 180.394 73.2216C180.394 74.0104 180.248 74.6998 179.957 75.2898C179.668 75.8797 179.264 76.3388 178.744 76.6669C178.227 76.995 177.623 77.1591 176.934 77.1591ZM176.934 76.1051C177.458 76.1051 177.888 75.9709 178.227 75.7024C178.565 75.4339 178.815 75.081 178.977 74.6435C179.14 74.206 179.221 73.732 179.221 73.2216C179.221 72.7112 179.14 72.2356 178.977 71.7947C178.815 71.3539 178.565 70.9976 178.227 70.7259C177.888 70.4541 177.458 70.3182 176.934 70.3182C176.41 70.3182 175.979 70.4541 175.641 70.7259C175.303 70.9976 175.053 71.3539 174.891 71.7947C174.728 72.2356 174.647 72.7112 174.647 73.2216C174.647 73.732 174.728 74.206 174.891 74.6435C175.053 75.081 175.303 75.4339 175.641 75.7024C175.979 75.9709 176.41 76.1051 176.934 76.1051ZM182.185 79.8636V69.3636H183.319V70.5767H183.458C183.544 70.4441 183.663 70.2751 183.816 70.0696C183.972 69.8608 184.194 69.6752 184.482 69.5128C184.774 69.3471 185.168 69.2642 185.665 69.2642C186.308 69.2642 186.875 69.425 187.366 69.7464C187.856 70.0679 188.239 70.5237 188.514 71.1136C188.789 71.7036 188.927 72.3996 188.927 73.2017C188.927 74.0104 188.789 74.7114 188.514 75.3047C188.239 75.8946 187.858 76.352 187.371 76.6768C186.883 76.9983 186.322 77.1591 185.685 77.1591C185.195 77.1591 184.802 77.0779 184.507 76.9155C184.212 76.7498 183.985 76.5625 183.826 76.3537C183.667 76.1416 183.544 75.9659 183.458 75.8267H183.358V79.8636H182.185ZM183.339 73.1818C183.339 73.7585 183.423 74.2673 183.592 74.7081C183.761 75.1456 184.008 75.4886 184.333 75.7372C184.658 75.9825 185.055 76.1051 185.526 76.1051C186.017 76.1051 186.426 75.9759 186.754 75.7173C187.086 75.4555 187.334 75.1042 187.5 74.6634C187.669 74.2192 187.753 73.7254 187.753 73.1818C187.753 72.6449 187.671 72.161 187.505 71.7301C187.342 71.2959 187.095 70.9529 186.764 70.701C186.436 70.4458 186.023 70.3182 185.526 70.3182C185.049 70.3182 184.648 70.4392 184.323 70.6811C183.998 70.9197 183.753 71.2545 183.587 71.6854C183.421 72.1129 183.339 72.6117 183.339 73.1818ZM193.918 77.1591C193.182 77.1591 192.548 76.9967 192.014 76.6719C191.484 76.3438 191.074 75.8864 190.786 75.2997C190.501 74.7098 190.358 74.0237 190.358 73.2415C190.358 72.4593 190.501 71.7699 190.786 71.1733C191.074 70.5734 191.475 70.1061 191.989 69.7713C192.506 69.4332 193.109 69.2642 193.799 69.2642C194.197 69.2642 194.589 69.3305 194.977 69.4631C195.365 69.5956 195.718 69.8111 196.036 70.1094C196.354 70.4044 196.608 70.7955 196.797 71.2827C196.986 71.7699 197.08 72.3698 197.08 73.0824V73.5795H191.194V72.5653H195.887C195.887 72.1345 195.801 71.75 195.628 71.4119C195.459 71.0739 195.217 70.8071 194.903 70.6115C194.591 70.416 194.223 70.3182 193.799 70.3182C193.331 70.3182 192.927 70.4342 192.586 70.6662C192.248 70.8949 191.988 71.1932 191.805 71.5611C191.623 71.929 191.532 72.3234 191.532 72.7443V73.4205C191.532 73.9972 191.631 74.486 191.83 74.8871C192.032 75.2848 192.312 75.5881 192.67 75.7969C193.028 76.0024 193.444 76.1051 193.918 76.1051C194.226 76.1051 194.505 76.062 194.753 75.9759C195.005 75.8864 195.222 75.7538 195.405 75.5781C195.587 75.3991 195.728 75.1771 195.827 74.9119L196.961 75.2301C196.841 75.6146 196.641 75.9527 196.359 76.2443C196.077 76.5327 195.729 76.758 195.315 76.9205C194.901 77.0795 194.435 77.1591 193.918 77.1591ZM198.865 77V69.3636H199.998V70.517H200.078C200.217 70.1392 200.469 69.8326 200.834 69.5973C201.198 69.362 201.609 69.2443 202.067 69.2443C202.153 69.2443 202.26 69.246 202.39 69.2493C202.519 69.2526 202.617 69.2576 202.683 69.2642V70.4574C202.643 70.4474 202.552 70.4325 202.41 70.4126C202.27 70.3894 202.123 70.3778 201.967 70.3778C201.596 70.3778 201.265 70.4557 200.973 70.6115C200.684 70.764 200.456 70.9761 200.287 71.2479C200.121 71.5163 200.038 71.8229 200.038 72.1676V77H198.865Z" fill="white"/>
</g>
<path d="M90.473 129.724H85.1605C85.009 128.853 84.7296 128.081 84.3224 127.409C83.9152 126.727 83.4086 126.15 82.8026 125.676C82.1965 125.203 81.5052 124.848 80.7287 124.611C79.9616 124.365 79.133 124.241 78.2429 124.241C76.6615 124.241 75.2599 124.639 74.0384 125.435C72.8168 126.221 71.8603 127.376 71.169 128.901C70.4777 130.416 70.1321 132.267 70.1321 134.455C70.1321 136.68 70.4777 138.555 71.169 140.08C71.8698 141.595 72.8262 142.741 74.0384 143.517C75.2599 144.284 76.6567 144.668 78.2287 144.668C79.0999 144.668 79.9143 144.554 80.6719 144.327C81.4389 144.09 82.1255 143.744 82.7315 143.29C83.3471 142.835 83.8632 142.277 84.2798 141.614C84.706 140.951 84.9995 140.193 85.1605 139.341L90.473 139.369C90.2741 140.752 89.8433 142.049 89.1804 143.261C88.527 144.473 87.67 145.544 86.6094 146.472C85.5488 147.39 84.3082 148.11 82.8878 148.631C81.4673 149.142 79.8906 149.398 78.1577 149.398C75.6009 149.398 73.3187 148.806 71.3111 147.622C69.3035 146.438 67.7221 144.729 66.5668 142.494C65.4115 140.259 64.8338 137.58 64.8338 134.455C64.8338 131.32 65.4162 128.64 66.581 126.415C67.7457 124.18 69.3319 122.471 71.3395 121.287C73.3471 120.103 75.6198 119.511 78.1577 119.511C79.777 119.511 81.2827 119.739 82.6747 120.193C84.0668 120.648 85.3073 121.315 86.3963 122.196C87.4853 123.067 88.3802 124.137 89.081 125.406C89.7912 126.666 90.2552 128.105 90.473 129.724ZM104.589 149.426C102.458 149.426 100.612 148.957 99.049 148.02C97.4865 147.082 96.2744 145.771 95.4126 144.085C94.5604 142.4 94.1342 140.43 94.1342 138.176C94.1342 135.922 94.5604 133.948 95.4126 132.253C96.2744 130.558 97.4865 129.241 99.049 128.304C100.612 127.366 102.458 126.898 104.589 126.898C106.719 126.898 108.566 127.366 110.129 128.304C111.691 129.241 112.898 130.558 113.751 132.253C114.612 133.948 115.043 135.922 115.043 138.176C115.043 140.43 114.612 142.4 113.751 144.085C112.898 145.771 111.691 147.082 110.129 148.02C108.566 148.957 106.719 149.426 104.589 149.426ZM104.617 145.307C105.772 145.307 106.738 144.99 107.515 144.355C108.291 143.711 108.869 142.849 109.248 141.77C109.636 140.69 109.83 139.488 109.83 138.162C109.83 136.827 109.636 135.619 109.248 134.54C108.869 133.451 108.291 132.584 107.515 131.94C106.738 131.296 105.772 130.974 104.617 130.974C103.433 130.974 102.449 131.296 101.663 131.94C100.886 132.584 100.304 133.451 99.9155 134.54C99.5367 135.619 99.3473 136.827 99.3473 138.162C99.3473 139.488 99.5367 140.69 99.9155 141.77C100.304 142.849 100.886 143.711 101.663 144.355C102.449 144.99 103.433 145.307 104.617 145.307ZM127.504 149.384C125.79 149.384 124.256 148.943 122.902 148.062C121.548 147.182 120.478 145.903 119.692 144.227C118.906 142.551 118.513 140.515 118.513 138.119C118.513 135.695 118.911 133.65 119.706 131.983C120.511 130.307 121.595 129.043 122.959 128.19C124.322 127.329 125.842 126.898 127.518 126.898C128.797 126.898 129.848 127.116 130.672 127.551C131.496 127.977 132.149 128.493 132.632 129.099C133.115 129.696 133.489 130.259 133.754 130.79H133.967V119.909H139.124V149H134.067V145.562H133.754C133.489 146.093 133.106 146.656 132.604 147.253C132.102 147.84 131.439 148.342 130.615 148.759C129.791 149.175 128.754 149.384 127.504 149.384ZM128.939 145.165C130.028 145.165 130.956 144.871 131.723 144.284C132.49 143.687 133.072 142.859 133.47 141.798C133.868 140.738 134.067 139.502 134.067 138.091C134.067 136.68 133.868 135.454 133.47 134.412C133.082 133.37 132.504 132.561 131.737 131.983C130.98 131.405 130.047 131.116 128.939 131.116C127.793 131.116 126.837 131.415 126.07 132.011C125.303 132.608 124.725 133.432 124.337 134.483C123.948 135.534 123.754 136.737 123.754 138.091C123.754 139.455 123.948 140.671 124.337 141.741C124.734 142.802 125.317 143.64 126.084 144.256C126.86 144.862 127.812 145.165 128.939 145.165ZM154.262 149.426C152.075 149.426 150.185 148.972 148.594 148.062C147.013 147.144 145.796 145.847 144.944 144.17C144.092 142.485 143.665 140.501 143.665 138.219C143.665 135.974 144.092 134.005 144.944 132.31C145.806 130.605 147.008 129.279 148.552 128.332C150.095 127.376 151.909 126.898 153.992 126.898C155.337 126.898 156.606 127.116 157.799 127.551C159.002 127.977 160.062 128.64 160.981 129.54C161.909 130.439 162.638 131.585 163.168 132.977C163.699 134.36 163.964 136.008 163.964 137.92V139.497H146.08V136.031H159.035C159.025 135.046 158.812 134.17 158.396 133.403C157.979 132.627 157.397 132.016 156.648 131.571C155.91 131.126 155.048 130.903 154.063 130.903C153.012 130.903 152.089 131.159 151.293 131.67C150.498 132.172 149.878 132.835 149.433 133.659C148.997 134.473 148.774 135.368 148.765 136.344V139.369C148.765 140.638 148.997 141.727 149.461 142.636C149.925 143.536 150.574 144.227 151.407 144.71C152.24 145.184 153.216 145.42 154.333 145.42C155.081 145.42 155.758 145.316 156.364 145.108C156.97 144.89 157.496 144.573 157.941 144.156C158.386 143.74 158.722 143.223 158.95 142.608L163.751 143.148C163.448 144.417 162.87 145.525 162.018 146.472C161.175 147.409 160.095 148.138 158.779 148.659C157.463 149.17 155.957 149.426 154.262 149.426ZM181.432 157.182C180.731 157.182 180.082 157.125 179.486 157.011C178.899 156.907 178.43 156.784 178.08 156.642L179.273 152.636C180.021 152.854 180.688 152.958 181.276 152.949C181.863 152.939 182.379 152.755 182.824 152.395C183.278 152.045 183.662 151.457 183.974 150.634L184.415 149.455L176.503 127.182H181.957L186.986 143.659H187.213L192.256 127.182H197.724L188.989 151.642C188.581 152.797 188.042 153.787 187.369 154.611C186.697 155.444 185.873 156.079 184.898 156.514C183.932 156.959 182.777 157.182 181.432 157.182ZM210.058 149.426C207.927 149.426 206.08 148.957 204.518 148.02C202.955 147.082 201.743 145.771 200.881 144.085C200.029 142.4 199.603 140.43 199.603 138.176C199.603 135.922 200.029 133.948 200.881 132.253C201.743 130.558 202.955 129.241 204.518 128.304C206.08 127.366 207.927 126.898 210.058 126.898C212.188 126.898 214.035 127.366 215.597 128.304C217.16 129.241 218.367 130.558 219.219 132.253C220.081 133.948 220.512 135.922 220.512 138.176C220.512 140.43 220.081 142.4 219.219 144.085C218.367 145.771 217.16 147.082 215.597 148.02C214.035 148.957 212.188 149.426 210.058 149.426ZM210.086 145.307C211.241 145.307 212.207 144.99 212.984 144.355C213.76 143.711 214.338 142.849 214.717 141.77C215.105 140.69 215.299 139.488 215.299 138.162C215.299 136.827 215.105 135.619 214.717 134.54C214.338 133.451 213.76 132.584 212.984 131.94C212.207 131.296 211.241 130.974 210.086 130.974C208.902 130.974 207.917 131.296 207.131 131.94C206.355 132.584 205.772 133.451 205.384 134.54C205.005 135.619 204.816 136.827 204.816 138.162C204.816 139.488 205.005 140.69 205.384 141.77C205.772 142.849 206.355 143.711 207.131 144.355C207.917 144.99 208.902 145.307 210.086 145.307ZM238.783 139.824V127.182H243.925V149H238.939V145.122H238.712C238.219 146.344 237.41 147.343 236.283 148.119C235.165 148.896 233.787 149.284 232.149 149.284C230.719 149.284 229.455 148.967 228.357 148.332C227.268 147.688 226.415 146.756 225.8 145.534C225.184 144.303 224.876 142.816 224.876 141.074V127.182H230.018V140.278C230.018 141.661 230.397 142.759 231.155 143.574C231.912 144.388 232.907 144.795 234.138 144.795C234.895 144.795 235.629 144.611 236.339 144.241C237.05 143.872 237.632 143.323 238.087 142.594C238.551 141.855 238.783 140.932 238.783 139.824ZM249.212 149V127.182H254.198V130.818H254.425C254.823 129.559 255.505 128.588 256.471 127.906C257.446 127.215 258.559 126.869 259.809 126.869C260.093 126.869 260.41 126.884 260.761 126.912C261.121 126.931 261.419 126.964 261.656 127.011V131.741C261.438 131.666 261.092 131.599 260.619 131.543C260.155 131.476 259.705 131.443 259.269 131.443C258.332 131.443 257.489 131.647 256.741 132.054C256.002 132.452 255.42 133.006 254.994 133.716C254.567 134.426 254.354 135.245 254.354 136.173V149H249.212ZM283.09 149.384C281.376 149.384 279.842 148.943 278.488 148.062C277.134 147.182 276.064 145.903 275.278 144.227C274.492 142.551 274.099 140.515 274.099 138.119C274.099 135.695 274.496 133.65 275.292 131.983C276.097 130.307 277.181 129.043 278.545 128.19C279.908 127.329 281.428 126.898 283.104 126.898C284.383 126.898 285.434 127.116 286.258 127.551C287.082 127.977 287.735 128.493 288.218 129.099C288.701 129.696 289.075 130.259 289.34 130.79H289.553V119.909H294.71V149H289.653V145.562H289.34C289.075 146.093 288.692 146.656 288.19 147.253C287.688 147.84 287.025 148.342 286.201 148.759C285.377 149.175 284.34 149.384 283.09 149.384ZM284.525 145.165C285.614 145.165 286.542 144.871 287.309 144.284C288.076 143.687 288.658 142.859 289.056 141.798C289.454 140.738 289.653 139.502 289.653 138.091C289.653 136.68 289.454 135.454 289.056 134.412C288.668 133.37 288.09 132.561 287.323 131.983C286.566 131.405 285.633 131.116 284.525 131.116C283.379 131.116 282.423 131.415 281.656 132.011C280.888 132.608 280.311 133.432 279.923 134.483C279.534 135.534 279.34 136.737 279.34 138.091C279.34 139.455 279.534 140.671 279.923 141.741C280.32 142.802 280.903 143.64 281.67 144.256C282.446 144.862 283.398 145.165 284.525 145.165ZM300.189 149V127.182H305.175V130.818H305.402C305.8 129.559 306.482 128.588 307.447 127.906C308.423 127.215 309.536 126.869 310.786 126.869C311.07 126.869 311.387 126.884 311.737 126.912C312.097 126.931 312.395 126.964 312.632 127.011V131.741C312.414 131.666 312.069 131.599 311.595 131.543C311.131 131.476 310.681 131.443 310.246 131.443C309.308 131.443 308.465 131.647 307.717 132.054C306.979 132.452 306.396 133.006 305.97 133.716C305.544 134.426 305.331 135.245 305.331 136.173V149H300.189ZM324.809 149.426C322.621 149.426 320.732 148.972 319.141 148.062C317.56 147.144 316.343 145.847 315.491 144.17C314.638 142.485 314.212 140.501 314.212 138.219C314.212 135.974 314.638 134.005 315.491 132.31C316.353 130.605 317.555 129.279 319.099 128.332C320.642 127.376 322.456 126.898 324.539 126.898C325.884 126.898 327.153 127.116 328.346 127.551C329.549 127.977 330.609 128.64 331.528 129.54C332.456 130.439 333.185 131.585 333.715 132.977C334.246 134.36 334.511 136.008 334.511 137.92V139.497H316.627V136.031H329.582C329.572 135.046 329.359 134.17 328.942 133.403C328.526 132.627 327.943 132.016 327.195 131.571C326.457 131.126 325.595 130.903 324.61 130.903C323.559 130.903 322.636 131.159 321.84 131.67C321.045 132.172 320.424 132.835 319.979 133.659C319.544 134.473 319.321 135.368 319.312 136.344V139.369C319.312 140.638 319.544 141.727 320.008 142.636C320.472 143.536 321.121 144.227 321.954 144.71C322.787 145.184 323.763 145.42 324.88 145.42C325.628 145.42 326.305 145.316 326.911 145.108C327.517 144.89 328.043 144.573 328.488 144.156C328.933 143.74 329.269 143.223 329.496 142.608L334.298 143.148C333.995 144.417 333.417 145.525 332.565 146.472C331.722 147.409 330.642 148.138 329.326 148.659C328.01 149.17 326.504 149.426 324.809 149.426ZM345.139 149.44C343.757 149.44 342.511 149.194 341.403 148.702C340.305 148.2 339.434 147.461 338.79 146.486C338.155 145.51 337.838 144.308 337.838 142.878C337.838 141.647 338.065 140.629 338.52 139.824C338.974 139.019 339.595 138.375 340.381 137.892C341.167 137.409 342.052 137.045 343.037 136.798C344.031 136.543 345.059 136.358 346.119 136.244C347.398 136.112 348.435 135.993 349.23 135.889C350.026 135.776 350.603 135.605 350.963 135.378C351.332 135.141 351.517 134.777 351.517 134.284V134.199C351.517 133.129 351.2 132.3 350.565 131.713C349.931 131.126 349.017 130.832 347.824 130.832C346.564 130.832 345.565 131.107 344.827 131.656C344.098 132.205 343.605 132.854 343.349 133.602L338.548 132.92C338.927 131.595 339.552 130.487 340.423 129.597C341.295 128.697 342.36 128.025 343.619 127.58C344.879 127.125 346.271 126.898 347.795 126.898C348.847 126.898 349.893 127.021 350.935 127.267C351.976 127.513 352.928 127.92 353.79 128.489C354.652 129.047 355.343 129.81 355.864 130.776C356.394 131.741 356.659 132.949 356.659 134.398V149H351.716V146.003H351.545C351.233 146.609 350.793 147.177 350.224 147.707C349.666 148.228 348.96 148.65 348.108 148.972C347.265 149.284 346.276 149.44 345.139 149.44ZM346.474 145.662C347.507 145.662 348.402 145.458 349.159 145.051C349.917 144.634 350.499 144.085 350.906 143.403C351.323 142.722 351.531 141.978 351.531 141.173V138.602C351.37 138.735 351.096 138.858 350.707 138.972C350.329 139.085 349.902 139.185 349.429 139.27C348.955 139.355 348.487 139.431 348.023 139.497C347.559 139.563 347.156 139.62 346.815 139.668C346.048 139.772 345.362 139.942 344.756 140.179C344.15 140.416 343.671 140.747 343.321 141.173C342.971 141.59 342.795 142.13 342.795 142.793C342.795 143.74 343.141 144.455 343.832 144.938C344.524 145.42 345.404 145.662 346.474 145.662ZM361.83 149V127.182H366.744V130.889H367C367.455 129.639 368.207 128.664 369.259 127.963C370.31 127.253 371.564 126.898 373.023 126.898C374.5 126.898 375.745 127.258 376.759 127.977C377.781 128.687 378.501 129.658 378.918 130.889H379.145C379.628 129.677 380.442 128.711 381.588 127.991C382.743 127.262 384.112 126.898 385.693 126.898C387.701 126.898 389.339 127.532 390.608 128.801C391.877 130.07 392.511 131.921 392.511 134.355V149H387.355V135.151C387.355 133.796 386.995 132.807 386.276 132.182C385.556 131.547 384.675 131.23 383.634 131.23C382.393 131.23 381.422 131.618 380.722 132.395C380.03 133.162 379.685 134.161 379.685 135.392V149H374.642V134.938C374.642 133.811 374.301 132.911 373.619 132.239C372.947 131.566 372.066 131.23 370.977 131.23C370.239 131.23 369.566 131.42 368.96 131.798C368.354 132.168 367.871 132.693 367.511 133.375C367.152 134.047 366.972 134.833 366.972 135.733V149H361.83ZM407.65 127.182H412.792V150.25C412.792 151.822 412.494 153.119 411.897 154.142C411.3 155.165 410.439 155.927 409.312 156.429C408.185 156.931 406.817 157.182 405.207 157.182C405.017 157.182 404.842 157.177 404.681 157.168C404.52 157.168 404.345 157.163 404.156 157.153V152.963C404.298 152.973 404.425 152.977 404.539 152.977C404.653 152.987 404.771 152.991 404.894 152.991C405.879 152.991 406.585 152.75 407.011 152.267C407.437 151.794 407.65 151.098 407.65 150.179V127.182ZM410.207 124.085C409.383 124.085 408.677 123.815 408.09 123.276C407.513 122.726 407.224 122.068 407.224 121.301C407.224 120.525 407.513 119.866 408.09 119.327C408.677 118.777 409.383 118.503 410.207 118.503C411.021 118.503 411.717 118.777 412.295 119.327C412.882 119.866 413.175 120.525 413.175 121.301C413.175 122.068 412.882 122.726 412.295 123.276C411.717 123.815 411.021 124.085 410.207 124.085ZM427.597 149.426C425.466 149.426 423.619 148.957 422.057 148.02C420.494 147.082 419.282 145.771 418.42 144.085C417.568 142.4 417.142 140.43 417.142 138.176C417.142 135.922 417.568 133.948 418.42 132.253C419.282 130.558 420.494 129.241 422.057 128.304C423.619 127.366 425.466 126.898 427.597 126.898C429.727 126.898 431.574 127.366 433.136 128.304C434.699 129.241 435.906 130.558 436.759 132.253C437.62 133.948 438.051 135.922 438.051 138.176C438.051 140.43 437.62 142.4 436.759 144.085C435.906 145.771 434.699 147.082 433.136 148.02C431.574 148.957 429.727 149.426 427.597 149.426ZM427.625 145.307C428.78 145.307 429.746 144.99 430.523 144.355C431.299 143.711 431.877 142.849 432.256 141.77C432.644 140.69 432.838 139.488 432.838 138.162C432.838 136.827 432.644 135.619 432.256 134.54C431.877 133.451 431.299 132.584 430.523 131.94C429.746 131.296 428.78 130.974 427.625 130.974C426.441 130.974 425.456 131.296 424.67 131.94C423.894 132.584 423.312 133.451 422.923 134.54C422.545 135.619 422.355 136.827 422.355 138.162C422.355 139.488 422.545 140.69 422.923 141.77C423.312 142.849 423.894 143.711 424.67 144.355C425.456 144.99 426.441 145.307 427.625 145.307ZM442.643 149V119.909H447.785V130.79H447.998C448.263 130.259 448.637 129.696 449.12 129.099C449.603 128.493 450.256 127.977 451.08 127.551C451.904 127.116 452.955 126.898 454.234 126.898C455.919 126.898 457.439 127.329 458.793 128.19C460.157 129.043 461.237 130.307 462.032 131.983C462.837 133.65 463.239 135.695 463.239 138.119C463.239 140.515 462.846 142.551 462.06 144.227C461.274 145.903 460.204 147.182 458.85 148.062C457.496 148.943 455.962 149.384 454.248 149.384C452.998 149.384 451.961 149.175 451.137 148.759C450.313 148.342 449.65 147.84 449.148 147.253C448.656 146.656 448.272 146.093 447.998 145.562H447.7V149H442.643ZM447.685 138.091C447.685 139.502 447.884 140.738 448.282 141.798C448.689 142.859 449.272 143.687 450.029 144.284C450.796 144.871 451.724 145.165 452.813 145.165C453.95 145.165 454.901 144.862 455.668 144.256C456.435 143.64 457.013 142.802 457.401 141.741C457.799 140.671 457.998 139.455 457.998 138.091C457.998 136.737 457.804 135.534 457.415 134.483C457.027 133.432 456.45 132.608 455.683 132.011C454.915 131.415 453.959 131.116 452.813 131.116C451.715 131.116 450.782 131.405 450.015 131.983C449.248 132.561 448.665 133.37 448.268 134.412C447.879 135.454 447.685 136.68 447.685 138.091ZM477.533 149V127.182H482.675V149H477.533ZM480.118 124.085C479.304 124.085 478.603 123.815 478.016 123.276C477.429 122.726 477.135 122.068 477.135 121.301C477.135 120.525 477.429 119.866 478.016 119.327C478.603 118.777 479.304 118.503 480.118 118.503C480.942 118.503 481.643 118.777 482.22 119.327C482.807 119.866 483.101 120.525 483.101 121.301C483.101 122.068 482.807 122.726 482.22 123.276C481.643 123.815 480.942 124.085 480.118 124.085ZM493.104 136.216V149H487.962V127.182H492.877V130.889H493.133C493.635 129.668 494.435 128.697 495.533 127.977C496.641 127.258 498.01 126.898 499.638 126.898C501.144 126.898 502.456 127.22 503.573 127.864C504.7 128.508 505.571 129.44 506.187 130.662C506.812 131.884 507.12 133.366 507.11 135.108V149H501.968V135.903C501.968 134.445 501.589 133.304 500.832 132.48C500.084 131.656 499.047 131.244 497.721 131.244C496.821 131.244 496.021 131.443 495.32 131.841C494.629 132.229 494.085 132.793 493.687 133.531C493.299 134.27 493.104 135.165 493.104 136.216ZM523.232 127.182V131.159H510.69V127.182H523.232ZM513.786 121.955H518.928V142.438C518.928 143.129 519.032 143.659 519.241 144.028C519.459 144.388 519.743 144.634 520.093 144.767C520.443 144.9 520.832 144.966 521.258 144.966C521.58 144.966 521.873 144.942 522.138 144.895C522.413 144.848 522.621 144.805 522.763 144.767L523.63 148.787C523.355 148.882 522.962 148.986 522.451 149.099C521.949 149.213 521.334 149.279 520.604 149.298C519.317 149.336 518.156 149.142 517.124 148.716C516.092 148.28 515.273 147.608 514.667 146.699C514.07 145.79 513.777 144.653 513.786 143.29V121.955ZM536.815 149.426C534.685 149.426 532.838 148.957 531.276 148.02C529.713 147.082 528.501 145.771 527.639 144.085C526.787 142.4 526.361 140.43 526.361 138.176C526.361 135.922 526.787 133.948 527.639 132.253C528.501 130.558 529.713 129.241 531.276 128.304C532.838 127.366 534.685 126.898 536.815 126.898C538.946 126.898 540.793 127.366 542.355 128.304C543.918 129.241 545.125 130.558 545.977 132.253C546.839 133.948 547.27 135.922 547.27 138.176C547.27 140.43 546.839 142.4 545.977 144.085C545.125 145.771 543.918 147.082 542.355 148.02C540.793 148.957 538.946 149.426 536.815 149.426ZM536.844 145.307C537.999 145.307 538.965 144.99 539.741 144.355C540.518 143.711 541.096 142.849 541.474 141.77C541.863 140.69 542.057 139.488 542.057 138.162C542.057 136.827 541.863 135.619 541.474 134.54C541.096 133.451 540.518 132.584 539.741 131.94C538.965 131.296 537.999 130.974 536.844 130.974C535.66 130.974 534.675 131.296 533.889 131.94C533.113 132.584 532.53 133.451 532.142 134.54C531.763 135.619 531.574 136.827 531.574 138.162C531.574 139.488 531.763 140.69 532.142 141.77C532.53 142.849 533.113 143.711 533.889 144.355C534.675 144.99 535.66 145.307 536.844 145.307ZM561.556 149V127.182H566.542V130.818H566.769C567.167 129.559 567.849 128.588 568.815 127.906C569.79 127.215 570.903 126.869 572.153 126.869C572.437 126.869 572.754 126.884 573.104 126.912C573.464 126.931 573.763 126.964 573.999 127.011V131.741C573.781 131.666 573.436 131.599 572.962 131.543C572.498 131.476 572.049 131.443 571.613 131.443C570.675 131.443 569.833 131.647 569.085 132.054C568.346 132.452 567.763 133.006 567.337 133.716C566.911 134.426 566.698 135.245 566.698 136.173V149H561.556ZM586.176 149.426C583.989 149.426 582.099 148.972 580.509 148.062C578.927 147.144 577.71 145.847 576.858 144.17C576.006 142.485 575.58 140.501 575.58 138.219C575.58 135.974 576.006 134.005 576.858 132.31C577.72 130.605 578.922 129.279 580.466 128.332C582.009 127.376 583.823 126.898 585.906 126.898C587.251 126.898 588.52 127.116 589.713 127.551C590.916 127.977 591.976 128.64 592.895 129.54C593.823 130.439 594.552 131.585 595.082 132.977C595.613 134.36 595.878 136.008 595.878 137.92V139.497H577.994V136.031H590.949C590.939 135.046 590.726 134.17 590.31 133.403C589.893 132.627 589.311 132.016 588.562 131.571C587.824 131.126 586.962 130.903 585.977 130.903C584.926 130.903 584.003 131.159 583.207 131.67C582.412 132.172 581.792 132.835 581.347 133.659C580.911 134.473 580.688 135.368 580.679 136.344V139.369C580.679 140.638 580.911 141.727 581.375 142.636C581.839 143.536 582.488 144.227 583.321 144.71C584.154 145.184 585.13 145.42 586.247 145.42C586.995 145.42 587.672 145.316 588.278 145.108C588.884 144.89 589.41 144.573 589.855 144.156C590.3 143.74 590.636 143.223 590.864 142.608L595.665 143.148C595.362 144.417 594.784 145.525 593.932 146.472C593.089 147.409 592.009 148.138 590.693 148.659C589.377 149.17 587.871 149.426 586.176 149.426ZM606.506 149.44C605.124 149.44 603.879 149.194 602.771 148.702C601.672 148.2 600.801 147.461 600.157 146.486C599.522 145.51 599.205 144.308 599.205 142.878C599.205 141.647 599.433 140.629 599.887 139.824C600.342 139.019 600.962 138.375 601.748 137.892C602.534 137.409 603.419 137.045 604.404 136.798C605.398 136.543 606.426 136.358 607.487 136.244C608.765 136.112 609.802 135.993 610.597 135.889C611.393 135.776 611.97 135.605 612.33 135.378C612.7 135.141 612.884 134.777 612.884 134.284V134.199C612.884 133.129 612.567 132.3 611.933 131.713C611.298 131.126 610.384 130.832 609.191 130.832C607.932 130.832 606.933 131.107 606.194 131.656C605.465 132.205 604.972 132.854 604.717 133.602L599.915 132.92C600.294 131.595 600.919 130.487 601.79 129.597C602.662 128.697 603.727 128.025 604.987 127.58C606.246 127.125 607.638 126.898 609.163 126.898C610.214 126.898 611.26 127.021 612.302 127.267C613.344 127.513 614.295 127.92 615.157 128.489C616.019 129.047 616.71 129.81 617.231 130.776C617.761 131.741 618.026 132.949 618.026 134.398V149H613.083V146.003H612.913C612.6 146.609 612.16 147.177 611.592 147.707C611.033 148.228 610.327 148.65 609.475 148.972C608.632 149.284 607.643 149.44 606.506 149.44ZM607.842 145.662C608.874 145.662 609.769 145.458 610.526 145.051C611.284 144.634 611.866 144.085 612.273 143.403C612.69 142.722 612.898 141.978 612.898 141.173V138.602C612.737 138.735 612.463 138.858 612.075 138.972C611.696 139.085 611.27 139.185 610.796 139.27C610.323 139.355 609.854 139.431 609.39 139.497C608.926 139.563 608.523 139.62 608.183 139.668C607.415 139.772 606.729 139.942 606.123 140.179C605.517 140.416 605.039 140.747 604.688 141.173C604.338 141.59 604.163 142.13 604.163 142.793C604.163 143.74 604.508 144.455 605.2 144.938C605.891 145.42 606.772 145.662 607.842 145.662ZM628.339 119.909V149H623.197V119.909H628.339ZM633.626 149V127.182H638.768V149H633.626ZM636.212 124.085C635.397 124.085 634.696 123.815 634.109 123.276C633.522 122.726 633.229 122.068 633.229 121.301C633.229 120.525 633.522 119.866 634.109 119.327C634.696 118.777 635.397 118.503 636.212 118.503C637.036 118.503 637.736 118.777 638.314 119.327C638.901 119.866 639.195 120.525 639.195 121.301C639.195 122.068 638.901 122.726 638.314 123.276C637.736 123.815 637.036 124.085 636.212 124.085ZM654.951 127.182V131.159H642.408V127.182H654.951ZM645.505 121.955H650.647V142.438C650.647 143.129 650.751 143.659 650.96 144.028C651.177 144.388 651.461 144.634 651.812 144.767C652.162 144.9 652.55 144.966 652.977 144.966C653.299 144.966 653.592 144.942 653.857 144.895C654.132 144.848 654.34 144.805 654.482 144.767L655.349 148.787C655.074 148.882 654.681 148.986 654.17 149.099C653.668 149.213 653.052 149.279 652.323 149.298C651.035 149.336 649.875 149.142 648.843 148.716C647.811 148.28 646.992 147.608 646.386 146.699C645.789 145.79 645.496 144.653 645.505 143.29V121.955ZM662.447 157.182C661.747 157.182 661.098 157.125 660.501 157.011C659.914 156.907 659.446 156.784 659.095 156.642L660.288 152.636C661.036 152.854 661.704 152.958 662.291 152.949C662.878 152.939 663.394 152.755 663.839 152.395C664.294 152.045 664.678 151.457 664.99 150.634L665.43 149.455L657.518 127.182H662.973L668.001 143.659H668.229L673.271 127.182H678.74L670.004 151.642C669.597 152.797 669.057 153.787 668.385 154.611C667.713 155.444 666.889 156.079 665.913 156.514C664.947 156.959 663.792 157.182 662.447 157.182ZM688.591 119.909L688.122 140.449H683.548L683.094 119.909H688.591ZM685.835 149.312C684.973 149.312 684.235 149.009 683.619 148.403C683.013 147.797 682.71 147.059 682.71 146.188C682.71 145.335 683.013 144.606 683.619 144C684.235 143.394 684.973 143.091 685.835 143.091C686.678 143.091 687.407 143.394 688.023 144C688.648 144.606 688.96 145.335 688.96 146.188C688.96 146.765 688.813 147.291 688.52 147.764C688.236 148.238 687.857 148.616 687.384 148.901C686.92 149.175 686.403 149.312 685.835 149.312Z" fill="white"/>
<path d="M67.3949 202V187.455H76.4148V189.344H69.5895V193.776H75.7685V195.658H69.5895V202H67.3949ZM78.9432 202V191.091H81.0668V202H78.9432ZM80.0156 189.408C79.6463 189.408 79.3291 189.285 79.0639 189.038C78.8035 188.787 78.6733 188.489 78.6733 188.143C78.6733 187.793 78.8035 187.495 79.0639 187.249C79.3291 186.998 79.6463 186.872 80.0156 186.872C80.3849 186.872 80.6998 186.998 80.9602 187.249C81.2254 187.495 81.358 187.793 81.358 188.143C81.358 188.489 81.2254 188.787 80.9602 189.038C80.6998 189.285 80.3849 189.408 80.0156 189.408ZM86.0472 195.523V202H83.9237V191.091H85.962V192.866H86.0969C86.3479 192.289 86.7409 191.825 87.2759 191.474C87.8157 191.124 88.4951 190.949 89.3143 190.949C90.0576 190.949 90.7087 191.105 91.2674 191.418C91.8261 191.725 92.2594 192.185 92.5671 192.795C92.8749 193.406 93.0288 194.161 93.0288 195.061V202H90.9052V195.317C90.9052 194.526 90.6992 193.908 90.2873 193.463C89.8754 193.013 89.3095 192.788 88.5898 192.788C88.0974 192.788 87.6594 192.895 87.2759 193.108C86.8971 193.321 86.5965 193.634 86.3739 194.045C86.1561 194.453 86.0472 194.945 86.0472 195.523ZM99.9606 202.213C99.0799 202.213 98.2939 201.988 97.6026 201.538C96.9161 201.084 96.3763 200.437 95.9833 199.599C95.5951 198.757 95.4009 197.746 95.4009 196.567C95.4009 195.388 95.5974 194.379 95.9904 193.541C96.3881 192.703 96.9326 192.062 97.6239 191.616C98.3152 191.171 99.0988 190.949 99.9748 190.949C100.652 190.949 101.196 191.062 101.608 191.29C102.025 191.512 102.347 191.773 102.574 192.071C102.806 192.369 102.986 192.632 103.114 192.859H103.242V187.455H105.365V202H103.292V200.303H103.114C102.986 200.535 102.801 200.8 102.56 201.098C102.323 201.396 101.997 201.657 101.58 201.879C101.163 202.102 100.623 202.213 99.9606 202.213ZM100.429 200.402C101.04 200.402 101.556 200.241 101.978 199.919C102.404 199.592 102.726 199.14 102.944 198.562C103.166 197.985 103.277 197.312 103.277 196.545C103.277 195.788 103.168 195.125 102.951 194.557C102.733 193.989 102.413 193.546 101.992 193.229C101.57 192.911 101.05 192.753 100.429 192.753C99.7901 192.753 99.2575 192.919 98.8313 193.25C98.4052 193.581 98.0832 194.034 97.8654 194.607C97.6523 195.179 97.5458 195.826 97.5458 196.545C97.5458 197.275 97.6547 197.93 97.8725 198.513C98.0903 199.095 98.4123 199.557 98.8384 199.898C99.2693 200.234 99.7996 200.402 100.429 200.402ZM121.793 191.276C121.717 190.603 121.405 190.082 120.855 189.713C120.306 189.339 119.615 189.152 118.782 189.152C118.185 189.152 117.669 189.247 117.233 189.436C116.798 189.621 116.459 189.876 116.218 190.203C115.981 190.525 115.863 190.892 115.863 191.304C115.863 191.65 115.943 191.948 116.104 192.199C116.27 192.45 116.485 192.661 116.75 192.831C117.02 192.997 117.309 193.136 117.617 193.25C117.925 193.359 118.221 193.449 118.505 193.52L119.925 193.889C120.389 194.003 120.865 194.157 121.353 194.351C121.84 194.545 122.292 194.801 122.709 195.118C123.126 195.435 123.462 195.828 123.718 196.297C123.978 196.766 124.108 197.327 124.108 197.98C124.108 198.804 123.895 199.536 123.469 200.175C123.048 200.814 122.435 201.318 121.63 201.688C120.829 202.057 119.861 202.241 118.725 202.241C117.636 202.241 116.694 202.069 115.898 201.723C115.103 201.377 114.48 200.887 114.03 200.253C113.58 199.614 113.332 198.856 113.284 197.98H115.486C115.529 198.506 115.699 198.944 115.998 199.294C116.301 199.64 116.686 199.898 117.155 200.068C117.629 200.234 118.147 200.317 118.711 200.317C119.331 200.317 119.882 200.22 120.365 200.026C120.853 199.827 121.237 199.552 121.516 199.202C121.795 198.847 121.935 198.432 121.935 197.959C121.935 197.528 121.812 197.175 121.566 196.901C121.324 196.626 120.995 196.399 120.578 196.219C120.167 196.039 119.7 195.88 119.179 195.743L117.461 195.274C116.296 194.957 115.373 194.491 114.691 193.875C114.014 193.259 113.675 192.445 113.675 191.432C113.675 190.594 113.902 189.862 114.357 189.237C114.811 188.612 115.427 188.127 116.203 187.781C116.98 187.431 117.856 187.256 118.831 187.256C119.816 187.256 120.685 187.429 121.438 187.774C122.195 188.12 122.792 188.596 123.228 189.202C123.663 189.803 123.891 190.494 123.909 191.276H121.793ZM129.735 202.241C129.044 202.241 128.419 202.114 127.86 201.858C127.301 201.598 126.859 201.221 126.532 200.729C126.21 200.236 126.049 199.633 126.049 198.918C126.049 198.302 126.167 197.795 126.404 197.398C126.641 197 126.96 196.685 127.363 196.453C127.765 196.221 128.215 196.046 128.712 195.928C129.21 195.809 129.716 195.719 130.232 195.658C130.886 195.582 131.416 195.52 131.823 195.473C132.23 195.421 132.526 195.338 132.711 195.224C132.896 195.111 132.988 194.926 132.988 194.67V194.621C132.988 194 132.813 193.52 132.462 193.179C132.117 192.838 131.601 192.668 130.914 192.668C130.199 192.668 129.636 192.826 129.224 193.143C128.817 193.456 128.535 193.804 128.379 194.188L126.383 193.733C126.62 193.07 126.965 192.535 127.42 192.128C127.879 191.716 128.407 191.418 129.004 191.233C129.6 191.044 130.228 190.949 130.886 190.949C131.321 190.949 131.783 191.001 132.271 191.105C132.763 191.205 133.222 191.389 133.648 191.659C134.079 191.929 134.432 192.315 134.707 192.817C134.981 193.314 135.119 193.96 135.119 194.756V202H133.045V200.509H132.96C132.822 200.783 132.616 201.053 132.342 201.318C132.067 201.583 131.714 201.804 131.283 201.979C130.853 202.154 130.336 202.241 129.735 202.241ZM130.197 200.537C130.784 200.537 131.286 200.421 131.702 200.189C132.124 199.957 132.443 199.654 132.661 199.28C132.884 198.901 132.995 198.496 132.995 198.065V196.659C132.919 196.735 132.772 196.806 132.555 196.872C132.342 196.934 132.098 196.988 131.823 197.036C131.549 197.078 131.281 197.118 131.021 197.156C130.76 197.189 130.542 197.218 130.367 197.241C129.955 197.294 129.579 197.381 129.238 197.504C128.902 197.627 128.632 197.805 128.428 198.037C128.229 198.264 128.13 198.567 128.13 198.946C128.13 199.472 128.324 199.869 128.712 200.139C129.101 200.404 129.595 200.537 130.197 200.537ZM140.071 187.455V202H137.947V187.455H140.071ZM146.102 202.241C145.411 202.241 144.786 202.114 144.227 201.858C143.669 201.598 143.226 201.221 142.899 200.729C142.577 200.236 142.416 199.633 142.416 198.918C142.416 198.302 142.535 197.795 142.771 197.398C143.008 197 143.328 196.685 143.73 196.453C144.133 196.221 144.582 196.046 145.08 195.928C145.577 195.809 146.083 195.719 146.599 195.658C147.253 195.582 147.783 195.52 148.19 195.473C148.598 195.421 148.893 195.338 149.078 195.224C149.263 195.111 149.355 194.926 149.355 194.67V194.621C149.355 194 149.18 193.52 148.83 193.179C148.484 192.838 147.968 192.668 147.281 192.668C146.566 192.668 146.003 192.826 145.591 193.143C145.184 193.456 144.902 193.804 144.746 194.188L142.75 193.733C142.987 193.07 143.332 192.535 143.787 192.128C144.246 191.716 144.774 191.418 145.371 191.233C145.967 191.044 146.595 190.949 147.253 190.949C147.688 190.949 148.15 191.001 148.638 191.105C149.13 191.205 149.589 191.389 150.016 191.659C150.446 191.929 150.799 192.315 151.074 192.817C151.348 193.314 151.486 193.96 151.486 194.756V202H149.412V200.509H149.327C149.189 200.783 148.983 201.053 148.709 201.318C148.434 201.583 148.081 201.804 147.651 201.979C147.22 202.154 146.704 202.241 146.102 202.241ZM146.564 200.537C147.151 200.537 147.653 200.421 148.07 200.189C148.491 199.957 148.811 199.654 149.028 199.28C149.251 198.901 149.362 198.496 149.362 198.065V196.659C149.286 196.735 149.14 196.806 148.922 196.872C148.709 196.934 148.465 196.988 148.19 197.036C147.916 197.078 147.648 197.118 147.388 197.156C147.127 197.189 146.91 197.218 146.734 197.241C146.322 197.294 145.946 197.381 145.605 197.504C145.269 197.627 144.999 197.805 144.795 198.037C144.597 198.264 144.497 198.567 144.497 198.946C144.497 199.472 144.691 199.869 145.08 200.139C145.468 200.404 145.963 200.537 146.564 200.537ZM154.314 202V191.091H156.367V192.824H156.48C156.679 192.237 157.03 191.775 157.532 191.439C158.038 191.098 158.611 190.928 159.25 190.928C159.383 190.928 159.539 190.932 159.719 190.942C159.904 190.951 160.048 190.963 160.152 190.977V193.009C160.067 192.985 159.916 192.959 159.698 192.93C159.48 192.897 159.262 192.881 159.044 192.881C158.542 192.881 158.095 192.987 157.702 193.2C157.314 193.409 157.006 193.7 156.779 194.074C156.551 194.443 156.438 194.865 156.438 195.338V202H154.314ZM161.99 202V191.091H164.114V202H161.99ZM163.062 189.408C162.693 189.408 162.376 189.285 162.111 189.038C161.85 188.787 161.72 188.489 161.72 188.143C161.72 187.793 161.85 187.495 162.111 187.249C162.376 186.998 162.693 186.872 163.062 186.872C163.432 186.872 163.747 186.998 164.007 187.249C164.272 187.495 164.405 187.793 164.405 188.143C164.405 188.489 164.272 188.787 164.007 189.038C163.747 189.285 163.432 189.408 163.062 189.408ZM171.672 202.22C170.597 202.22 169.672 201.991 168.895 201.531C168.123 201.067 167.527 200.416 167.105 199.578C166.689 198.735 166.48 197.748 166.48 196.616C166.48 195.499 166.689 194.514 167.105 193.662C167.527 192.81 168.114 192.144 168.867 191.666C169.624 191.188 170.51 190.949 171.523 190.949C172.139 190.949 172.735 191.051 173.313 191.254C173.891 191.458 174.409 191.777 174.868 192.213C175.328 192.649 175.69 193.214 175.955 193.911C176.22 194.602 176.353 195.442 176.353 196.432V197.185H167.681V195.594H174.272C174.272 195.035 174.158 194.54 173.931 194.109C173.703 193.674 173.384 193.33 172.972 193.08C172.565 192.829 172.087 192.703 171.537 192.703C170.941 192.703 170.42 192.85 169.975 193.143C169.534 193.432 169.194 193.811 168.952 194.28C168.715 194.744 168.597 195.248 168.597 195.793V197.036C168.597 197.765 168.725 198.385 168.98 198.896C169.241 199.408 169.603 199.798 170.067 200.068C170.531 200.333 171.073 200.466 171.694 200.466C172.096 200.466 172.463 200.409 172.794 200.295C173.126 200.177 173.412 200.002 173.654 199.77C173.895 199.538 174.08 199.251 174.208 198.911L176.218 199.273C176.057 199.865 175.768 200.383 175.351 200.828C174.939 201.268 174.421 201.612 173.796 201.858C173.176 202.099 172.468 202.22 171.672 202.22ZM186.884 193.754L184.959 194.095C184.878 193.849 184.75 193.615 184.575 193.392C184.405 193.17 184.173 192.987 183.879 192.845C183.586 192.703 183.219 192.632 182.778 192.632C182.177 192.632 181.675 192.767 181.273 193.037C180.87 193.302 180.669 193.645 180.669 194.067C180.669 194.431 180.804 194.725 181.074 194.947C181.344 195.17 181.779 195.352 182.381 195.494L184.114 195.892C185.117 196.124 185.866 196.482 186.358 196.964C186.85 197.447 187.097 198.075 187.097 198.847C187.097 199.5 186.907 200.082 186.528 200.594C186.154 201.1 185.631 201.498 184.959 201.787C184.291 202.076 183.517 202.22 182.636 202.22C181.415 202.22 180.418 201.96 179.646 201.439C178.875 200.913 178.401 200.168 178.226 199.202L180.278 198.889C180.406 199.424 180.669 199.829 181.067 200.104C181.464 200.374 181.983 200.509 182.622 200.509C183.318 200.509 183.875 200.364 184.291 200.075C184.708 199.782 184.916 199.424 184.916 199.003C184.916 198.662 184.788 198.375 184.533 198.143C184.282 197.911 183.896 197.736 183.375 197.618L181.528 197.213C180.51 196.981 179.758 196.612 179.27 196.105C178.787 195.598 178.545 194.957 178.545 194.18C178.545 193.536 178.725 192.973 179.085 192.49C179.445 192.007 179.942 191.631 180.577 191.361C181.211 191.086 181.938 190.949 182.757 190.949C183.936 190.949 184.864 191.205 185.541 191.716C186.218 192.223 186.666 192.902 186.884 193.754ZM206.928 197.476V191.091H209.059V202H206.971V200.111H206.857C206.606 200.693 206.203 201.179 205.65 201.567C205.1 201.95 204.416 202.142 203.597 202.142C202.896 202.142 202.276 201.988 201.736 201.68C201.201 201.368 200.78 200.906 200.472 200.295C200.169 199.685 200.017 198.929 200.017 198.03V191.091H202.141V197.774C202.141 198.518 202.347 199.109 202.759 199.55C203.171 199.99 203.706 200.21 204.364 200.21C204.762 200.21 205.157 200.111 205.55 199.912C205.948 199.713 206.277 199.412 206.537 199.01C206.802 198.607 206.933 198.096 206.928 197.476ZM211.912 206.091V191.091H213.986V192.859H214.163C214.286 192.632 214.464 192.369 214.696 192.071C214.928 191.773 215.25 191.512 215.662 191.29C216.074 191.062 216.618 190.949 217.295 190.949C218.176 190.949 218.962 191.171 219.653 191.616C220.345 192.062 220.887 192.703 221.28 193.541C221.678 194.379 221.876 195.388 221.876 196.567C221.876 197.746 221.68 198.757 221.287 199.599C220.894 200.437 220.354 201.084 219.668 201.538C218.981 201.988 218.197 202.213 217.317 202.213C216.654 202.213 216.112 202.102 215.69 201.879C215.274 201.657 214.947 201.396 214.71 201.098C214.473 200.8 214.291 200.535 214.163 200.303H214.036V206.091H211.912ZM213.993 196.545C213.993 197.312 214.104 197.985 214.327 198.562C214.549 199.14 214.871 199.592 215.293 199.919C215.714 200.241 216.23 200.402 216.841 200.402C217.475 200.402 218.006 200.234 218.432 199.898C218.858 199.557 219.18 199.095 219.398 198.513C219.62 197.93 219.732 197.275 219.732 196.545C219.732 195.826 219.623 195.179 219.405 194.607C219.192 194.034 218.87 193.581 218.439 193.25C218.013 192.919 217.48 192.753 216.841 192.753C216.225 192.753 215.705 192.911 215.278 193.229C214.857 193.546 214.537 193.989 214.32 194.557C214.102 195.125 213.993 195.788 213.993 196.545ZM234.641 191.091V192.795H228.682V191.091H234.641ZM230.28 188.477H232.404V198.797C232.404 199.209 232.465 199.519 232.588 199.727C232.712 199.931 232.87 200.071 233.064 200.146C233.263 200.217 233.479 200.253 233.711 200.253C233.881 200.253 234.03 200.241 234.158 200.217C234.286 200.194 234.385 200.175 234.456 200.161L234.84 201.915C234.717 201.962 234.542 202.009 234.314 202.057C234.087 202.109 233.803 202.137 233.462 202.142C232.903 202.152 232.382 202.052 231.9 201.844C231.417 201.635 231.026 201.313 230.728 200.878C230.429 200.442 230.28 199.895 230.28 199.237V188.477ZM241.468 202.22C240.445 202.22 239.553 201.986 238.79 201.517C238.028 201.048 237.436 200.393 237.015 199.55C236.594 198.707 236.383 197.722 236.383 196.595C236.383 195.464 236.594 194.474 237.015 193.626C237.436 192.779 238.028 192.121 238.79 191.652C239.553 191.183 240.445 190.949 241.468 190.949C242.491 190.949 243.383 191.183 244.146 191.652C244.908 192.121 245.5 192.779 245.921 193.626C246.343 194.474 246.553 195.464 246.553 196.595C246.553 197.722 246.343 198.707 245.921 199.55C245.5 200.393 244.908 201.048 244.146 201.517C243.383 201.986 242.491 202.22 241.468 202.22ZM241.475 200.438C242.138 200.438 242.687 200.262 243.123 199.912C243.558 199.562 243.88 199.095 244.089 198.513C244.302 197.93 244.408 197.289 244.408 196.588C244.408 195.892 244.302 195.253 244.089 194.67C243.88 194.083 243.558 193.612 243.123 193.257C242.687 192.902 242.138 192.724 241.475 192.724C240.808 192.724 240.254 192.902 239.813 193.257C239.378 193.612 239.053 194.083 238.84 194.67C238.632 195.253 238.528 195.892 238.528 196.588C238.528 197.289 238.632 197.93 238.84 198.513C239.053 199.095 239.378 199.562 239.813 199.912C240.254 200.262 240.808 200.438 241.475 200.438ZM254.188 202V200.409L259.11 195.31C259.636 194.756 260.069 194.27 260.41 193.854C260.755 193.432 261.013 193.032 261.184 192.653C261.354 192.275 261.44 191.872 261.44 191.446C261.44 190.963 261.326 190.546 261.099 190.196C260.871 189.841 260.561 189.569 260.168 189.379C259.775 189.185 259.333 189.088 258.84 189.088C258.319 189.088 257.865 189.195 257.477 189.408C257.088 189.621 256.79 189.921 256.582 190.31C256.373 190.698 256.269 191.152 256.269 191.673H254.174C254.174 190.788 254.378 190.014 254.785 189.351C255.192 188.688 255.751 188.174 256.461 187.81C257.171 187.44 257.978 187.256 258.883 187.256C259.797 187.256 260.602 187.438 261.298 187.803C261.998 188.162 262.545 188.655 262.938 189.28C263.331 189.9 263.528 190.601 263.528 191.382C263.528 191.922 263.426 192.45 263.222 192.966C263.023 193.482 262.675 194.057 262.178 194.692C261.681 195.321 260.99 196.086 260.104 196.986L257.214 200.011V200.118H263.762V202H254.188ZM271.255 202.199C270.365 202.199 269.565 202.028 268.854 201.688C268.149 201.342 267.585 200.868 267.164 200.267C266.743 199.666 266.518 198.979 266.489 198.207H268.62C268.672 198.832 268.949 199.346 269.451 199.749C269.953 200.151 270.554 200.352 271.255 200.352C271.814 200.352 272.308 200.224 272.739 199.969C273.175 199.708 273.516 199.351 273.762 198.896C274.013 198.442 274.138 197.923 274.138 197.341C274.138 196.749 274.011 196.221 273.755 195.757C273.499 195.293 273.147 194.929 272.697 194.663C272.252 194.398 271.74 194.263 271.163 194.259C270.722 194.259 270.28 194.334 269.835 194.486C269.389 194.637 269.03 194.836 268.755 195.082L266.745 194.784L267.562 187.455H275.559V189.337H269.387L268.925 193.406H269.011C269.295 193.132 269.671 192.902 270.14 192.717C270.613 192.533 271.12 192.44 271.66 192.44C272.545 192.44 273.334 192.651 274.025 193.072C274.721 193.494 275.268 194.069 275.665 194.798C276.068 195.523 276.267 196.356 276.262 197.298C276.267 198.241 276.054 199.081 275.623 199.82C275.197 200.558 274.605 201.141 273.847 201.567C273.094 201.988 272.23 202.199 271.255 202.199ZM279.055 202V187.455H281.25V200.111H287.841V202H279.055ZM290.344 202V187.455H295.529C296.66 187.455 297.598 187.661 298.341 188.072C299.085 188.484 299.641 189.048 300.01 189.763C300.38 190.473 300.564 191.273 300.564 192.163C300.564 193.058 300.377 193.863 300.003 194.578C299.634 195.288 299.075 195.852 298.327 196.268C297.584 196.68 296.649 196.886 295.522 196.886H291.956V195.026H295.323C296.038 195.026 296.618 194.902 297.063 194.656C297.508 194.405 297.835 194.064 298.043 193.634C298.251 193.203 298.355 192.713 298.355 192.163C298.355 191.614 298.251 191.126 298.043 190.7C297.835 190.274 297.506 189.94 297.056 189.699C296.611 189.457 296.024 189.337 295.294 189.337H292.539V202H290.344ZM302.823 202H300.493L305.728 187.455H308.263L313.498 202H311.168L307.056 190.097H306.942L302.823 202ZM303.213 196.304H310.77V198.151H303.213V196.304Z" fill="white"/>
<g filter="url(#filter1_b_1794_830)">
<path d="M0 262H178C200.091 262 218 279.909 218 302V308H0V262Z" fill="white" fill-opacity="0.3"/>
<path d="M41.9675 290.169C41.182 290.166 40.5108 289.959 39.954 289.548C39.3972 289.137 38.9713 288.538 38.6763 287.753C38.3813 286.967 38.2338 286.021 38.2338 284.914C38.2338 283.81 38.3813 282.867 38.6763 282.085C38.9746 281.303 39.4022 280.706 39.959 280.295C40.5191 279.884 41.1886 279.679 41.9675 279.679C42.7464 279.679 43.4142 279.886 43.9711 280.3C44.5279 280.711 44.9538 281.308 45.2488 282.09C45.5471 282.869 45.6962 283.81 45.6962 284.914C45.6962 286.024 45.5487 286.972 45.2537 287.758C44.9587 288.54 44.5328 289.138 43.976 289.553C43.4192 289.964 42.7497 290.169 41.9675 290.169ZM41.9675 288.842C42.6569 288.842 43.1955 288.505 43.5833 287.832C43.9744 287.16 44.1699 286.187 44.1699 284.914C44.1699 284.069 44.0804 283.355 43.9015 282.771C43.7258 282.185 43.4722 281.741 43.1408 281.439C42.8127 281.134 42.4216 280.982 41.9675 280.982C41.2814 280.982 40.7428 281.32 40.3517 281.996C39.9606 282.672 39.7634 283.645 39.7601 284.914C39.7601 285.763 39.848 286.48 40.0236 287.067C40.2026 287.65 40.4561 288.093 40.7843 288.394C41.1124 288.692 41.5068 288.842 41.9675 288.842ZM51.979 284.263V285.555H47.4648V284.263H51.979ZM57.3011 290.139C56.678 290.139 56.1179 290.02 55.6207 289.781C55.1269 289.539 54.7325 289.208 54.4375 288.787C54.1425 288.366 53.9851 287.885 53.9652 287.345H55.4567C55.4931 287.783 55.687 288.142 56.0384 288.424C56.3897 288.706 56.8106 288.847 57.3011 288.847C57.6922 288.847 58.0386 288.757 58.3402 288.578C58.6451 288.396 58.8838 288.146 59.0561 287.827C59.2318 287.509 59.3196 287.146 59.3196 286.739C59.3196 286.324 59.2301 285.955 59.0511 285.63C58.8722 285.305 58.6252 285.05 58.3104 284.864C57.9988 284.679 57.6409 284.584 57.2365 284.581C56.9283 284.581 56.6184 284.634 56.3068 284.74C55.9953 284.846 55.7434 284.985 55.5511 285.158L54.1442 284.949L54.7159 279.818H60.3139V281.136H55.9936L55.6705 283.984H55.7301C55.929 283.792 56.1925 283.631 56.5206 283.502C56.852 283.373 57.2067 283.308 57.5845 283.308C58.2043 283.308 58.7562 283.456 59.2401 283.751C59.7273 284.046 60.1101 284.448 60.3885 284.959C60.6702 285.466 60.8094 286.049 60.8061 286.709C60.8094 287.368 60.6603 287.957 60.3587 288.474C60.0604 288.991 59.6461 289.398 59.1158 289.697C58.5888 289.992 57.9839 290.139 57.3011 290.139ZM67.2866 292.864C67.0645 292.864 66.8623 292.845 66.68 292.809C66.4978 292.776 66.3619 292.739 66.2724 292.7L66.6303 291.482C66.9021 291.554 67.1441 291.586 67.3562 291.576C67.5683 291.566 67.7556 291.487 67.918 291.337C68.0837 291.188 68.2295 290.945 68.3555 290.607L68.5394 290.099L65.7454 282.364H67.3363L69.2702 288.29H69.3498L71.2837 282.364H72.8796L69.7326 291.019C69.5868 291.417 69.4012 291.753 69.1758 292.028C68.9504 292.307 68.6819 292.516 68.3704 292.655C68.0588 292.794 67.6976 292.864 67.2866 292.864ZM77.3081 290.154C76.5557 290.154 75.9077 289.993 75.3642 289.672C74.8239 289.347 74.4063 288.891 74.1113 288.305C73.8197 287.715 73.6738 287.024 73.6738 286.232C73.6738 285.449 73.8197 284.76 74.1113 284.163C74.4063 283.567 74.8173 283.101 75.3443 282.766C75.8746 282.432 76.4944 282.264 77.2037 282.264C77.6345 282.264 78.0521 282.335 78.4565 282.478C78.8609 282.621 79.2238 282.844 79.5453 283.149C79.8668 283.454 80.1203 283.85 80.3059 284.337C80.4915 284.821 80.5843 285.41 80.5843 286.102V286.629H74.514V285.516H79.1277C79.1277 285.125 79.0481 284.778 78.889 284.477C78.7299 284.172 78.5062 283.931 78.2179 283.756C77.9328 283.58 77.5981 283.492 77.2136 283.492C76.796 283.492 76.4314 283.595 76.1199 283.8C75.8116 284.003 75.573 284.268 75.4039 284.596C75.2382 284.921 75.1554 285.274 75.1554 285.655V286.525C75.1554 287.035 75.2449 287.469 75.4238 287.827C75.6061 288.185 75.8597 288.459 76.1845 288.648C76.5093 288.833 76.8888 288.926 77.323 288.926C77.6047 288.926 77.8616 288.886 78.0936 288.807C78.3256 288.724 78.5261 288.601 78.6951 288.439C78.8642 288.277 78.9934 288.076 79.0829 287.837L80.4899 288.091C80.3772 288.505 80.175 288.868 79.8833 289.18C79.595 289.488 79.2321 289.728 78.7946 289.901C78.3604 290.07 77.8649 290.154 77.3081 290.154ZM84.456 290.169C83.9721 290.169 83.5346 290.08 83.1435 289.901C82.7524 289.718 82.4425 289.455 82.2138 289.11C81.9884 288.765 81.8757 288.343 81.8757 287.842C81.8757 287.411 81.9586 287.057 82.1243 286.778C82.29 286.5 82.5137 286.28 82.7955 286.117C83.0772 285.955 83.392 285.832 83.7401 285.749C84.0881 285.666 84.4427 285.603 84.804 285.56C85.2614 285.507 85.6326 285.464 85.9176 285.431C86.2027 285.395 86.4098 285.337 86.5391 285.257C86.6683 285.178 86.733 285.048 86.733 284.869V284.835C86.733 284.4 86.6103 284.064 86.3651 283.825C86.1231 283.587 85.7618 283.467 85.2812 283.467C84.7808 283.467 84.3864 283.578 84.098 283.8C83.813 284.019 83.6158 284.263 83.5064 284.531L82.1094 284.213C82.2751 283.749 82.517 283.375 82.8352 283.089C83.1567 282.801 83.5263 282.592 83.9439 282.463C84.3615 282.33 84.8007 282.264 85.2614 282.264C85.5663 282.264 85.8894 282.301 86.2308 282.374C86.5755 282.443 86.897 282.572 87.1953 282.761C87.4969 282.95 87.7438 283.22 87.9361 283.572C88.1283 283.92 88.2244 284.372 88.2244 284.929V290H86.7727V288.956H86.7131C86.617 289.148 86.4728 289.337 86.2805 289.523C86.0883 289.708 85.8414 289.862 85.5398 289.985C85.2382 290.108 84.8769 290.169 84.456 290.169ZM84.7791 288.976C85.1901 288.976 85.5414 288.895 85.8331 288.732C86.1281 288.57 86.3518 288.358 86.5043 288.096C86.66 287.831 86.7379 287.547 86.7379 287.246V286.261C86.6849 286.314 86.5821 286.364 86.4297 286.411C86.2805 286.454 86.1098 286.492 85.9176 286.525C85.7254 286.555 85.5381 286.583 85.3558 286.609C85.1735 286.633 85.0211 286.652 84.8984 286.669C84.6101 286.705 84.3466 286.767 84.108 286.853C83.8726 286.939 83.6837 287.063 83.5412 287.226C83.402 287.385 83.3324 287.597 83.3324 287.862C83.3324 288.23 83.4683 288.509 83.7401 288.697C84.0118 288.883 84.3582 288.976 84.7791 288.976ZM90.2044 290V282.364H91.6412V283.577H91.7207C91.8599 283.166 92.1052 282.843 92.4565 282.607C92.8111 282.369 93.2122 282.249 93.6596 282.249C93.7524 282.249 93.8618 282.253 93.9877 282.259C94.117 282.266 94.2181 282.274 94.291 282.284V283.706C94.2314 283.689 94.1253 283.671 93.9728 283.651C93.8204 283.628 93.6679 283.616 93.5154 283.616C93.1641 283.616 92.8509 283.691 92.5758 283.84C92.304 283.986 92.0886 284.19 91.9295 284.452C91.7704 284.71 91.6909 285.005 91.6909 285.337V290H90.2044ZM101.3 284.228L99.9524 284.467C99.8961 284.294 99.8066 284.13 99.6839 283.974C99.5646 283.819 99.4022 283.691 99.1967 283.592C98.9912 283.492 98.7344 283.442 98.4261 283.442C98.0052 283.442 97.6539 283.537 97.3722 283.726C97.0904 283.911 96.9496 284.152 96.9496 284.447C96.9496 284.702 97.044 284.907 97.233 285.063C97.4219 285.219 97.7268 285.347 98.1477 285.446L99.3608 285.724C100.063 285.887 100.587 286.137 100.932 286.475C101.277 286.813 101.449 287.252 101.449 287.793C101.449 288.25 101.316 288.658 101.051 289.016C100.789 289.37 100.423 289.649 99.9524 289.851C99.4851 290.053 98.9432 290.154 98.3267 290.154C97.4716 290.154 96.7739 289.972 96.2337 289.607C95.6934 289.239 95.362 288.717 95.2393 288.041L96.6761 287.822C96.7656 288.197 96.9496 288.48 97.228 288.673C97.5064 288.862 97.8693 288.956 98.3168 288.956C98.804 288.956 99.1934 288.855 99.4851 288.653C99.7768 288.447 99.9226 288.197 99.9226 287.902C99.9226 287.663 99.8331 287.463 99.6541 287.3C99.4785 287.138 99.2083 287.015 98.8438 286.933L97.5511 286.649C96.8385 286.487 96.3116 286.228 95.9702 285.874C95.6321 285.519 95.4631 285.07 95.4631 284.526C95.4631 284.076 95.589 283.681 95.8409 283.343C96.0928 283.005 96.4408 282.741 96.8849 282.553C97.3291 282.36 97.8378 282.264 98.4112 282.264C99.2365 282.264 99.8861 282.443 100.36 282.801C100.834 283.156 101.147 283.631 101.3 284.228ZM110.08 290.154C109.327 290.154 108.679 289.993 108.136 289.672C107.595 289.347 107.178 288.891 106.883 288.305C106.591 287.715 106.445 287.024 106.445 286.232C106.445 285.449 106.591 284.76 106.883 284.163C107.178 283.567 107.589 283.101 108.116 282.766C108.646 282.432 109.266 282.264 109.975 282.264C110.406 282.264 110.824 282.335 111.228 282.478C111.632 282.621 111.995 282.844 112.317 283.149C112.638 283.454 112.892 283.85 113.077 284.337C113.263 284.821 113.356 285.41 113.356 286.102V286.629H107.286V285.516H111.899C111.899 285.125 111.82 284.778 111.661 284.477C111.501 284.172 111.278 283.931 110.989 283.756C110.704 283.58 110.37 283.492 109.985 283.492C109.567 283.492 109.203 283.595 108.891 283.8C108.583 284.003 108.344 284.268 108.175 284.596C108.01 284.921 107.927 285.274 107.927 285.655V286.525C107.927 287.035 108.016 287.469 108.195 287.827C108.378 288.185 108.631 288.459 108.956 288.648C109.281 288.833 109.66 288.926 110.094 288.926C110.376 288.926 110.633 288.886 110.865 288.807C111.097 288.724 111.298 288.601 111.467 288.439C111.636 288.277 111.765 288.076 111.854 287.837L113.261 288.091C113.149 288.505 112.946 288.868 112.655 289.18C112.366 289.488 112.004 289.728 111.566 289.901C111.132 290.07 110.636 290.154 110.08 290.154ZM116.001 282.364L117.686 285.337L119.386 282.364H121.012L118.631 286.182L121.032 290H119.406L117.686 287.146L115.971 290H114.34L116.717 286.182L114.37 282.364H116.001ZM122.538 292.864V282.364H123.99V283.602H124.114C124.201 283.442 124.325 283.259 124.487 283.05C124.65 282.841 124.875 282.659 125.163 282.503C125.452 282.344 125.833 282.264 126.307 282.264C126.923 282.264 127.473 282.42 127.957 282.732C128.441 283.043 128.821 283.492 129.096 284.079C129.374 284.665 129.513 285.371 129.513 286.197C129.513 287.022 129.376 287.73 129.101 288.32C128.826 288.906 128.448 289.359 127.967 289.677C127.487 289.992 126.938 290.149 126.322 290.149C125.858 290.149 125.478 290.071 125.183 289.915C124.892 289.76 124.663 289.577 124.497 289.369C124.331 289.16 124.204 288.974 124.114 288.812H124.025V292.864H122.538ZM123.995 286.182C123.995 286.719 124.073 287.189 124.229 287.594C124.384 287.998 124.61 288.315 124.905 288.543C125.2 288.769 125.561 288.881 125.989 288.881C126.433 288.881 126.804 288.764 127.102 288.528C127.401 288.29 127.626 287.967 127.778 287.559C127.934 287.151 128.012 286.692 128.012 286.182C128.012 285.678 127.936 285.226 127.783 284.825C127.634 284.424 127.409 284.107 127.107 283.875C126.809 283.643 126.436 283.527 125.989 283.527C125.558 283.527 125.193 283.638 124.895 283.86C124.6 284.082 124.376 284.392 124.224 284.79C124.071 285.187 123.995 285.652 123.995 286.182ZM134.47 290.154C133.718 290.154 133.07 289.993 132.526 289.672C131.986 289.347 131.568 288.891 131.273 288.305C130.982 287.715 130.836 287.024 130.836 286.232C130.836 285.449 130.982 284.76 131.273 284.163C131.568 283.567 131.979 283.101 132.506 282.766C133.037 282.432 133.656 282.264 134.366 282.264C134.797 282.264 135.214 282.335 135.619 282.478C136.023 282.621 136.386 282.844 136.707 283.149C137.029 283.454 137.282 283.85 137.468 284.337C137.654 284.821 137.746 285.41 137.746 286.102V286.629H131.676V285.516H136.29C136.29 285.125 136.21 284.778 136.051 284.477C135.892 284.172 135.668 283.931 135.38 283.756C135.095 283.58 134.76 283.492 134.376 283.492C133.958 283.492 133.594 283.595 133.282 283.8C132.974 284.003 132.735 284.268 132.566 284.596C132.4 284.921 132.317 285.274 132.317 285.655V286.525C132.317 287.035 132.407 287.469 132.586 287.827C132.768 288.185 133.022 288.459 133.347 288.648C133.671 288.833 134.051 288.926 134.485 288.926C134.767 288.926 135.024 288.886 135.256 288.807C135.488 288.724 135.688 288.601 135.857 288.439C136.026 288.277 136.156 288.076 136.245 287.837L137.652 288.091C137.539 288.505 137.337 288.868 137.045 289.18C136.757 289.488 136.394 289.728 135.957 289.901C135.522 290.07 135.027 290.154 134.47 290.154ZM139.396 290V282.364H140.833V283.577H140.912C141.051 283.166 141.297 282.843 141.648 282.607C142.003 282.369 142.404 282.249 142.851 282.249C142.944 282.249 143.053 282.253 143.179 282.259C143.308 282.266 143.41 282.274 143.482 282.284V283.706C143.423 283.689 143.317 283.671 143.164 283.651C143.012 283.628 142.859 283.616 142.707 283.616C142.356 283.616 142.042 283.691 141.767 283.84C141.495 283.986 141.28 284.19 141.121 284.452C140.962 284.71 140.882 285.005 140.882 285.337V290H139.396ZM144.769 290V282.364H146.255V290H144.769ZM145.52 281.185C145.261 281.185 145.039 281.099 144.853 280.927C144.671 280.751 144.58 280.542 144.58 280.3C144.58 280.055 144.671 279.846 144.853 279.674C145.039 279.498 145.261 279.411 145.52 279.411C145.778 279.411 145.998 279.498 146.181 279.674C146.366 279.846 146.459 280.055 146.459 280.3C146.459 280.542 146.366 280.751 146.181 280.927C145.998 281.099 145.778 281.185 145.52 281.185ZM151.546 290.154C150.794 290.154 150.146 289.993 149.602 289.672C149.062 289.347 148.645 288.891 148.35 288.305C148.058 287.715 147.912 287.024 147.912 286.232C147.912 285.449 148.058 284.76 148.35 284.163C148.645 283.567 149.056 283.101 149.583 282.766C150.113 282.432 150.733 282.264 151.442 282.264C151.873 282.264 152.29 282.335 152.695 282.478C153.099 282.621 153.462 282.844 153.784 283.149C154.105 283.454 154.359 283.85 154.544 284.337C154.73 284.821 154.823 285.41 154.823 286.102V286.629H148.752V285.516H153.366C153.366 285.125 153.286 284.778 153.127 284.477C152.968 284.172 152.744 283.931 152.456 283.756C152.171 283.58 151.836 283.492 151.452 283.492C151.034 283.492 150.67 283.595 150.358 283.8C150.05 284.003 149.811 284.268 149.642 284.596C149.477 284.921 149.394 285.274 149.394 285.655V286.525C149.394 287.035 149.483 287.469 149.662 287.827C149.844 288.185 150.098 288.459 150.423 288.648C150.748 288.833 151.127 288.926 151.561 288.926C151.843 288.926 152.1 288.886 152.332 288.807C152.564 288.724 152.764 288.601 152.933 288.439C153.102 288.277 153.232 288.076 153.321 287.837L154.728 288.091C154.615 288.505 154.413 288.868 154.122 289.18C153.833 289.488 153.47 289.728 153.033 289.901C152.599 290.07 152.103 290.154 151.546 290.154ZM157.958 285.466V290H156.472V282.364H157.899V283.607H157.993C158.169 283.202 158.444 282.877 158.819 282.632C159.196 282.387 159.672 282.264 160.245 282.264C160.766 282.264 161.221 282.374 161.613 282.592C162.004 282.808 162.307 283.129 162.522 283.557C162.738 283.984 162.846 284.513 162.846 285.143V290H161.359V285.322C161.359 284.768 161.215 284.336 160.926 284.024C160.638 283.709 160.242 283.552 159.738 283.552C159.394 283.552 159.087 283.626 158.819 283.776C158.553 283.925 158.343 284.143 158.187 284.432C158.035 284.717 157.958 285.062 157.958 285.466ZM168.056 290.154C167.317 290.154 166.68 289.987 166.147 289.652C165.616 289.314 165.209 288.848 164.924 288.255C164.639 287.662 164.496 286.982 164.496 286.217C164.496 285.441 164.642 284.757 164.934 284.163C165.225 283.567 165.636 283.101 166.167 282.766C166.697 282.432 167.322 282.264 168.041 282.264C168.621 282.264 169.138 282.372 169.592 282.587C170.046 282.799 170.412 283.098 170.691 283.482C170.972 283.867 171.14 284.316 171.193 284.83H169.746C169.667 284.472 169.484 284.163 169.199 283.905C168.917 283.646 168.54 283.517 168.066 283.517C167.651 283.517 167.288 283.626 166.977 283.845C166.669 284.061 166.428 284.369 166.256 284.77C166.084 285.168 165.998 285.638 165.998 286.182C165.998 286.739 166.082 287.219 166.251 287.624C166.42 288.028 166.659 288.341 166.967 288.563C167.279 288.785 167.645 288.896 168.066 288.896C168.347 288.896 168.603 288.845 168.831 288.742C169.063 288.636 169.257 288.485 169.413 288.29C169.572 288.094 169.683 287.859 169.746 287.584H171.193C171.14 288.078 170.979 288.518 170.711 288.906C170.442 289.294 170.083 289.599 169.632 289.821C169.184 290.043 168.659 290.154 168.056 290.154ZM176.074 290.154C175.321 290.154 174.673 289.993 174.13 289.672C173.59 289.347 173.172 288.891 172.877 288.305C172.585 287.715 172.439 287.024 172.439 286.232C172.439 285.449 172.585 284.76 172.877 284.163C173.172 283.567 173.583 283.101 174.11 282.766C174.64 282.432 175.26 282.264 175.969 282.264C176.4 282.264 176.818 282.335 177.222 282.478C177.626 282.621 177.989 282.844 178.311 283.149C178.632 283.454 178.886 283.85 179.072 284.337C179.257 284.821 179.35 285.41 179.35 286.102V286.629H173.28V285.516H177.893C177.893 285.125 177.814 284.778 177.655 284.477C177.496 284.172 177.272 283.931 176.983 283.756C176.698 283.58 176.364 283.492 175.979 283.492C175.562 283.492 175.197 283.595 174.885 283.8C174.577 284.003 174.339 284.268 174.17 284.596C174.004 284.921 173.921 285.274 173.921 285.655V286.525C173.921 287.035 174.01 287.469 174.189 287.827C174.372 288.185 174.625 288.459 174.95 288.648C175.275 288.833 175.654 288.926 176.089 288.926C176.37 288.926 176.627 288.886 176.859 288.807C177.091 288.724 177.292 288.601 177.461 288.439C177.63 288.277 177.759 288.076 177.849 287.837L179.256 288.091C179.143 288.505 178.941 288.868 178.649 289.18C178.361 289.488 177.998 289.728 177.56 289.901C177.126 290.07 176.631 290.154 176.074 290.154Z" fill="white"/>
</g>
<g filter="url(#filter2_d_1794_830)">
<rect x="890" y="234" width="138" height="39" rx="19.5" fill="#FFF7F7" shape-rendering="crispEdges"/>
<path d="M917.023 259V247.364H919.131V252.71H919.273L923.812 247.364H926.386L921.886 252.585L926.426 259H923.892L920.42 254.011L919.131 255.534V259H917.023ZM929.817 253.886V259H927.76V250.273H929.726V251.756H929.828C930.029 251.267 930.349 250.879 930.788 250.591C931.232 250.303 931.779 250.159 932.43 250.159C933.033 250.159 933.557 250.288 934.004 250.545C934.455 250.803 934.804 251.176 935.05 251.665C935.3 252.153 935.423 252.746 935.419 253.443V259H933.362V253.761C933.362 253.178 933.211 252.722 932.908 252.392C932.608 252.062 932.194 251.898 931.663 251.898C931.304 251.898 930.983 251.977 930.703 252.136C930.427 252.292 930.209 252.517 930.05 252.812C929.894 253.108 929.817 253.466 929.817 253.886ZM941.317 259.17C940.464 259.17 939.726 258.983 939.101 258.608C938.476 258.233 937.991 257.708 937.646 257.034C937.305 256.36 937.135 255.572 937.135 254.67C937.135 253.769 937.305 252.979 937.646 252.301C937.991 251.623 938.476 251.097 939.101 250.722C939.726 250.347 940.464 250.159 941.317 250.159C942.169 250.159 942.908 250.347 943.533 250.722C944.158 251.097 944.641 251.623 944.982 252.301C945.326 252.979 945.499 253.769 945.499 254.67C945.499 255.572 945.326 256.36 944.982 257.034C944.641 257.708 944.158 258.233 943.533 258.608C942.908 258.983 942.169 259.17 941.317 259.17ZM941.328 257.523C941.79 257.523 942.177 257.396 942.487 257.142C942.798 256.884 943.029 256.54 943.18 256.108C943.336 255.676 943.413 255.195 943.413 254.665C943.413 254.131 943.336 253.648 943.18 253.216C943.029 252.78 942.798 252.434 942.487 252.176C942.177 251.919 941.79 251.79 941.328 251.79C940.855 251.79 940.461 251.919 940.146 252.176C939.836 252.434 939.603 252.78 939.447 253.216C939.296 253.648 939.22 254.131 939.22 254.665C939.22 255.195 939.296 255.676 939.447 256.108C939.603 256.54 939.836 256.884 940.146 257.142C940.461 257.396 940.855 257.523 941.328 257.523ZM948.795 259L946.33 250.273H948.426L949.96 256.409H950.04L951.608 250.273H953.682L955.25 256.375H955.335L956.847 250.273H958.949L956.477 259H954.335L952.699 253.102H952.58L950.943 259H948.795ZM964.445 247.364H967.024L970.479 255.795H970.615L974.07 247.364H976.649V259H974.626V251.006H974.518L971.303 258.966H969.791L966.575 250.989H966.467V259H964.445V247.364ZM982.661 259.17C981.808 259.17 981.07 258.983 980.445 258.608C979.82 258.233 979.335 257.708 978.99 257.034C978.649 256.36 978.479 255.572 978.479 254.67C978.479 253.769 978.649 252.979 978.99 252.301C979.335 251.623 979.82 251.097 980.445 250.722C981.07 250.347 981.808 250.159 982.661 250.159C983.513 250.159 984.251 250.347 984.876 250.722C985.501 251.097 985.984 251.623 986.325 252.301C986.67 252.979 986.842 253.769 986.842 254.67C986.842 255.572 986.67 256.36 986.325 257.034C985.984 257.708 985.501 258.233 984.876 258.608C984.251 258.983 983.513 259.17 982.661 259.17ZM982.672 257.523C983.134 257.523 983.52 257.396 983.831 257.142C984.142 256.884 984.373 256.54 984.524 256.108C984.679 255.676 984.757 255.195 984.757 254.665C984.757 254.131 984.679 253.648 984.524 253.216C984.373 252.78 984.142 252.434 983.831 252.176C983.52 251.919 983.134 251.79 982.672 251.79C982.198 251.79 981.804 251.919 981.49 252.176C981.179 252.434 980.946 252.78 980.791 253.216C980.64 253.648 980.564 254.131 980.564 254.665C980.564 255.195 980.64 255.676 980.791 256.108C980.946 256.54 981.179 256.884 981.49 257.142C981.804 257.396 982.198 257.523 982.672 257.523ZM988.588 259V250.273H990.582V251.727H990.673C990.832 251.223 991.105 250.835 991.491 250.562C991.882 250.286 992.327 250.148 992.827 250.148C992.94 250.148 993.067 250.153 993.207 250.165C993.351 250.172 993.471 250.186 993.565 250.205V252.097C993.478 252.066 993.34 252.04 993.151 252.017C992.965 251.991 992.785 251.977 992.611 251.977C992.236 251.977 991.899 252.059 991.599 252.222C991.304 252.381 991.071 252.602 990.901 252.886C990.73 253.17 990.645 253.498 990.645 253.869V259H988.588ZM998.436 259.17C997.561 259.17 996.805 258.989 996.169 258.625C995.536 258.258 995.05 257.739 994.709 257.068C994.368 256.394 994.197 255.6 994.197 254.688C994.197 253.79 994.368 253.002 994.709 252.324C995.054 251.642 995.535 251.112 996.152 250.733C996.769 250.35 997.495 250.159 998.328 250.159C998.866 250.159 999.374 250.246 999.851 250.42C1000.33 250.591 1000.76 250.856 1001.12 251.216C1001.49 251.576 1001.79 252.034 1002 252.591C1002.21 253.144 1002.32 253.803 1002.32 254.568V255.199H995.163V253.812H1000.35C1000.34 253.419 1000.26 253.068 1000.09 252.761C999.923 252.451 999.69 252.206 999.391 252.028C999.095 251.85 998.75 251.761 998.357 251.761C997.936 251.761 997.567 251.864 997.249 252.068C996.93 252.269 996.682 252.534 996.504 252.864C996.33 253.189 996.241 253.547 996.237 253.938V255.148C996.237 255.655 996.33 256.091 996.516 256.455C996.701 256.814 996.961 257.091 997.294 257.284C997.627 257.473 998.018 257.568 998.464 257.568C998.764 257.568 999.035 257.527 999.277 257.443C999.519 257.356 999.73 257.229 999.908 257.062C1000.09 256.896 1000.22 256.689 1000.31 256.443L1002.23 256.659C1002.11 257.167 1001.88 257.61 1001.54 257.989C1001.2 258.364 1000.77 258.655 1000.24 258.864C999.716 259.068 999.114 259.17 998.436 259.17Z" fill="#208CB7"/>
</g>
<path d="M1036.48 -89.0959C1031.1 -90.9408 1025.68 -92.6498 1020.22 -94.2215C1021.14 -97.9715 1021.98 -101.676 1022.73 -105.316C1035.04 -165.081 1026.99 -213.229 999.502 -229.081C973.143 -244.279 930.036 -228.432 886.5 -190.543C882.21 -186.802 878.014 -182.954 873.918 -179.001C871.176 -181.63 868.385 -184.207 865.548 -186.732C819.92 -227.244 774.186 -244.318 746.724 -228.42C720.389 -213.175 712.591 -167.913 723.675 -111.272C724.778 -105.663 726.023 -100.082 727.41 -94.5354C720.936 -92.6959 714.689 -90.738 708.711 -88.6538C655.216 -70.0025 621.054 -40.7742 621.054 -10.4564C621.054 20.8561 657.729 52.2633 713.446 71.3074C717.963 72.845 722.518 74.2698 727.106 75.5804C725.616 81.5541 724.293 87.5683 723.139 93.6159C712.571 149.274 720.823 193.467 747.087 208.615C774.214 224.258 819.743 208.18 864.073 169.427C867.668 166.277 871.184 163.037 874.617 159.711C879.053 163.991 883.607 168.146 888.275 172.173C931.218 209.124 973.629 224.045 999.867 208.855C1026.97 193.167 1035.78 145.692 1024.34 87.9318C1023.44 83.4067 1022.43 78.904 1021.31 74.4278C1024.51 73.4804 1027.65 72.5054 1030.71 71.491C1088.63 52.3008 1126.32 21.2745 1126.32 -10.4564C1126.32 -40.8847 1091.05 -70.3104 1036.48 -89.0959ZM1023.92 51.0041C1021.16 51.9179 1018.32 52.8002 1015.43 53.6587C1009.04 33.4146 1000.41 11.8896 989.846 -10.3518C999.924 -32.0623 1008.22 -53.313 1014.44 -73.4248C1019.61 -71.9288 1024.62 -70.3518 1029.46 -68.688C1076.21 -52.5906 1104.73 -28.7939 1104.73 -10.4564C1104.73 9.07515 1073.93 34.4311 1023.92 51.0041ZM1003.17 92.1238C1008.22 117.663 1008.94 140.755 1005.59 158.809C1002.59 175.03 996.535 185.844 989.051 190.176C973.129 199.394 939.077 187.413 902.353 155.811C898.012 152.067 893.775 148.204 889.648 144.225C903.887 128.655 918.115 110.554 932.002 90.4502C956.428 88.2831 979.504 84.7383 1000.43 79.9008C1001.44 83.953 1002.35 88.0285 1003.17 92.1238ZM793.309 188.584C777.752 194.076 765.362 194.234 757.871 189.916C741.934 180.724 735.308 145.24 744.346 97.6423C745.42 92.0178 746.65 86.4242 748.035 80.8679C768.731 85.4469 791.639 88.739 816.123 90.7245C830.104 110.396 844.743 128.477 859.496 144.31C856.361 147.344 853.152 150.3 849.871 153.176C830.266 170.311 810.622 182.469 793.309 188.584ZM720.429 50.8837C695.791 42.462 675.445 31.5179 661.498 19.5752C648.966 8.84425 642.64 -1.81169 642.64 -10.4564C642.64 -28.8551 670.068 -52.3222 715.816 -68.2715C721.368 -70.2057 727.179 -72.0314 733.208 -73.7446C739.532 -53.1788 747.825 -31.6755 757.834 -9.93143C747.695 12.1344 739.283 33.9811 732.898 54.7896C728.711 53.59 724.553 52.2876 720.429 50.8837ZM744.859 -115.419C735.364 -163.946 741.67 -200.552 757.54 -209.739C774.443 -219.525 811.82 -205.573 851.217 -170.591C853.786 -168.305 856.313 -165.972 858.798 -163.595C844.118 -147.831 829.613 -129.884 815.756 -110.329C791.993 -108.126 769.246 -104.589 748.333 -99.8505C747.044 -105.009 745.886 -110.202 744.859 -115.419ZM962.807 -61.5985C957.867 -70.1309 952.744 -78.5559 947.442 -86.8676C963.563 -84.8288 979.009 -82.1229 993.514 -78.815C989.16 -64.8571 983.732 -50.2656 977.343 -35.3051C972.673 -44.1655 967.827 -52.9317 962.807 -61.5985ZM873.928 -148.166C883.883 -137.38 893.854 -125.339 903.662 -112.273C883.767 -113.212 863.839 -113.216 843.944 -112.285C853.761 -125.23 863.817 -137.256 873.928 -148.166ZM784.479 -61.4525C779.522 -52.8554 774.766 -44.1438 770.215 -35.3248C763.931 -50.2321 758.552 -64.8906 754.161 -79.0459C768.577 -82.2709 783.95 -84.9077 799.968 -86.909C794.607 -78.5466 789.442 -70.0574 784.479 -61.4525ZM800.428 67.5318C783.879 65.6844 768.275 63.1837 753.863 60.0456C758.323 45.6377 763.82 30.6673 770.241 15.4403C774.809 24.2658 779.585 32.9827 784.564 41.5837C789.683 50.4258 794.985 59.0864 800.428 67.5318ZM874.524 128.775C864.293 117.738 854.089 105.527 844.123 92.3943C853.798 92.7732 863.661 92.9666 873.685 92.9666C883.984 92.9666 894.164 92.7357 904.185 92.2896C894.346 105.659 884.412 117.888 874.524 128.775ZM977.547 14.6626C984.3 30.0574 989.993 44.9489 994.512 59.11C979.864 62.4534 964.047 65.1455 947.381 67.1449C952.721 58.6789 957.892 50.1075 962.892 41.4357C967.975 32.6212 972.861 23.6946 977.547 14.6626ZM944.195 30.6515C936.542 43.947 928.458 56.99 919.956 69.76C904.557 70.8507 889.123 71.3925 873.685 71.3844C857.961 71.3844 842.667 70.8949 827.939 69.9396C819.216 57.1991 810.978 44.1332 803.243 30.7699C795.544 17.4773 788.354 3.89713 781.686 -9.94128C788.337 -23.7829 795.507 -37.3695 803.179 -50.6722L803.177 -50.6702C810.847 -63.9764 819.019 -76.9864 827.677 -89.6722C842.702 -90.8091 858.111 -91.4012 873.683 -91.4012C889.327 -91.4012 904.757 -90.8031 919.779 -89.6584C928.349 -76.9916 936.469 -64.0263 944.124 -50.7867C951.822 -37.5133 959.087 -23.993 965.906 -10.2472C959.157 3.6391 951.915 17.2807 944.195 30.6515ZM988.721 -210.383C1005.64 -200.625 1012.22 -161.275 1001.59 -109.674C1000.91 -106.381 1000.15 -103.028 999.32 -99.6275C978.356 -104.467 955.593 -108.065 931.761 -110.301C917.878 -130.072 903.492 -148.046 889.05 -163.606C892.835 -167.255 896.71 -170.808 900.672 -174.264C937.974 -206.725 972.837 -219.543 988.721 -210.383ZM873.685 -55.5748C898.603 -55.5748 918.804 -35.3742 918.804 -10.4564C918.804 14.4613 898.603 34.662 873.685 34.662C848.768 34.662 828.567 14.4613 828.567 -10.4564C828.567 -35.3742 848.768 -55.5748 873.685 -55.5748Z" fill="#00D8FF"/>
</g>
<defs>
<filter id="filter0_bd_1794_830" x="37" y="38.8333" width="206" height="77" filterUnits="userSpaceOnUse" color-interpolation-filters="sRGB">
<feFlood flood-opacity="0" result="BackgroundImageFix"/>
<feGaussianBlur in="BackgroundImageFix" stdDeviation="5"/>
<feComposite in2="SourceAlpha" operator="in" result="effect1_backgroundBlur_1794_830"/>
<feColorMatrix in="SourceAlpha" type="matrix" values="0 0 0 0 0 0 0 0 0 0 0 0 0 0 0 0 0 0 127 0" result="hardAlpha"/>
<feOffset dy="5.83333"/>
<feGaussianBlur stdDeviation="12.5"/>
<feComposite in2="hardAlpha" operator="out"/>
<feColorMatrix type="matrix" values="0 0 0 0 0.385 0 0 0 0 0.385 0 0 0 0 0.385 0 0 0 0.2 0"/>
<feBlend mode="normal" in2="effect1_backgroundBlur_1794_830" result="effect2_dropShadow_1794_830"/>
<feBlend mode="normal" in="SourceGraphic" in2="effect2_dropShadow_1794_830" result="shape"/>
</filter>
<filter id="filter1_b_1794_830" x="-10" y="252" width="238" height="66" filterUnits="userSpaceOnUse" color-interpolation-filters="sRGB">
<feFlood flood-opacity="0" result="BackgroundImageFix"/>
<feGaussianBlur in="BackgroundImageFix" stdDeviation="5"/>
<feComposite in2="SourceAlpha" operator="in" result="effect1_backgroundBlur_1794_830"/>
<feBlend mode="normal" in="SourceGraphic" in2="effect1_backgroundBlur_1794_830" result="shape"/>
</filter>
<filter id="filter2_d_1794_830" x="865" y="214.833" width="188" height="89" filterUnits="userSpaceOnUse" color-interpolation-filters="sRGB">
<feFlood flood-opacity="0" result="BackgroundImageFix"/>
<feColorMatrix in="SourceAlpha" type="matrix" values="0 0 0 0 0 0 0 0 0 0 0 0 0 0 0 0 0 0 127 0" result="hardAlpha"/>
<feOffset dy="5.83333"/>
<feGaussianBlur stdDeviation="12.5"/>
<feComposite in2="hardAlpha" operator="out"/>
<feColorMatrix type="matrix" values="0 0 0 0 0.385 0 0 0 0 0.385 0 0 0 0 0.385 0 0 0 0.2 0"/>
<feBlend mode="normal" in2="BackgroundImageFix" result="effect1_dropShadow_1794_830"/>
<feBlend mode="normal" in="SourceGraphic" in2="effect1_dropShadow_1794_830" result="shape"/>
</filter>
<linearGradient id="paint0_linear_1794_830" x1="475" y1="457.5" x2="605.495" y2="-123.388" gradientUnits="userSpaceOnUse">
<stop stop-color="#00D8FF"/>
<stop offset="1" stop-color="#383668"/>
</linearGradient>
<linearGradient id="paint1_linear_1794_830" x1="-26.5025" y1="39.3251" x2="698.86" y2="303.335" gradientUnits="userSpaceOnUse">
<stop stop-color="#1E84B0" stop-opacity="0.17"/>
<stop offset="0.505" stop-color="#1FDDFF"/>
<stop offset="1" stop-color="#13A2CD" stop-opacity="0"/>
</linearGradient>
<linearGradient id="paint2_linear_1794_830" x1="-75" y1="101" x2="676.015" y2="366.103" gradientUnits="userSpaceOnUse">
<stop stop-color="#5FFFEC" stop-opacity="0.5"/>
<stop offset="0.894077" stop-color="#12A7D1" stop-opacity="0"/>
</linearGradient>
<linearGradient id="paint3_linear_1794_830" x1="-29.857" y1="118.349" x2="673.07" y2="374.193" gradientUnits="userSpaceOnUse">
<stop stop-color="#159EC9" stop-opacity="0"/>
<stop offset="0.77" stop-color="#7087FF"/>
</linearGradient>
<linearGradient id="paint4_linear_1794_830" x1="814.5" y1="303.75" x2="445.5" y2="262.5" gradientUnits="userSpaceOnUse">
<stop stop-color="#1893BC"/>
<stop offset="0.921326" stop-color="#1798C3" stop-opacity="0"/>
</linearGradient>
<linearGradient id="paint5_linear_1794_830" x1="67.75" y1="-15" x2="25.5" y2="158" gradientUnits="userSpaceOnUse">
<stop stop-color="#14A4CE"/>
<stop offset="1" stop-color="#13A3CD" stop-opacity="0"/>
</linearGradient>
<linearGradient id="paint6_linear_1794_830" x1="218" y1="71.5" x2="62" y2="71.5" gradientUnits="userSpaceOnUse">
<stop offset="0.1" stop-color="#ABE0F8" stop-opacity="0"/>
<stop offset="0.5" stop-color="#ABE0F8"/>
<stop offset="0.9" stop-color="#ABE0F8" stop-opacity="0"/>
</linearGradient>
<clipPath id="clip0_1794_830">
<rect width="1060" height="308" rx="40" fill="white"/>
</clipPath>
</defs>
</svg>
