<svg width="1060" height="308" viewBox="0 0 1060 308" fill="none" xmlns="http://www.w3.org/2000/svg">
<g clip-path="url(#clip0_1794_847)">
<rect width="1060" height="308" rx="40" fill="url(#paint0_linear_1794_847)"/>
<path opacity="0.34" d="M1043.05 148.022C976.085 154.526 913.043 182.606 863.414 228.035C813.786 273.465 780.256 333.785 767.872 399.917C755.489 466.05 764.921 534.415 794.749 594.723C824.577 655.032 873.188 704.019 933.264 734.313L1073.07 457.068L1043.05 148.022Z" fill="url(#paint1_linear_1794_847)"/>
<path d="M-4 -22.5L95.4435 76.576C125.754 104.153 186.383 159.305 252.584 199.137C318.786 238.969 390.566 263.483 464.937 280.868C539.309 298.253 616.277 308.511 654.758 313.642L693.242 318.771" stroke="url(#paint2_linear_1794_847)" stroke-width="19.9999"/>
<path d="M-20.0003 172.422L60.5582 172.422C101.115 171.849 182.232 170.709 259.976 178.829C337.719 186.951 412.093 204.337 480.11 239.182C548.127 274.024 609.792 326.328 640.623 352.478L671.455 378.63" stroke="url(#paint3_linear_1794_847)" stroke-width="19.9999"/>
<path d="M-27.0002 110.5L66.7835 155.319C101.116 171.848 169.783 204.913 239.357 235.479C308.93 266.048 379.414 294.123 453.137 313.289C526.86 332.457 603.828 342.715 642.309 347.846L680.793 352.975" stroke="url(#paint4_linear_1794_847)" stroke-width="19.9999"/>
<path d="M873.099 415.633C854.218 354.675 817.013 301.015 766.548 261.956C716.082 222.896 654.808 200.335 591.063 197.342C527.318 194.349 464.198 211.07 410.295 245.229C356.392 279.388 314.323 329.326 289.814 388.247L576.5 507.5L873.099 415.633Z" fill="url(#paint5_linear_1794_847)"/>
<g filter="url(#filter0_b_1794_847)">
<path d="M234.5 -3.5C234.5 23.6836 135.043 20.0137 92.2431 64.2155C70.302 86.8752 66.5928 112.149 47.3711 131.371C28.1494 150.593 5.32986 165.84 -19.7845 176.243C-44.8989 186.646 -71.8164 192 -99 192L-99 -15L234.5 -3.5Z" fill="url(#paint6_linear_1794_847)"/>
</g>
<g filter="url(#filter1_bd_1794_847)">
<mask id="path-8-inside-1_1794_847" fill="white">
<path d="M62 59C62 53.4772 66.4772 49 72 49H200C205.523 49 210 53.4772 210 59V66C210 71.5228 205.523 76 200 76H72C66.4772 76 62 71.5228 62 66V59Z"/>
</mask>
<path d="M62 59C62 53.4772 66.4772 49 72 49H200C205.523 49 210 53.4772 210 59V66C210 71.5228 205.523 76 200 76H72C66.4772 76 62 71.5228 62 66V59Z" fill="white" fill-opacity="0.15" shape-rendering="crispEdges"/>
<path d="M62 59C62 52.9249 66.9249 48 73 48H199C205.075 48 210 52.9249 210 59C210 54.0294 205.523 50 200 50H72C66.4772 50 62 54.0294 62 59ZM210 66C210 72.0751 205.075 77 199 77H73C66.9249 77 62 72.0751 62 66C62 70.9706 66.4772 75 72 75H200C205.523 75 210 70.9706 210 66ZM62 76V49V76ZM210 49V76V49Z" fill="url(#paint7_linear_1794_847)" mask="url(#path-8-inside-1_1794_847)"/>
<path d="M78.3404 68V57.8182H81.7807C82.5795 57.8182 83.2324 57.9624 83.7395 58.2507C84.2499 58.5357 84.6278 58.9219 84.873 59.4091C85.1183 59.8963 85.2409 60.4399 85.2409 61.0398C85.2409 61.6397 85.1183 62.1849 84.873 62.6754C84.6311 63.166 84.2566 63.5571 83.7495 63.8487C83.2424 64.1371 82.5927 64.2812 81.8006 64.2812H79.3347V63.1875H81.7608C82.3077 63.1875 82.7469 63.093 83.0783 62.9041C83.4097 62.7152 83.65 62.46 83.7992 62.1385C83.9516 61.8137 84.0279 61.4474 84.0279 61.0398C84.0279 60.6321 83.9516 60.2675 83.7992 59.946C83.65 59.6245 83.4081 59.3726 83.0733 59.1903C82.7386 59.0047 82.2944 58.9119 81.7409 58.9119H79.5733V68H78.3404ZM87.8237 70.8636C87.6248 70.8636 87.4475 70.8471 87.2917 70.8139C87.1359 70.7841 87.0282 70.7543 86.9686 70.7244L87.2669 69.6903C87.5519 69.7633 87.8038 69.7898 88.0225 69.7699C88.2413 69.75 88.4352 69.6522 88.6042 69.4766C88.7766 69.3042 88.934 69.0241 89.0765 68.6364L89.2953 68.0398L86.4714 60.3636H87.7441L89.8521 66.4489H89.9316L92.0396 60.3636H93.3123L90.0708 69.1136C89.925 69.508 89.7444 69.8345 89.5289 70.093C89.3135 70.3549 89.0633 70.5488 88.7782 70.6747C88.4965 70.8007 88.1783 70.8636 87.8237 70.8636ZM98.182 60.3636V61.358H94.2246V60.3636H98.182ZM95.378 58.5341H96.5513V65.8125C96.5513 66.1439 96.5994 66.3925 96.6955 66.5582C96.7949 66.7206 96.9209 66.83 97.0733 66.8864C97.2291 66.9394 97.3932 66.9659 97.5655 66.9659C97.6948 66.9659 97.8008 66.9593 97.8837 66.946C97.9666 66.9295 98.0328 66.9162 98.0826 66.9062L98.3212 67.9602C98.2417 67.9901 98.1306 68.0199 97.9881 68.0497C97.8456 68.0829 97.665 68.0994 97.4462 68.0994C97.1148 68.0994 96.79 68.0282 96.4718 67.8857C96.1569 67.7431 95.8951 67.526 95.6863 67.2344C95.4808 66.9427 95.378 66.5748 95.378 66.1307V58.5341ZM101.284 63.4062V68H100.111V57.8182H101.284V61.5568H101.384C101.563 61.1624 101.831 60.8492 102.189 60.6172C102.55 60.3819 103.031 60.2642 103.631 60.2642C104.151 60.2642 104.607 60.3686 104.998 60.5774C105.389 60.7829 105.692 61.0994 105.908 61.527C106.127 61.9512 106.236 62.4915 106.236 63.1477V68H105.063V63.2273C105.063 62.6207 104.905 62.1518 104.59 61.8203C104.279 61.4856 103.846 61.3182 103.293 61.3182C102.908 61.3182 102.564 61.3994 102.259 61.5618C101.957 61.7242 101.718 61.9612 101.543 62.2727C101.37 62.5843 101.284 62.9621 101.284 63.4062ZM111.485 68.1591C110.795 68.1591 110.19 67.995 109.67 67.6669C109.153 67.3388 108.749 66.8797 108.457 66.2898C108.169 65.6998 108.025 65.0104 108.025 64.2216C108.025 63.4261 108.169 62.7318 108.457 62.1385C108.749 61.5452 109.153 61.0845 109.67 60.7564C110.19 60.4283 110.795 60.2642 111.485 60.2642C112.174 60.2642 112.777 60.4283 113.294 60.7564C113.815 61.0845 114.219 61.5452 114.507 62.1385C114.799 62.7318 114.945 63.4261 114.945 64.2216C114.945 65.0104 114.799 65.6998 114.507 66.2898C114.219 66.8797 113.815 67.3388 113.294 67.6669C112.777 67.995 112.174 68.1591 111.485 68.1591ZM111.485 67.1051C112.008 67.1051 112.439 66.9709 112.777 66.7024C113.115 66.4339 113.366 66.081 113.528 65.6435C113.69 65.206 113.772 64.732 113.772 64.2216C113.772 63.7112 113.69 63.2356 113.528 62.7947C113.366 62.3539 113.115 61.9976 112.777 61.7259C112.439 61.4541 112.008 61.3182 111.485 61.3182C110.961 61.3182 110.53 61.4541 110.192 61.7259C109.854 61.9976 109.604 62.3539 109.441 62.7947C109.279 63.2356 109.198 63.7112 109.198 64.2216C109.198 64.732 109.279 65.206 109.441 65.6435C109.604 66.081 109.854 66.4339 110.192 66.7024C110.53 66.9709 110.961 67.1051 111.485 67.1051ZM117.909 63.4062V68H116.736V60.3636H117.869V61.5568H117.969C118.148 61.169 118.42 60.8575 118.784 60.6222C119.149 60.3835 119.619 60.2642 120.196 60.2642C120.713 60.2642 121.166 60.3703 121.553 60.5824C121.941 60.7912 122.243 61.1094 122.458 61.5369C122.674 61.9612 122.781 62.4981 122.781 63.1477V68H121.608V63.2273C121.608 62.6274 121.452 62.16 121.141 61.8253C120.829 61.4872 120.402 61.3182 119.858 61.3182C119.484 61.3182 119.149 61.3994 118.854 61.5618C118.562 61.7242 118.332 61.9612 118.163 62.2727C117.994 62.5843 117.909 62.9621 117.909 63.4062ZM132.164 68H129.022V57.8182H132.303C133.291 57.8182 134.136 58.022 134.839 58.4297C135.541 58.834 136.08 59.4157 136.455 60.1747C136.829 60.9304 137.016 61.8352 137.016 62.8892C137.016 63.9498 136.827 64.8629 136.45 65.6286C136.072 66.3909 135.522 66.9775 134.799 67.3885C134.076 67.7962 133.198 68 132.164 68ZM130.255 66.9062H132.085C132.926 66.9062 133.624 66.7438 134.178 66.419C134.731 66.0942 135.144 65.6319 135.415 65.032C135.687 64.4321 135.823 63.7178 135.823 62.8892C135.823 62.0672 135.689 61.3596 135.42 60.7663C135.152 60.1697 134.751 59.7124 134.217 59.3942C133.684 59.0727 133.019 58.9119 132.224 58.9119H130.255V66.9062ZM142.127 68.1591C141.391 68.1591 140.757 67.9967 140.223 67.6719C139.693 67.3438 139.283 66.8864 138.995 66.2997C138.71 65.7098 138.567 65.0237 138.567 64.2415C138.567 63.4593 138.71 62.7699 138.995 62.1733C139.283 61.5734 139.684 61.1061 140.198 60.7713C140.715 60.4332 141.318 60.2642 142.008 60.2642C142.406 60.2642 142.798 60.3305 143.186 60.4631C143.574 60.5956 143.927 60.8111 144.245 61.1094C144.563 61.4044 144.817 61.7955 145.006 62.2827C145.195 62.7699 145.289 63.3698 145.289 64.0824V64.5795H139.403V63.5653H144.096C144.096 63.1345 144.01 62.75 143.837 62.4119C143.668 62.0739 143.426 61.8071 143.112 61.6115C142.8 61.416 142.432 61.3182 142.008 61.3182C141.54 61.3182 141.136 61.4342 140.795 61.6662C140.457 61.8949 140.196 62.1932 140.014 62.5611C139.832 62.929 139.741 63.3234 139.741 63.7443V64.4205C139.741 64.9972 139.84 65.486 140.039 65.8871C140.241 66.2848 140.521 66.5881 140.879 66.7969C141.237 67.0024 141.653 67.1051 142.127 67.1051C142.435 67.1051 142.714 67.062 142.962 66.9759C143.214 66.8864 143.431 66.7538 143.614 66.5781C143.796 66.3991 143.937 66.1771 144.036 65.9119L145.17 66.2301C145.05 66.6146 144.85 66.9527 144.568 67.2443C144.286 67.5327 143.938 67.758 143.524 67.9205C143.11 68.0795 142.644 68.1591 142.127 68.1591ZM153.086 60.3636L150.262 68H149.069L146.245 60.3636H147.518L149.626 66.4489H149.705L151.813 60.3636H153.086ZM157.563 68.1591C156.827 68.1591 156.192 67.9967 155.659 67.6719C155.128 67.3438 154.719 66.8864 154.431 66.2997C154.146 65.7098 154.003 65.0237 154.003 64.2415C154.003 63.4593 154.146 62.7699 154.431 62.1733C154.719 61.5734 155.12 61.1061 155.634 60.7713C156.151 60.4332 156.754 60.2642 157.443 60.2642C157.841 60.2642 158.234 60.3305 158.622 60.4631C159.009 60.5956 159.362 60.8111 159.681 61.1094C159.999 61.4044 160.252 61.7955 160.441 62.2827C160.63 62.7699 160.725 63.3698 160.725 64.0824V64.5795H154.838V63.5653H159.531C159.531 63.1345 159.445 62.75 159.273 62.4119C159.104 62.0739 158.862 61.8071 158.547 61.6115C158.235 61.416 157.868 61.3182 157.443 61.3182C156.976 61.3182 156.572 61.4342 156.23 61.6662C155.892 61.8949 155.632 62.1932 155.45 62.5611C155.267 62.929 155.176 63.3234 155.176 63.7443V64.4205C155.176 64.9972 155.276 65.486 155.475 65.8871C155.677 66.2848 155.957 66.5881 156.315 66.7969C156.673 67.0024 157.089 67.1051 157.563 67.1051C157.871 67.1051 158.149 67.062 158.398 66.9759C158.65 66.8864 158.867 66.7538 159.049 66.5781C159.231 66.3991 159.372 66.1771 159.472 65.9119L160.605 66.2301C160.486 66.6146 160.285 66.9527 160.004 67.2443C159.722 67.5327 159.374 67.758 158.96 67.9205C158.545 68.0795 158.08 68.1591 157.563 68.1591ZM163.683 57.8182V68H162.509V57.8182H163.683ZM168.934 68.1591C168.245 68.1591 167.64 67.995 167.119 67.6669C166.602 67.3388 166.198 66.8797 165.906 66.2898C165.618 65.6998 165.474 65.0104 165.474 64.2216C165.474 63.4261 165.618 62.7318 165.906 62.1385C166.198 61.5452 166.602 61.0845 167.119 60.7564C167.64 60.4283 168.245 60.2642 168.934 60.2642C169.623 60.2642 170.227 60.4283 170.744 60.7564C171.264 61.0845 171.668 61.5452 171.957 62.1385C172.248 62.7318 172.394 63.4261 172.394 64.2216C172.394 65.0104 172.248 65.6998 171.957 66.2898C171.668 66.8797 171.264 67.3388 170.744 67.6669C170.227 67.995 169.623 68.1591 168.934 68.1591ZM168.934 67.1051C169.458 67.1051 169.888 66.9709 170.227 66.7024C170.565 66.4339 170.815 66.081 170.977 65.6435C171.14 65.206 171.221 64.732 171.221 64.2216C171.221 63.7112 171.14 63.2356 170.977 62.7947C170.815 62.3539 170.565 61.9976 170.227 61.7259C169.888 61.4541 169.458 61.3182 168.934 61.3182C168.41 61.3182 167.979 61.4541 167.641 61.7259C167.303 61.9976 167.053 62.3539 166.891 62.7947C166.728 63.2356 166.647 63.7112 166.647 64.2216C166.647 64.732 166.728 65.206 166.891 65.6435C167.053 66.081 167.303 66.4339 167.641 66.7024C167.979 66.9709 168.41 67.1051 168.934 67.1051ZM174.185 70.8636V60.3636H175.319V61.5767H175.458C175.544 61.4441 175.663 61.2751 175.816 61.0696C175.972 60.8608 176.194 60.6752 176.482 60.5128C176.774 60.3471 177.168 60.2642 177.665 60.2642C178.308 60.2642 178.875 60.425 179.366 60.7464C179.856 61.0679 180.239 61.5237 180.514 62.1136C180.789 62.7036 180.927 63.3996 180.927 64.2017C180.927 65.0104 180.789 65.7114 180.514 66.3047C180.239 66.8946 179.858 67.352 179.371 67.6768C178.883 67.9983 178.322 68.1591 177.685 68.1591C177.195 68.1591 176.802 68.0779 176.507 67.9155C176.212 67.7498 175.985 67.5625 175.826 67.3537C175.667 67.1416 175.544 66.9659 175.458 66.8267H175.358V70.8636H174.185ZM175.339 64.1818C175.339 64.7585 175.423 65.2673 175.592 65.7081C175.761 66.1456 176.008 66.4886 176.333 66.7372C176.658 66.9825 177.055 67.1051 177.526 67.1051C178.017 67.1051 178.426 66.9759 178.754 66.7173C179.086 66.4555 179.334 66.1042 179.5 65.6634C179.669 65.2192 179.753 64.7254 179.753 64.1818C179.753 63.6449 179.671 63.161 179.505 62.7301C179.342 62.2959 179.095 61.9529 178.764 61.701C178.436 61.4458 178.023 61.3182 177.526 61.3182C177.049 61.3182 176.648 61.4392 176.323 61.6811C175.998 61.9197 175.753 62.2545 175.587 62.6854C175.421 63.1129 175.339 63.6117 175.339 64.1818ZM185.918 68.1591C185.182 68.1591 184.548 67.9967 184.014 67.6719C183.484 67.3438 183.074 66.8864 182.786 66.2997C182.501 65.7098 182.358 65.0237 182.358 64.2415C182.358 63.4593 182.501 62.7699 182.786 62.1733C183.074 61.5734 183.475 61.1061 183.989 60.7713C184.506 60.4332 185.109 60.2642 185.799 60.2642C186.197 60.2642 186.589 60.3305 186.977 60.4631C187.365 60.5956 187.718 60.8111 188.036 61.1094C188.354 61.4044 188.608 61.7955 188.797 62.2827C188.986 62.7699 189.08 63.3698 189.08 64.0824V64.5795H183.194V63.5653H187.887C187.887 63.1345 187.801 62.75 187.628 62.4119C187.459 62.0739 187.217 61.8071 186.903 61.6115C186.591 61.416 186.223 61.3182 185.799 61.3182C185.331 61.3182 184.927 61.4342 184.586 61.6662C184.248 61.8949 183.988 62.1932 183.805 62.5611C183.623 62.929 183.532 63.3234 183.532 63.7443V64.4205C183.532 64.9972 183.631 65.486 183.83 65.8871C184.032 66.2848 184.312 66.5881 184.67 66.7969C185.028 67.0024 185.444 67.1051 185.918 67.1051C186.226 67.1051 186.505 67.062 186.753 66.9759C187.005 66.8864 187.222 66.7538 187.405 66.5781C187.587 66.3991 187.728 66.1771 187.827 65.9119L188.961 66.2301C188.841 66.6146 188.641 66.9527 188.359 67.2443C188.077 67.5327 187.729 67.758 187.315 67.9205C186.901 68.0795 186.435 68.1591 185.918 68.1591ZM190.865 68V60.3636H191.998V61.517H192.078C192.217 61.1392 192.469 60.8326 192.834 60.5973C193.198 60.362 193.609 60.2443 194.067 60.2443C194.153 60.2443 194.26 60.246 194.39 60.2493C194.519 60.2526 194.617 60.2576 194.683 60.2642V61.4574C194.643 61.4474 194.552 61.4325 194.41 61.4126C194.27 61.3894 194.123 61.3778 193.967 61.3778C193.596 61.3778 193.265 61.4557 192.973 61.6115C192.684 61.764 192.456 61.9761 192.287 62.2479C192.121 62.5163 192.038 62.8229 192.038 63.1676V68H190.865Z" fill="white"/>
</g>
<path d="M81.3274 113.906C81.1948 112.666 80.6361 111.7 79.6513 111.009C78.6759 110.317 77.407 109.972 75.8445 109.972C74.746 109.972 73.8037 110.137 73.0178 110.469C72.2318 110.8 71.6304 111.25 71.2138 111.818C70.7971 112.386 70.584 113.035 70.5746 113.764C70.5746 114.37 70.7119 114.896 70.9865 115.341C71.2706 115.786 71.6541 116.165 72.1371 116.477C72.62 116.78 73.1551 117.036 73.7422 117.244C74.3293 117.453 74.9212 117.628 75.5178 117.77L78.245 118.452C79.3435 118.707 80.3994 119.053 81.4126 119.489C82.4354 119.924 83.3492 120.473 84.1541 121.136C84.9685 121.799 85.6125 122.599 86.0859 123.537C86.5594 124.474 86.7962 125.573 86.7962 126.832C86.7962 128.537 86.3606 130.038 85.4893 131.335C84.6181 132.623 83.3587 133.632 81.7109 134.361C80.0727 135.08 78.0888 135.44 75.7592 135.44C73.496 135.44 71.531 135.09 69.8643 134.389C68.2071 133.688 66.9098 132.666 65.9723 131.321C65.0443 129.976 64.5424 128.338 64.4666 126.406H69.6513C69.727 127.42 70.0395 128.262 70.5888 128.935C71.138 129.607 71.853 130.109 72.7337 130.44C73.6238 130.772 74.6181 130.938 75.7166 130.938C76.8625 130.938 77.8662 130.767 78.728 130.426C79.5992 130.076 80.281 129.593 80.7734 128.977C81.2659 128.352 81.5168 127.623 81.5263 126.79C81.5168 126.032 81.2943 125.407 80.8587 124.915C80.4231 124.413 79.8123 123.996 79.0263 123.665C78.2498 123.324 77.3407 123.021 76.299 122.756L72.9893 121.903C70.5935 121.288 68.6996 120.355 67.3075 119.105C65.925 117.846 65.2337 116.174 65.2337 114.091C65.2337 112.377 65.6977 110.876 66.6257 109.588C67.5632 108.3 68.8369 107.301 70.4467 106.591C72.0566 105.871 73.8795 105.511 75.9155 105.511C77.9799 105.511 79.7886 105.871 81.3416 106.591C82.9041 107.301 84.1304 108.291 85.0206 109.56C85.9107 110.819 86.37 112.268 86.3984 113.906H81.3274ZM100.784 135.426C98.6061 135.426 96.7358 134.948 95.1733 133.991C93.6203 133.035 92.4223 131.714 91.5795 130.028C90.7462 128.333 90.3295 126.383 90.3295 124.176C90.3295 121.96 90.7557 120.005 91.608 118.31C92.4602 116.605 93.6629 115.279 95.2159 114.332C96.7784 113.376 98.625 112.898 100.756 112.898C102.527 112.898 104.094 113.224 105.457 113.878C106.83 114.522 107.924 115.436 108.739 116.619C109.553 117.794 110.017 119.167 110.131 120.739H105.216C105.017 119.687 104.544 118.812 103.795 118.111C103.057 117.401 102.067 117.045 100.827 117.045C99.7756 117.045 98.8523 117.33 98.0568 117.898C97.2614 118.456 96.6411 119.261 96.196 120.312C95.7604 121.364 95.5426 122.623 95.5426 124.091C95.5426 125.578 95.7604 126.856 96.196 127.926C96.6316 128.987 97.2424 129.806 98.0284 130.384C98.8239 130.952 99.7566 131.236 100.827 131.236C101.584 131.236 102.261 131.094 102.858 130.81C103.464 130.516 103.971 130.095 104.378 129.545C104.785 128.996 105.064 128.329 105.216 127.543H110.131C110.008 129.086 109.553 130.455 108.767 131.648C107.981 132.831 106.911 133.759 105.557 134.432C104.203 135.095 102.612 135.426 100.784 135.426ZM114.353 135V113.182H119.339V116.818H119.566C119.964 115.559 120.646 114.588 121.612 113.906C122.587 113.215 123.7 112.869 124.95 112.869C125.234 112.869 125.551 112.884 125.901 112.912C126.261 112.931 126.559 112.964 126.796 113.011V117.741C126.578 117.666 126.233 117.599 125.759 117.543C125.295 117.476 124.845 117.443 124.41 117.443C123.472 117.443 122.629 117.647 121.881 118.054C121.143 118.452 120.56 119.006 120.134 119.716C119.708 120.426 119.495 121.245 119.495 122.173V135H114.353ZM130.212 135V113.182H135.354V135H130.212ZM132.798 110.085C131.983 110.085 131.282 109.815 130.695 109.276C130.108 108.726 129.815 108.068 129.815 107.301C129.815 106.525 130.108 105.866 130.695 105.327C131.282 104.777 131.983 104.503 132.798 104.503C133.621 104.503 134.322 104.777 134.9 105.327C135.487 105.866 135.781 106.525 135.781 107.301C135.781 108.068 135.487 108.726 134.9 109.276C134.322 109.815 133.621 110.085 132.798 110.085ZM140.642 143.182V113.182H145.699V116.79H145.997C146.262 116.259 146.636 115.696 147.119 115.099C147.602 114.493 148.256 113.977 149.08 113.551C149.903 113.116 150.955 112.898 152.233 112.898C153.919 112.898 155.438 113.329 156.793 114.19C158.156 115.043 159.236 116.307 160.031 117.983C160.836 119.65 161.239 121.695 161.239 124.119C161.239 126.515 160.846 128.551 160.06 130.227C159.274 131.903 158.204 133.182 156.849 134.062C155.495 134.943 153.961 135.384 152.247 135.384C150.997 135.384 149.96 135.175 149.136 134.759C148.313 134.342 147.65 133.84 147.148 133.253C146.655 132.656 146.272 132.093 145.997 131.562H145.784V143.182H140.642ZM145.685 124.091C145.685 125.502 145.884 126.738 146.281 127.798C146.688 128.859 147.271 129.687 148.028 130.284C148.795 130.871 149.723 131.165 150.812 131.165C151.949 131.165 152.901 130.862 153.668 130.256C154.435 129.64 155.012 128.802 155.401 127.741C155.798 126.671 155.997 125.455 155.997 124.091C155.997 122.737 155.803 121.534 155.415 120.483C155.027 119.432 154.449 118.608 153.682 118.011C152.915 117.415 151.958 117.116 150.812 117.116C149.714 117.116 148.781 117.405 148.014 117.983C147.247 118.561 146.665 119.37 146.267 120.412C145.879 121.454 145.685 122.68 145.685 124.091ZM176.537 113.182V117.159H163.994V113.182H176.537ZM167.091 107.955H172.233V128.438C172.233 129.129 172.337 129.659 172.545 130.028C172.763 130.388 173.047 130.634 173.398 130.767C173.748 130.9 174.136 130.966 174.562 130.966C174.884 130.966 175.178 130.942 175.443 130.895C175.718 130.848 175.926 130.805 176.068 130.767L176.935 134.787C176.66 134.882 176.267 134.986 175.756 135.099C175.254 135.213 174.638 135.279 173.909 135.298C172.621 135.336 171.461 135.142 170.429 134.716C169.397 134.28 168.578 133.608 167.972 132.699C167.375 131.79 167.081 130.653 167.091 129.29V107.955ZM180.837 135V113.182H185.979V135H180.837ZM183.423 110.085C182.608 110.085 181.907 109.815 181.32 109.276C180.733 108.726 180.44 108.068 180.44 107.301C180.44 106.525 180.733 105.866 181.32 105.327C181.907 104.777 182.608 104.503 183.423 104.503C184.246 104.503 184.947 104.777 185.525 105.327C186.112 105.866 186.406 106.525 186.406 107.301C186.406 108.068 186.112 108.726 185.525 109.276C184.947 109.815 184.246 110.085 183.423 110.085ZM196.409 122.216V135H191.267V113.182H196.182V116.889H196.438C196.939 115.668 197.74 114.697 198.838 113.977C199.946 113.258 201.314 112.898 202.943 112.898C204.449 112.898 205.76 113.22 206.878 113.864C208.005 114.508 208.876 115.44 209.491 116.662C210.116 117.884 210.424 119.366 210.415 121.108V135H205.273V121.903C205.273 120.445 204.894 119.304 204.136 118.48C203.388 117.656 202.351 117.244 201.026 117.244C200.126 117.244 199.326 117.443 198.625 117.841C197.934 118.229 197.389 118.793 196.991 119.531C196.603 120.27 196.409 121.165 196.409 122.216ZM225.131 143.636C223.284 143.636 221.698 143.385 220.372 142.884C219.046 142.391 217.981 141.728 217.176 140.895C216.371 140.062 215.812 139.138 215.5 138.125L220.131 137.003C220.339 137.429 220.642 137.85 221.04 138.267C221.438 138.693 221.973 139.044 222.645 139.318C223.327 139.602 224.184 139.744 225.216 139.744C226.674 139.744 227.882 139.389 228.838 138.679C229.795 137.978 230.273 136.823 230.273 135.213V131.08H230.017C229.752 131.61 229.364 132.154 228.852 132.713C228.35 133.272 227.683 133.741 226.849 134.119C226.026 134.498 224.989 134.688 223.739 134.688C222.062 134.688 220.543 134.295 219.179 133.509C217.825 132.713 216.745 131.529 215.94 129.957C215.145 128.376 214.747 126.397 214.747 124.02C214.747 121.624 215.145 119.602 215.94 117.955C216.745 116.297 217.83 115.043 219.193 114.19C220.557 113.329 222.077 112.898 223.753 112.898C225.031 112.898 226.082 113.116 226.906 113.551C227.74 113.977 228.402 114.493 228.895 115.099C229.387 115.696 229.761 116.259 230.017 116.79H230.301V113.182H235.372V135.355C235.372 137.221 234.927 138.764 234.037 139.986C233.147 141.207 231.93 142.121 230.386 142.727C228.843 143.333 227.091 143.636 225.131 143.636ZM225.173 130.653C226.262 130.653 227.19 130.388 227.957 129.858C228.724 129.328 229.307 128.565 229.705 127.571C230.102 126.577 230.301 125.384 230.301 123.991C230.301 122.618 230.102 121.416 229.705 120.384C229.316 119.351 228.739 118.551 227.972 117.983C227.214 117.405 226.281 117.116 225.173 117.116C224.027 117.116 223.071 117.415 222.304 118.011C221.537 118.608 220.959 119.427 220.571 120.469C220.183 121.501 219.989 122.675 219.989 123.991C219.989 125.327 220.183 126.496 220.571 127.5C220.969 128.494 221.551 129.271 222.318 129.83C223.095 130.379 224.046 130.653 225.173 130.653ZM253.76 143.182C253.059 143.182 252.411 143.125 251.814 143.011C251.227 142.907 250.758 142.784 250.408 142.642L251.601 138.636C252.349 138.854 253.017 138.958 253.604 138.949C254.191 138.939 254.707 138.755 255.152 138.395C255.607 138.045 255.99 137.457 256.303 136.634L256.743 135.455L248.831 113.182H254.286L259.314 129.659H259.541L264.584 113.182H270.053L261.317 137.642C260.91 138.797 260.37 139.787 259.697 140.611C259.025 141.444 258.201 142.079 257.226 142.514C256.26 142.959 255.105 143.182 253.76 143.182ZM282.386 135.426C280.255 135.426 278.408 134.957 276.846 134.02C275.283 133.082 274.071 131.771 273.21 130.085C272.357 128.4 271.931 126.43 271.931 124.176C271.931 121.922 272.357 119.948 273.21 118.253C274.071 116.558 275.283 115.241 276.846 114.304C278.408 113.366 280.255 112.898 282.386 112.898C284.516 112.898 286.363 113.366 287.925 114.304C289.488 115.241 290.695 116.558 291.548 118.253C292.409 119.948 292.84 121.922 292.84 124.176C292.84 126.43 292.409 128.4 291.548 130.085C290.695 131.771 289.488 133.082 287.925 134.02C286.363 134.957 284.516 135.426 282.386 135.426ZM282.414 131.307C283.569 131.307 284.535 130.99 285.312 130.355C286.088 129.711 286.666 128.849 287.045 127.77C287.433 126.69 287.627 125.488 287.627 124.162C287.627 122.827 287.433 121.619 287.045 120.54C286.666 119.451 286.088 118.584 285.312 117.94C284.535 117.296 283.569 116.974 282.414 116.974C281.23 116.974 280.246 117.296 279.46 117.94C278.683 118.584 278.101 119.451 277.712 120.54C277.334 121.619 277.144 122.827 277.144 124.162C277.144 125.488 277.334 126.69 277.712 127.77C278.101 128.849 278.683 129.711 279.46 130.355C280.246 130.99 281.23 131.307 282.414 131.307ZM311.111 125.824V113.182H316.253V135H311.267V131.122H311.04C310.547 132.344 309.738 133.343 308.611 134.119C307.493 134.896 306.116 135.284 304.477 135.284C303.047 135.284 301.783 134.967 300.685 134.332C299.596 133.688 298.743 132.756 298.128 131.534C297.512 130.303 297.205 128.816 297.205 127.074V113.182H302.347V126.278C302.347 127.661 302.725 128.759 303.483 129.574C304.241 130.388 305.235 130.795 306.466 130.795C307.223 130.795 307.957 130.611 308.668 130.241C309.378 129.872 309.96 129.323 310.415 128.594C310.879 127.855 311.111 126.932 311.111 125.824ZM321.54 135V113.182H326.526V116.818H326.754C327.151 115.559 327.833 114.588 328.799 113.906C329.774 113.215 330.887 112.869 332.137 112.869C332.421 112.869 332.738 112.884 333.089 112.912C333.449 112.931 333.747 112.964 333.984 113.011V117.741C333.766 117.666 333.42 117.599 332.947 117.543C332.483 117.476 332.033 117.443 331.597 117.443C330.66 117.443 329.817 117.647 329.069 118.054C328.33 118.452 327.748 119.006 327.322 119.716C326.896 120.426 326.683 121.245 326.683 122.173V135H321.54ZM364.566 118.949L359.879 119.46C359.746 118.987 359.514 118.542 359.183 118.125C358.861 117.708 358.425 117.372 357.876 117.116C357.326 116.861 356.654 116.733 355.859 116.733C354.789 116.733 353.889 116.965 353.16 117.429C352.44 117.893 352.085 118.494 352.094 119.233C352.085 119.867 352.317 120.384 352.79 120.781C353.273 121.179 354.069 121.506 355.177 121.761L358.898 122.557C360.963 123.002 362.497 123.707 363.501 124.673C364.514 125.639 365.025 126.903 365.035 128.466C365.025 129.839 364.623 131.051 363.827 132.102C363.041 133.144 361.948 133.958 360.546 134.545C359.145 135.133 357.535 135.426 355.717 135.426C353.046 135.426 350.897 134.867 349.268 133.75C347.639 132.623 346.668 131.056 346.356 129.048L351.37 128.565C351.597 129.55 352.08 130.294 352.819 130.795C353.558 131.297 354.519 131.548 355.702 131.548C356.924 131.548 357.904 131.297 358.643 130.795C359.391 130.294 359.765 129.673 359.765 128.935C359.765 128.31 359.523 127.794 359.04 127.386C358.567 126.979 357.828 126.667 356.825 126.449L353.103 125.668C351.01 125.232 349.462 124.498 348.458 123.466C347.454 122.424 346.957 121.108 346.967 119.517C346.957 118.172 347.322 117.008 348.06 116.023C348.808 115.028 349.845 114.261 351.171 113.722C352.506 113.172 354.045 112.898 355.788 112.898C358.344 112.898 360.357 113.442 361.825 114.531C363.302 115.62 364.216 117.093 364.566 118.949ZM383.181 125.824V113.182H388.323V135H383.337V131.122H383.11C382.618 132.344 381.808 133.343 380.681 134.119C379.564 134.896 378.186 135.284 376.548 135.284C375.118 135.284 373.853 134.967 372.755 134.332C371.666 133.688 370.814 132.756 370.198 131.534C369.583 130.303 369.275 128.816 369.275 127.074V113.182H374.417V126.278C374.417 127.661 374.796 128.759 375.553 129.574C376.311 130.388 377.305 130.795 378.536 130.795C379.294 130.795 380.028 130.611 380.738 130.241C381.448 129.872 382.031 129.323 382.485 128.594C382.949 127.855 383.181 126.932 383.181 125.824ZM403.128 135.426C400.95 135.426 399.08 134.948 397.517 133.991C395.964 133.035 394.766 131.714 393.923 130.028C393.09 128.333 392.673 126.383 392.673 124.176C392.673 121.96 393.099 120.005 393.952 118.31C394.804 116.605 396.007 115.279 397.56 114.332C399.122 113.376 400.969 112.898 403.099 112.898C404.87 112.898 406.438 113.224 407.801 113.878C409.174 114.522 410.268 115.436 411.082 116.619C411.897 117.794 412.361 119.167 412.474 120.739H407.56C407.361 119.687 406.887 118.812 406.139 118.111C405.401 117.401 404.411 117.045 403.17 117.045C402.119 117.045 401.196 117.33 400.401 117.898C399.605 118.456 398.985 119.261 398.54 120.312C398.104 121.364 397.886 122.623 397.886 124.091C397.886 125.578 398.104 126.856 398.54 127.926C398.975 128.987 399.586 129.806 400.372 130.384C401.168 130.952 402.1 131.236 403.17 131.236C403.928 131.236 404.605 131.094 405.202 130.81C405.808 130.516 406.314 130.095 406.722 129.545C407.129 128.996 407.408 128.329 407.56 127.543H412.474C412.351 129.086 411.897 130.455 411.111 131.648C410.325 132.831 409.255 133.759 407.901 134.432C406.546 135.095 404.955 135.426 403.128 135.426ZM426.214 135.426C424.036 135.426 422.165 134.948 420.603 133.991C419.05 133.035 417.852 131.714 417.009 130.028C416.176 128.333 415.759 126.383 415.759 124.176C415.759 121.96 416.185 120.005 417.038 118.31C417.89 116.605 419.093 115.279 420.646 114.332C422.208 113.376 424.055 112.898 426.185 112.898C427.956 112.898 429.523 113.224 430.887 113.878C432.26 114.522 433.354 115.436 434.168 116.619C434.983 117.794 435.447 119.167 435.56 120.739H430.646C430.447 119.687 429.973 118.812 429.225 118.111C428.487 117.401 427.497 117.045 426.256 117.045C425.205 117.045 424.282 117.33 423.487 117.898C422.691 118.456 422.071 119.261 421.626 120.312C421.19 121.364 420.972 122.623 420.972 124.091C420.972 125.578 421.19 126.856 421.626 127.926C422.061 128.987 422.672 129.806 423.458 130.384C424.254 130.952 425.186 131.236 426.256 131.236C427.014 131.236 427.691 131.094 428.288 130.81C428.894 130.516 429.4 130.095 429.808 129.545C430.215 128.996 430.494 128.329 430.646 127.543H435.56C435.437 129.086 434.983 130.455 434.197 131.648C433.411 132.831 432.341 133.759 430.987 134.432C429.632 135.095 428.041 135.426 426.214 135.426ZM449.442 135.426C447.254 135.426 445.365 134.972 443.774 134.062C442.193 133.144 440.976 131.847 440.124 130.17C439.271 128.485 438.845 126.501 438.845 124.219C438.845 121.974 439.271 120.005 440.124 118.31C440.985 116.605 442.188 115.279 443.732 114.332C445.275 113.376 447.089 112.898 449.172 112.898C450.517 112.898 451.786 113.116 452.979 113.551C454.181 113.977 455.242 114.64 456.161 115.54C457.089 116.439 457.818 117.585 458.348 118.977C458.878 120.36 459.143 122.008 459.143 123.92V125.497H441.26V122.031H454.214C454.205 121.046 453.992 120.17 453.575 119.403C453.159 118.627 452.576 118.016 451.828 117.571C451.089 117.126 450.228 116.903 449.243 116.903C448.192 116.903 447.268 117.159 446.473 117.67C445.678 118.172 445.057 118.835 444.612 119.659C444.177 120.473 443.954 121.368 443.945 122.344V125.369C443.945 126.638 444.177 127.727 444.641 128.636C445.105 129.536 445.753 130.227 446.587 130.71C447.42 131.184 448.395 131.42 449.513 131.42C450.261 131.42 450.938 131.316 451.544 131.108C452.15 130.89 452.676 130.573 453.121 130.156C453.566 129.74 453.902 129.223 454.129 128.608L458.93 129.148C458.627 130.417 458.05 131.525 457.197 132.472C456.355 133.409 455.275 134.138 453.959 134.659C452.643 135.17 451.137 135.426 449.442 135.426ZM480.738 118.949L476.05 119.46C475.918 118.987 475.686 118.542 475.354 118.125C475.032 117.708 474.597 117.372 474.048 117.116C473.498 116.861 472.826 116.733 472.031 116.733C470.96 116.733 470.061 116.965 469.332 117.429C468.612 117.893 468.257 118.494 468.266 119.233C468.257 119.867 468.489 120.384 468.962 120.781C469.445 121.179 470.241 121.506 471.349 121.761L475.07 122.557C477.135 123.002 478.669 123.707 479.673 124.673C480.686 125.639 481.197 126.903 481.207 128.466C481.197 129.839 480.795 131.051 479.999 132.102C479.213 133.144 478.12 133.958 476.718 134.545C475.317 135.133 473.707 135.426 471.888 135.426C469.218 135.426 467.068 134.867 465.44 133.75C463.811 132.623 462.84 131.056 462.528 129.048L467.542 128.565C467.769 129.55 468.252 130.294 468.991 130.795C469.729 131.297 470.691 131.548 471.874 131.548C473.096 131.548 474.076 131.297 474.815 130.795C475.563 130.294 475.937 129.673 475.937 128.935C475.937 128.31 475.695 127.794 475.212 127.386C474.739 126.979 474 126.667 472.996 126.449L469.275 125.668C467.182 125.232 465.634 124.498 464.63 123.466C463.626 122.424 463.129 121.108 463.138 119.517C463.129 118.172 463.494 117.008 464.232 116.023C464.98 115.028 466.017 114.261 467.343 113.722C468.678 113.172 470.217 112.898 471.96 112.898C474.516 112.898 476.529 113.442 477.996 114.531C479.474 115.62 480.388 117.093 480.738 118.949ZM502.691 118.949L498.004 119.46C497.871 118.987 497.639 118.542 497.308 118.125C496.986 117.708 496.55 117.372 496.001 117.116C495.451 116.861 494.779 116.733 493.984 116.733C492.914 116.733 492.014 116.965 491.285 117.429C490.565 117.893 490.21 118.494 490.219 119.233C490.21 119.867 490.442 120.384 490.915 120.781C491.398 121.179 492.194 121.506 493.302 121.761L497.023 122.557C499.088 123.002 500.622 123.707 501.626 124.673C502.639 125.639 503.15 126.903 503.16 128.466C503.15 129.839 502.748 131.051 501.952 132.102C501.166 133.144 500.073 133.958 498.671 134.545C497.27 135.133 495.66 135.426 493.842 135.426C491.171 135.426 489.022 134.867 487.393 133.75C485.764 132.623 484.793 131.056 484.481 129.048L489.495 128.565C489.722 129.55 490.205 130.294 490.944 130.795C491.683 131.297 492.644 131.548 493.827 131.548C495.049 131.548 496.029 131.297 496.768 130.795C497.516 130.294 497.89 129.673 497.89 128.935C497.89 128.31 497.648 127.794 497.165 127.386C496.692 126.979 495.953 126.667 494.95 126.449L491.228 125.668C489.135 125.232 487.587 124.498 486.583 123.466C485.579 122.424 485.082 121.108 485.092 119.517C485.082 118.172 485.447 117.008 486.185 116.023C486.933 115.028 487.97 114.261 489.296 113.722C490.631 113.172 492.17 112.898 493.913 112.898C496.469 112.898 498.482 113.442 499.95 114.531C501.427 115.62 502.341 117.093 502.691 118.949ZM513.437 131.023L513.252 132.585C513.12 133.778 512.883 134.991 512.542 136.222C512.21 137.462 511.86 138.603 511.491 139.645C511.121 140.687 510.823 141.506 510.596 142.102H507.13C507.263 141.525 507.442 140.739 507.67 139.744C507.906 138.75 508.134 137.633 508.352 136.392C508.569 135.152 508.716 133.892 508.792 132.614L508.891 131.023H513.437ZM537.737 135.426C535.607 135.426 533.76 134.957 532.197 134.02C530.635 133.082 529.423 131.771 528.561 130.085C527.709 128.4 527.283 126.43 527.283 124.176C527.283 121.922 527.709 119.948 528.561 118.253C529.423 116.558 530.635 115.241 532.197 114.304C533.76 113.366 535.607 112.898 537.737 112.898C539.868 112.898 541.714 113.366 543.277 114.304C544.839 115.241 546.047 116.558 546.899 118.253C547.761 119.948 548.192 121.922 548.192 124.176C548.192 126.43 547.761 128.4 546.899 130.085C546.047 131.771 544.839 133.082 543.277 134.02C541.714 134.957 539.868 135.426 537.737 135.426ZM537.766 131.307C538.921 131.307 539.887 130.99 540.663 130.355C541.44 129.711 542.018 128.849 542.396 127.77C542.785 126.69 542.979 125.488 542.979 124.162C542.979 122.827 542.785 121.619 542.396 120.54C542.018 119.451 541.44 118.584 540.663 117.94C539.887 117.296 538.921 116.974 537.766 116.974C536.582 116.974 535.597 117.296 534.811 117.94C534.035 118.584 533.452 119.451 533.064 120.54C532.685 121.619 532.496 122.827 532.496 124.162C532.496 125.488 532.685 126.69 533.064 127.77C533.452 128.849 534.035 129.711 534.811 130.355C535.597 130.99 536.582 131.307 537.766 131.307ZM557.698 122.216V135H552.556V113.182H557.471V116.889H557.727C558.228 115.668 559.029 114.697 560.127 113.977C561.235 113.258 562.603 112.898 564.232 112.898C565.738 112.898 567.049 113.22 568.167 113.864C569.294 114.508 570.165 115.44 570.781 116.662C571.406 117.884 571.713 119.366 571.704 121.108V135H566.562V121.903C566.562 120.445 566.183 119.304 565.425 118.48C564.677 117.656 563.64 117.244 562.315 117.244C561.415 117.244 560.615 117.443 559.914 117.841C559.223 118.229 558.678 118.793 558.281 119.531C557.892 120.27 557.698 121.165 557.698 122.216ZM586.59 135.426C584.403 135.426 582.513 134.972 580.923 134.062C579.341 133.144 578.124 131.847 577.272 130.17C576.42 128.485 575.994 126.501 575.994 124.219C575.994 121.974 576.42 120.005 577.272 118.31C578.134 116.605 579.336 115.279 580.88 114.332C582.424 113.376 584.237 112.898 586.32 112.898C587.665 112.898 588.934 113.116 590.127 113.551C591.33 113.977 592.39 114.64 593.309 115.54C594.237 116.439 594.966 117.585 595.496 118.977C596.027 120.36 596.292 122.008 596.292 123.92V125.497H578.408V122.031H591.363C591.353 121.046 591.14 120.17 590.724 119.403C590.307 118.627 589.725 118.016 588.977 117.571C588.238 117.126 587.376 116.903 586.391 116.903C585.34 116.903 584.417 117.159 583.621 117.67C582.826 118.172 582.206 118.835 581.761 119.659C581.325 120.473 581.103 121.368 581.093 122.344V125.369C581.093 126.638 581.325 127.727 581.789 128.636C582.253 129.536 582.902 130.227 583.735 130.71C584.568 131.184 585.544 131.42 586.661 131.42C587.409 131.42 588.086 131.316 588.692 131.108C589.299 130.89 589.824 130.573 590.269 130.156C590.714 129.74 591.05 129.223 591.278 128.608L596.079 129.148C595.776 130.417 595.198 131.525 594.346 132.472C593.503 133.409 592.424 134.138 591.107 134.659C589.791 135.17 588.285 135.426 586.59 135.426ZM348.362 153.909V183H343.22V153.909H348.362ZM353.65 183V161.182H358.792V183H353.65ZM356.235 158.085C355.421 158.085 354.72 157.815 354.133 157.276C353.546 156.726 353.252 156.068 353.252 155.301C353.252 154.525 353.546 153.866 354.133 153.327C354.72 152.777 355.421 152.503 356.235 152.503C357.059 152.503 357.76 152.777 358.337 153.327C358.924 153.866 359.218 154.525 359.218 155.301C359.218 156.068 358.924 156.726 358.337 157.276C357.76 157.815 357.059 158.085 356.235 158.085ZM369.222 170.216V183H364.08V161.182H368.994V164.889H369.25C369.752 163.668 370.552 162.697 371.651 161.977C372.759 161.258 374.127 160.898 375.756 160.898C377.261 160.898 378.573 161.22 379.69 161.864C380.817 162.508 381.688 163.44 382.304 164.662C382.929 165.884 383.237 167.366 383.227 169.108V183H378.085V169.903C378.085 168.445 377.706 167.304 376.949 166.48C376.201 165.656 375.164 165.244 373.838 165.244C372.938 165.244 372.138 165.443 371.438 165.841C370.746 166.229 370.202 166.793 369.804 167.531C369.416 168.27 369.222 169.165 369.222 170.216ZM398.114 183.426C395.926 183.426 394.037 182.972 392.446 182.062C390.865 181.144 389.648 179.847 388.795 178.17C387.943 176.485 387.517 174.501 387.517 172.219C387.517 169.974 387.943 168.005 388.795 166.31C389.657 164.605 390.86 163.279 392.403 162.332C393.947 161.376 395.76 160.898 397.844 160.898C399.188 160.898 400.457 161.116 401.651 161.551C402.853 161.977 403.914 162.64 404.832 163.54C405.76 164.439 406.49 165.585 407.02 166.977C407.55 168.36 407.815 170.008 407.815 171.92V173.497H389.932V170.031H402.886C402.877 169.046 402.664 168.17 402.247 167.403C401.83 166.627 401.248 166.016 400.5 165.571C399.761 165.126 398.9 164.903 397.915 164.903C396.864 164.903 395.94 165.159 395.145 165.67C394.349 166.172 393.729 166.835 393.284 167.659C392.848 168.473 392.626 169.368 392.616 170.344V173.369C392.616 174.638 392.848 175.727 393.312 176.636C393.777 177.536 394.425 178.227 395.259 178.71C396.092 179.184 397.067 179.42 398.185 179.42C398.933 179.42 399.61 179.316 400.216 179.108C400.822 178.89 401.348 178.573 401.793 178.156C402.238 177.74 402.574 177.223 402.801 176.608L407.602 177.148C407.299 178.417 406.722 179.525 405.869 180.472C405.027 181.409 403.947 182.138 402.631 182.659C401.314 183.17 399.809 183.426 398.114 183.426ZM428.366 183.44C426.983 183.44 425.738 183.194 424.63 182.702C423.531 182.2 422.66 181.461 422.016 180.486C421.382 179.51 421.065 178.308 421.065 176.878C421.065 175.647 421.292 174.629 421.746 173.824C422.201 173.019 422.821 172.375 423.607 171.892C424.393 171.409 425.279 171.045 426.263 170.798C427.258 170.543 428.285 170.358 429.346 170.244C430.624 170.112 431.661 169.993 432.457 169.889C433.252 169.776 433.83 169.605 434.19 169.378C434.559 169.141 434.744 168.777 434.744 168.284V168.199C434.744 167.129 434.426 166.3 433.792 165.713C433.157 165.126 432.244 164.832 431.05 164.832C429.791 164.832 428.792 165.107 428.053 165.656C427.324 166.205 426.832 166.854 426.576 167.602L421.775 166.92C422.154 165.595 422.779 164.487 423.65 163.597C424.521 162.697 425.586 162.025 426.846 161.58C428.105 161.125 429.497 160.898 431.022 160.898C432.073 160.898 433.12 161.021 434.161 161.267C435.203 161.513 436.155 161.92 437.016 162.489C437.878 163.047 438.569 163.81 439.09 164.776C439.621 165.741 439.886 166.949 439.886 168.398V183H434.942V180.003H434.772C434.46 180.609 434.019 181.177 433.451 181.707C432.892 182.228 432.187 182.65 431.335 182.972C430.492 183.284 429.502 183.44 428.366 183.44ZM429.701 179.662C430.733 179.662 431.628 179.458 432.386 179.051C433.143 178.634 433.726 178.085 434.133 177.403C434.549 176.722 434.758 175.978 434.758 175.173V172.602C434.597 172.735 434.322 172.858 433.934 172.972C433.555 173.085 433.129 173.185 432.656 173.27C432.182 173.355 431.713 173.431 431.249 173.497C430.785 173.563 430.383 173.62 430.042 173.668C429.275 173.772 428.588 173.942 427.982 174.179C427.376 174.416 426.898 174.747 426.548 175.173C426.197 175.59 426.022 176.13 426.022 176.793C426.022 177.74 426.368 178.455 427.059 178.938C427.75 179.42 428.631 179.662 429.701 179.662ZM455.951 161.182V165.159H443.408V161.182H455.951ZM446.505 155.955H451.647V176.438C451.647 177.129 451.751 177.659 451.96 178.028C452.177 178.388 452.461 178.634 452.812 178.767C453.162 178.9 453.55 178.966 453.977 178.966C454.299 178.966 454.592 178.942 454.857 178.895C455.132 178.848 455.34 178.805 455.482 178.767L456.349 182.787C456.074 182.882 455.681 182.986 455.17 183.099C454.668 183.213 454.052 183.279 453.323 183.298C452.035 183.336 450.875 183.142 449.843 182.716C448.811 182.28 447.992 181.608 447.386 180.699C446.789 179.79 446.496 178.653 446.505 177.29V155.955ZM476.452 183.44C475.069 183.44 473.824 183.194 472.716 182.702C471.617 182.2 470.746 181.461 470.102 180.486C469.468 179.51 469.151 178.308 469.151 176.878C469.151 175.647 469.378 174.629 469.832 173.824C470.287 173.019 470.907 172.375 471.693 171.892C472.479 171.409 473.365 171.045 474.349 170.798C475.344 170.543 476.371 170.358 477.432 170.244C478.71 170.112 479.747 169.993 480.543 169.889C481.338 169.776 481.916 169.605 482.276 169.378C482.645 169.141 482.83 168.777 482.83 168.284V168.199C482.83 167.129 482.512 166.3 481.878 165.713C481.243 165.126 480.33 164.832 479.136 164.832C477.877 164.832 476.878 165.107 476.139 165.656C475.41 166.205 474.918 166.854 474.662 167.602L469.861 166.92C470.24 165.595 470.865 164.487 471.736 163.597C472.607 162.697 473.672 162.025 474.932 161.58C476.191 161.125 477.583 160.898 479.108 160.898C480.159 160.898 481.205 161.021 482.247 161.267C483.289 161.513 484.241 161.92 485.102 162.489C485.964 163.047 486.655 163.81 487.176 164.776C487.706 165.741 487.972 166.949 487.972 168.398V183H483.028V180.003H482.858C482.545 180.609 482.105 181.177 481.537 181.707C480.978 182.228 480.273 182.65 479.42 182.972C478.578 183.284 477.588 183.44 476.452 183.44ZM477.787 179.662C478.819 179.662 479.714 179.458 480.472 179.051C481.229 178.634 481.812 178.085 482.219 177.403C482.635 176.722 482.844 175.978 482.844 175.173V172.602C482.683 172.735 482.408 172.858 482.02 172.972C481.641 173.085 481.215 173.185 480.741 173.27C480.268 173.355 479.799 173.431 479.335 173.497C478.871 173.563 478.469 173.62 478.128 173.668C477.361 173.772 476.674 173.942 476.068 174.179C475.462 174.416 474.984 174.747 474.634 175.173C474.283 175.59 474.108 176.13 474.108 176.793C474.108 177.74 474.454 178.455 475.145 178.938C475.836 179.42 476.717 179.662 477.787 179.662ZM513.959 161.182V165.159H501.416V161.182H513.959ZM504.513 155.955H509.655V176.438C509.655 177.129 509.759 177.659 509.967 178.028C510.185 178.388 510.469 178.634 510.82 178.767C511.17 178.9 511.558 178.966 511.984 178.966C512.306 178.966 512.6 178.942 512.865 178.895C513.14 178.848 513.348 178.805 513.49 178.767L514.357 182.787C514.082 182.882 513.689 182.986 513.178 183.099C512.676 183.213 512.06 183.279 511.331 183.298C510.043 183.336 508.883 183.142 507.851 182.716C506.819 182.28 506 181.608 505.393 180.699C504.797 179.79 504.503 178.653 504.513 177.29V155.955ZM518.259 183V161.182H523.401V183H518.259ZM520.844 158.085C520.03 158.085 519.329 157.815 518.742 157.276C518.155 156.726 517.862 156.068 517.862 155.301C517.862 154.525 518.155 153.866 518.742 153.327C519.329 152.777 520.03 152.503 520.844 152.503C521.668 152.503 522.369 152.777 522.947 153.327C523.534 153.866 523.827 154.525 523.827 155.301C523.827 156.068 523.534 156.726 522.947 157.276C522.369 157.815 521.668 158.085 520.844 158.085ZM528.689 183V161.182H533.604V164.889H533.859C534.314 163.639 535.067 162.664 536.118 161.963C537.169 161.253 538.424 160.898 539.882 160.898C541.359 160.898 542.605 161.258 543.618 161.977C544.641 162.687 545.36 163.658 545.777 164.889H546.004C546.487 163.677 547.302 162.711 548.447 161.991C549.603 161.262 550.971 160.898 552.553 160.898C554.56 160.898 556.198 161.532 557.467 162.801C558.736 164.07 559.371 165.921 559.371 168.355V183H554.214V169.151C554.214 167.796 553.855 166.807 553.135 166.182C552.415 165.547 551.535 165.23 550.493 165.23C549.252 165.23 548.282 165.618 547.581 166.395C546.89 167.162 546.544 168.161 546.544 169.392V183H541.501V168.938C541.501 167.811 541.161 166.911 540.479 166.239C539.806 165.566 538.926 165.23 537.837 165.23C537.098 165.23 536.426 165.42 535.82 165.798C535.214 166.168 534.731 166.693 534.371 167.375C534.011 168.047 533.831 168.833 533.831 169.733V183H528.689ZM574.246 183.426C572.059 183.426 570.17 182.972 568.579 182.062C566.997 181.144 565.781 179.847 564.928 178.17C564.076 176.485 563.65 174.501 563.65 172.219C563.65 169.974 564.076 168.005 564.928 166.31C565.79 164.605 566.993 163.279 568.536 162.332C570.08 161.376 571.893 160.898 573.977 160.898C575.321 160.898 576.59 161.116 577.783 161.551C578.986 161.977 580.047 162.64 580.965 163.54C581.893 164.439 582.622 165.585 583.153 166.977C583.683 168.36 583.948 170.008 583.948 171.92V173.497H566.065V170.031H579.019C579.01 169.046 578.797 168.17 578.38 167.403C577.963 166.627 577.381 166.016 576.633 165.571C575.894 165.126 575.032 164.903 574.048 164.903C572.996 164.903 572.073 165.159 571.278 165.67C570.482 166.172 569.862 166.835 569.417 167.659C568.981 168.473 568.759 169.368 568.749 170.344V173.369C568.749 174.638 568.981 175.727 569.445 176.636C569.909 177.536 570.558 178.227 571.391 178.71C572.225 179.184 573.2 179.42 574.317 179.42C575.066 179.42 575.743 179.316 576.349 179.108C576.955 178.89 577.48 178.573 577.925 178.156C578.371 177.74 578.707 177.223 578.934 176.608L583.735 177.148C583.432 178.417 582.854 179.525 582.002 180.472C581.159 181.409 580.08 182.138 578.763 182.659C577.447 183.17 575.942 183.426 574.246 183.426ZM594.591 153.909L594.122 174.449H589.548L589.094 153.909H594.591ZM591.835 183.312C590.973 183.312 590.235 183.009 589.619 182.403C589.013 181.797 588.71 181.059 588.71 180.188C588.71 179.335 589.013 178.606 589.619 178C590.235 177.394 590.973 177.091 591.835 177.091C592.678 177.091 593.407 177.394 594.023 178C594.648 178.606 594.96 179.335 594.96 180.188C594.96 180.765 594.813 181.291 594.52 181.764C594.236 182.238 593.857 182.616 593.384 182.901C592.92 183.175 592.403 183.312 591.835 183.312Z" fill="white"/>
<path d="M66.8871 231V216.455H75.907V218.344H69.0817V222.776H75.2607V224.658H69.0817V231H66.8871ZM78.4354 231V220.091H80.5589V231H78.4354ZM79.5078 218.408C79.1385 218.408 78.8213 218.285 78.5561 218.038C78.2957 217.787 78.1655 217.489 78.1655 217.143C78.1655 216.793 78.2957 216.495 78.5561 216.249C78.8213 215.998 79.1385 215.872 79.5078 215.872C79.8771 215.872 80.192 215.998 80.4524 216.249C80.7176 216.495 80.8501 216.793 80.8501 217.143C80.8501 217.489 80.7176 217.787 80.4524 218.038C80.192 218.285 79.8771 218.408 79.5078 218.408ZM85.5394 224.523V231H83.4158V220.091H85.4542V221.866H85.5891C85.8401 221.289 86.2331 220.825 86.7681 220.474C87.3079 220.124 87.9873 219.949 88.8065 219.949C89.5498 219.949 90.2009 220.105 90.7596 220.418C91.3183 220.725 91.7515 221.185 92.0593 221.795C92.3671 222.406 92.521 223.161 92.521 224.061V231H90.3974V224.317C90.3974 223.526 90.1914 222.908 89.7795 222.463C89.3675 222.013 88.8017 221.788 88.082 221.788C87.5896 221.788 87.1516 221.895 86.7681 222.108C86.3893 222.321 86.0887 222.634 85.8661 223.045C85.6483 223.453 85.5394 223.945 85.5394 224.523ZM99.4528 231.213C98.5721 231.213 97.7861 230.988 97.0948 230.538C96.4083 230.084 95.8685 229.437 95.4755 228.599C95.0872 227.757 94.8931 226.746 94.8931 225.567C94.8931 224.388 95.0896 223.379 95.4826 222.541C95.8803 221.703 96.4248 221.062 97.1161 220.616C97.8074 220.171 98.591 219.949 99.467 219.949C100.144 219.949 100.689 220.062 101.1 220.29C101.517 220.512 101.839 220.773 102.066 221.071C102.298 221.369 102.478 221.632 102.606 221.859H102.734V216.455H104.858V231H102.784V229.303H102.606C102.478 229.535 102.294 229.8 102.052 230.098C101.815 230.396 101.489 230.657 101.072 230.879C100.655 231.102 100.116 231.213 99.4528 231.213ZM99.9215 229.402C100.532 229.402 101.048 229.241 101.47 228.919C101.896 228.592 102.218 228.14 102.436 227.562C102.658 226.985 102.77 226.312 102.77 225.545C102.77 224.788 102.661 224.125 102.443 223.557C102.225 222.989 101.905 222.546 101.484 222.229C101.063 221.911 100.542 221.753 99.9215 221.753C99.2823 221.753 98.7496 221.919 98.3235 222.25C97.8974 222.581 97.5754 223.034 97.3576 223.607C97.1445 224.179 97.038 224.826 97.038 225.545C97.038 226.275 97.1469 226.93 97.3647 227.513C97.5825 228.095 97.9045 228.557 98.3306 228.898C98.7615 229.234 99.2918 229.402 99.9215 229.402ZM121.285 220.276C121.209 219.603 120.897 219.082 120.348 218.713C119.798 218.339 119.107 218.152 118.274 218.152C117.677 218.152 117.161 218.247 116.725 218.436C116.29 218.621 115.951 218.876 115.71 219.203C115.473 219.525 115.355 219.892 115.355 220.304C115.355 220.65 115.435 220.948 115.596 221.199C115.762 221.45 115.977 221.661 116.243 221.831C116.512 221.997 116.801 222.136 117.109 222.25C117.417 222.359 117.713 222.449 117.997 222.52L119.417 222.889C119.881 223.003 120.357 223.157 120.845 223.351C121.333 223.545 121.785 223.801 122.201 224.118C122.618 224.435 122.954 224.828 123.21 225.297C123.47 225.766 123.6 226.327 123.6 226.98C123.6 227.804 123.387 228.536 122.961 229.175C122.54 229.814 121.927 230.318 121.122 230.688C120.322 231.057 119.353 231.241 118.217 231.241C117.128 231.241 116.186 231.069 115.39 230.723C114.595 230.377 113.972 229.887 113.522 229.253C113.073 228.614 112.824 227.856 112.777 226.98H114.978C115.021 227.506 115.191 227.944 115.49 228.294C115.793 228.64 116.179 228.898 116.647 229.068C117.121 229.234 117.639 229.317 118.203 229.317C118.823 229.317 119.375 229.22 119.858 229.026C120.345 228.827 120.729 228.552 121.008 228.202C121.288 227.847 121.427 227.432 121.427 226.959C121.427 226.528 121.304 226.175 121.058 225.901C120.816 225.626 120.487 225.399 120.071 225.219C119.659 225.039 119.192 224.88 118.672 224.743L116.953 224.274C115.788 223.957 114.865 223.491 114.183 222.875C113.506 222.259 113.167 221.445 113.167 220.432C113.167 219.594 113.395 218.862 113.849 218.237C114.304 217.612 114.919 217.127 115.696 216.781C116.472 216.431 117.348 216.256 118.324 216.256C119.308 216.256 120.177 216.429 120.93 216.774C121.688 217.12 122.284 217.596 122.72 218.202C123.155 218.803 123.383 219.494 123.402 220.276H121.285ZM129.227 231.241C128.536 231.241 127.911 231.114 127.352 230.858C126.794 230.598 126.351 230.221 126.024 229.729C125.702 229.236 125.541 228.633 125.541 227.918C125.541 227.302 125.66 226.795 125.896 226.398C126.133 226 126.453 225.685 126.855 225.453C127.258 225.221 127.707 225.046 128.205 224.928C128.702 224.809 129.208 224.719 129.724 224.658C130.378 224.582 130.908 224.52 131.315 224.473C131.723 224.421 132.018 224.338 132.203 224.224C132.388 224.111 132.48 223.926 132.48 223.67V223.621C132.48 223 132.305 222.52 131.955 222.179C131.609 221.838 131.093 221.668 130.406 221.668C129.691 221.668 129.128 221.826 128.716 222.143C128.309 222.456 128.027 222.804 127.871 223.188L125.875 222.733C126.112 222.07 126.457 221.535 126.912 221.128C127.371 220.716 127.899 220.418 128.496 220.233C129.092 220.044 129.72 219.949 130.378 219.949C130.813 219.949 131.275 220.001 131.763 220.105C132.255 220.205 132.714 220.389 133.141 220.659C133.571 220.929 133.924 221.315 134.199 221.817C134.473 222.314 134.611 222.96 134.611 223.756V231H132.537V229.509H132.452C132.314 229.783 132.108 230.053 131.834 230.318C131.559 230.583 131.206 230.804 130.776 230.979C130.345 231.154 129.829 231.241 129.227 231.241ZM129.689 229.537C130.276 229.537 130.778 229.421 131.195 229.189C131.616 228.957 131.936 228.654 132.153 228.28C132.376 227.901 132.487 227.496 132.487 227.065V225.659C132.411 225.735 132.265 225.806 132.047 225.872C131.834 225.934 131.59 225.988 131.315 226.036C131.041 226.078 130.773 226.118 130.513 226.156C130.252 226.189 130.035 226.218 129.859 226.241C129.447 226.294 129.071 226.381 128.73 226.504C128.394 226.627 128.124 226.805 127.92 227.037C127.722 227.264 127.622 227.567 127.622 227.946C127.622 228.472 127.816 228.869 128.205 229.139C128.593 229.404 129.088 229.537 129.689 229.537ZM139.563 216.455V231H137.439V216.455H139.563ZM145.594 231.241C144.903 231.241 144.278 231.114 143.719 230.858C143.161 230.598 142.718 230.221 142.391 229.729C142.069 229.236 141.908 228.633 141.908 227.918C141.908 227.302 142.027 226.795 142.263 226.398C142.5 226 142.82 225.685 143.222 225.453C143.625 225.221 144.075 225.046 144.572 224.928C145.069 224.809 145.576 224.719 146.092 224.658C146.745 224.582 147.275 224.52 147.683 224.473C148.09 224.421 148.386 224.338 148.57 224.224C148.755 224.111 148.847 223.926 148.847 223.67V223.621C148.847 223 148.672 222.52 148.322 222.179C147.976 221.838 147.46 221.668 146.773 221.668C146.058 221.668 145.495 221.826 145.083 222.143C144.676 222.456 144.394 222.804 144.238 223.188L142.242 222.733C142.479 222.07 142.825 221.535 143.279 221.128C143.738 220.716 144.266 220.418 144.863 220.233C145.46 220.044 146.087 219.949 146.745 219.949C147.181 219.949 147.642 220.001 148.13 220.105C148.622 220.205 149.082 220.389 149.508 220.659C149.939 220.929 150.291 221.315 150.566 221.817C150.841 222.314 150.978 222.96 150.978 223.756V231H148.904V229.509H148.819C148.682 229.783 148.476 230.053 148.201 230.318C147.926 230.583 147.574 230.804 147.143 230.979C146.712 231.154 146.196 231.241 145.594 231.241ZM146.056 229.537C146.643 229.537 147.145 229.421 147.562 229.189C147.983 228.957 148.303 228.654 148.521 228.28C148.743 227.901 148.854 227.496 148.854 227.065V225.659C148.779 225.735 148.632 225.806 148.414 225.872C148.201 225.934 147.957 225.988 147.683 226.036C147.408 226.078 147.14 226.118 146.88 226.156C146.62 226.189 146.402 226.218 146.227 226.241C145.815 226.294 145.438 226.381 145.097 226.504C144.761 226.627 144.491 226.805 144.288 227.037C144.089 227.264 143.989 227.567 143.989 227.946C143.989 228.472 144.183 228.869 144.572 229.139C144.96 229.404 145.455 229.537 146.056 229.537ZM153.806 231V220.091H155.859V221.824H155.973C156.172 221.237 156.522 220.775 157.024 220.439C157.53 220.098 158.103 219.928 158.743 219.928C158.875 219.928 159.031 219.932 159.211 219.942C159.396 219.951 159.54 219.963 159.645 219.977V222.009C159.559 221.985 159.408 221.959 159.19 221.93C158.972 221.897 158.754 221.881 158.537 221.881C158.035 221.881 157.587 221.987 157.194 222.2C156.806 222.409 156.498 222.7 156.271 223.074C156.044 223.443 155.93 223.865 155.93 224.338V231H153.806ZM161.482 231V220.091H163.606V231H161.482ZM162.555 218.408C162.185 218.408 161.868 218.285 161.603 218.038C161.343 217.787 161.212 217.489 161.212 217.143C161.212 216.793 161.343 216.495 161.603 216.249C161.868 215.998 162.185 215.872 162.555 215.872C162.924 215.872 163.239 215.998 163.499 216.249C163.764 216.495 163.897 216.793 163.897 217.143C163.897 217.489 163.764 217.787 163.499 218.038C163.239 218.285 162.924 218.408 162.555 218.408ZM171.164 231.22C170.09 231.22 169.164 230.991 168.387 230.531C167.616 230.067 167.019 229.416 166.598 228.578C166.181 227.735 165.973 226.748 165.973 225.616C165.973 224.499 166.181 223.514 166.598 222.662C167.019 221.81 167.606 221.144 168.359 220.666C169.117 220.188 170.002 219.949 171.015 219.949C171.631 219.949 172.227 220.051 172.805 220.254C173.383 220.458 173.901 220.777 174.36 221.213C174.82 221.649 175.182 222.214 175.447 222.911C175.712 223.602 175.845 224.442 175.845 225.432V226.185H167.173V224.594H173.764C173.764 224.035 173.65 223.54 173.423 223.109C173.196 222.674 172.876 222.33 172.464 222.08C172.057 221.829 171.579 221.703 171.029 221.703C170.433 221.703 169.912 221.85 169.467 222.143C169.027 222.432 168.686 222.811 168.444 223.28C168.208 223.744 168.089 224.248 168.089 224.793V226.036C168.089 226.765 168.217 227.385 168.473 227.896C168.733 228.408 169.095 228.798 169.559 229.068C170.023 229.333 170.565 229.466 171.186 229.466C171.588 229.466 171.955 229.409 172.287 229.295C172.618 229.177 172.904 229.002 173.146 228.77C173.387 228.538 173.572 228.251 173.7 227.911L175.71 228.273C175.549 228.865 175.26 229.383 174.843 229.828C174.431 230.268 173.913 230.612 173.288 230.858C172.668 231.099 171.96 231.22 171.164 231.22ZM186.376 222.754L184.451 223.095C184.371 222.849 184.243 222.615 184.067 222.392C183.897 222.17 183.665 221.987 183.371 221.845C183.078 221.703 182.711 221.632 182.271 221.632C181.669 221.632 181.167 221.767 180.765 222.037C180.362 222.302 180.161 222.645 180.161 223.067C180.161 223.431 180.296 223.725 180.566 223.947C180.836 224.17 181.272 224.352 181.873 224.494L183.606 224.892C184.61 225.124 185.358 225.482 185.85 225.964C186.343 226.447 186.589 227.075 186.589 227.847C186.589 228.5 186.399 229.082 186.021 229.594C185.647 230.1 185.123 230.498 184.451 230.787C183.783 231.076 183.009 231.22 182.129 231.22C180.907 231.22 179.91 230.96 179.138 230.439C178.367 229.913 177.893 229.168 177.718 228.202L179.771 227.889C179.898 228.424 180.161 228.829 180.559 229.104C180.957 229.374 181.475 229.509 182.114 229.509C182.81 229.509 183.367 229.364 183.783 229.075C184.2 228.782 184.408 228.424 184.408 228.003C184.408 227.662 184.281 227.375 184.025 227.143C183.774 226.911 183.388 226.736 182.867 226.618L181.021 226.213C180.003 225.981 179.25 225.612 178.762 225.105C178.279 224.598 178.038 223.957 178.038 223.18C178.038 222.536 178.218 221.973 178.577 221.49C178.937 221.007 179.434 220.631 180.069 220.361C180.703 220.086 181.43 219.949 182.249 219.949C183.428 219.949 184.356 220.205 185.033 220.716C185.71 221.223 186.158 221.902 186.376 222.754ZM206.42 226.476V220.091H208.551V231H206.463V229.111H206.349C206.098 229.693 205.696 230.179 205.142 230.567C204.592 230.95 203.908 231.142 203.089 231.142C202.388 231.142 201.768 230.988 201.228 230.68C200.693 230.368 200.272 229.906 199.964 229.295C199.661 228.685 199.51 227.929 199.51 227.03V220.091H201.633V226.774C201.633 227.518 201.839 228.109 202.251 228.55C202.663 228.99 203.198 229.21 203.856 229.21C204.254 229.21 204.649 229.111 205.042 228.912C205.44 228.713 205.769 228.412 206.029 228.01C206.295 227.607 206.425 227.096 206.42 226.476ZM211.404 235.091V220.091H213.478V221.859H213.656C213.779 221.632 213.956 221.369 214.188 221.071C214.42 220.773 214.742 220.512 215.154 220.29C215.566 220.062 216.111 219.949 216.788 219.949C217.668 219.949 218.454 220.171 219.146 220.616C219.837 221.062 220.379 221.703 220.772 222.541C221.17 223.379 221.369 224.388 221.369 225.567C221.369 226.746 221.172 227.757 220.779 228.599C220.386 229.437 219.846 230.084 219.16 230.538C218.473 230.988 217.69 231.213 216.809 231.213C216.146 231.213 215.604 231.102 215.183 230.879C214.766 230.657 214.439 230.396 214.202 230.098C213.966 229.8 213.783 229.535 213.656 229.303H213.528V235.091H211.404ZM213.485 225.545C213.485 226.312 213.596 226.985 213.819 227.562C214.041 228.14 214.363 228.592 214.785 228.919C215.206 229.241 215.722 229.402 216.333 229.402C216.968 229.402 217.498 229.234 217.924 228.898C218.35 228.557 218.672 228.095 218.89 227.513C219.112 226.93 219.224 226.275 219.224 225.545C219.224 224.826 219.115 224.179 218.897 223.607C218.684 223.034 218.362 222.581 217.931 222.25C217.505 221.919 216.972 221.753 216.333 221.753C215.718 221.753 215.197 221.911 214.771 222.229C214.349 222.546 214.03 222.989 213.812 223.557C213.594 224.125 213.485 224.788 213.485 225.545ZM234.133 220.091V221.795H228.174V220.091H234.133ZM229.772 217.477H231.896V227.797C231.896 228.209 231.958 228.519 232.081 228.727C232.204 228.931 232.362 229.071 232.556 229.146C232.755 229.217 232.971 229.253 233.203 229.253C233.373 229.253 233.522 229.241 233.65 229.217C233.778 229.194 233.877 229.175 233.949 229.161L234.332 230.915C234.209 230.962 234.034 231.009 233.806 231.057C233.579 231.109 233.295 231.137 232.954 231.142C232.395 231.152 231.875 231.052 231.392 230.844C230.909 230.635 230.518 230.313 230.22 229.878C229.922 229.442 229.772 228.895 229.772 228.237V217.477ZM240.96 231.22C239.938 231.22 239.045 230.986 238.283 230.517C237.52 230.048 236.929 229.393 236.507 228.55C236.086 227.707 235.875 226.722 235.875 225.595C235.875 224.464 236.086 223.474 236.507 222.626C236.929 221.779 237.52 221.121 238.283 220.652C239.045 220.183 239.938 219.949 240.96 219.949C241.983 219.949 242.875 220.183 243.638 220.652C244.4 221.121 244.992 221.779 245.413 222.626C245.835 223.474 246.045 224.464 246.045 225.595C246.045 226.722 245.835 227.707 245.413 228.55C244.992 229.393 244.4 230.048 243.638 230.517C242.875 230.986 241.983 231.22 240.96 231.22ZM240.967 229.438C241.63 229.438 242.179 229.262 242.615 228.912C243.051 228.562 243.373 228.095 243.581 227.513C243.794 226.93 243.901 226.289 243.901 225.588C243.901 224.892 243.794 224.253 243.581 223.67C243.373 223.083 243.051 222.612 242.615 222.257C242.179 221.902 241.63 221.724 240.967 221.724C240.3 221.724 239.746 221.902 239.305 222.257C238.87 222.612 238.545 223.083 238.332 223.67C238.124 224.253 238.02 224.892 238.02 225.588C238.02 226.289 238.124 226.93 238.332 227.513C238.545 228.095 238.87 228.562 239.305 228.912C239.746 229.262 240.3 229.438 240.967 229.438ZM253.68 231V229.409L258.602 224.31C259.128 223.756 259.561 223.27 259.902 222.854C260.248 222.432 260.506 222.032 260.676 221.653C260.847 221.275 260.932 220.872 260.932 220.446C260.932 219.963 260.818 219.546 260.591 219.196C260.364 218.841 260.054 218.569 259.661 218.379C259.268 218.185 258.825 218.088 258.332 218.088C257.812 218.088 257.357 218.195 256.969 218.408C256.58 218.621 256.282 218.921 256.074 219.31C255.866 219.698 255.761 220.152 255.761 220.673H253.666C253.666 219.788 253.87 219.014 254.277 218.351C254.684 217.688 255.243 217.174 255.953 216.81C256.663 216.44 257.471 216.256 258.375 216.256C259.289 216.256 260.094 216.438 260.79 216.803C261.491 217.162 262.037 217.655 262.43 218.28C262.823 218.9 263.02 219.601 263.02 220.382C263.02 220.922 262.918 221.45 262.714 221.966C262.516 222.482 262.168 223.057 261.67 223.692C261.173 224.321 260.482 225.086 259.597 225.986L256.706 229.011V229.118H263.254V231H253.68ZM271.01 231.241C269.888 231.237 268.929 230.941 268.134 230.354C267.338 229.767 266.73 228.912 266.308 227.79C265.887 226.668 265.676 225.316 265.676 223.734C265.676 222.158 265.887 220.811 266.308 219.693C266.734 218.576 267.345 217.723 268.141 217.136C268.941 216.549 269.897 216.256 271.01 216.256C272.123 216.256 273.077 216.552 273.872 217.143C274.668 217.731 275.276 218.583 275.697 219.7C276.124 220.813 276.337 222.158 276.337 223.734C276.337 225.321 276.126 226.675 275.705 227.797C275.283 228.914 274.675 229.769 273.879 230.361C273.084 230.948 272.127 231.241 271.01 231.241ZM271.01 229.345C271.995 229.345 272.764 228.865 273.318 227.903C273.877 226.942 274.156 225.553 274.156 223.734C274.156 222.527 274.028 221.507 273.773 220.673C273.522 219.835 273.16 219.201 272.686 218.77C272.217 218.334 271.659 218.116 271.01 218.116C270.03 218.116 269.26 218.599 268.702 219.565C268.143 220.531 267.861 221.921 267.857 223.734C267.857 224.946 267.982 225.972 268.233 226.81C268.489 227.643 268.851 228.275 269.32 228.706C269.788 229.132 270.352 229.345 271.01 229.345ZM279.055 231V216.455H281.25V229.111H287.841V231H279.055ZM290.344 231V216.455H295.529C296.66 216.455 297.598 216.661 298.341 217.072C299.085 217.484 299.641 218.048 300.01 218.763C300.38 219.473 300.564 220.273 300.564 221.163C300.564 222.058 300.377 222.863 300.003 223.578C299.634 224.288 299.075 224.852 298.327 225.268C297.584 225.68 296.649 225.886 295.522 225.886H291.956V224.026H295.323C296.038 224.026 296.618 223.902 297.063 223.656C297.508 223.405 297.835 223.064 298.043 222.634C298.251 222.203 298.355 221.713 298.355 221.163C298.355 220.614 298.251 220.126 298.043 219.7C297.835 219.274 297.506 218.94 297.056 218.699C296.611 218.457 296.024 218.337 295.294 218.337H292.539V231H290.344ZM302.823 231H300.493L305.728 216.455H308.263L313.498 231H311.168L307.056 219.097H306.942L302.823 231ZM303.213 225.304H310.77V227.151H303.213V225.304Z" fill="white"/>
<g filter="url(#filter2_b_1794_847)">
<path d="M0 262H178C200.091 262 218 279.909 218 302V308H0V262Z" fill="white" fill-opacity="0.15"/>
<path d="M42.489 290.169C41.7035 290.166 41.0323 289.959 40.4755 289.548C39.9187 289.137 39.4928 288.538 39.1978 287.753C38.9028 286.967 38.7553 286.021 38.7553 284.914C38.7553 283.81 38.9028 282.867 39.1978 282.085C39.4961 281.303 39.9237 280.706 40.4805 280.295C41.0406 279.884 41.7101 279.679 42.489 279.679C43.2679 279.679 43.9357 279.886 44.4925 280.3C45.0494 280.711 45.4753 281.308 45.7702 282.09C46.0685 282.869 46.2177 283.81 46.2177 284.914C46.2177 286.024 46.0702 286.972 45.7752 287.758C45.4802 288.54 45.0543 289.138 44.4975 289.553C43.9407 289.964 43.2712 290.169 42.489 290.169ZM42.489 288.842C43.1784 288.842 43.717 288.505 44.1048 287.832C44.4959 287.16 44.6914 286.187 44.6914 284.914C44.6914 284.069 44.6019 283.355 44.4229 282.771C44.2473 282.185 43.9937 281.741 43.6623 281.439C43.3342 281.134 42.9431 280.982 42.489 280.982C41.8029 280.982 41.2643 281.32 40.8732 281.996C40.4821 282.672 40.2849 283.645 40.2816 284.914C40.2816 285.763 40.3694 286.48 40.5451 287.067C40.7241 287.65 40.9776 288.093 41.3058 288.394C41.6339 288.692 42.0283 288.842 42.489 288.842ZM52.5005 284.263V285.555H47.9863V284.263H52.5005ZM54.248 288.011V286.768L58.6479 279.818H59.6273V281.648H59.0059L55.8588 286.629V286.709H61.8894V288.011H54.248ZM59.0755 290V287.634L59.0854 287.067V279.818H60.5421V290H59.0755ZM68.2866 292.864C68.0645 292.864 67.8623 292.845 67.68 292.809C67.4978 292.776 67.3619 292.739 67.2724 292.7L67.6303 291.482C67.9021 291.554 68.1441 291.586 68.3562 291.576C68.5683 291.566 68.7556 291.487 68.918 291.337C69.0837 291.188 69.2295 290.945 69.3555 290.607L69.5394 290.099L66.7454 282.364H68.3363L70.2702 288.29H70.3498L72.2837 282.364H73.8796L70.7326 291.019C70.5868 291.417 70.4012 291.753 70.1758 292.028C69.9504 292.307 69.6819 292.516 69.3704 292.655C69.0588 292.794 68.6976 292.864 68.2866 292.864ZM78.3081 290.154C77.5557 290.154 76.9077 289.993 76.3642 289.672C75.8239 289.347 75.4063 288.891 75.1113 288.305C74.8197 287.715 74.6738 287.024 74.6738 286.232C74.6738 285.449 74.8197 284.76 75.1113 284.163C75.4063 283.567 75.8173 283.101 76.3443 282.766C76.8746 282.432 77.4944 282.264 78.2037 282.264C78.6345 282.264 79.0521 282.335 79.4565 282.478C79.8609 282.621 80.2238 282.844 80.5453 283.149C80.8668 283.454 81.1203 283.85 81.3059 284.337C81.4915 284.821 81.5843 285.41 81.5843 286.102V286.629H75.514V285.516H80.1277C80.1277 285.125 80.0481 284.778 79.889 284.477C79.7299 284.172 79.5062 283.931 79.2179 283.756C78.9328 283.58 78.5981 283.492 78.2136 283.492C77.796 283.492 77.4314 283.595 77.1199 283.8C76.8116 284.003 76.573 284.268 76.4039 284.596C76.2382 284.921 76.1554 285.274 76.1554 285.655V286.525C76.1554 287.035 76.2449 287.469 76.4238 287.827C76.6061 288.185 76.8597 288.459 77.1845 288.648C77.5093 288.833 77.8888 288.926 78.323 288.926C78.6047 288.926 78.8616 288.886 79.0936 288.807C79.3256 288.724 79.5261 288.601 79.6951 288.439C79.8642 288.277 79.9934 288.076 80.0829 287.837L81.4899 288.091C81.3772 288.505 81.175 288.868 80.8833 289.18C80.595 289.488 80.2321 289.728 79.7946 289.901C79.3604 290.07 78.8649 290.154 78.3081 290.154ZM85.456 290.169C84.9721 290.169 84.5346 290.08 84.1435 289.901C83.7524 289.718 83.4425 289.455 83.2138 289.11C82.9884 288.765 82.8757 288.343 82.8757 287.842C82.8757 287.411 82.9586 287.057 83.1243 286.778C83.29 286.5 83.5137 286.28 83.7955 286.117C84.0772 285.955 84.392 285.832 84.7401 285.749C85.0881 285.666 85.4427 285.603 85.804 285.56C86.2614 285.507 86.6326 285.464 86.9176 285.431C87.2027 285.395 87.4098 285.337 87.5391 285.257C87.6683 285.178 87.733 285.048 87.733 284.869V284.835C87.733 284.4 87.6103 284.064 87.3651 283.825C87.1231 283.587 86.7618 283.467 86.2812 283.467C85.7808 283.467 85.3864 283.578 85.098 283.8C84.813 284.019 84.6158 284.263 84.5064 284.531L83.1094 284.213C83.2751 283.749 83.517 283.375 83.8352 283.089C84.1567 282.801 84.5263 282.592 84.9439 282.463C85.3615 282.33 85.8007 282.264 86.2614 282.264C86.5663 282.264 86.8894 282.301 87.2308 282.374C87.5755 282.443 87.897 282.572 88.1953 282.761C88.4969 282.95 88.7438 283.22 88.9361 283.572C89.1283 283.92 89.2244 284.372 89.2244 284.929V290H87.7727V288.956H87.7131C87.617 289.148 87.4728 289.337 87.2805 289.523C87.0883 289.708 86.8414 289.862 86.5398 289.985C86.2382 290.108 85.8769 290.169 85.456 290.169ZM85.7791 288.976C86.1901 288.976 86.5414 288.895 86.8331 288.732C87.1281 288.57 87.3518 288.358 87.5043 288.096C87.66 287.831 87.7379 287.547 87.7379 287.246V286.261C87.6849 286.314 87.5821 286.364 87.4297 286.411C87.2805 286.454 87.1098 286.492 86.9176 286.525C86.7254 286.555 86.5381 286.583 86.3558 286.609C86.1735 286.633 86.0211 286.652 85.8984 286.669C85.6101 286.705 85.3466 286.767 85.108 286.853C84.8726 286.939 84.6837 287.063 84.5412 287.226C84.402 287.385 84.3324 287.597 84.3324 287.862C84.3324 288.23 84.4683 288.509 84.7401 288.697C85.0118 288.883 85.3582 288.976 85.7791 288.976ZM91.2044 290V282.364H92.6412V283.577H92.7207C92.8599 283.166 93.1052 282.843 93.4565 282.607C93.8111 282.369 94.2122 282.249 94.6596 282.249C94.7524 282.249 94.8618 282.253 94.9877 282.259C95.117 282.266 95.2181 282.274 95.291 282.284V283.706C95.2314 283.689 95.1253 283.671 94.9728 283.651C94.8204 283.628 94.6679 283.616 94.5154 283.616C94.1641 283.616 93.8509 283.691 93.5758 283.84C93.304 283.986 93.0886 284.19 92.9295 284.452C92.7704 284.71 92.6909 285.005 92.6909 285.337V290H91.2044ZM102.3 284.228L100.952 284.467C100.896 284.294 100.807 284.13 100.684 283.974C100.565 283.819 100.402 283.691 100.197 283.592C99.9912 283.492 99.7344 283.442 99.4261 283.442C99.0052 283.442 98.6539 283.537 98.3722 283.726C98.0904 283.911 97.9496 284.152 97.9496 284.447C97.9496 284.702 98.044 284.907 98.233 285.063C98.4219 285.219 98.7268 285.347 99.1477 285.446L100.361 285.724C101.063 285.887 101.587 286.137 101.932 286.475C102.277 286.813 102.449 287.252 102.449 287.793C102.449 288.25 102.316 288.658 102.051 289.016C101.789 289.37 101.423 289.649 100.952 289.851C100.485 290.053 99.9432 290.154 99.3267 290.154C98.4716 290.154 97.7739 289.972 97.2337 289.607C96.6934 289.239 96.362 288.717 96.2393 288.041L97.6761 287.822C97.7656 288.197 97.9496 288.48 98.228 288.673C98.5064 288.862 98.8693 288.956 99.3168 288.956C99.804 288.956 100.193 288.855 100.485 288.653C100.777 288.447 100.923 288.197 100.923 287.902C100.923 287.663 100.833 287.463 100.654 287.3C100.478 287.138 100.208 287.015 99.8438 286.933L98.5511 286.649C97.8385 286.487 97.3116 286.228 96.9702 285.874C96.6321 285.519 96.4631 285.07 96.4631 284.526C96.4631 284.076 96.589 283.681 96.8409 283.343C97.0928 283.005 97.4408 282.741 97.8849 282.553C98.3291 282.36 98.8378 282.264 99.4112 282.264C100.237 282.264 100.886 282.443 101.36 282.801C101.834 283.156 102.147 283.631 102.3 284.228ZM111.08 290.154C110.327 290.154 109.679 289.993 109.136 289.672C108.595 289.347 108.178 288.891 107.883 288.305C107.591 287.715 107.445 287.024 107.445 286.232C107.445 285.449 107.591 284.76 107.883 284.163C108.178 283.567 108.589 283.101 109.116 282.766C109.646 282.432 110.266 282.264 110.975 282.264C111.406 282.264 111.824 282.335 112.228 282.478C112.632 282.621 112.995 282.844 113.317 283.149C113.638 283.454 113.892 283.85 114.077 284.337C114.263 284.821 114.356 285.41 114.356 286.102V286.629H108.286V285.516H112.899C112.899 285.125 112.82 284.778 112.661 284.477C112.501 284.172 112.278 283.931 111.989 283.756C111.704 283.58 111.37 283.492 110.985 283.492C110.567 283.492 110.203 283.595 109.891 283.8C109.583 284.003 109.344 284.268 109.175 284.596C109.01 284.921 108.927 285.274 108.927 285.655V286.525C108.927 287.035 109.016 287.469 109.195 287.827C109.378 288.185 109.631 288.459 109.956 288.648C110.281 288.833 110.66 288.926 111.094 288.926C111.376 288.926 111.633 288.886 111.865 288.807C112.097 288.724 112.298 288.601 112.467 288.439C112.636 288.277 112.765 288.076 112.854 287.837L114.261 288.091C114.149 288.505 113.946 288.868 113.655 289.18C113.366 289.488 113.004 289.728 112.566 289.901C112.132 290.07 111.636 290.154 111.08 290.154ZM117.001 282.364L118.686 285.337L120.386 282.364H122.012L119.631 286.182L122.032 290H120.406L118.686 287.146L116.971 290H115.34L117.717 286.182L115.37 282.364H117.001ZM123.538 292.864V282.364H124.99V283.602H125.114C125.201 283.442 125.325 283.259 125.487 283.05C125.65 282.841 125.875 282.659 126.163 282.503C126.452 282.344 126.833 282.264 127.307 282.264C127.923 282.264 128.473 282.42 128.957 282.732C129.441 283.043 129.821 283.492 130.096 284.079C130.374 284.665 130.513 285.371 130.513 286.197C130.513 287.022 130.376 287.73 130.101 288.32C129.826 288.906 129.448 289.359 128.967 289.677C128.487 289.992 127.938 290.149 127.322 290.149C126.858 290.149 126.478 290.071 126.183 289.915C125.892 289.76 125.663 289.577 125.497 289.369C125.331 289.16 125.204 288.974 125.114 288.812H125.025V292.864H123.538ZM124.995 286.182C124.995 286.719 125.073 287.189 125.229 287.594C125.384 287.998 125.61 288.315 125.905 288.543C126.2 288.769 126.561 288.881 126.989 288.881C127.433 288.881 127.804 288.764 128.102 288.528C128.401 288.29 128.626 287.967 128.778 287.559C128.934 287.151 129.012 286.692 129.012 286.182C129.012 285.678 128.936 285.226 128.783 284.825C128.634 284.424 128.409 284.107 128.107 283.875C127.809 283.643 127.436 283.527 126.989 283.527C126.558 283.527 126.193 283.638 125.895 283.86C125.6 284.082 125.376 284.392 125.224 284.79C125.071 285.187 124.995 285.652 124.995 286.182ZM135.47 290.154C134.718 290.154 134.07 289.993 133.526 289.672C132.986 289.347 132.568 288.891 132.273 288.305C131.982 287.715 131.836 287.024 131.836 286.232C131.836 285.449 131.982 284.76 132.273 284.163C132.568 283.567 132.979 283.101 133.506 282.766C134.037 282.432 134.656 282.264 135.366 282.264C135.797 282.264 136.214 282.335 136.619 282.478C137.023 282.621 137.386 282.844 137.707 283.149C138.029 283.454 138.282 283.85 138.468 284.337C138.654 284.821 138.746 285.41 138.746 286.102V286.629H132.676V285.516H137.29C137.29 285.125 137.21 284.778 137.051 284.477C136.892 284.172 136.668 283.931 136.38 283.756C136.095 283.58 135.76 283.492 135.376 283.492C134.958 283.492 134.594 283.595 134.282 283.8C133.974 284.003 133.735 284.268 133.566 284.596C133.4 284.921 133.317 285.274 133.317 285.655V286.525C133.317 287.035 133.407 287.469 133.586 287.827C133.768 288.185 134.022 288.459 134.347 288.648C134.671 288.833 135.051 288.926 135.485 288.926C135.767 288.926 136.024 288.886 136.256 288.807C136.488 288.724 136.688 288.601 136.857 288.439C137.026 288.277 137.156 288.076 137.245 287.837L138.652 288.091C138.539 288.505 138.337 288.868 138.045 289.18C137.757 289.488 137.394 289.728 136.957 289.901C136.522 290.07 136.027 290.154 135.47 290.154ZM140.396 290V282.364H141.833V283.577H141.912C142.051 283.166 142.297 282.843 142.648 282.607C143.003 282.369 143.404 282.249 143.851 282.249C143.944 282.249 144.053 282.253 144.179 282.259C144.308 282.266 144.41 282.274 144.482 282.284V283.706C144.423 283.689 144.317 283.671 144.164 283.651C144.012 283.628 143.859 283.616 143.707 283.616C143.356 283.616 143.042 283.691 142.767 283.84C142.495 283.986 142.28 284.19 142.121 284.452C141.962 284.71 141.882 285.005 141.882 285.337V290H140.396ZM145.769 290V282.364H147.255V290H145.769ZM146.52 281.185C146.261 281.185 146.039 281.099 145.853 280.927C145.671 280.751 145.58 280.542 145.58 280.3C145.58 280.055 145.671 279.846 145.853 279.674C146.039 279.498 146.261 279.411 146.52 279.411C146.778 279.411 146.998 279.498 147.181 279.674C147.366 279.846 147.459 280.055 147.459 280.3C147.459 280.542 147.366 280.751 147.181 280.927C146.998 281.099 146.778 281.185 146.52 281.185ZM152.546 290.154C151.794 290.154 151.146 289.993 150.602 289.672C150.062 289.347 149.645 288.891 149.35 288.305C149.058 287.715 148.912 287.024 148.912 286.232C148.912 285.449 149.058 284.76 149.35 284.163C149.645 283.567 150.056 283.101 150.583 282.766C151.113 282.432 151.733 282.264 152.442 282.264C152.873 282.264 153.29 282.335 153.695 282.478C154.099 282.621 154.462 282.844 154.784 283.149C155.105 283.454 155.359 283.85 155.544 284.337C155.73 284.821 155.823 285.41 155.823 286.102V286.629H149.752V285.516H154.366C154.366 285.125 154.286 284.778 154.127 284.477C153.968 284.172 153.744 283.931 153.456 283.756C153.171 283.58 152.836 283.492 152.452 283.492C152.034 283.492 151.67 283.595 151.358 283.8C151.05 284.003 150.811 284.268 150.642 284.596C150.477 284.921 150.394 285.274 150.394 285.655V286.525C150.394 287.035 150.483 287.469 150.662 287.827C150.844 288.185 151.098 288.459 151.423 288.648C151.748 288.833 152.127 288.926 152.561 288.926C152.843 288.926 153.1 288.886 153.332 288.807C153.564 288.724 153.764 288.601 153.933 288.439C154.102 288.277 154.232 288.076 154.321 287.837L155.728 288.091C155.615 288.505 155.413 288.868 155.122 289.18C154.833 289.488 154.47 289.728 154.033 289.901C153.599 290.07 153.103 290.154 152.546 290.154ZM158.958 285.466V290H157.472V282.364H158.899V283.607H158.993C159.169 283.202 159.444 282.877 159.819 282.632C160.196 282.387 160.672 282.264 161.245 282.264C161.766 282.264 162.221 282.374 162.613 282.592C163.004 282.808 163.307 283.129 163.522 283.557C163.738 283.984 163.846 284.513 163.846 285.143V290H162.359V285.322C162.359 284.768 162.215 284.336 161.926 284.024C161.638 283.709 161.242 283.552 160.738 283.552C160.394 283.552 160.087 283.626 159.819 283.776C159.553 283.925 159.343 284.143 159.187 284.432C159.035 284.717 158.958 285.062 158.958 285.466ZM169.056 290.154C168.317 290.154 167.68 289.987 167.147 289.652C166.616 289.314 166.209 288.848 165.924 288.255C165.639 287.662 165.496 286.982 165.496 286.217C165.496 285.441 165.642 284.757 165.934 284.163C166.225 283.567 166.636 283.101 167.167 282.766C167.697 282.432 168.322 282.264 169.041 282.264C169.621 282.264 170.138 282.372 170.592 282.587C171.046 282.799 171.412 283.098 171.691 283.482C171.972 283.867 172.14 284.316 172.193 284.83H170.746C170.667 284.472 170.484 284.163 170.199 283.905C169.917 283.646 169.54 283.517 169.066 283.517C168.651 283.517 168.288 283.626 167.977 283.845C167.669 284.061 167.428 284.369 167.256 284.77C167.084 285.168 166.998 285.638 166.998 286.182C166.998 286.739 167.082 287.219 167.251 287.624C167.42 288.028 167.659 288.341 167.967 288.563C168.279 288.785 168.645 288.896 169.066 288.896C169.347 288.896 169.603 288.845 169.831 288.742C170.063 288.636 170.257 288.485 170.413 288.29C170.572 288.094 170.683 287.859 170.746 287.584H172.193C172.14 288.078 171.979 288.518 171.711 288.906C171.442 289.294 171.083 289.599 170.632 289.821C170.184 290.043 169.659 290.154 169.056 290.154ZM177.074 290.154C176.321 290.154 175.673 289.993 175.13 289.672C174.59 289.347 174.172 288.891 173.877 288.305C173.585 287.715 173.439 287.024 173.439 286.232C173.439 285.449 173.585 284.76 173.877 284.163C174.172 283.567 174.583 283.101 175.11 282.766C175.64 282.432 176.26 282.264 176.969 282.264C177.4 282.264 177.818 282.335 178.222 282.478C178.626 282.621 178.989 282.844 179.311 283.149C179.632 283.454 179.886 283.85 180.072 284.337C180.257 284.821 180.35 285.41 180.35 286.102V286.629H174.28V285.516H178.893C178.893 285.125 178.814 284.778 178.655 284.477C178.496 284.172 178.272 283.931 177.983 283.756C177.698 283.58 177.364 283.492 176.979 283.492C176.562 283.492 176.197 283.595 175.885 283.8C175.577 284.003 175.339 284.268 175.17 284.596C175.004 284.921 174.921 285.274 174.921 285.655V286.525C174.921 287.035 175.01 287.469 175.189 287.827C175.372 288.185 175.625 288.459 175.95 288.648C176.275 288.833 176.654 288.926 177.089 288.926C177.37 288.926 177.627 288.886 177.859 288.807C178.091 288.724 178.292 288.601 178.461 288.439C178.63 288.277 178.759 288.076 178.849 287.837L180.256 288.091C180.143 288.505 179.941 288.868 179.649 289.18C179.361 289.488 178.998 289.728 178.56 289.901C178.126 290.07 177.631 290.154 177.074 290.154Z" fill="white"/>
</g>
<g filter="url(#filter3_d_1794_847)">
<rect x="890" y="234" width="138" height="39" rx="19.5" fill="#FFF7F7" shape-rendering="crispEdges"/>
<path d="M917.023 259V247.364H919.131V252.71H919.273L923.812 247.364H926.386L921.886 252.585L926.426 259H923.892L920.42 254.011L919.131 255.534V259H917.023ZM929.817 253.886V259H927.76V250.273H929.726V251.756H929.828C930.029 251.267 930.349 250.879 930.788 250.591C931.232 250.303 931.779 250.159 932.43 250.159C933.033 250.159 933.557 250.288 934.004 250.545C934.455 250.803 934.804 251.176 935.05 251.665C935.3 252.153 935.423 252.746 935.419 253.443V259H933.362V253.761C933.362 253.178 933.211 252.722 932.908 252.392C932.608 252.062 932.194 251.898 931.663 251.898C931.304 251.898 930.983 251.977 930.703 252.136C930.427 252.292 930.209 252.517 930.05 252.812C929.894 253.108 929.817 253.466 929.817 253.886ZM941.317 259.17C940.464 259.17 939.726 258.983 939.101 258.608C938.476 258.233 937.991 257.708 937.646 257.034C937.305 256.36 937.135 255.572 937.135 254.67C937.135 253.769 937.305 252.979 937.646 252.301C937.991 251.623 938.476 251.097 939.101 250.722C939.726 250.347 940.464 250.159 941.317 250.159C942.169 250.159 942.908 250.347 943.533 250.722C944.158 251.097 944.641 251.623 944.982 252.301C945.326 252.979 945.499 253.769 945.499 254.67C945.499 255.572 945.326 256.36 944.982 257.034C944.641 257.708 944.158 258.233 943.533 258.608C942.908 258.983 942.169 259.17 941.317 259.17ZM941.328 257.523C941.79 257.523 942.177 257.396 942.487 257.142C942.798 256.884 943.029 256.54 943.18 256.108C943.336 255.676 943.413 255.195 943.413 254.665C943.413 254.131 943.336 253.648 943.18 253.216C943.029 252.78 942.798 252.434 942.487 252.176C942.177 251.919 941.79 251.79 941.328 251.79C940.855 251.79 940.461 251.919 940.146 252.176C939.836 252.434 939.603 252.78 939.447 253.216C939.296 253.648 939.22 254.131 939.22 254.665C939.22 255.195 939.296 255.676 939.447 256.108C939.603 256.54 939.836 256.884 940.146 257.142C940.461 257.396 940.855 257.523 941.328 257.523ZM948.795 259L946.33 250.273H948.426L949.96 256.409H950.04L951.608 250.273H953.682L955.25 256.375H955.335L956.847 250.273H958.949L956.477 259H954.335L952.699 253.102H952.58L950.943 259H948.795ZM964.445 247.364H967.024L970.479 255.795H970.615L974.07 247.364H976.649V259H974.626V251.006H974.518L971.303 258.966H969.791L966.575 250.989H966.467V259H964.445V247.364ZM982.661 259.17C981.808 259.17 981.07 258.983 980.445 258.608C979.82 258.233 979.335 257.708 978.99 257.034C978.649 256.36 978.479 255.572 978.479 254.67C978.479 253.769 978.649 252.979 978.99 252.301C979.335 251.623 979.82 251.097 980.445 250.722C981.07 250.347 981.808 250.159 982.661 250.159C983.513 250.159 984.251 250.347 984.876 250.722C985.501 251.097 985.984 251.623 986.325 252.301C986.67 252.979 986.842 253.769 986.842 254.67C986.842 255.572 986.67 256.36 986.325 257.034C985.984 257.708 985.501 258.233 984.876 258.608C984.251 258.983 983.513 259.17 982.661 259.17ZM982.672 257.523C983.134 257.523 983.52 257.396 983.831 257.142C984.142 256.884 984.373 256.54 984.524 256.108C984.679 255.676 984.757 255.195 984.757 254.665C984.757 254.131 984.679 253.648 984.524 253.216C984.373 252.78 984.142 252.434 983.831 252.176C983.52 251.919 983.134 251.79 982.672 251.79C982.198 251.79 981.804 251.919 981.49 252.176C981.179 252.434 980.946 252.78 980.791 253.216C980.64 253.648 980.564 254.131 980.564 254.665C980.564 255.195 980.64 255.676 980.791 256.108C980.946 256.54 981.179 256.884 981.49 257.142C981.804 257.396 982.198 257.523 982.672 257.523ZM988.588 259V250.273H990.582V251.727H990.673C990.832 251.223 991.105 250.835 991.491 250.562C991.882 250.286 992.327 250.148 992.827 250.148C992.94 250.148 993.067 250.153 993.207 250.165C993.351 250.172 993.471 250.186 993.565 250.205V252.097C993.478 252.066 993.34 252.04 993.151 252.017C992.965 251.991 992.785 251.977 992.611 251.977C992.236 251.977 991.899 252.059 991.599 252.222C991.304 252.381 991.071 252.602 990.901 252.886C990.73 253.17 990.645 253.498 990.645 253.869V259H988.588ZM998.436 259.17C997.561 259.17 996.805 258.989 996.169 258.625C995.536 258.258 995.05 257.739 994.709 257.068C994.368 256.394 994.197 255.6 994.197 254.688C994.197 253.79 994.368 253.002 994.709 252.324C995.054 251.642 995.535 251.112 996.152 250.733C996.769 250.35 997.495 250.159 998.328 250.159C998.866 250.159 999.374 250.246 999.851 250.42C1000.33 250.591 1000.76 250.856 1001.12 251.216C1001.49 251.576 1001.79 252.034 1002 252.591C1002.21 253.144 1002.32 253.803 1002.32 254.568V255.199H995.163V253.812H1000.35C1000.34 253.419 1000.26 253.068 1000.09 252.761C999.923 252.451 999.69 252.206 999.391 252.028C999.095 251.85 998.75 251.761 998.357 251.761C997.936 251.761 997.567 251.864 997.249 252.068C996.93 252.269 996.682 252.534 996.504 252.864C996.33 253.189 996.241 253.547 996.237 253.938V255.148C996.237 255.655 996.33 256.091 996.516 256.455C996.701 256.814 996.961 257.091 997.294 257.284C997.627 257.473 998.018 257.568 998.464 257.568C998.764 257.568 999.035 257.527 999.277 257.443C999.519 257.356 999.73 257.229 999.908 257.062C1000.09 256.896 1000.22 256.689 1000.31 256.443L1002.23 256.659C1002.11 257.167 1001.88 257.61 1001.54 257.989C1001.2 258.364 1000.77 258.655 1000.24 258.864C999.716 259.068 999.114 259.17 998.436 259.17Z" fill="#4F4EB9"/>
</g>
<g clip-path="url(#clip1_1794_847)">
<path d="M855.593 -113.397C778.048 -113.397 782.89 -79.7692 782.89 -79.7692L782.976 -44.9298H856.975V-34.4701H753.585C753.585 -34.4701 703.964 -40.0977 703.964 38.1438C703.964 116.388 747.274 113.613 747.274 113.613H773.122V77.3046C773.122 77.3046 771.728 33.9946 815.74 33.9946H889.134C889.134 33.9946 930.369 34.6608 930.369 -5.85754V-72.8523C930.369 -72.8523 936.632 -113.397 855.593 -113.397ZM814.789 -89.9682C816.538 -89.9698 818.27 -89.6265 819.886 -88.958C821.502 -88.2896 822.97 -87.3091 824.206 -86.0726C825.443 -84.8361 826.423 -83.368 827.092 -81.7521C827.76 -80.1363 828.103 -78.4045 828.102 -76.6558C828.103 -74.9072 827.76 -73.1754 827.092 -71.5596C826.423 -69.9437 825.443 -68.4755 824.206 -67.2391C822.97 -66.0026 821.502 -65.0221 819.886 -64.3536C818.27 -63.6852 816.538 -63.3419 814.789 -63.3435C813.041 -63.3419 811.309 -63.6852 809.693 -64.3536C808.077 -65.0221 806.609 -66.0026 805.373 -67.2391C804.136 -68.4755 803.156 -69.9437 802.487 -71.5596C801.819 -73.1754 801.476 -74.9072 801.477 -76.6558C801.476 -78.4045 801.819 -80.1363 802.487 -81.7521C803.156 -83.368 804.136 -84.8361 805.373 -86.0726C806.609 -87.3091 808.077 -88.2896 809.693 -88.958C811.309 -89.6265 813.041 -89.9698 814.789 -89.9682Z" fill="url(#paint8_linear_1794_847)"/>
<path d="M857.795 190.468C935.339 190.468 930.498 156.84 930.498 156.84L930.411 122.002H856.411V111.543H959.801C959.801 111.543 1009.42 117.17 1009.42 38.9262C1009.42 -39.3164 966.112 -36.5415 966.112 -36.5415H940.265V-0.234577C940.265 -0.234577 941.658 43.0754 897.646 43.0754H824.252C824.252 43.0754 783.017 42.4092 783.017 82.9288V149.925C783.017 149.925 776.756 190.468 857.794 190.468M898.597 167.042C896.848 167.043 895.116 166.7 893.501 166.032C891.885 165.363 890.417 164.383 889.18 163.146C887.944 161.91 886.963 160.442 886.295 158.826C885.626 157.21 885.283 155.478 885.285 153.729C885.283 151.981 885.626 150.249 886.294 148.633C886.963 147.017 887.943 145.548 889.18 144.312C890.416 143.075 891.884 142.095 893.5 141.426C895.116 140.758 896.848 140.414 898.597 140.416C900.346 140.414 902.077 140.758 903.693 141.426C905.309 142.094 906.777 143.075 908.014 144.311C909.25 145.548 910.231 147.016 910.899 148.632C911.568 150.248 911.911 151.98 911.909 153.728C911.911 155.477 911.568 157.209 910.899 158.825C910.231 160.44 909.25 161.909 908.014 163.145C906.777 164.381 905.309 165.362 903.693 166.03C902.077 166.699 900.346 167.043 898.597 167.042Z" fill="url(#paint9_linear_1794_847)"/>
</g>
</g>
<defs>
<filter id="filter0_b_1794_847" x="-109" y="-25" width="353.5" height="227" filterUnits="userSpaceOnUse" color-interpolation-filters="sRGB">
<feFlood flood-opacity="0" result="BackgroundImageFix"/>
<feGaussianBlur in="BackgroundImageFix" stdDeviation="5"/>
<feComposite in2="SourceAlpha" operator="in" result="effect1_backgroundBlur_1794_847"/>
<feBlend mode="normal" in="SourceGraphic" in2="effect1_backgroundBlur_1794_847" result="shape"/>
</filter>
<filter id="filter1_bd_1794_847" x="37" y="29.8333" width="198" height="77" filterUnits="userSpaceOnUse" color-interpolation-filters="sRGB">
<feFlood flood-opacity="0" result="BackgroundImageFix"/>
<feGaussianBlur in="BackgroundImageFix" stdDeviation="5"/>
<feComposite in2="SourceAlpha" operator="in" result="effect1_backgroundBlur_1794_847"/>
<feColorMatrix in="SourceAlpha" type="matrix" values="0 0 0 0 0 0 0 0 0 0 0 0 0 0 0 0 0 0 127 0" result="hardAlpha"/>
<feOffset dy="5.83333"/>
<feGaussianBlur stdDeviation="12.5"/>
<feComposite in2="hardAlpha" operator="out"/>
<feColorMatrix type="matrix" values="0 0 0 0 0.385 0 0 0 0 0.385 0 0 0 0 0.385 0 0 0 0.2 0"/>
<feBlend mode="normal" in2="effect1_backgroundBlur_1794_847" result="effect2_dropShadow_1794_847"/>
<feBlend mode="normal" in="SourceGraphic" in2="effect2_dropShadow_1794_847" result="shape"/>
</filter>
<filter id="filter2_b_1794_847" x="-10" y="252" width="238" height="66" filterUnits="userSpaceOnUse" color-interpolation-filters="sRGB">
<feFlood flood-opacity="0" result="BackgroundImageFix"/>
<feGaussianBlur in="BackgroundImageFix" stdDeviation="5"/>
<feComposite in2="SourceAlpha" operator="in" result="effect1_backgroundBlur_1794_847"/>
<feBlend mode="normal" in="SourceGraphic" in2="effect1_backgroundBlur_1794_847" result="shape"/>
</filter>
<filter id="filter3_d_1794_847" x="865" y="214.833" width="188" height="89" filterUnits="userSpaceOnUse" color-interpolation-filters="sRGB">
<feFlood flood-opacity="0" result="BackgroundImageFix"/>
<feColorMatrix in="SourceAlpha" type="matrix" values="0 0 0 0 0 0 0 0 0 0 0 0 0 0 0 0 0 0 127 0" result="hardAlpha"/>
<feOffset dy="5.83333"/>
<feGaussianBlur stdDeviation="12.5"/>
<feComposite in2="hardAlpha" operator="out"/>
<feColorMatrix type="matrix" values="0 0 0 0 0.385 0 0 0 0 0.385 0 0 0 0 0.385 0 0 0 0.2 0"/>
<feBlend mode="normal" in2="BackgroundImageFix" result="effect1_dropShadow_1794_847"/>
<feBlend mode="normal" in="SourceGraphic" in2="effect1_dropShadow_1794_847" result="shape"/>
</filter>
<linearGradient id="paint0_linear_1794_847" x1="475" y1="457.5" x2="605.495" y2="-123.388" gradientUnits="userSpaceOnUse">
<stop offset="0.03375" stop-color="#5A55CB"/>
<stop offset="1" stop-color="#3F3AB4"/>
</linearGradient>
<linearGradient id="paint1_linear_1794_847" x1="536.607" y1="407.998" x2="1084.56" y2="733.844" gradientUnits="userSpaceOnUse">
<stop offset="0.0262783" stop-color="#1893BC"/>
<stop offset="0.454154" stop-color="#1798C3" stop-opacity="0"/>
</linearGradient>
<linearGradient id="paint2_linear_1794_847" x1="5" y1="51" x2="698.86" y2="303.335" gradientUnits="userSpaceOnUse">
<stop stop-color="#4D47BD" stop-opacity="0"/>
<stop offset="0.424" stop-color="#D7B945"/>
<stop offset="0.90265" stop-color="#8F829D" stop-opacity="0"/>
</linearGradient>
<linearGradient id="paint3_linear_1794_847" x1="-75" y1="101" x2="676.015" y2="366.103" gradientUnits="userSpaceOnUse">
<stop stop-color="#40B69A" stop-opacity="0.5"/>
<stop offset="0.894077" stop-color="#7871AB" stop-opacity="0"/>
</linearGradient>
<linearGradient id="paint4_linear_1794_847" x1="-29.857" y1="118.349" x2="673.07" y2="374.193" gradientUnits="userSpaceOnUse">
<stop stop-color="#159EC9" stop-opacity="0"/>
<stop offset="0.929" stop-color="#5AFF74"/>
</linearGradient>
<linearGradient id="paint5_linear_1794_847" x1="832.5" y1="226.5" x2="220.5" y2="234.5" gradientUnits="userSpaceOnUse">
<stop stop-color="#FFE053"/>
<stop offset="0.744725" stop-color="#5550C7" stop-opacity="0"/>
</linearGradient>
<linearGradient id="paint6_linear_1794_847" x1="67.75" y1="-15" x2="38" y2="184" gradientUnits="userSpaceOnUse">
<stop offset="0.0377139" stop-color="#FFE053"/>
<stop offset="1" stop-color="#544FC5" stop-opacity="0"/>
</linearGradient>
<linearGradient id="paint7_linear_1794_847" x1="210" y1="62.5" x2="62" y2="62.5" gradientUnits="userSpaceOnUse">
<stop offset="0.1" stop-color="#ABE0F8" stop-opacity="0"/>
<stop offset="0.5" stop-color="#ABE0F8"/>
<stop offset="0.9" stop-color="#ABE0F8" stop-opacity="0"/>
</linearGradient>
<linearGradient id="paint8_linear_1794_847" x1="3639.4" y1="2619.72" x2="18776.9" y2="17606.2" gradientUnits="userSpaceOnUse">
<stop stop-color="#387EB8"/>
<stop offset="1" stop-color="#366994"/>
</linearGradient>
<linearGradient id="paint9_linear_1794_847" x1="5115.72" y1="4635.33" x2="21371.7" y2="20002.6" gradientUnits="userSpaceOnUse">
<stop stop-color="#FFE052"/>
<stop offset="1" stop-color="#FFC331"/>
</linearGradient>
<clipPath id="clip0_1794_847">
<rect width="1060" height="308" rx="40" fill="white"/>
</clipPath>
<clipPath id="clip1_1794_847">
<rect width="306.202" height="305" fill="white" transform="translate(703.787 -113.5)"/>
</clipPath>
</defs>
</svg>
