<svg width="1440" height="990" viewBox="0 0 1440 990" fill="none" xmlns="http://www.w3.org/2000/svg">
<g opacity="0.5">
<path d="M1264.69 240.359C1265.56 237.428 1268.2 238.307 1268.2 238.307C1268.2 238.307 1292.68 245.341 1315.94 251.951C1312.73 242.967 1308.09 235.218 1305.02 230.603C1304.36 230.964 1303.61 231.188 1302.8 231.188C1300.23 231.188 1298.15 229.106 1298.15 226.538C1298.15 225.862 1298.3 225.224 1298.56 224.644C1297.03 223.454 1295.16 221.898 1293.39 220.187C1290.21 217.125 1293.5 213.496 1291.8 211.114C1290.1 208.732 1288.17 207.258 1286.24 204.423C1284.32 201.588 1281.82 198.526 1279.55 194.557C1277.29 190.588 1278.42 184.237 1278.42 184.237C1279.89 191.268 1283.3 193.99 1283.3 193.99C1281.37 191.835 1279.55 183.67 1279.55 183.67L1281.26 181.969C1284.2 183.897 1290.21 198.073 1289.65 196.145C1289.08 194.217 1286.93 188.547 1285.68 186.959C1284.43 185.371 1282.39 180.948 1282.39 180.948L1285.34 178.68L1287.49 182.082C1287.49 182.082 1286.25 178.566 1286.7 177.772C1287.15 176.978 1288.4 176.525 1288.4 176.525C1288.4 176.525 1287.83 175.731 1289.31 177.546C1290.78 179.36 1291.91 186.959 1291.91 186.959C1293.16 182.763 1291.46 176.072 1291.46 176.072C1293.05 179.588 1293.84 182.99 1293.62 186.959C1293.39 190.928 1297.02 197.393 1297.02 197.393C1297.93 201.135 1299.74 205.672 1300.42 207.713C1301.1 209.754 1300.76 211.682 1300.65 213.157C1300.53 214.631 1300.76 215.539 1302.01 217.58C1302.77 218.822 1303.27 220.69 1303.55 221.965C1305.76 222.326 1307.45 224.228 1307.45 226.539C1307.45 228.174 1306.6 229.605 1305.33 230.435C1311.62 238.567 1315.45 245.974 1317.72 252.458C1334.37 257.189 1350.07 261.603 1355.26 262.931C1367.86 266.155 1374.02 269.38 1374.02 269.38C1369.92 303.969 1354.97 363.474 1354.97 363.474C1352.04 360.836 1325.36 354.387 1323.9 354.387C1322.43 354.387 1316.27 355.853 1315.1 355.56C1313.93 355.267 1312.76 357.026 1297.51 353.801C1282.27 350.577 1276.12 340.317 1276.12 340.317C1272.01 339.145 1245.34 330.937 1245.34 330.937C1245.34 330.937 1263.81 243.29 1264.69 240.359Z" fill="#ABE0F8" fill-opacity="0.6"/>
<path d="M896.895 433.926C900.329 432.989 899.392 430.492 899.392 430.492L890.652 426.434C890.652 426.434 880.351 431.116 877.23 434.55C874.108 437.984 874.108 436.423 874.108 436.423C874.108 436.423 873.483 434.238 875.357 431.741C877.23 429.244 877.23 425.498 877.854 422.688C878.478 419.879 880.039 412.699 881.912 412.699C883.785 412.699 895.959 409.89 899.08 409.265C902.202 408.641 903.762 403.334 906.884 399.276C910.006 395.218 922.804 377.113 924.053 375.552C925.301 373.991 929.36 368.06 931.232 367.124C931.232 367.124 944.047 383.386 957.217 400.095C958.041 388.32 956.199 374.128 945.904 363.379C936.545 353.607 932.348 347.054 930.629 342.136C930.517 342.14 930.408 342.153 930.296 342.153C925.124 342.153 920.931 337.96 920.931 332.788C920.931 332.192 920.993 331.61 921.099 331.045C920.185 329.941 919.235 328.708 918.298 327.351C914.918 322.452 915.794 321.605 915.293 317.177C914.792 312.749 914.291 311.054 914.417 308.039C914.543 305.024 913.916 302.104 913.165 299.467C912.414 296.829 912.664 294.474 912.289 291.837C911.914 289.199 910.286 286.373 909.66 284.96C909.034 283.547 908.408 281.38 908.033 279.967C907.657 278.554 908.534 275.634 908.534 275.634C908.534 275.634 908.91 277.047 909.786 280.721C910.662 284.395 911.539 283.453 912.666 284.583C913.793 285.713 914.544 287.315 914.794 289.293C915.044 291.271 919.676 302.481 918.8 300.032C917.924 297.583 917.423 294.286 917.047 291.931C916.671 289.576 914.794 285.902 913.416 283.547C912.039 281.192 911.163 276.011 911.788 275.257C912.414 274.503 916.796 274.315 916.796 274.315C916.796 274.315 919.801 280.25 919.801 279.779C919.801 279.308 918.048 274.221 918.048 274.221L919.801 274.032C919.801 274.032 921.804 273.844 922.18 275.068C922.555 276.293 922.43 288.539 922.43 288.539L923.432 289.01C923.557 288.633 924.434 287.22 923.557 283.17C922.681 279.119 924.434 274.409 924.434 274.409C924.434 274.409 924.184 276.482 924.559 280.155C924.935 283.829 926.312 284.017 926.687 286.749C926.958 288.718 926.254 292.488 925.84 294.445C926.319 293.543 927.352 292.43 928.565 289.104C930.318 284.3 928.064 280.72 928.064 280.72C929.817 282.51 931.695 282.039 929.316 287.879C926.937 293.72 923.682 308.886 930.443 319.06C931.675 320.914 932.631 322.534 933.38 323.953C937.035 325.229 939.661 328.697 939.661 332.787C939.661 337.033 936.834 340.613 932.961 341.762C934.627 346.265 937.433 351.359 942.159 356.199C953.948 368.276 960.168 378.245 957.905 400.966C966.934 412.422 976.028 423.96 981.179 430.492C993.977 446.724 991.48 451.094 989.295 455.464C987.11 459.834 968.068 496.044 958.704 500.415L941.847 478.252C941.847 478.252 933.107 480.125 926.239 477.628C919.372 475.131 911.568 472.009 908.134 470.448C904.7 468.887 896.897 465.766 893.775 464.205C890.653 462.644 878.479 447.661 876.606 445.788C874.733 443.915 873.172 443.603 873.172 443.603C873.172 443.603 893.461 434.863 896.895 433.926Z" fill="#ABE0F8" fill-opacity="0.6"/>
<path d="M829.457 134.831C831.263 113.765 830.661 110.756 830.661 110.756C830.661 110.756 841.194 106.543 846.009 107.145C846.009 107.145 853.232 78.857 854.134 75.246C855.037 71.635 856.541 69.528 857.143 73.44C857.143 73.44 883.952 86.28 906.725 97.797C923.254 79.609 916.424 68.447 911.694 63.848C911.123 64.611 910.22 65.112 909.193 65.112C907.463 65.112 906.06 63.709 906.06 61.979C906.06 61.861 906.082 61.749 906.095 61.634C904.48 60.094 902.311 58.126 900.176 57.27C896.778 55.907 889.065 43.838 890.35 44.52C891.636 45.201 892.921 47.635 893.013 48.024C893.105 48.413 902.563 55.421 902.563 55.421C902.563 55.421 901.277 54.253 900.175 52.988C899.073 51.723 898.339 50.36 897.879 49.095C897.42 47.83 894.848 45.98 893.287 45.104C891.726 44.228 891.818 41.308 891.818 41.308C892.277 41.503 894.389 42.963 895.308 43.838C896.226 44.714 897.512 46.077 898.063 46.661C898.614 47.245 900.634 48.316 900.634 48.316C899.44 47.245 899.624 47.051 897.144 44.131C894.665 41.211 893.195 41.016 893.287 40.725C893.379 40.433 895.032 38 895.032 38C895.032 38 897.236 38.097 898.062 38.584C898.889 39.071 898.889 41.017 899.715 42.283C900.542 43.548 903.48 47.344 903.48 47.344C903.388 46.663 904.215 44.716 902.929 44.132C901.643 43.548 899.899 38.584 899.899 38.584C899.899 38.584 903.572 42.867 904.49 44.327C905.408 45.787 905.684 48.317 906.051 50.556C906.418 52.795 907.612 54.936 909.081 56.591C909.703 57.291 910.052 58.211 910.259 59.047C911.461 59.485 912.324 60.627 912.324 61.981C912.324 62.29 912.265 62.582 912.182 62.864C917.831 66.31 918.457 73.726 918.966 78.566C919.287 81.616 914.089 90.059 908.119 98.506C923.734 106.424 937.121 113.571 938.092 115.272C940.5 119.485 938.694 120.689 938.694 120.689L935.384 133.629C935.384 133.629 914.92 212.174 913.415 216.988C913.415 216.988 912.813 219.396 908.299 216.085C903.785 212.775 863.158 194.117 856.538 189.603C849.918 185.089 830.056 176.362 830.056 176.362L832.463 165.829C832.467 165.828 827.652 155.897 829.457 134.831Z" fill="#ABE0F8" fill-opacity="0.6"/>
<path d="M434.196 181.071C432.75 178.059 433.111 176.492 433.111 173.6C433.111 170.708 431.785 167.334 432.147 164.201C432.508 161.068 430.822 151.187 430.822 151.187C432.027 152.392 433.353 155.284 433.955 157.092C434.558 158.9 435.522 162.274 435.16 165.045C434.798 167.817 436.726 176.493 436.726 176.493C435.641 172.275 436.726 169.263 436.606 166.612C436.485 163.961 436.003 158.056 435.039 155.767C434.075 153.477 432.87 151.308 432.87 151.308L436.124 149.501C436.124 149.501 438.655 149.621 439.257 149.983C439.86 150.345 440.342 153.237 440.462 154.803C440.583 156.369 442.752 162.997 442.752 162.997C442.752 162.997 442.27 159.984 441.668 157.333C441.065 154.682 440.342 149.982 440.342 149.982C440.342 149.982 442.511 149.259 442.391 149.62C442.27 149.982 444.56 154.561 444.801 156.85C445.042 159.14 447.934 161.67 449.139 165.767C450.344 169.864 448.777 180.83 448.777 180.83C450.344 178.661 451.549 169.744 451.549 169.744C451.429 171.431 451.79 177.577 449.983 181.071C448.175 184.566 448.657 188.783 449.621 192.519C450.215 194.821 450.214 198.307 450.126 200.648C452.106 201.144 453.578 202.92 453.578 205.054C453.578 206.594 452.809 207.949 451.64 208.774C451.657 208.81 451.666 208.842 451.684 208.878C454.256 214.339 465.317 226.069 477.036 234.514C485.452 240.578 491.663 250.793 494.918 256.749C496.922 247.395 503.716 213.738 504.511 211.197L522.225 216.8L519.695 219.511L517.526 232.525C517.526 232.525 536.867 234.694 538.674 235.236C540.481 235.778 544.277 238.128 545.723 238.67C547.169 239.212 558.014 246.442 556.387 246.985C554.76 247.527 551.687 249.154 551.326 249.696C550.964 250.238 551.145 256.203 549.88 259.095C548.615 261.987 547.892 268.133 547.169 270.483C546.446 272.833 544.277 277.171 543.554 278.436C542.831 279.701 540.12 284.401 539.758 286.208C539.397 288.015 537.408 293.619 537.589 295.788C537.77 297.957 538.131 305.729 536.685 306.995C535.239 308.26 532.889 307.357 532.889 307.357L531.082 310.068C531.082 310.068 523.49 308.441 520.779 308.08C518.068 307.718 502.704 304.465 502.704 304.465C502.704 304.465 501.258 312.599 501.258 314.226C501.258 315.853 501.439 318.926 501.439 318.926L483.906 318.564C483.906 318.564 483.002 312.418 483.906 309.165C484.766 306.069 492.988 265.181 494.248 259.679C492.881 256.597 490.637 251.722 486.075 245.72C479.206 236.682 470.169 230.537 464.746 226.922C459.751 223.592 451.388 211.376 450.099 209.468C449.752 209.552 449.396 209.609 449.024 209.609C446.613 209.609 444.659 207.73 444.499 205.359C442.558 203.383 440.069 200.49 439.983 199.627C439.863 198.422 439.019 192.999 437.934 189.746C436.85 186.492 425.161 174.442 425.161 174.442C429.737 176.492 435.642 184.084 434.196 181.071Z" fill="#ABE0F8" fill-opacity="0.6"/>
<path d="M327.633 394.147L318.15 370.304L405.936 342.668C405.936 342.668 420.575 379.64 428.608 399.85C438.444 402.276 447.764 407.143 453.318 416.346C465.375 436.32 476.891 455.483 483.86 464.716C485.041 464.002 486.421 463.583 487.902 463.583C491.66 463.583 494.796 466.231 495.556 469.762C500.142 472.833 507.375 479.345 507.544 489.612C507.785 504.313 499.591 524.558 501.519 538.536C503.447 552.514 502.242 564.565 501.037 567.939C501.037 567.939 499.35 548.176 498.868 542.392C498.868 542.392 499.591 566.252 492.843 568.18L486.095 566.734C486.095 566.734 488.264 556.371 489.71 549.14C489.71 549.14 484.89 561.431 482.721 565.528L475.25 563.118C475.25 563.118 472.755 558.663 475.733 550.673C476.218 549.371 476.849 547.975 477.66 546.489C483.444 535.885 489.71 526.245 489.951 522.147C489.951 522.147 474.768 543.597 472.599 551.55C472.599 551.55 475.491 533.475 481.516 524.557C487.541 515.64 488.264 506.723 488.264 504.794C488.264 502.866 485.131 494.913 485.131 490.334C485.131 487.479 484.756 482.563 484.591 478.506C481.923 477.257 480.07 474.556 480.07 471.415C480.07 469.256 480.944 467.301 482.357 465.884C481.541 464.844 480.806 463.732 480.311 462.618C478.383 458.28 448.257 413.212 441.027 408.392C438.124 406.456 434.322 405.072 430.286 404.068C431.163 406.272 431.917 408.163 432.488 409.591C437.907 423.138 448.474 449.962 448.745 450.775C449.016 451.588 433.572 457.278 425.714 459.987C417.857 462.697 363.939 481.934 363.939 481.934L355.54 461.884C355.54 461.884 342.264 457.007 334.677 446.44C327.09 435.873 318.149 408.237 319.504 402.818L327.633 394.147Z" fill="#ABE0F8" fill-opacity="0.6"/>
<path d="M74.4111 212.817C74.4111 212.817 75.7681 211.654 77.3181 210.879C78.8691 210.104 78.8691 204.677 76.9301 197.119C74.9911 189.561 82.7441 179.095 82.7441 179.095L107.551 167.273L101.93 115.72L135.968 149.464C136.221 141.189 134.708 133.457 129.35 129.452C118.546 121.375 114.868 115.202 113.324 111.073C113.12 111.102 112.917 111.135 112.706 111.135C110.257 111.135 108.272 109.15 108.272 106.701C108.272 105.62 108.674 104.643 109.316 103.874C108.845 101.669 108.272 97.3256 108.272 96.0155C108.272 94.2715 105.946 90.0556 103.911 86.7126C101.876 83.3696 101.585 80.8975 100.131 76.9725C98.6771 73.0475 98.0961 71.4486 98.6771 68.3956C99.2591 65.3426 97.8051 62.4355 97.8051 62.4355C99.6951 63.4535 100.422 63.5986 100.567 66.6516C100.713 69.7046 106.091 78.8625 106.091 78.8625C105.946 78.4265 104.056 73.7746 103.475 72.1756C102.894 70.5766 102.021 63.7446 102.021 63.7446L106.382 63.4536L106.963 69.8495C106.963 69.7015 106.963 69.4816 106.963 69.1226C106.963 67.5236 107.69 63.3076 108.126 63.3076C108.562 63.3076 110.161 62.7265 110.161 63.7435C110.161 64.7615 110.306 73.3376 110.306 73.3376C110.306 73.3376 110.742 76.0995 110.597 72.7565C110.452 69.4125 112.051 62.8716 112.051 62.8716L111.905 70.1396C111.178 74.7916 115.394 84.2406 117.574 92.3806C119.197 98.4406 117.599 102.886 116.676 104.764C116.963 105.351 117.138 106.002 117.138 106.7C117.138 108.484 116.078 110.012 114.559 110.715C116.364 115.185 120.409 122.737 128.04 126.106C136.362 129.78 138.09 139.004 137.296 150.78L169.179 182.388L167.435 253.515C167.435 253.515 135.457 231.615 135.069 231.033C135.069 231.033 122.278 237.816 115.301 238.979C108.324 240.142 96.8891 235.684 93.0131 233.746C89.1371 231.808 81.1911 223.087 79.4471 220.955C77.7031 218.823 74.9891 216.691 74.9891 216.691L77.5091 214.753L74.4111 212.817Z" fill="#ABE0F8" fill-opacity="0.6"/>
<path d="M666.551 776.294C665.771 775.159 664.565 774.025 664.565 774.025C664.565 774.025 656.764 773.387 654.778 772.819L654.636 775.017C654.636 775.017 655.842 775.513 656.48 776.152C657.118 776.79 657.331 777.429 657.828 777.641C658.324 777.854 659.884 778.35 660.452 778.988C661.02 779.626 661.729 779.697 662.438 780.194C663.147 780.69 666.693 781.045 668.041 781.187C669.388 781.329 671.587 781.613 671.587 781.613C671.587 781.613 667.331 777.429 666.551 776.294Z" fill="#ABE0F8" fill-opacity="0.6"/>
<path d="M738.603 992.223C737.067 986.848 736.683 986.08 737.067 981.089C737.451 976.098 736.3 964.964 736.3 964.964L742.059 957.285C742.059 957.285 741.675 951.526 741.675 947.687C741.675 943.848 735.532 935.018 732.845 932.33C730.158 929.643 723.631 921.964 725.551 918.509C727.47 915.054 729.774 909.679 727.855 900.465C725.935 891.251 710.962 893.171 705.587 893.938C700.212 894.706 699.444 877.813 699.444 877.813C696.493 865.812 695.157 854.929 694.554 847.161L693.885 842.638C693.885 842.638 687.434 802.107 686.552 796.522C685.671 790.937 683.613 782.707 682.143 780.062C680.673 777.417 674.207 772.42 672.149 771.832C670.091 771.244 662.449 766.541 661.861 765.071C661.273 763.601 655.688 759.78 655.688 759.78C655.688 759.78 660.097 748.905 656.57 746.553C654.075 744.89 650.397 750.374 648.046 756.841C645.695 763.308 645.401 767.717 645.695 770.362C645.989 773.007 645.107 778.298 645.989 783.295C646.87 788.292 647.165 792.407 649.516 794.171C651.868 795.935 659.51 802.107 662.156 804.459C664.801 806.811 666.565 810.044 666.565 810.044C666.565 810.044 668.328 835.028 670.092 849.725C671.855 864.422 673.619 892.345 676.265 901.751C678.91 911.157 679.498 913.215 679.498 915.272C679.498 917.33 675.971 919.387 674.795 922.032C673.619 924.678 633.056 985.522 627.178 999.925C627.146 1000 627.111 1000.08 627.079 1000.16H739.375C739.458 997.573 739.354 994.853 738.603 992.223ZM668.04 781.188C666.693 781.046 663.147 780.692 662.438 780.195C661.729 779.698 661.02 779.628 660.452 778.989C659.885 778.351 658.325 777.854 657.829 777.642C657.333 777.43 657.12 776.791 656.481 776.153C655.843 775.515 654.637 775.018 654.637 775.018L654.779 772.82C656.765 773.387 664.565 774.026 664.565 774.026C664.565 774.026 665.771 775.161 666.551 776.295C667.332 777.43 671.586 781.614 671.586 781.614C671.586 781.614 669.388 781.33 668.04 781.188Z" fill="#ABE0F8" fill-opacity="0.6"/>
<path d="M890.205 938.396C889.35 926.003 882.94 904.637 884.649 892.671C886.359 880.706 888.068 875.151 885.931 865.322C883.795 855.493 884.222 852.075 881.231 848.656C878.239 845.237 876.53 844.383 876.53 844.383C876.53 844.383 872.684 851.22 870.547 850.793C868.411 850.366 869.265 808.487 867.556 797.376C865.847 786.265 865.419 737.122 862.855 731.994C860.291 726.866 857.3 716.61 859.009 708.491C860.719 700.371 863.71 692.252 864.137 688.406C864.565 684.56 870.975 673.877 873.111 670.885C875.248 667.894 878.667 661.057 878.667 661.057C878.667 661.057 873.111 657.211 869.693 660.63L876.53 646.956C876.53 646.956 874.821 641.828 867.129 645.674C859.437 649.52 858.582 654.648 856.445 659.776C854.309 664.904 845.335 680.715 843.625 683.706C841.916 686.698 839.352 686.27 836.361 691.826C833.369 697.381 830.378 705.073 830.378 705.073C830.378 705.073 825.25 689.689 818.413 691.398C811.575 693.107 813.285 693.962 816.276 699.09C819.267 704.218 823.541 713.62 824.395 717.466C825.25 721.312 828.241 727.722 831.233 731.568C834.224 735.414 838.07 734.559 838.925 742.251C839.779 749.943 838.497 789.685 838.07 804.214C837.643 818.744 835.079 843.956 833.797 850.794C832.515 857.631 832.087 867.887 830.805 870.451C829.523 873.015 823.968 878.57 822.259 884.98C820.549 891.39 812.43 902.074 813.285 916.603C814.139 931.132 815.421 929.423 815.421 929.423C815.421 929.423 809.866 939.252 811.148 945.662C812.43 952.072 814.139 951.645 813.285 953.781C812.43 955.918 806.447 961.046 804.738 965.319C804.716 965.374 804.69 965.419 804.669 965.474C804.548 970.229 804.368 974.991 804.134 979.76C806.079 983.177 808.292 986.989 807.729 988.395C806.989 990.248 804.324 988.57 803.627 988.926C803.4 992.669 803.149 996.414 802.88 1000.16H906.73C898.91 976.709 890.787 946.84 890.205 938.396Z" fill="#ABE0F8" fill-opacity="0.6"/>
<path d="M1016.03 996.784C1013.89 995.929 1010.04 994.219 1010.04 990.8C1010.04 987.381 1008.76 978.408 1007.48 977.126C1006.2 975.844 1005.34 972.853 1003.63 970.289C1001.92 967.725 998.078 960.459 995.514 956.613C992.95 952.767 984.83 945.076 984.83 945.076L982.266 941.658C982.266 941.658 972.865 910.463 969.874 892.515C966.882 874.567 965.6 848.072 965.6 845.935C965.6 843.798 969.019 845.936 968.592 842.517C968.165 839.099 966.028 838.671 966.882 835.68C967.737 832.689 969.874 826.279 972.01 824.142C974.147 822.005 978.848 813.03 980.557 810.466C982.266 807.902 984.83 792.091 987.394 788.672C989.958 785.254 994.659 782.691 994.659 781.409C994.659 780.127 990.386 777.136 986.112 780.127C981.839 783.118 975.429 790.81 975.429 790.81C975.429 790.81 971.156 760.896 964.746 760.896C958.209 760.896 962.609 771.153 964.319 775.426C966.028 779.699 966.028 789.101 966.028 789.101L965.601 791.664L963.037 789.101C963.037 789.101 960.901 776.281 957.482 776.281C954.063 776.281 950.217 777.563 949.363 781.409C949.363 781.409 942.953 780.554 941.671 784.827C940.389 789.101 940.389 789.101 940.389 789.101C940.389 789.101 935.688 789.1 933.979 791.664C932.27 794.228 930.987 800.639 931.842 802.348C932.697 804.057 932.269 814.312 932.697 818.586C933.124 822.859 933.979 830.979 933.979 830.979L936.115 835.253C936.115 835.253 931.842 836.107 933.124 839.526C934.406 842.945 936.97 842.09 936.97 842.09C936.97 842.09 938.679 850.209 938.252 854.483C937.825 858.756 934.406 897.644 935.261 905.335C936.115 913.027 935.688 940.376 937.397 946.358C937.397 946.358 909.621 973.281 910.475 977.982C911.178 981.848 913.327 992.645 915.732 1000.16H1017.92C1017.36 998.418 1016.72 997.061 1016.03 996.784Z" fill="#ABE0F8" fill-opacity="0.6"/>
<path d="M479.531 999.664C470.49 994.976 469.485 983.925 466.806 979.572C464.127 975.219 454.081 940.393 452.742 936.039C451.402 931.686 452.742 922.309 452.742 915.947C452.742 909.585 450.063 904.562 450.398 897.865C450.733 891.168 453.747 864.713 453.747 864.713C453.747 864.713 447.384 863.373 444.705 862.369C444.705 862.369 445.71 851.319 448.054 848.64C450.398 845.961 459.774 836.585 461.114 833.571C462.454 830.557 465.467 816.493 465.467 814.484C465.467 812.475 466.472 809.796 466.472 809.796C466.472 809.796 479.532 807.452 480.871 807.117C480.871 807.117 483.884 801.424 472.499 803.433L467.476 801.089C467.476 801.089 484.219 800.084 487.903 799.415C491.586 798.745 492.591 794.727 487.903 794.392C483.215 794.057 473.169 794.727 473.169 794.727C473.169 794.727 471.829 790.039 468.816 790.374C465.802 790.709 460.779 794.058 457.43 794.058C454.082 794.058 448.054 794.058 448.054 794.058C448.054 794.058 472.164 767.604 472.499 762.246C472.499 762.246 470.825 755.884 464.797 763.251C458.769 770.618 455.421 773.967 455.421 773.967C455.421 773.967 460.444 755.55 457.095 756.219C453.746 756.889 444.37 779.325 442.361 783.343C440.352 787.361 436.333 792.049 434.324 792.719C432.315 793.389 428.631 794.058 427.627 798.077C426.622 802.095 426.287 804.104 425.953 808.123C425.618 812.141 425.283 823.192 423.944 828.885C422.604 834.578 422.604 839.935 420.26 844.958C417.916 849.981 414.902 854.334 415.237 856.343C415.572 858.352 412.223 855.673 412.223 855.673C412.223 855.673 410.549 870.072 410.214 872.751C409.879 875.43 406.53 885.476 407.87 894.183C409.21 902.889 404.856 912.266 404.856 919.968C404.856 927.67 409.545 963.166 409.21 974.551C408.98 982.351 407.494 992.036 406.149 1000.16H480.337C480.054 999.968 479.781 999.794 479.531 999.664Z" fill="#ABE0F8" fill-opacity="0.6"/>
<path d="M138.293 779.137C139.683 778.918 140.415 778.259 141.073 778.04C141.731 777.82 142.902 777.235 143.121 777.162C143.34 777.089 142.975 776.504 141.95 776.284C140.926 776.065 130.976 776.504 130.976 776.504C130.976 776.504 133.902 778.918 134.853 779.504C135.806 780.087 136.903 779.356 138.293 779.137Z" fill="#ABE0F8" fill-opacity="0.6"/>
<path d="M145.024 769.478C145.756 769.697 147.292 770.722 147.511 770.941C147.731 771.16 149.047 771.38 149.34 771.087C149.633 770.794 150.877 769.331 151.096 769.258C151.316 769.185 150.584 768.453 149.34 768.234C148.096 768.015 138 767.941 138 767.941C138.585 768.307 139.536 768.965 140.268 768.965C141 768.966 144.292 769.259 145.024 769.478Z" fill="#ABE0F8" fill-opacity="0.6"/>
<path d="M135.18 997.068C135.18 997.068 132.823 982.927 131.408 979.156C129.994 975.385 129.051 939.56 127.166 928.247C125.281 916.934 121.981 905.149 121.981 903.264C121.981 901.379 117.267 883.937 117.738 880.638C118.21 877.338 115.853 871.21 115.853 869.796C115.853 868.382 116.796 856.598 116.796 856.598C116.796 856.598 116.325 846.228 118.211 843.871C120.096 841.514 116.796 835.386 116.796 835.386C116.796 835.386 116.325 819.359 121.981 817.002C127.637 814.645 130.938 808.517 134.237 807.103C137.537 805.689 145.078 797.204 147.436 792.019C149.793 786.834 148.379 784.948 151.207 783.063C154.035 781.178 154.978 776.464 159.691 774.578C164.405 772.693 168.176 769.864 169.59 767.507C171.004 765.15 168.783 757.112 160.154 762.401C160.154 762.401 155.051 762.586 152.639 761.937C150.227 761.287 141.877 760.174 140.485 759.989C139.093 759.804 137.052 758.876 136.124 758.504C135.196 758.133 134.547 758.133 135.289 757.113C136.031 756.092 140.67 752.66 144.475 752.474C148.278 752.288 151.433 750.989 156.907 748.763C162.381 746.536 163.865 745.701 164.051 743.66C164.237 741.619 163.772 738.65 160.897 739.949C158.021 741.248 155.237 741.712 154.031 741.712C152.825 741.712 148.742 742.547 147.072 743.011C145.402 743.475 143.083 744.31 142.062 744.403C141.042 744.496 139.557 745.145 138.536 745.145C137.515 745.145 136.587 745.238 135.01 745.609C133.433 745.98 132.412 745.424 132.412 745.424C132.412 745.424 133.896 743.846 135.937 742.919C137.978 741.991 138.072 740.878 138.628 740.692C139.185 740.506 145.679 740.042 148.277 739.208C150.875 738.373 152.452 735.775 152.36 734.755C152.267 733.734 151.152 732.849 151.152 732.849C151.152 732.849 146.312 732.996 143.819 732.849C141.326 732.702 139.272 733.142 137.073 734.169C134.873 735.196 128.421 737.395 126.66 737.689C124.9 737.982 123.434 739.742 121.967 742.382C120.5 745.022 116.687 755.141 114.194 756.314C111.701 757.487 107.301 758.66 106.128 760.274C104.955 761.887 104.075 766.433 103.488 769.953C102.902 773.473 98.9417 797.377 96.8877 802.95C94.8347 808.523 91.1687 813.656 88.8227 817.322C86.4757 820.988 87.7958 823.188 87.0628 827.001C86.3298 830.814 86.3298 830.814 86.3298 830.814C86.3298 830.814 84.7167 832.427 83.8367 835.36C82.9567 838.293 78.9978 852.518 78.9978 853.545C78.9978 854.572 77.2377 854.425 77.0907 857.358C76.9437 860.291 74.5977 868.797 71.3717 874.516C68.1457 880.235 68.2927 885.222 68.4387 888.448C68.5847 891.674 67.1187 896.22 64.6257 900.62C62.1327 905.02 59.6387 915.872 58.0257 926.724C56.4127 937.576 54.2127 940.949 50.1067 950.188C46.0007 959.427 43.5077 960.6 44.8277 972.186C44.8277 972.186 47.4087 985.414 49.7897 999.079H137.445C136.698 998.283 135.941 997.605 135.18 997.068ZM149.34 768.236C150.584 768.455 151.316 769.187 151.096 769.26C150.877 769.333 149.633 770.796 149.34 771.089C149.048 771.382 147.731 771.162 147.512 770.943C147.292 770.724 145.756 769.699 145.024 769.48C144.292 769.261 141 768.968 140.269 768.968C139.537 768.968 138.586 768.309 138.001 767.944C138.001 767.944 148.096 768.016 149.34 768.236ZM141.951 776.283C142.975 776.503 143.341 777.088 143.122 777.161C142.903 777.234 141.732 777.819 141.074 778.039C140.415 778.258 139.684 778.917 138.293 779.136C136.903 779.355 135.806 780.087 134.855 779.502C133.904 778.917 130.978 776.502 130.978 776.502C130.978 776.502 140.927 776.064 141.951 776.283Z" fill="#ABE0F8" fill-opacity="0.6"/>
<path d="M352.547 961.504C350.056 958.182 350.399 954.726 352.337 951.309C350.797 950.146 349.746 949.128 349.746 948.59C349.746 946.662 347.433 930.468 346.662 927.384C345.891 924.3 345.505 922.757 345.505 922.757C345.505 922.757 363.627 878.031 372.109 863.766C380.592 849.5 390.23 845.644 394.472 844.873C398.713 844.102 405.268 837.547 408.352 831.764C411.436 825.981 414.907 822.125 414.521 819.812C414.135 817.498 415.292 806.317 415.678 804.775C416.064 803.233 412.208 799.763 406.81 810.173C401.412 820.583 401.798 822.897 401.798 822.897C401.798 822.897 393.701 821.74 392.159 821.74C390.617 821.74 389.46 817.113 390.617 813.258C391.773 809.402 391.388 803.619 394.087 799.763C396.786 795.907 401.413 787.039 404.498 784.726C407.582 782.413 412.594 779.328 412.98 778.172C413.366 777.015 416.835 774.316 412.209 772.774C407.582 771.232 399.87 778.557 393.701 782.799C387.532 787.04 384.833 790.125 384.833 790.125C384.833 790.125 380.978 786.269 392.159 779.329C403.341 772.389 408.353 768.148 402.57 764.292C402.57 764.292 391.774 768.148 387.533 772.389C387.533 772.389 381.364 772.775 378.279 773.931C375.195 775.088 369.026 778.558 367.869 779.329C366.712 780.1 360.158 795.137 358.23 798.222C356.302 801.307 357.458 804.777 358.23 807.09C359.001 809.403 364.398 819.042 362.085 822.512C359.771 825.982 357.458 826.753 355.53 830.994C353.602 835.235 341.264 848.344 338.565 851.429C335.866 854.514 324.684 865.695 324.684 865.695C324.684 865.695 324.298 861.454 322.757 860.683C321.215 859.912 322.757 847.188 317.745 842.947C312.732 838.706 297.309 829.452 282.273 830.994C267.236 832.536 240.246 832.536 236.005 832.536C231.763 832.536 222.125 831.765 222.125 831.765C222.125 831.765 205.16 858.755 205.931 864.152C206.702 869.55 205.546 873.791 205.16 878.032C204.774 882.273 206.316 894.611 206.702 897.696C207.088 900.781 209.016 917.36 208.63 923.529C208.244 929.698 210.172 948.205 211.714 954.374C213.256 960.543 216.341 964.784 219.811 969.026C223.281 973.267 225.209 976.352 229.065 981.75C232.92 987.148 236.005 991.003 235.234 993.703C234.9 994.87 234.497 997.263 234.33 1000.16H362.086C365.079 988.065 363.153 975.057 352.547 961.504Z" fill="#ABE0F8" fill-opacity="0.6"/>
<path d="M611.918 998.885C609.367 993.018 608.602 991.743 607.837 992.508C607.071 993.273 592.787 967.51 575.697 948.125C558.607 928.739 547.129 909.864 543.812 900.171C540.496 890.478 540.496 878.234 534.884 869.307C529.273 860.38 519.835 842.014 518.814 842.524C518.814 842.524 512.947 826.454 509.631 826.709C509.631 826.709 510.907 822.628 505.04 824.924C499.173 827.22 505.295 849.921 507.846 859.104C507.846 859.104 501.979 846.35 499.174 838.698C499.174 838.698 489.736 833.086 496.113 857.063C502.49 881.04 503.51 882.571 503.255 883.846C503 885.121 503.51 892.774 503.51 892.774L500.704 893.029C500.704 893.029 495.858 881.551 490.501 875.939C485.144 870.327 476.982 869.307 479.022 875.429C481.063 881.551 482.338 873.388 485.909 888.693C489.48 903.998 490.756 900.426 492.286 905.018C493.816 909.609 501.723 914.966 505.55 917.772C509.376 920.578 518.048 922.874 524.68 931.036C531.312 939.198 538.709 951.187 542.79 959.094C546.871 967.001 558.095 984.602 562.176 998.376C562.363 999.004 562.533 999.582 562.704 1000.16H612.554C612.284 999.656 612.063 999.22 611.918 998.885Z" fill="#ABE0F8" fill-opacity="0.6"/>
<path d="M795.093 976.448C791.007 969.849 787.551 961.992 787.236 959.793C786.922 957.593 782.208 918.626 781.265 902.599C780.322 886.572 780.322 849.176 782.208 844.462C784.093 839.748 788.807 834.406 789.75 829.064C790.693 823.722 789.75 819.636 793.207 813.98C796.664 808.323 802.006 801.724 804.52 797.325C807.034 792.925 808.291 788.212 808.605 786.955C808.92 785.698 804.834 781.927 797.607 789.783C790.379 797.639 789.436 803.924 783.466 804.553C777.495 805.181 773.41 806.438 771.838 804.553C770.267 802.667 763.667 796.068 763.667 795.125C763.667 794.182 769.324 782.24 768.381 779.727C767.438 777.213 763.982 775.642 763.667 778.784C763.353 781.926 761.467 784.126 760.525 785.698C759.582 787.269 759.582 787.269 759.582 787.269C759.582 787.269 752.669 781.298 752.669 778.47C752.669 775.642 754.554 762.757 751.726 759.301C748.897 755.844 747.326 757.101 747.326 757.101L746.383 763.386C746.383 763.386 744.812 747.987 736.642 750.816C735.702 751.141 738.213 758.672 738.213 758.672C738.213 758.672 735.07 758.986 735.699 760.872C736.327 762.758 737.899 767.157 737.899 771.242C737.899 775.327 739.784 777.841 740.413 783.498C741.041 789.154 744.498 793.24 745.127 797.639C745.755 802.039 746.07 808.324 747.327 811.466C748.584 814.609 752.984 824.665 752.67 827.493C752.356 830.321 754.555 836.921 754.87 841.32C755.184 845.719 755.184 848.548 754.556 852.005C753.927 855.462 754.556 860.804 754.556 865.832C754.556 870.86 752.671 897.572 752.042 910.456C751.414 923.341 748.585 939.053 748.585 939.053C748.585 939.053 741.358 963.565 740.101 969.85C738.844 976.135 739.473 983.049 741.986 989.648C742.538 991.097 743.863 994.94 745.633 1000.16H804.229C800.781 989.851 797.102 979.693 795.093 976.448Z" fill="#ABE0F8" fill-opacity="0.6"/>
<path d="M1123.86 986.645C1124.64 980.674 1125.11 979.103 1125.11 979.103C1125.11 979.103 1130.61 979.889 1131.87 978.474C1133.13 977.06 1131.87 976.589 1131.24 975.489C1130.61 974.389 1126.84 971.875 1127.47 969.989C1128.1 968.104 1129.35 950.977 1126.53 944.377C1123.7 937.778 1123.7 936.521 1119.46 931.336C1115.21 926.151 1113.01 920.651 1112.23 919.394C1111.44 918.137 1109.71 916.409 1108.77 914.209C1107.83 912.009 1106.73 910.438 1105.31 907.138C1103.9 903.838 1104.53 902.581 1102.64 899.596C1100.76 896.611 1099.81 895.039 1097.93 893.782C1096.04 892.525 1087.72 889.068 1087.72 889.068C1087.72 889.068 1092.59 850.101 1093.84 848.058C1095.1 846.016 1107.83 820.247 1108.3 819.147C1108.77 818.047 1099.03 811.291 1098.71 810.191C1098.4 809.091 1103.43 789.607 1105.31 786.151C1107.2 782.694 1117.88 767.767 1119.77 752.997C1121.65 738.227 1121.65 732.413 1122.13 731.628C1122.6 730.842 1127.78 720.001 1129.35 719.058C1130.93 718.115 1136.9 714.816 1137.68 714.03C1138.47 713.244 1140.51 710.573 1138.94 709.63C1137.37 708.687 1131.87 709.159 1127.94 710.887C1124.01 712.616 1117.88 714.815 1116.78 715.601C1115.68 716.387 1113.96 714.658 1115.68 711.358C1117.41 708.058 1130.93 689.046 1132.18 687.318C1133.44 685.59 1135.64 682.761 1132.65 680.09C1129.67 677.419 1124.8 686.061 1123.07 687.004C1121.34 687.947 1118.51 692.032 1117.25 693.446C1116 694.86 1107.98 702.559 1106.73 704.13C1105.47 705.701 1104.21 707.273 1104.21 707.273C1104.21 707.273 1105 696.745 1106.57 694.231C1108.14 691.717 1117.73 673.333 1118.2 670.505C1118.67 667.677 1118.04 665.948 1114.74 666.263C1111.44 666.577 1109.08 671.448 1107.2 674.434C1105.31 677.419 1098.24 688.418 1096.51 690.304C1094.79 692.19 1093.37 693.447 1093.06 695.646C1092.74 697.846 1092.11 700.831 1092.11 700.36C1092.11 699.889 1090.23 695.489 1090.54 693.132C1090.86 690.775 1091.96 683.547 1092.43 681.662C1092.9 679.777 1095.26 673.491 1095.26 671.92C1095.26 670.349 1097.56 664.295 1090.44 665.672C1087.06 666.324 1086.87 672.484 1084.6 676.538C1082.33 680.593 1082.17 685.944 1080.87 689.188C1079.57 692.431 1078.28 695.351 1079.25 698.919C1080.22 702.487 1081.68 707.19 1082.17 711.569C1082.65 715.948 1082.98 724.543 1082.98 728.273C1082.98 732.003 1083.46 743.031 1082.65 752.438C1081.84 761.844 1081.84 767.196 1080.55 769.142C1079.25 771.088 1076.17 775.953 1073.73 783.251C1071.3 790.549 1068.71 798.496 1068.71 798.496C1068.71 798.496 1064.65 799.793 1063.68 804.172C1062.71 808.551 1050.87 832.715 1048.92 836.283C1046.98 839.851 1043.41 848.933 1042.11 851.041C1040.81 853.149 1037.41 861.096 1037.08 862.718C1036.76 864.34 1027.35 878.125 1024.43 881.206C1021.51 884.287 1010.97 892.721 1011.46 892.558C1011.94 892.396 1013.73 896.288 1014.05 899.045C1014.38 901.802 1013.24 904.559 1014.21 907.64C1015.19 910.721 1015.51 912.668 1015.51 912.668C1015.51 912.668 1011.46 921.75 1010 937.319C1008.54 952.888 1007.89 958.24 1007.89 960.186C1007.89 962.132 1007.73 965.376 1007.73 965.376C1007.73 965.376 1002.54 970.89 999.944 976.242C999.944 976.242 985.342 987.362 974.712 1000.16H1124.93C1124.16 995.464 1123.44 989.778 1123.86 986.645Z" fill="#ABE0F8" fill-opacity="0.6"/>
<path d="M1513.07 979.379C1511.4 971.338 1505.36 948.89 1501.68 938.839C1497.99 928.788 1474.21 892.603 1471.19 884.227C1468.17 875.851 1456.45 854.408 1456.45 852.398C1456.45 850.388 1454.44 851.393 1454.77 850.388C1455.11 849.383 1449.75 845.362 1450.42 836.651C1451.09 827.94 1457.45 808.842 1457.45 804.822C1457.45 800.801 1455.11 799.461 1454.77 796.446C1454.44 793.431 1454.77 787.735 1454.44 783.714C1454.1 779.693 1452.76 777.348 1451.09 773.998C1449.41 770.647 1443.72 758.586 1443.38 755.571C1443.05 752.556 1438.02 751.886 1434.67 756.911L1435 761.602C1435 761.602 1432.32 764.282 1435 767.298L1435.34 778.354C1435.34 778.354 1432.32 767.968 1427.97 769.308C1423.61 770.648 1423.95 778.019 1425.29 785.39C1426.63 792.761 1426.63 796.781 1425.62 799.797C1424.62 802.812 1422.61 806.498 1421.94 808.173C1421.27 809.848 1420.93 812.529 1419.93 813.534C1418.92 814.539 1410.21 817.889 1408.54 818.56C1406.86 819.231 1401.17 818.56 1401.17 818.56C1401.17 818.56 1385.75 805.158 1377.38 805.158C1369 805.158 1368 808.844 1368 808.844C1368 808.844 1374.7 813.87 1377.04 818.225C1379.39 822.58 1383.07 822.916 1385.42 825.261C1387.76 827.606 1392.45 831.962 1393.46 834.307C1394.46 836.652 1401.84 843.688 1406.86 845.028C1411.89 846.368 1418.59 853.404 1418.92 856.419C1419.26 859.435 1420.6 861.78 1420.6 861.78L1418.92 864.125C1418.92 864.125 1422.94 869.486 1424.62 872.501C1426.29 875.516 1427.97 889.588 1428.97 891.934C1429.98 894.279 1431.65 898.635 1431.32 900.31C1430.98 901.985 1432.99 908.351 1432.99 910.026C1432.99 911.701 1433.66 919.407 1433.33 926.778C1432.99 934.149 1432.99 943.195 1433.33 945.54C1433.66 947.885 1428.97 948.89 1431.65 954.921C1434.33 960.952 1436.34 961.622 1436.01 966.648C1435.67 971.674 1430.31 975.694 1431.99 978.375C1433.66 981.055 1436.34 985.076 1437.35 988.761C1438.35 992.446 1437.68 998.477 1436.68 1000.15C1436.68 1000.16 1436.67 1000.16 1436.67 1000.16H1515.45C1514.99 993.398 1514.09 984.277 1513.07 979.379Z" fill="#ABE0F8" fill-opacity="0.6"/>
<path d="M700.782 752.404C701.645 751.148 702.98 749.892 702.98 749.892C702.98 749.892 711.613 749.186 713.811 748.558L713.968 750.991C713.968 750.991 712.634 751.54 711.927 752.247C711.22 752.953 710.985 753.66 710.435 753.895C709.886 754.13 708.159 754.68 707.531 755.386C706.903 756.093 706.118 756.171 705.333 756.72C704.548 757.269 700.624 757.662 699.133 757.819C697.642 757.976 695.209 758.29 695.209 758.29C695.209 758.29 699.918 753.66 700.782 752.404Z" fill="#175574" fill-opacity="0.5"/>
<path d="M620.189 1000.16H744.469C744.434 1000.08 744.395 999.987 744.36 999.902C737.854 983.962 692.962 916.624 691.661 913.696C690.36 910.768 686.456 908.491 686.456 906.214C686.456 903.937 687.107 901.66 690.034 891.25C692.962 880.84 694.914 849.936 696.866 833.671C698.818 817.406 700.77 789.755 700.77 789.755C700.77 789.755 702.721 786.177 705.649 783.574C708.577 780.972 717.035 774.14 719.638 772.188C722.24 770.236 722.566 765.682 723.541 760.152C724.517 754.622 723.541 748.767 723.867 745.839C724.193 742.911 723.867 738.032 721.265 730.875C718.662 723.718 714.591 717.649 711.831 719.489C707.927 722.091 712.807 734.128 712.807 734.128C712.807 734.128 706.626 738.357 705.975 739.983C705.324 741.61 696.866 746.814 694.589 747.465C692.312 748.116 685.155 753.646 683.529 756.574C681.902 759.502 679.625 768.61 678.65 774.791C677.674 780.972 670.535 825.828 670.535 825.828L669.794 830.834C669.127 839.431 667.648 851.476 664.382 864.758C664.382 864.758 663.532 883.454 657.584 882.604C651.635 881.754 635.064 879.63 632.94 889.827C630.816 900.025 633.365 905.973 635.489 909.797C637.614 913.621 630.39 922.119 627.416 925.094C624.442 928.068 617.644 937.841 617.644 942.09C617.644 946.339 617.219 952.712 617.219 952.712L623.593 961.21C623.593 961.21 622.318 973.532 622.744 979.056C623.169 984.58 622.744 985.429 621.044 991.378C620.209 994.287 620.094 997.298 620.189 1000.16ZM695.209 758.291C695.209 758.291 699.918 753.661 700.782 752.405C701.645 751.149 702.98 749.894 702.98 749.894C702.98 749.894 711.613 749.188 713.811 748.56L713.968 750.993C713.968 750.993 712.634 751.542 711.927 752.249C711.22 752.955 710.985 753.662 710.435 753.897C709.886 754.132 708.159 754.682 707.531 755.388C706.903 756.094 706.118 756.173 705.334 756.722C704.549 757.271 700.624 757.664 699.134 757.821C697.642 757.977 695.209 758.291 695.209 758.291Z" fill="#175574" fill-opacity="0.5"/>
<path d="M354.833 996.423C357.198 995.477 361.454 993.585 361.454 989.802C361.454 986.018 362.873 976.087 364.292 974.668C365.711 973.249 366.657 969.939 368.549 967.101C370.441 964.263 374.697 956.223 377.535 951.967C380.373 947.711 389.359 939.198 389.359 939.198L392.197 935.415C392.197 935.415 402.602 900.89 405.912 881.027C409.223 861.164 410.642 831.842 410.642 829.477C410.642 827.112 406.858 829.477 407.331 825.693C407.804 821.91 410.169 821.436 409.223 818.126C408.277 814.816 405.912 807.721 403.548 805.357C401.183 802.992 395.981 793.06 394.089 790.223C392.197 787.385 389.36 769.887 386.522 766.103C383.684 762.32 378.482 759.482 378.482 758.063C378.482 756.644 383.211 753.333 387.941 756.644C392.67 759.954 399.764 768.467 399.764 768.467C399.764 768.467 404.493 735.361 411.587 735.361C418.822 735.361 413.952 746.712 412.06 751.441C410.168 756.17 410.168 766.575 410.168 766.575L410.641 769.413L413.479 766.575C413.479 766.575 415.844 752.387 419.627 752.387C423.411 752.387 427.667 753.806 428.613 758.062C428.613 758.062 435.707 757.116 437.126 761.845C438.545 766.575 438.545 766.575 438.545 766.575C438.545 766.575 443.747 766.575 445.639 769.413C447.531 772.251 448.95 779.345 448.004 781.236C447.058 783.128 447.531 794.478 447.058 799.208C446.585 803.937 445.639 812.923 445.639 812.923L443.274 817.653C443.274 817.653 448.003 818.599 446.585 822.382C445.166 826.166 442.328 825.22 442.328 825.22C442.328 825.22 440.436 834.206 440.909 838.935C441.382 843.664 445.166 886.702 444.22 895.214C443.274 903.727 443.747 933.995 441.855 940.616C441.855 940.616 472.596 970.411 471.65 975.614C470.872 979.893 468.494 991.842 465.832 1000.16H352.735C353.353 998.231 354.067 996.729 354.833 996.423Z" fill="#175574" fill-opacity="0.5"/>
<path d="M1164.86 999.612C1174.87 994.423 1175.98 982.194 1178.95 977.376C1181.91 972.558 1193.03 934.016 1194.51 929.198C1195.99 924.38 1194.51 914.003 1194.51 906.962C1194.51 899.921 1197.47 894.362 1197.1 886.95C1196.73 879.538 1193.4 850.26 1193.4 850.26C1193.4 850.26 1200.44 848.777 1203.41 847.666C1203.41 847.666 1202.29 835.436 1199.7 832.471C1197.11 829.506 1186.73 819.129 1185.25 815.794C1183.76 812.459 1180.43 796.893 1180.43 794.67C1180.43 792.446 1179.32 789.482 1179.32 789.482C1179.32 789.482 1164.86 786.888 1163.38 786.517C1163.38 786.517 1160.05 780.217 1172.65 782.44L1178.2 779.846C1178.2 779.846 1159.67 778.734 1155.6 777.993C1151.52 777.252 1150.41 772.805 1155.6 772.434C1160.79 772.063 1171.91 772.805 1171.91 772.805C1171.91 772.805 1173.39 767.617 1176.72 767.987C1180.06 768.358 1185.62 772.064 1189.32 772.064C1193.03 772.064 1199.7 772.064 1199.7 772.064C1199.7 772.064 1173.02 742.786 1172.65 736.857C1172.65 736.857 1174.5 729.816 1181.17 737.969C1187.84 746.122 1191.55 749.828 1191.55 749.828C1191.55 749.828 1185.99 729.445 1189.69 730.186C1193.4 730.927 1203.78 755.758 1206 760.205C1208.22 764.652 1212.67 769.841 1214.89 770.582C1217.12 771.323 1221.19 772.064 1222.31 776.512C1223.42 780.959 1223.79 783.183 1224.16 787.63C1224.53 792.077 1224.9 804.307 1226.38 810.607C1227.87 816.907 1227.87 822.837 1230.46 828.396C1233.05 833.955 1236.39 838.773 1236.02 840.996C1235.65 843.22 1239.35 840.255 1239.35 840.255C1239.35 840.255 1241.21 856.191 1241.58 859.156C1241.95 862.121 1245.65 873.239 1244.17 882.875C1242.69 892.511 1247.51 902.888 1247.51 911.411C1247.51 919.935 1242.32 959.219 1242.69 971.819C1242.94 980.452 1244.59 991.171 1246.08 1000.16H1163.97C1164.28 999.949 1164.59 999.756 1164.86 999.612Z" fill="#175574" fill-opacity="0.5"/>
<path d="M1256.37 756.752C1254.83 756.509 1254.02 755.781 1253.29 755.538C1252.56 755.295 1251.27 754.647 1251.03 754.566C1250.78 754.485 1251.19 753.837 1252.32 753.594C1253.46 753.351 1264.47 753.837 1264.47 753.837C1264.47 753.837 1261.23 756.509 1260.18 757.157C1259.12 757.804 1257.91 756.995 1256.37 756.752Z" fill="#175574" fill-opacity="0.5"/>
<path d="M1248.92 746.064C1248.11 746.307 1246.41 747.44 1246.17 747.683C1245.93 747.926 1244.47 748.169 1244.15 747.845C1243.82 747.521 1242.44 745.902 1242.2 745.821C1241.96 745.74 1242.77 744.93 1244.15 744.688C1245.52 744.445 1256.69 744.364 1256.69 744.364C1256.05 744.769 1255 745.497 1254.19 745.497C1253.38 745.497 1249.73 745.821 1248.92 746.064Z" fill="#175574" fill-opacity="0.5"/>
<path d="M1257.31 1000.16H1354.32C1356.95 985.039 1359.81 970.4 1359.81 970.4C1361.27 957.578 1358.51 956.28 1353.97 946.055C1349.42 935.83 1346.99 932.097 1345.2 920.086C1343.42 908.075 1340.66 896.065 1337.9 891.196C1335.14 886.327 1333.52 881.296 1333.68 877.725C1333.84 874.154 1334 868.636 1330.43 862.306C1326.86 855.976 1324.26 846.563 1324.1 843.316C1323.94 840.07 1321.99 840.232 1321.99 839.096C1321.99 837.96 1317.61 822.216 1316.64 818.97C1315.66 815.724 1313.88 813.939 1313.88 813.939C1313.88 813.939 1313.88 813.939 1313.07 809.719C1312.25 805.499 1313.72 803.064 1311.12 799.007C1308.52 794.949 1304.46 789.269 1302.19 783.101C1299.92 776.934 1295.54 750.478 1294.89 746.583C1294.24 742.688 1293.27 737.656 1291.97 735.871C1290.67 734.086 1285.8 732.787 1283.04 731.489C1280.28 730.191 1276.06 718.992 1274.44 716.07C1272.81 713.148 1271.19 711.201 1269.24 710.876C1267.3 710.551 1260.15 708.117 1257.72 706.981C1255.29 705.845 1253.01 705.358 1250.25 705.52C1247.5 705.682 1242.14 705.52 1242.14 705.52C1242.14 705.52 1240.9 706.5 1240.8 707.63C1240.7 708.759 1242.44 711.635 1245.32 712.559C1248.19 713.483 1255.38 713.996 1256 714.202C1256.62 714.407 1256.72 715.64 1258.98 716.666C1261.24 717.693 1262.88 719.439 1262.88 719.439C1262.88 719.439 1261.75 720.055 1260 719.644C1258.26 719.233 1257.23 719.131 1256.1 719.131C1254.97 719.131 1253.33 718.412 1252.2 718.31C1251.07 718.207 1248.5 717.283 1246.66 716.77C1244.81 716.257 1240.29 715.332 1238.95 715.332C1237.62 715.332 1234.54 714.819 1231.35 713.381C1228.17 711.943 1227.66 715.229 1227.86 717.488C1228.07 719.747 1229.71 720.671 1235.77 723.136C1241.83 725.6 1245.32 727.038 1249.53 727.243C1253.74 727.448 1258.87 731.248 1259.69 732.377C1260.52 733.507 1259.8 733.507 1258.77 733.917C1257.74 734.328 1255.48 735.355 1253.94 735.56C1252.4 735.765 1243.16 736.998 1240.49 737.716C1237.82 738.435 1232.18 738.229 1232.18 738.229C1222.63 732.376 1220.17 741.272 1221.73 743.88C1223.3 746.489 1227.47 749.619 1232.69 751.705C1237.91 753.792 1238.95 759.009 1242.08 761.095C1245.21 763.182 1243.64 765.269 1246.25 771.007C1248.86 776.746 1257.21 786.136 1260.86 787.701C1264.51 789.266 1268.16 796.048 1274.42 798.656C1280.68 801.264 1280.16 819.002 1280.16 819.002C1280.16 819.002 1276.51 825.784 1278.6 828.393C1280.68 831.001 1280.16 842.478 1280.16 842.478C1280.16 842.478 1281.2 855.52 1281.2 857.085C1281.2 858.65 1278.6 865.432 1279.12 869.084C1279.64 872.736 1274.42 892.038 1274.42 894.125C1274.42 896.212 1270.77 909.254 1268.68 921.774C1266.6 934.294 1265.55 973.943 1263.99 978.116C1262.42 982.289 1259.82 997.94 1259.82 997.94C1258.97 998.537 1258.14 999.288 1257.31 1000.16ZM1256.69 744.365C1256.05 744.77 1254.99 745.498 1254.18 745.498C1253.37 745.498 1249.73 745.822 1248.92 746.065C1248.11 746.308 1246.41 747.442 1246.17 747.684C1245.93 747.927 1244.47 748.17 1244.14 747.846C1243.82 747.522 1242.44 745.903 1242.2 745.822C1241.96 745.741 1242.77 744.931 1244.14 744.688C1245.52 744.446 1256.69 744.365 1256.69 744.365ZM1264.47 753.838C1264.47 753.838 1261.23 756.51 1260.18 757.158C1259.12 757.806 1257.91 756.996 1256.37 756.753C1254.83 756.51 1254.02 755.781 1253.3 755.539C1252.57 755.296 1251.27 754.648 1251.03 754.567C1250.78 754.486 1251.19 753.838 1252.32 753.595C1253.46 753.352 1264.47 753.838 1264.47 753.838Z" fill="#175574" fill-opacity="0.5"/>
<path d="M1026.67 957.379C1029.43 953.703 1029.05 949.878 1026.9 946.096C1028.61 944.809 1029.77 943.682 1029.77 943.087C1029.77 940.953 1032.33 923.032 1033.18 919.618C1034.04 916.204 1034.46 914.498 1034.46 914.498C1034.46 914.498 1014.41 864.999 1005.02 849.211C995.633 833.423 984.966 829.156 980.271 828.302C975.577 827.448 968.323 820.194 964.909 813.794C961.496 807.393 957.655 803.126 958.082 800.566C958.509 798.006 957.228 785.631 956.802 783.924C956.375 782.217 960.642 778.377 966.617 789.898C972.591 801.419 972.164 803.98 972.164 803.98C972.164 803.98 981.125 802.7 982.832 802.7C984.538 802.7 985.819 797.58 984.538 793.312C983.258 789.045 983.685 782.644 980.698 778.377C977.711 774.11 972.59 764.295 969.176 761.735C965.763 759.175 960.216 755.761 959.789 754.481C959.362 753.201 955.522 750.214 960.642 748.507C965.763 746.8 974.297 754.908 981.125 759.602C987.952 764.296 990.94 767.71 990.94 767.71C990.94 767.71 995.207 763.443 982.832 755.762C970.457 748.081 964.91 743.387 971.31 739.12C971.31 739.12 983.258 743.387 987.952 748.081C987.952 748.081 994.779 748.508 998.193 749.788C1001.61 751.068 1008.43 754.909 1009.71 755.762C1010.99 756.616 1018.25 773.257 1020.38 776.671C1022.51 780.085 1021.23 783.925 1020.38 786.486C1019.53 789.046 1013.55 799.714 1016.11 803.554C1018.67 807.394 1021.23 808.248 1023.37 812.942C1025.5 817.636 1039.16 832.144 1042.14 835.558C1045.13 838.972 1057.5 851.347 1057.5 851.347C1057.5 851.347 1057.93 846.653 1059.64 845.8C1061.34 844.947 1059.64 830.865 1065.18 826.172C1070.73 821.478 1087.8 811.237 1104.44 812.944C1121.08 814.651 1150.95 814.651 1155.65 814.651C1160.34 814.651 1171.01 813.797 1171.01 813.797C1171.01 813.797 1189.79 843.667 1188.93 849.641C1188.08 855.615 1189.36 860.309 1189.79 865.003C1190.21 869.697 1188.51 883.352 1188.08 886.765C1187.65 890.179 1185.52 908.527 1185.95 915.355C1186.37 922.183 1184.24 942.665 1182.53 949.492C1180.83 956.319 1177.41 961.013 1173.57 965.707C1169.73 970.401 1167.6 973.815 1163.33 979.789C1159.06 985.763 1155.65 990.03 1156.5 993.017C1156.87 994.308 1157.32 996.957 1157.5 1000.17H1016.11C1012.8 986.775 1014.93 972.378 1026.67 957.379Z" fill="#175574" fill-opacity="0.5"/>
<path d="M1380.98 998.75C1383.8 992.257 1384.65 990.846 1385.5 991.693C1386.34 992.54 1402.15 964.028 1421.07 942.573C1439.98 921.118 1452.68 900.228 1456.35 889.501C1460.02 878.774 1460.02 865.223 1466.23 855.343C1472.44 845.463 1482.89 825.137 1484.02 825.702C1484.02 825.702 1490.51 807.917 1494.18 808.199C1494.18 808.199 1492.77 803.682 1499.26 806.223C1505.76 808.764 1498.98 833.888 1496.16 844.051C1496.16 844.051 1502.65 829.936 1505.76 821.467C1505.76 821.467 1516.2 815.257 1509.14 841.793C1502.09 868.329 1500.96 870.023 1501.24 871.434C1501.52 872.845 1500.96 881.314 1500.96 881.314L1504.06 881.596C1504.06 881.596 1509.43 868.893 1515.35 862.682C1521.28 856.471 1530.32 855.342 1528.06 862.117C1525.8 868.892 1524.39 859.859 1520.44 876.797C1516.48 893.735 1515.07 889.783 1513.38 894.864C1511.68 899.945 1502.93 905.874 1498.7 908.979C1494.46 912.084 1484.87 914.625 1477.53 923.658C1470.19 932.692 1462 945.959 1457.48 954.711C1452.97 963.462 1440.55 982.941 1436.03 998.185C1435.82 998.88 1435.63 999.519 1435.44 1000.16H1380.27C1380.58 999.603 1380.82 999.121 1380.98 998.75Z" fill="#175574" fill-opacity="0.5"/>
<path d="M828.406 973.917C832.928 966.614 836.753 957.919 837.101 955.484C837.449 953.05 842.665 909.923 843.709 892.186C844.752 874.449 844.752 833.062 842.666 827.845C840.579 822.628 835.363 816.716 834.319 810.803C833.276 804.89 834.319 800.369 830.493 794.109C826.667 787.849 820.755 780.545 817.973 775.676C815.191 770.807 813.8 765.59 813.452 764.199C813.104 762.808 817.625 758.634 825.624 767.329C833.624 776.024 834.667 782.979 841.275 783.675C847.884 784.37 852.405 785.762 854.143 783.675C855.882 781.588 863.186 774.284 863.186 773.241C863.186 772.198 856.925 758.982 857.969 756.199C859.012 753.417 862.838 751.678 863.186 755.156C863.534 758.634 865.62 761.068 866.664 762.807C867.707 764.546 867.707 764.546 867.707 764.546C867.707 764.546 875.358 757.938 875.358 754.808C875.358 751.678 873.271 737.418 876.401 733.593C879.532 729.767 881.271 731.158 881.271 731.158L882.314 738.114C882.314 738.114 884.053 721.072 893.095 724.202C894.135 724.562 891.356 732.897 891.356 732.897C891.356 732.897 894.834 733.245 894.138 735.331C893.442 737.418 891.704 742.287 891.704 746.808C891.704 751.329 889.617 754.112 888.922 760.372C888.226 766.632 884.401 771.154 883.705 776.023C883.01 780.892 882.662 787.848 881.271 791.326C879.88 794.804 875.01 805.933 875.358 809.063C875.706 812.193 873.271 819.497 872.924 824.366C872.576 829.235 872.576 832.365 873.272 836.191C873.968 840.017 873.272 845.929 873.272 851.494C873.272 857.059 875.359 886.621 876.054 900.88C876.75 915.14 879.88 932.529 879.88 932.529C879.88 932.529 887.879 959.657 889.27 966.613C890.661 973.569 889.966 981.22 887.183 988.524C886.572 990.127 885.106 994.38 883.147 1000.16H818.297C822.111 988.751 826.183 977.508 828.406 973.917Z" fill="#175574" fill-opacity="0.5"/>
<path d="M483.148 985.203C482.279 978.595 481.757 976.856 481.757 976.856C481.757 976.856 475.67 977.725 474.279 976.16C472.888 974.595 474.279 974.073 474.975 972.856C475.67 971.639 479.844 968.856 479.148 966.769C478.452 964.682 477.061 945.728 480.192 938.424C483.322 931.12 483.322 929.729 488.017 923.991C492.712 918.252 495.146 912.166 496.016 910.775C496.885 909.384 498.798 907.471 499.842 905.037C500.885 902.602 502.103 900.864 503.668 897.212C505.233 893.56 504.537 892.169 506.624 888.865C508.711 885.561 509.754 883.822 511.841 882.431C513.928 881.04 523.144 877.214 523.144 877.214C523.144 877.214 517.753 834.088 516.362 831.827C514.971 829.566 500.885 801.047 500.364 799.83C499.842 798.613 510.624 791.135 510.971 789.918C511.319 788.701 505.754 767.138 503.668 763.312C501.581 759.486 489.756 742.966 487.67 726.62C485.583 710.274 485.583 703.84 485.061 702.97C484.539 702.101 478.801 690.102 477.062 689.058C475.323 688.015 468.715 684.363 467.846 683.493C466.977 682.623 464.716 679.667 466.455 678.624C468.194 677.581 474.28 678.102 478.627 680.015C482.975 681.928 489.757 684.363 490.974 685.232C492.191 686.102 494.104 684.189 492.191 680.537C490.278 676.885 475.323 655.844 473.932 653.931C472.541 652.018 470.106 648.888 473.41 645.932C476.714 642.976 482.105 652.54 484.018 653.583C485.931 654.626 489.061 659.148 490.452 660.713C491.843 662.278 500.712 670.799 502.103 672.538C503.494 674.277 504.885 676.016 504.885 676.016C504.885 676.016 504.016 664.365 502.277 661.583C500.538 658.801 489.93 638.455 489.409 635.325C488.887 632.195 489.583 630.282 493.235 630.63C496.887 630.978 499.495 636.369 501.582 639.672C503.669 642.976 511.494 655.149 513.407 657.235C515.32 659.322 516.885 660.713 517.233 663.148C517.581 665.582 518.277 668.887 518.277 668.365C518.277 667.843 520.364 662.974 520.016 660.366C519.668 657.757 518.451 649.758 517.929 647.672C517.407 645.585 514.799 638.629 514.799 636.89C514.799 635.151 512.248 628.451 520.132 629.975C523.866 630.697 524.081 637.514 526.594 642.001C529.107 646.488 529.286 652.411 530.722 656.001C532.158 659.591 533.594 662.821 532.517 666.77C531.44 670.719 529.824 675.924 529.286 680.77C528.748 685.616 528.388 695.129 528.388 699.257C528.388 703.385 527.85 715.59 528.747 726C529.644 736.41 529.644 742.333 531.08 744.487C532.516 746.641 535.926 752.026 538.618 760.102C541.31 768.179 544.182 776.974 544.182 776.974C544.182 776.974 548.669 778.41 549.746 783.256C550.823 788.102 563.926 814.845 566.079 818.794C568.233 822.742 572.182 832.794 573.617 835.127C575.053 837.46 578.822 846.255 579.181 848.05C579.54 849.845 589.95 865.101 593.181 868.511C596.412 871.921 608.079 881.255 607.54 881.075C607.001 880.895 605.027 885.203 604.668 888.254C604.309 891.305 605.566 894.356 604.489 897.767C603.412 901.177 603.053 903.331 603.053 903.331C603.053 903.331 607.54 913.382 609.155 930.613C610.77 947.843 611.488 953.767 611.488 955.92C611.488 958.074 611.668 961.663 611.668 961.663C611.668 961.663 617.412 967.766 620.283 973.689C620.283 973.689 636.443 985.996 648.208 1000.16H481.963C482.815 994.964 483.605 988.671 483.148 985.203Z" fill="#175574" fill-opacity="0.5"/>
<path d="M86.9842 977.162C88.8382 968.263 95.5122 943.419 99.5912 932.295C103.67 921.171 129.997 881.125 133.334 871.855C136.671 862.585 149.649 838.854 149.649 836.629C149.649 834.404 151.873 835.517 151.503 834.404C151.132 833.292 157.065 828.842 156.323 819.201C155.581 809.56 148.536 788.425 148.536 783.975C148.536 779.525 151.131 778.042 151.502 774.705C151.873 771.368 151.502 765.064 151.873 760.615C152.244 756.165 153.727 753.57 155.581 749.862C157.435 746.154 163.739 732.805 164.11 729.468C164.481 726.131 170.043 725.389 173.751 730.951L173.38 736.142C173.38 736.142 176.346 739.108 173.38 742.446L173.009 754.682C173.009 754.682 176.346 743.187 181.167 744.67C185.987 746.153 185.616 754.311 184.133 762.468C182.65 770.626 182.65 775.075 183.762 778.412C184.875 781.749 187.099 785.828 187.841 787.682C188.582 789.536 188.953 792.502 190.066 793.615C191.179 794.727 200.819 798.435 202.673 799.177C204.527 799.919 210.83 799.177 210.83 799.177C210.83 799.177 227.887 784.345 237.157 784.345C246.427 784.345 247.539 788.424 247.539 788.424C247.539 788.424 240.123 793.986 237.528 798.806C234.932 803.626 230.853 803.997 228.258 806.593C225.663 809.189 220.471 814.009 219.359 816.605C218.247 819.201 210.089 826.987 204.527 828.471C198.965 829.954 191.549 837.741 191.178 841.078C190.807 844.415 189.324 847.011 189.324 847.011L191.178 849.606C191.178 849.606 186.728 855.539 184.874 858.876C183.02 862.213 181.166 877.787 180.054 880.382C178.941 882.978 177.088 887.798 177.458 889.652C177.829 891.506 175.604 898.551 175.604 900.405C175.604 902.259 174.862 910.787 175.233 918.945C175.604 927.102 175.604 937.114 175.233 939.71C174.862 942.306 180.053 943.418 177.087 950.092C174.121 956.767 171.896 957.508 172.267 963.07C172.638 968.632 178.571 973.081 176.717 976.048C174.863 979.014 171.897 983.464 170.784 987.543C169.671 991.622 170.413 998.296 171.526 1000.15C171.528 1000.15 171.532 1000.16 171.534 1000.16H84.3452C84.8632 992.677 85.8542 982.583 86.9842 977.162Z" fill="#175574" fill-opacity="0.5"/>
<path d="M429.825 998.168C427.313 991.887 401.56 969.903 394.023 965.506C386.486 961.109 385.858 960.481 381.461 959.853C377.064 959.225 361.989 947.919 359.477 947.291C356.965 946.663 338.122 935.357 338.122 935.357C338.122 935.357 337.408 921.168 336.5 919.171C335.592 917.175 334.14 915.541 334.14 915.541C334.14 915.541 335.048 912.274 334.866 911.548C334.685 910.822 345.936 889.77 346.662 885.596C346.662 885.596 348.114 889.225 351.562 889.407C355.01 889.589 359.366 884.87 360.817 881.603C362.269 878.336 366.443 868.174 366.443 864.362C366.443 860.551 364.265 858.736 361.543 858.192C358.821 857.648 357.006 858.374 357.006 858.374C357.006 858.374 359.91 850.57 360.273 843.856C360.636 837.141 362.088 827.704 362.632 827.704C363.114 827.704 407.795 808.091 420.823 801.697C421.075 804.509 421.687 810.238 422.977 817.328C424.821 827.472 427.588 830.929 436.348 836.462C445.108 841.995 440.267 849.372 440.267 849.372C440.267 849.372 440.267 849.372 436.578 850.755C432.889 852.138 435.426 855.366 435.195 856.288C434.965 857.21 434.504 863.665 433.351 868.276C432.198 872.887 436.578 884.644 436.578 884.644C435.656 880.495 435.426 871.043 435.426 871.043C437.731 873.118 440.267 888.103 440.267 888.103C445.569 883.492 440.037 870.121 440.037 870.121C442.342 872.657 443.265 880.034 443.265 880.034C444.417 877.037 442.573 873.348 441.19 869.891C439.807 866.433 441.19 860.439 443.956 856.981C446.722 853.523 441.881 849.834 441.881 849.834C446.031 839.229 435.887 835.08 428.51 827.241C422.498 820.854 422.151 806.202 422.229 800.996C423.156 800.524 423.838 800.154 424.155 799.938C424.155 799.938 422.34 797.397 421.433 796.852C420.525 796.308 313.996 737.508 312.182 736.601C310.367 735.693 304.923 740.775 300.386 742.59C295.849 744.405 209.464 775.801 208.194 777.071C206.923 778.341 207.468 780.519 208.92 781.427C210.372 782.334 259.916 812.097 259.916 812.097C259.916 812.097 257.012 825.889 256.649 828.793C256.286 831.697 255.197 838.593 255.379 840.408C255.56 842.223 255.741 844.401 255.741 844.401C255.741 844.401 251.749 842.586 247.937 846.942C244.126 851.298 245.759 854.383 245.759 859.645C245.759 864.908 244.67 869.627 245.215 870.353C245.759 871.079 249.389 879.971 254.108 879.79C258.827 879.608 260.097 878.338 260.097 878.338C260.097 878.338 261.912 883.057 261.912 883.601C261.912 884.146 253.201 895.76 251.023 899.935C248.845 904.109 243.038 908.464 241.949 909.916C240.86 911.368 237.049 909.916 237.049 909.916C237.049 909.916 217.086 905.016 212.912 905.742C212.912 905.742 196.579 899.572 193.857 898.664C191.135 897.757 185.509 895.579 184.965 894.127C184.421 892.675 182.061 886.505 182.424 885.053C182.787 883.601 186.054 881.242 184.965 874.527C183.876 867.812 180.065 861.097 180.065 861.097C180.065 861.097 168.995 859.283 162.824 859.283C156.653 859.283 149.395 862.731 146.854 856.016C144.313 849.301 139.413 829.702 136.328 824.801C133.243 819.901 120.902 803.568 121.991 798.486C123.08 793.404 122.173 777.979 121.991 769.994C121.991 769.994 128.524 771.627 129.25 757.109C129.976 742.591 128.524 731.157 130.702 729.161C132.88 727.164 140.502 719.905 141.046 716.094C141.591 712.283 141.227 699.579 143.043 695.95C144.857 692.32 145.22 684.698 146.672 682.52C148.124 680.342 155.565 673.446 159.92 670.179C164.276 666.912 167.361 662.375 168.087 661.65C168.813 660.924 170.447 656.931 169.539 649.854C168.632 642.776 170.447 639.691 170.084 638.784C169.721 637.876 168.269 636.425 168.632 635.517C168.995 634.61 173.713 626.988 173.169 622.632C172.625 618.277 163.006 617.551 160.828 619.728C158.65 621.906 158.65 621.906 158.65 621.906C158.65 621.906 151.209 618.095 149.032 618.277C146.854 618.458 140.684 617.913 137.962 619.91C135.239 621.906 133.606 624.447 133.606 624.447C133.606 624.447 127.799 622.269 125.076 623.358C122.354 624.447 119.45 626.988 118.724 626.806C117.998 626.625 112.916 626.988 110.92 628.621C108.924 630.254 106.202 637.876 105.294 641.687C104.387 645.498 102.605 659.218 102.605 659.218C102.605 659.218 95.4271 657.26 88.2491 674.88C88.2491 674.88 80.4181 683.363 69.9781 689.236C59.5371 695.109 29.5201 706.855 19.0791 736.872C8.63813 766.889 2.11214 781.898 -2.45486 786.466C-7.02287 791.034 -24.6419 818.441 -33.7779 843.891C-42.9139 869.34 -51.3969 884.349 -51.3969 884.349C-51.3969 884.349 -61.1859 885.654 -62.4899 891.527C-63.7949 897.4 -61.1849 922.197 -63.7949 931.985C-66.4049 941.773 -71.6259 953.519 -73.5829 958.74C-75.5409 963.96 -74.8889 978.317 -73.5829 982.232C-72.8739 984.361 -72.7399 992.47 -71.4039 1000.16H430.666C430.333 999.396 430.037 998.699 429.825 998.168Z" fill="#D79442"/>
<path d="M860.861 973.127C839.506 968.887 828.2 965.904 828.2 965.904C828.2 965.904 828.2 962.135 822.39 962.292C816.58 962.449 809.828 962.449 809.828 962.449L807.629 964.491C807.629 964.491 793.811 963.078 791.927 963.549C790.043 964.02 789.728 954.913 789.572 953.813C789.415 952.714 790.985 953.185 790.985 953.185C790.985 953.185 782.191 937.482 780.778 936.383C779.365 935.284 777.795 933.557 777.795 933.557C777.795 933.557 777.481 924.607 778.894 923.193C780.307 921.78 784.704 908.432 784.233 907.647C783.762 906.862 787.06 910.159 789.886 908.903C792.713 907.647 794.283 901.523 794.44 900.267C794.597 899.011 794.44 894.771 795.382 893.201C796.324 891.631 796.638 888.804 796.167 887.077C795.696 885.35 793.026 878.912 792.241 878.754C791.456 878.597 792.555 875.614 792.555 873.886C792.555 872.159 793.654 868.861 793.968 868.076C794.282 867.291 793.811 863.365 793.654 862.58C793.497 861.795 793.34 858.811 793.811 857.555C794.282 856.299 793.026 851.902 793.026 851.902L792.084 849.076L795.696 852.845C795.696 852.845 795.068 850.49 794.754 849.39C794.44 848.291 796.167 848.291 796.167 848.291L794.597 845.465C794.597 845.465 789.729 835.572 788.944 834.787C788.159 834.002 786.431 829.919 784.861 829.134C783.291 828.349 777.009 823.638 776.224 822.382C775.439 821.126 775.753 819.241 773.869 818.142C771.985 817.043 770.571 816.258 766.96 815.001C763.348 813.745 758.795 812.489 755.497 812.018C752.2 811.547 745.918 812.018 744.034 811.861C742.15 811.704 745.133 807.464 752.357 808.563C752.357 808.563 746.233 806.051 737.597 811.076C737.597 811.076 730.06 811.861 729.589 811.861C729.118 811.861 731.002 809.977 735.556 808.563C735.556 808.563 728.019 808.563 722.366 815.472C722.366 815.472 717.969 822.695 717.027 822.695C716.085 822.695 716.713 818.926 716.713 818.926C716.713 818.926 712.788 823.951 712.002 824.108C711.217 824.265 707.605 827.249 706.349 828.348C705.093 829.447 704.151 828.976 703.209 831.489C702.267 834.001 701.168 831.96 699.44 834.315C697.713 836.67 695.514 838.084 694.886 840.125C694.258 842.167 693.944 842.009 693.63 844.679C693.316 847.349 693.316 846.877 691.903 849.39C690.49 851.902 688.919 854.572 689.705 855.985C690.49 857.398 691.275 859.283 691.746 861.324C692.217 863.366 691.746 862.266 693.002 865.25C694.258 868.233 695.043 872.787 695.2 875.143C695.357 877.499 695.985 878.441 695.985 878.441C695.985 878.441 692.687 881.739 692.531 885.978C692.374 890.218 694.101 893.358 693.944 897.284C693.787 901.209 693.002 903.251 694.572 904.821C696.142 906.391 698.812 907.333 700.225 907.804C701.638 908.275 703.68 908.589 703.68 908.589C703.68 908.589 705.878 915.341 706.978 916.911C708.077 918.481 708.705 924.448 710.118 926.49C711.531 928.531 711.688 936.539 712.159 937.796C712.63 939.052 712.944 940.622 712.944 940.622C712.944 940.622 711.217 942.663 710.903 943.134C710.589 943.605 706.663 958.994 706.192 962.448C705.721 965.903 706.977 965.903 706.977 965.903C706.977 965.903 704.779 968.258 703.522 967.944C702.266 967.63 686.563 955.068 681.381 953.812C676.199 952.556 671.645 950.2 671.803 948.316C671.96 946.432 671.489 938.738 671.332 937.167C671.175 935.597 662.381 917.224 660.968 913.613C659.555 910.002 659.398 907.489 657.513 906.547C655.628 905.605 651.86 904.349 649.347 905.134C646.835 905.919 643.694 907.018 641.81 906.39C639.926 905.762 633.017 900.266 627.992 899.01C622.967 897.754 620.455 897.126 619.198 896.184C617.942 895.242 599.099 867.606 595.173 863.052C591.248 858.498 579.785 837.3 577.586 834.63C575.388 831.96 568.792 821.754 567.379 821.126C565.966 820.498 564.239 816.886 562.354 816.101C560.47 815.316 552.775 801.184 551.833 796.002C550.891 790.82 549.792 784.696 549.949 781.555C550.106 778.414 548.85 770.406 548.85 768.522C548.85 766.638 548.379 763.654 548.379 763.654L537.23 762.869C537.23 762.869 534.247 749.208 532.833 745.125C531.42 741.042 527.808 737.745 525.924 736.174C524.937 735.351 523.088 733.498 521.213 731.984C521.723 730.831 522.208 729.646 522.644 728.41C528.925 710.613 526.483 675.719 521.946 669.089L504.848 663.855C504.848 663.855 504.499 632.45 500.312 625.471L480.323 637.897C482.023 615.329 478.839 593.85 463.02 586.905C429.386 572.139 439.122 610.792 426.341 624.673C425.493 623.928 424.394 623.461 423.177 623.461C421.121 623.461 419.378 624.756 418.688 626.57C417.427 626.229 414.545 626.368 409.071 630.825C401.14 637.283 399.781 642.041 396.835 644.987C393.889 647.933 392.756 652.351 390.717 652.125C388.678 651.899 386.978 653.938 386.525 658.696C386.525 658.696 388.338 653.937 391.85 653.371C391.85 653.371 388.678 655.864 389.244 659.376C389.81 662.888 390.717 662.775 388.791 665.607C388.791 665.607 392.53 663.681 391.51 659.489C390.49 655.297 393.889 653.711 395.929 652.465C397.968 651.219 401.481 650.426 402.273 649.293C403.066 648.16 397.628 655.864 397.175 661.076C396.722 666.288 396.948 669.8 395.702 670.48C395.702 670.48 398.648 668.667 398.874 663.569C399.101 658.471 402.046 654.279 403.293 652.693C404.392 651.294 405.84 649.459 406.167 648.81C405.796 650.089 404.019 657.679 404.426 661.643C404.426 661.643 404.992 667.874 403.746 668.78C403.746 668.78 406.125 667.194 406.125 663.115C406.125 659.036 407.258 652.012 408.278 650.313C409.298 648.613 409.977 648.387 412.357 645.894C414.736 643.401 415.756 642.042 417.002 640.002C417.944 638.46 420.437 634.915 421.696 632.835C422.165 632.988 422.657 633.091 423.176 633.091C425.836 633.091 427.991 630.935 427.991 628.276C427.991 627.616 427.857 626.987 427.616 626.414C428.221 625.908 428.838 625.356 429.465 624.729C434.041 620.153 438.311 587.515 447.157 586.6C456.003 585.685 468.204 589.65 470.644 595.14C473.085 600.631 479.795 606.122 478.575 625.339C478.255 630.375 477.724 635.298 477.117 639.89L422.845 673.627L428.777 781.452L468.906 760.166C468.906 760.166 489.145 761.562 491.588 769.936C491.588 769.936 496.781 763.826 499.164 759.896C500.43 760.096 501.703 760.132 502.754 759.817C506.244 758.77 508.337 762.957 509.384 765.4C510.431 767.843 509.733 777.613 509.733 777.613C509.733 777.613 514.967 795.758 514.269 796.107C513.571 796.456 517.409 818.09 517.061 819.486C516.712 820.882 518.108 828.908 518.108 828.908C518.108 828.908 511.129 828.908 506.244 829.257C501.358 829.606 496.473 833.095 496.473 833.095C496.473 833.095 499.265 836.236 504.15 844.959C509.035 853.683 513.572 855.776 512.874 863.104C512.176 870.432 512.525 872.176 512.525 872.176C512.525 872.176 522.994 885.087 527.879 890.322C532.764 895.556 539.394 900.092 541.837 901.837C544.279 903.582 547.071 925.217 556.144 944.758C565.217 964.299 573.242 977.908 577.43 982.444C581.618 986.98 584.409 990.47 591.737 997.798C592.429 998.49 593.187 999.3 593.973 1000.16H899.764C890.048 989.525 875.684 976.07 860.861 973.127Z" fill="#D79442"/>
<path d="M1372.86 998.37C1372.26 992.721 1369.64 983.036 1371.05 978.396C1372.46 973.755 1379.72 962.457 1380.13 960.238C1380.53 958.019 1382.75 944.097 1379.72 940.466C1376.7 936.834 1386.38 935.624 1385.98 934.01C1385.57 932.396 1380.73 927.352 1381.14 923.72C1381.54 920.089 1382.95 914.036 1383.76 910.606C1384.57 907.176 1386.38 900.518 1385.98 897.693C1385.57 894.868 1386.99 893.456 1388.2 890.632C1389.41 887.808 1389.81 887.202 1391.02 882.965C1392.23 878.728 1392.64 877.316 1394.65 875.298C1396.67 873.281 1404.14 860.368 1405.55 855.929C1406.96 851.49 1407.36 843.622 1409.78 840.394C1412.21 837.166 1420.07 829.298 1420.07 823.648C1420.07 817.999 1418.26 809.122 1418.86 807.911C1419.47 806.701 1422.09 796.815 1423.3 792.578C1424.51 788.341 1427.74 778.455 1427.14 774.823C1426.53 771.192 1424.72 766.148 1425.72 763.323C1426.73 760.498 1429.56 753.033 1431.17 752.63C1432.79 752.226 1438.84 747.788 1440.25 744.762C1441.66 741.736 1444.89 734.472 1445.29 730.034C1445.7 725.595 1448.52 717.122 1450.34 715.508C1452.15 713.894 1454.98 713.289 1457 710.464C1459.01 707.64 1466.48 689.078 1466.48 682.622C1466.48 676.166 1469.51 666.885 1469.91 665.473C1470.31 664.061 1484.84 631.175 1485.44 628.753C1486.05 626.332 1487.46 623.507 1489.88 621.893C1492.3 620.279 1503.6 612.41 1505.42 609.989C1507.23 607.568 1508.65 604.945 1508.04 603.735C1507.44 602.524 1507.64 597.683 1506.63 596.27C1505.62 594.858 1506.02 590.419 1505.22 589.612C1504.41 588.805 1505.02 586.182 1503.2 585.98C1501.38 585.778 1501.38 584.568 1500.98 583.962C1500.58 583.357 1497.55 582.146 1496.74 581.137C1495.94 580.128 1497.15 578.313 1497.15 576.698C1497.15 575.084 1494.73 569.233 1496.14 567.619C1497.55 566.005 1501.18 562.777 1501.18 562.777C1501.18 562.777 1512.73 529.345 1519.1 510.02C1528.07 501.824 1548.31 477.425 1551.76 471.389C1555.52 464.803 1554.34 454.455 1553.17 450.222C1552.06 446.245 1547.22 436.252 1545.47 433.301C1548.67 432.528 1551.05 429.667 1551.05 426.233C1551.05 423.476 1549.5 421.106 1547.25 419.867C1547.13 419.73 1547.05 419.648 1547.05 419.648C1547.05 419.648 1547.05 416.12 1547.52 413.062C1547.99 410.005 1547.52 408.829 1545.88 398.01C1544.65 389.959 1548.11 383.086 1549.97 380.094L1545.64 386.486C1545.41 385.075 1543.76 382.253 1542.11 377.549C1540.47 372.845 1536.23 366.26 1530.12 364.143C1524 362.026 1521.18 356.617 1521.18 356.617C1518.59 359.674 1520.95 363.908 1520.95 363.908C1516.48 360.145 1511.77 363.438 1511.77 363.438C1515.54 362.968 1519.3 369.788 1519.3 369.788C1513.66 363.438 1510.6 367.671 1510.6 367.671C1514.36 366.73 1517.18 373.315 1517.18 373.315C1513.66 373.786 1510.6 370.258 1510.6 370.258C1510.13 373.551 1516.95 376.138 1516.95 376.138C1509.66 377.079 1508.48 373.316 1508.48 373.316C1507.31 377.314 1514.36 378.02 1514.36 378.02C1521.14 377.342 1526.93 384.466 1529.64 388.508C1526.9 385.938 1522.12 385.782 1522.12 385.782C1529.65 386.252 1532.47 400.129 1532.47 400.129C1529.18 393.779 1525.18 392.838 1525.18 392.838C1528.24 393.544 1532.47 403.187 1534.12 405.773C1535.76 408.36 1537.64 415.416 1538.35 418.944C1538.46 419.504 1538.66 420.152 1538.9 420.838C1537.42 422.172 1536.47 424.085 1536.47 426.234C1536.47 430.078 1539.45 433.193 1543.22 433.471C1543.57 435.076 1544.22 436.805 1545.41 437.994C1548.23 440.816 1551.05 448.813 1551.76 455.633C1552.46 462.453 1548.93 473.743 1539.53 485.032C1533.42 492.358 1525.65 499.96 1520.94 504.409C1521.9 501.427 1522.62 499.108 1522.97 497.813C1525.39 488.936 1544.56 437.084 1544.56 437.084C1544.56 437.084 1521.76 467.348 1518.53 468.357C1515.31 469.366 1506.23 465.532 1503.6 465.331C1500.98 465.129 1476.97 456.252 1475.96 456.252C1474.95 456.252 1451.75 486.919 1449.33 492.366C1446.91 497.814 1437.63 523.638 1437.63 523.638C1437.63 523.638 1428.95 532.314 1429.76 535.541C1430.57 538.769 1438.03 544.62 1438.03 544.62C1438.03 544.62 1449.13 546.234 1454.78 548.252C1460.43 550.27 1467.89 556.121 1473.34 556.322C1478.79 556.524 1488.47 561.164 1488.47 561.164L1483.23 577.304C1483.23 577.304 1481.81 574.278 1479.59 576.094C1477.37 577.91 1475.96 582.954 1474.95 583.357C1473.94 583.76 1466.68 589.006 1465.07 589.409C1463.45 589.813 1459.82 591.023 1458.41 595.058C1457 599.093 1456.39 608.172 1456.19 612.207C1455.99 616.242 1456.39 618.058 1454.37 622.698C1452.36 627.338 1438.23 659.418 1438.23 659.418C1438.23 659.418 1320.21 691.497 1308.3 697.752C1296.4 704.006 1276.42 721.559 1276.22 731.849C1276.02 742.139 1279.65 755.858 1280.66 758.885C1281.67 761.911 1285.1 771.192 1284.5 773.613C1283.89 776.034 1282.48 777.446 1282.28 779.464C1282.07 781.482 1282.48 769.981 1277.64 760.499C1272.79 751.016 1270.57 744.56 1268.96 745.367C1267.35 746.174 1265.33 741.937 1264.72 740.121C1264.12 738.305 1262.71 735.279 1259.28 735.884C1255.85 736.489 1254.03 736.691 1251.81 735.279C1249.59 733.867 1248.78 732.454 1245.96 733.262C1243.13 734.069 1241.92 734.674 1239.3 735.078C1236.68 735.482 1225.78 734.876 1222.76 736.288C1219.73 737.701 1218.32 738.709 1215.9 739.718C1213.48 740.727 1208.46 742.799 1208.46 742.799C1208.46 742.799 1201.56 743.426 1198.42 745.308C1195.28 747.19 1186.5 754.716 1183.37 757.852C1180.23 760.988 1178.35 759.733 1175.22 763.496C1172.08 767.259 1170.83 772.904 1170.2 776.667C1169.57 780.43 1171.45 783.566 1168.94 789.21C1166.43 794.855 1165.18 787.956 1166.43 794.855C1167.69 801.754 1166.43 803.635 1164.55 808.026C1162.67 812.416 1165.18 812.416 1166.43 818.061C1167.69 823.706 1167.06 828.723 1170.2 831.232C1173.33 833.741 1177.1 838.131 1177.1 838.131C1177.1 838.131 1173.33 841.894 1177.72 849.42C1182.11 856.946 1185.25 863.218 1188.39 865.1C1191.52 866.981 1205.95 870.117 1205.95 870.117C1205.95 870.117 1202.81 872.626 1192.78 874.507C1182.74 876.389 1154.52 878.27 1150.75 880.152C1146.99 882.034 1128.18 880.152 1125.67 887.678C1123.16 895.204 1116.26 900.222 1118.77 908.375C1118.77 908.375 1107.48 907.748 1098.7 903.985C1093.58 901.79 1086.12 897.472 1080.16 894.494C1075.58 879.431 1062.9 869.867 1058.32 860.305C1052.7 848.546 1049.63 838.833 1050.65 836.276C1051.68 833.72 1061.39 827.585 1059.86 820.939C1059.69 820.235 1059.46 818.204 1059.23 815.849C1059.39 815.757 1059.56 815.642 1059.73 815.475C1063.73 811.712 1063.58 803.298 1062.79 801.834C1061.78 799.95 1059.51 799.407 1057.92 799.267C1057.44 797.263 1056.51 795.216 1054.74 793.844C1052.68 792.244 1031.74 790.777 1028.16 798.446C1028.16 798.446 1024.07 812.761 1025.09 818.896C1026.11 825.031 1023.05 830.143 1025.6 836.278C1028.16 842.413 1032.76 881.779 1036.34 890.47C1038.68 896.159 1040.59 906.647 1044.07 914.518C1040.77 918.792 1038.65 922.571 1038.35 926.348C1037.74 933.813 1032.9 953.585 1032.09 956.611C1031.29 959.637 1029.27 962.26 1030.68 964.883C1032.09 967.506 1036.94 974.971 1037.14 976.988C1037.34 979.006 1031.29 980.014 1033.1 982.233C1034.92 984.453 1042.79 993.734 1045.81 997.365C1046.47 998.153 1047.39 999.176 1048.43 1000.32H1373.03C1372.97 999.495 1372.91 998.828 1372.86 998.37Z" fill="#D79442"/>
<path d="M109.909 346.619C108.693 342.565 105.044 343.781 105.044 343.781C105.044 343.781 71.1951 353.509 39.0271 362.651C43.4681 350.227 49.8761 339.51 54.1331 333.127C55.0471 333.626 56.0801 333.936 57.1951 333.936C60.7461 333.936 63.6251 331.057 63.6251 327.506C63.6251 326.571 63.4161 325.688 63.0571 324.887C65.1751 323.241 67.7581 321.09 70.2131 318.723C74.6051 314.488 70.0561 309.469 72.4091 306.176C74.7611 302.882 77.4281 300.843 80.0941 296.922C82.7601 293.001 86.2111 288.766 89.3471 283.277C92.4841 277.788 90.9161 269.005 90.9161 269.005C88.8771 278.729 84.1721 282.493 84.1721 282.493C86.8381 279.513 89.3481 268.221 89.3481 268.221L86.9961 265.868C82.9181 268.534 74.6061 288.139 75.3901 285.473C76.1741 282.807 79.1541 274.965 80.8801 272.769C82.6051 270.573 85.4281 264.457 85.4281 264.457L81.3501 261.32L78.3701 266.025C78.3701 266.025 80.0951 261.163 79.4681 260.065C78.8411 258.967 77.1161 258.34 77.1161 258.34C77.1161 258.34 77.9001 257.242 75.8611 259.752C73.8221 262.261 72.2541 272.77 72.2541 272.77C70.5291 266.967 72.8811 257.713 72.8811 257.713C70.6851 262.575 69.5871 267.28 69.9011 272.77C70.2151 278.259 65.1961 287.199 65.1961 287.199C63.9411 292.375 61.4321 298.648 60.4911 301.471C59.5501 304.294 60.0211 306.96 60.1771 308.999C60.3341 311.038 60.0201 312.293 58.2951 315.116C57.2461 316.833 56.5461 319.417 56.1581 321.181C53.1041 321.681 50.7671 324.311 50.7671 327.507C50.7671 329.768 51.9391 331.748 53.7041 332.894C45.0021 344.141 39.7031 354.384 36.5701 363.351C13.5331 369.894 -8.16987 375.998 -15.3519 377.835C-32.7829 382.294 -41.2969 386.753 -41.2969 386.753C-35.6209 434.589 -14.9469 516.882 -14.9469 516.882C-10.8929 513.234 25.9971 504.315 28.0241 504.315C30.0511 504.315 38.5641 506.342 40.1861 505.937C41.8081 505.532 43.4291 507.964 64.5091 503.505C85.5891 499.046 94.1021 484.857 94.1021 484.857C99.7771 483.235 136.667 471.885 136.667 471.885C136.667 471.885 111.126 350.673 109.909 346.619Z" fill="#D79442"/>
<path d="M759.914 435.178C755.099 436.316 754.583 432.644 754.583 432.644L762.56 421.881C762.56 421.881 778.25 420.754 784.344 422.873C790.438 424.992 789.4 423.086 789.4 423.086C789.4 423.086 788.711 420.003 784.764 418.198C780.817 416.393 778.328 411.819 775.699 408.803C773.07 405.787 766.393 398.057 764.106 399.302C761.819 400.546 745.086 405.205 740.859 406.517C736.632 407.829 731.2 402.386 724.692 399.505C718.184 396.624 690.524 383.02 687.963 381.944C685.401 380.868 676.505 376.322 673.595 376.423C673.595 376.423 668.751 404.796 663.773 433.951C654.942 420.12 647.762 401.565 653.19 381.598C658.125 363.446 658.896 352.654 657.726 345.507C657.865 345.438 658.007 345.381 658.144 345.306C664.46 341.869 666.793 333.963 663.357 327.648C662.961 326.92 662.499 326.251 661.993 325.631C662.375 323.676 662.717 321.538 662.959 319.258C663.831 311.03 662.198 310.577 659.868 304.838C657.537 299.099 657.022 296.695 654.866 293.097C652.71 289.499 651.534 285.517 650.698 281.797C649.863 278.077 647.992 275.367 646.698 271.897C645.404 268.427 645.513 263.894 645.339 261.753C645.164 259.611 644.489 256.55 644.009 254.575C643.529 252.6 640.518 249.616 640.518 249.616C640.518 249.616 640.998 251.591 642.37 256.66C643.741 261.729 642.045 261.161 641.42 263.29C640.795 265.419 640.942 267.874 641.951 270.456C642.96 273.038 644.752 289.805 644.195 286.232C643.638 282.659 642.058 278.3 640.952 275.174C639.846 272.049 639.698 266.314 639.814 262.523C639.931 258.732 637.558 251.823 636.293 251.319C635.028 250.815 629.552 253.496 629.552 253.496C629.552 253.496 629.827 262.74 629.514 262.165C629.201 261.59 627.961 254.213 627.961 254.213L625.695 255.148C625.695 255.148 623.124 256.249 623.479 257.994C623.834 259.739 632.124 274.61 632.124 274.61L631.214 275.851C630.811 275.474 628.802 274.331 627.18 268.802C625.558 263.273 620.288 258.686 620.288 258.686C620.288 258.686 621.971 261.05 623.954 265.786C625.937 270.522 624.38 271.667 625.737 275.253C626.715 277.838 630.078 281.974 631.886 284.088C630.701 283.305 628.701 282.632 625.009 279.377C619.676 274.675 620.05 268.806 620.05 268.806C619.099 272.156 616.493 272.829 623.278 278.381C630.064 283.932 644.117 300.29 642.622 317.206C642.35 320.289 642.259 322.902 642.287 325.133C638.672 329.12 637.77 335.1 640.488 340.094C643.309 345.278 649.141 347.772 654.633 346.601C655.591 353.206 655.549 361.291 652.995 370.342C646.624 392.923 645.653 409.229 663.515 435.471C660.101 455.46 656.663 475.592 654.714 486.991C649.871 515.317 655.825 518.994 661.397 522.879C666.969 526.764 714.283 558.328 728.622 557.442L734.479 519.177C734.479 519.177 746.397 515.656 753.123 508.043C759.849 500.43 767.305 491.433 770.461 487.245C773.617 483.057 781.072 474.06 783.847 470.08C786.622 466.1 791.532 439.714 792.574 436.182C793.616 432.651 795.315 431.232 795.315 431.232C795.315 431.232 764.729 434.04 759.914 435.178Z" fill="#D79442"/>
<path d="M390.461 221.959C388.148 194.979 388.919 191.125 388.919 191.125C388.919 191.125 375.429 185.729 369.262 186.5C369.262 186.5 360.012 150.27 358.856 145.645C357.7 141.02 355.773 138.322 355.002 143.332C355.002 143.332 320.667 159.777 291.5 174.527C270.33 151.233 279.078 136.937 285.136 131.047C285.868 132.024 287.024 132.666 288.339 132.666C290.555 132.666 292.352 130.869 292.352 128.653C292.352 128.502 292.324 128.358 292.307 128.212C294.375 126.24 297.154 123.719 299.888 122.623C304.24 120.878 314.119 105.421 312.473 106.293C310.826 107.166 309.18 110.282 309.062 110.781C308.944 111.28 296.83 120.255 296.83 120.255C296.83 120.255 298.476 118.759 299.888 117.139C301.299 115.519 302.24 113.773 302.828 112.153C303.416 110.533 306.709 108.164 308.709 107.042C310.708 105.92 310.591 102.181 310.591 102.181C310.003 102.43 307.298 104.3 306.122 105.422C304.946 106.544 303.299 108.289 302.594 109.037C301.888 109.785 299.301 111.156 299.301 111.156C300.83 109.785 300.595 109.536 303.77 105.796C306.945 102.056 308.827 101.807 308.71 101.433C308.593 101.059 306.475 97.9434 306.475 97.9434C306.475 97.9434 303.652 98.0684 302.594 98.6914C301.535 99.3144 301.535 101.807 300.477 103.428C299.418 105.048 295.655 109.91 295.655 109.91C295.773 109.037 294.714 106.544 296.361 105.796C298.008 105.048 300.242 98.6914 300.242 98.6914C300.242 98.6914 295.538 104.176 294.362 106.046C293.186 107.916 292.833 111.157 292.363 114.024C291.892 116.891 290.364 119.633 288.482 121.753C287.686 122.649 287.238 123.828 286.973 124.899C285.434 125.46 284.328 126.923 284.328 128.657C284.328 129.052 284.403 129.427 284.51 129.787C277.275 134.2 276.474 143.699 275.821 149.898C275.41 153.804 282.067 164.617 289.713 175.437C269.714 185.578 252.569 194.732 251.325 196.911C248.241 202.307 250.554 203.849 250.554 203.849L254.794 220.422C254.794 220.422 281.003 321.018 282.93 327.184C282.93 327.184 283.701 330.267 289.482 326.028C295.263 321.788 347.296 297.892 355.775 292.111C364.254 286.33 389.692 275.152 389.692 275.152L386.609 261.662C386.607 261.658 392.773 248.939 390.461 221.959Z" fill="#D79442"/>
<path d="M1145.4 182.449C1147.73 177.605 1147.15 175.086 1147.15 170.436C1147.15 165.786 1149.28 160.36 1148.7 155.322C1148.12 150.284 1150.83 134.395 1150.83 134.395C1148.89 136.333 1146.76 140.983 1145.79 143.889C1144.82 146.795 1143.27 152.221 1143.85 156.678C1144.43 161.135 1141.33 175.086 1141.33 175.086C1143.08 168.304 1141.33 163.46 1141.53 159.197C1141.72 154.934 1142.5 145.44 1144.05 141.758C1145.6 138.076 1147.53 134.589 1147.53 134.589L1142.3 131.683C1142.3 131.683 1138.23 131.877 1137.26 132.458C1136.29 133.039 1135.52 137.69 1135.33 140.209C1135.13 142.728 1131.64 153.385 1131.64 153.385C1131.64 153.385 1132.42 148.541 1133.39 144.278C1134.36 140.015 1135.52 132.458 1135.52 132.458C1135.52 132.458 1132.03 131.295 1132.23 131.877C1132.42 132.458 1128.74 139.822 1128.35 143.503C1127.96 147.185 1123.31 151.254 1121.38 157.842C1119.44 164.43 1121.96 182.063 1121.96 182.063C1119.44 178.575 1117.5 164.237 1117.5 164.237C1117.69 166.95 1117.11 176.832 1120.02 182.451C1122.93 188.07 1122.15 194.852 1120.6 200.859C1119.64 204.56 1119.65 210.167 1119.79 213.931C1116.61 214.728 1114.24 217.585 1114.24 221.015C1114.24 223.491 1115.47 225.67 1117.35 226.996C1117.33 227.055 1117.31 227.105 1117.28 227.164C1113.15 235.945 1095.36 254.807 1076.52 268.386C1062.99 278.137 1053 294.562 1047.76 304.139C1044.54 289.098 1033.62 234.979 1032.34 230.892L1003.86 239.902L1007.92 244.262L1011.41 265.189C1011.41 265.189 980.314 268.677 977.407 269.549C974.501 270.421 968.397 274.199 966.072 275.071C963.747 275.943 946.308 287.569 948.924 288.441C951.54 289.313 956.481 291.929 957.062 292.801C957.643 293.673 957.353 303.264 959.387 307.915C961.422 312.565 962.584 322.448 963.747 326.226C964.91 330.004 968.397 336.98 969.56 339.015C970.723 341.05 975.082 348.606 975.664 351.513C976.246 354.42 979.442 363.43 979.152 366.917C978.862 370.404 978.28 382.903 980.605 384.937C982.93 386.971 986.709 385.518 986.709 385.518L989.615 389.878C989.615 389.878 1001.82 387.262 1006.18 386.681C1010.54 386.1 1035.25 380.868 1035.25 380.868C1035.25 380.868 1037.57 393.947 1037.57 396.563C1037.57 399.179 1037.28 404.12 1037.28 404.12L1065.47 403.539C1065.47 403.539 1066.93 393.657 1065.47 388.425C1064.09 383.446 1050.87 317.7 1048.84 308.853C1051.04 303.898 1054.65 296.059 1061.99 286.408C1073.03 271.876 1087.56 261.994 1096.28 256.181C1104.31 250.827 1117.76 231.183 1119.83 228.115C1120.39 228.25 1120.97 228.342 1121.56 228.342C1125.44 228.342 1128.58 225.321 1128.84 221.509C1131.96 218.331 1135.96 213.679 1136.1 212.293C1136.3 210.355 1137.65 201.636 1139.4 196.404C1141.14 191.172 1159.93 171.796 1159.93 171.796C1152.57 175.086 1143.08 187.293 1145.4 182.449Z" fill="#D79442"/>
<path d="M1242.07 409.429L1230.65 383.152L1139.67 430.924C1139.67 430.924 1157.42 471.618 1167.11 493.887C1161.29 503.587 1157.81 514.798 1160.72 526.44C1167.05 551.71 1173.16 575.914 1174.99 588.7C1173.5 589.073 1172.08 589.837 1170.91 591.01C1167.95 593.986 1167.58 598.554 1169.78 601.935C1168.6 607.984 1168.07 618.838 1176.07 627.053C1187.52 638.815 1210 648.26 1219.56 660.789C1229.11 673.318 1239.6 681.849 1243.22 683.55C1243.22 683.55 1228.9 666.659 1224.7 661.725C1224.7 661.725 1243.02 681.077 1249.86 677.251L1254.03 670.768C1254.03 670.768 1244.11 664.329 1237.25 659.784C1237.25 659.784 1250.78 665.641 1255.73 667.148L1259.7 659.334C1259.7 659.334 1258.14 653.852 1249.46 649.921C1248.05 649.28 1246.45 648.681 1244.63 648.154C1231.68 644.388 1219.12 641.763 1215.68 638.73C1215.68 638.73 1244.62 643.588 1252.62 648.13C1252.62 648.13 1236.03 636.193 1224.23 633.946C1212.42 631.699 1204.79 625.253 1203.27 623.736C1201.74 622.219 1197.91 613.477 1194.28 609.873C1192.02 607.626 1188.42 603.459 1185.34 600.136C1186.45 597.04 1185.77 593.446 1183.28 590.974C1181.57 589.275 1179.33 588.429 1177.1 588.432C1176.92 586.966 1176.62 585.51 1176.12 584.241C1174.21 579.3 1162.23 519.968 1164.1 510.448C1164.85 506.625 1166.75 502.524 1169.13 498.538C1170.18 500.968 1171.09 503.053 1171.77 504.629C1178.23 519.584 1191.16 549.065 1191.59 549.919C1192.02 550.773 1208.68 543.02 1217.01 538.93C1225.34 534.84 1283.02 507.279 1283.02 507.279L1273.75 484.846C1273.75 484.846 1280.34 470.493 1277.94 456.168C1275.54 441.842 1260.69 413.009 1255.33 409.817L1242.07 409.429Z" fill="#D79442"/>
<path d="M656.329 175.93C652.584 172.621 650.565 170.697 650.565 170.697C651.154 171.708 653.25 173.555 656.329 175.93Z" fill="#D79442"/>
<path d="M826.655 358.998C826.609 358.975 826.554 358.956 826.497 358.937C826.597 358.981 826.655 358.998 826.655 358.998Z" fill="#D79442"/>
<path d="M823.557 350.479C824.073 342.993 819.082 339.551 816.5 337.83C813.919 336.109 800.753 326.127 799.72 324.32C798.961 322.991 791.838 319.849 788.012 317.389C788.612 316.03 788.952 314.53 788.952 312.949C788.952 307.986 785.666 303.792 781.151 302.418C781.17 301.346 781.122 300.219 780.984 299.02C779.387 285.114 767.676 266.474 754.877 257.468C741.382 247.971 743.339 239.993 744.21 237.846C747.812 239.83 751.483 241.786 755.219 243.701C815.971 274.843 848.134 283.522 848.134 283.522L800.144 260.038L797.592 243.701L822.608 197.243L797.592 180.906L787.381 189.585L787.891 176.312C787.891 176.312 762.876 153.849 736.839 158.443C736.839 158.443 711.313 198.264 712.844 213.58C712.844 213.58 671.911 187.952 656.325 175.929C668.655 186.825 699.85 212.863 740.496 235.767C739.377 238.241 736.878 247.296 753.332 258.875C766.286 267.991 776.646 288.728 777.94 299.996C778.02 300.692 778.013 301.329 777.971 301.94C777.961 301.94 777.95 301.939 777.95 301.939C771.86 301.939 766.931 306.867 766.931 312.948C766.931 316.695 768.806 320 771.666 321.988C772.248 324.545 773.404 327.417 775.622 330.256C782.076 338.517 793.435 348.584 799.716 355.813C805.998 363.041 801.781 368.462 799.888 372.249C799.888 372.249 802.728 369.926 803.674 365.623C804.621 361.321 803.158 354.781 802.9 354.781C802.9 354.781 808.063 360.546 806.342 368.893C804.621 377.24 806.428 374.314 808.407 377.842C808.407 377.842 806.083 373.367 807.374 370.183C808.665 366.999 808.923 359.771 807.546 356.071C806.169 352.371 804.276 347.036 804.19 346.777C804.104 346.519 816.926 353.489 818.13 361.922C819.335 370.355 821.916 371.301 823.293 372.334C823.293 372.334 818.13 360.373 818.216 355.038C818.302 349.703 817.183 346.949 814 343.766C814 343.766 821.228 345.057 822.089 352.113C822.903 358.79 825.487 358.611 826.492 358.936C825.808 358.634 823.106 357.021 823.557 350.479Z" fill="#D79442"/>
</g>
<rect x="-33" y="-30" width="1503" height="1038" fill="url(#paint0_linear_280_61)"/>
<defs>
<linearGradient id="paint0_linear_280_61" x1="718.5" y1="1008" x2="718.5" y2="-30" gradientUnits="userSpaceOnUse">
<stop stop-color="#FFF7F7" stop-opacity="0"/>
<stop offset="1" stop-color="#FFF7F7"/>
</linearGradient>
</defs>
</svg>
