<svg width="507" height="443" viewBox="0 0 507 443" fill="none" xmlns="http://www.w3.org/2000/svg">
<g filter="url(#filter0_d_57_2357)">
<rect x="40" y="15.5" width="101" height="101" rx="30" fill="#D79442"/>
<g clip-path="url(#clip0_57_2357)">
<path d="M83.751 66C90.6447 66 96.251 60.3937 96.251 53.5C96.251 46.6062 90.6447 41 83.751 41C76.8572 41 71.251 46.6062 71.251 53.5C71.251 60.3937 76.8572 66 83.751 66ZM83.751 45.1667C88.3468 45.1667 92.0843 48.9042 92.0843 53.5C92.0843 58.0958 88.3468 61.8333 83.751 61.8333C79.1551 61.8333 75.4176 58.0958 75.4176 53.5C75.4176 48.9042 79.1551 45.1667 83.751 45.1667ZM85.8343 72.25C85.8343 73.4 84.901 74.3333 83.751 74.3333C75.7093 74.3333 69.1676 80.875 69.1676 88.9167C69.1676 90.0667 68.2343 91 67.0843 91C65.9343 91 65.001 90.0667 65.001 88.9167C65.001 78.5792 73.4135 70.1667 83.751 70.1667C84.901 70.1667 85.8343 71.1 85.8343 72.25ZM108.751 70.2729V70.1667C108.751 67.8687 106.882 66 104.584 66H100.418C98.1197 66 96.251 67.8687 96.251 70.1667V70.2729C92.726 70.7833 90.001 73.7958 90.001 77.4583V83.7083C90.001 87.7292 93.2718 91 97.2926 91H107.709C111.73 91 115.001 87.7292 115.001 83.7083V77.4583C115.001 73.7958 112.276 70.7833 108.751 70.2729ZM97.2926 74.3333H107.709C109.432 74.3333 110.834 75.7354 110.834 77.4583V78.5H94.1676V77.4583C94.1676 75.7354 95.5697 74.3333 97.2926 74.3333ZM107.709 86.8333H97.2926C95.5697 86.8333 94.1676 85.4312 94.1676 83.7083V82.6667H100.418C100.418 83.8167 101.351 84.75 102.501 84.75C103.651 84.75 104.584 83.8167 104.584 82.6667H110.834V83.7083C110.834 85.4312 109.432 86.8333 107.709 86.8333Z" fill="white"/>
</g>
</g>
<path d="M156.798 68.5V65.3182L166.642 55.1193C167.693 54.0114 168.56 53.0407 169.241 52.2074C169.933 51.3646 170.449 50.5644 170.79 49.8068C171.131 49.0492 171.301 48.2443 171.301 47.392C171.301 46.4261 171.074 45.5928 170.619 44.892C170.165 44.1818 169.545 43.6373 168.759 43.2585C167.973 42.8703 167.087 42.6761 166.102 42.6761C165.061 42.6761 164.152 42.8892 163.375 43.3153C162.598 43.7415 162.002 44.3428 161.585 45.1193C161.169 45.8958 160.96 46.8049 160.96 47.8466H156.77C156.77 46.0758 157.177 44.5275 157.991 43.2017C158.806 41.8759 159.923 40.8485 161.344 40.1193C162.764 39.3807 164.379 39.0114 166.188 39.0114C168.015 39.0114 169.625 39.3759 171.017 40.1051C172.419 40.8248 173.512 41.8097 174.298 43.0597C175.084 44.3002 175.477 45.7017 175.477 47.2642C175.477 48.3438 175.274 49.3996 174.866 50.4318C174.469 51.464 173.773 52.6146 172.778 53.8835C171.784 55.143 170.402 56.6723 168.631 58.4716L162.849 64.5227V64.7358H175.946V68.5H156.798ZM190.932 68.8977C189.152 68.8977 187.551 68.5568 186.131 67.875C184.72 67.1837 183.593 66.2367 182.75 65.0341C181.907 63.8314 181.457 62.4583 181.401 60.9148H185.662C185.766 62.1648 186.32 63.1922 187.324 63.9972C188.328 64.8021 189.53 65.2045 190.932 65.2045C192.049 65.2045 193.039 64.9489 193.901 64.4375C194.772 63.9167 195.454 63.2017 195.946 62.2926C196.448 61.3835 196.699 60.3466 196.699 59.1818C196.699 57.9981 196.443 56.9422 195.932 56.0142C195.42 55.0862 194.715 54.357 193.815 53.8267C192.925 53.2964 191.902 53.0265 190.747 53.017C189.866 53.017 188.981 53.1686 188.091 53.4716C187.201 53.7746 186.481 54.1723 185.932 54.6648L181.912 54.0682L183.545 39.4091H199.54V43.1733H187.196L186.273 51.3125H186.443C187.011 50.7633 187.764 50.304 188.702 49.9347C189.649 49.5653 190.662 49.3807 191.741 49.3807C193.512 49.3807 195.089 49.8021 196.472 50.6449C197.864 51.4877 198.957 52.6383 199.753 54.0966C200.558 55.5455 200.955 57.2121 200.946 59.0966C200.955 60.9811 200.529 62.6619 199.668 64.1392C198.815 65.6165 197.632 66.7812 196.116 67.6335C194.611 68.4763 192.883 68.8977 190.932 68.8977ZM206.532 68.5V39.4091H210.921V53.3011H211.276L223.478 39.4091H229.004L217.271 52.5057L229.046 68.5H223.762L214.359 55.5028L210.921 59.4517V68.5H206.532ZM237.828 63.6136V44.4091H241.649V63.6136H237.828ZM230.143 55.9148V52.108H249.348V55.9148H230.143Z" fill="#175574"/>
<path d="M159.801 85.8636H161.551V94.1136C161.551 94.8598 161.403 95.4981 161.108 96.0284C160.816 96.5587 160.405 96.964 159.875 97.2443C159.345 97.5208 158.723 97.6591 158.011 97.6591C157.356 97.6591 156.767 97.5398 156.244 97.3011C155.725 97.0625 155.314 96.7159 155.011 96.2614C154.712 95.803 154.562 95.2462 154.562 94.5909H156.307C156.307 94.9129 156.381 95.1913 156.528 95.4261C156.68 95.661 156.886 95.8447 157.148 95.9773C157.413 96.1061 157.716 96.1705 158.057 96.1705C158.428 96.1705 158.742 96.0928 159 95.9375C159.261 95.7784 159.46 95.5455 159.597 95.2386C159.733 94.9318 159.801 94.5568 159.801 94.1136V85.8636ZM167.646 97.6761C166.828 97.6761 166.114 97.4886 165.504 97.1136C164.894 96.7386 164.421 96.214 164.084 95.5398C163.747 94.8655 163.578 94.0777 163.578 93.1761C163.578 92.2708 163.747 91.4792 164.084 90.8011C164.421 90.1231 164.894 89.5966 165.504 89.2216C166.114 88.8466 166.828 88.6591 167.646 88.6591C168.464 88.6591 169.179 88.8466 169.788 89.2216C170.398 89.5966 170.872 90.1231 171.209 90.8011C171.546 91.4792 171.714 92.2708 171.714 93.1761C171.714 94.0777 171.546 94.8655 171.209 95.5398C170.872 96.214 170.398 96.7386 169.788 97.1136C169.179 97.4886 168.464 97.6761 167.646 97.6761ZM167.652 96.25C168.182 96.25 168.622 96.1098 168.97 95.8295C169.319 95.5492 169.576 95.1761 169.743 94.7102C169.913 94.2443 169.999 93.7311 169.999 93.1705C169.999 92.6136 169.913 92.1023 169.743 91.6364C169.576 91.1667 169.319 90.7898 168.97 90.5057C168.622 90.2216 168.182 90.0795 167.652 90.0795C167.118 90.0795 166.675 90.2216 166.322 90.5057C165.974 90.7898 165.714 91.1667 165.544 91.6364C165.377 92.1023 165.294 92.6136 165.294 93.1705C165.294 93.7311 165.377 94.2443 165.544 94.7102C165.714 95.1761 165.974 95.5492 166.322 95.8295C166.675 96.1098 167.118 96.25 167.652 96.25ZM173.747 97.5V85.8636H175.446V90.1875H175.548C175.647 90.0057 175.789 89.7955 175.974 89.5568C176.16 89.3182 176.418 89.1098 176.747 88.9318C177.077 88.75 177.512 88.6591 178.054 88.6591C178.759 88.6591 179.387 88.8371 179.94 89.1932C180.493 89.5492 180.927 90.0625 181.241 90.733C181.56 91.4034 181.719 92.2102 181.719 93.1534C181.719 94.0966 181.562 94.9053 181.247 95.5795C180.933 96.25 180.501 96.767 179.952 97.1307C179.402 97.4905 178.776 97.6705 178.071 97.6705C177.541 97.6705 177.107 97.5814 176.77 97.4034C176.437 97.2254 176.175 97.017 175.986 96.7784C175.796 96.5398 175.651 96.3277 175.548 96.142H175.406V97.5H173.747ZM175.412 93.1364C175.412 93.75 175.501 94.2879 175.679 94.75C175.857 95.2121 176.115 95.5739 176.452 95.8352C176.789 96.0928 177.202 96.2216 177.69 96.2216C178.198 96.2216 178.622 96.0871 178.963 95.8182C179.304 95.5455 179.562 95.1761 179.736 94.7102C179.914 94.2443 180.003 93.7197 180.003 93.1364C180.003 92.5606 179.916 92.0436 179.741 91.5852C179.571 91.1269 179.313 90.7652 178.969 90.5C178.628 90.2348 178.202 90.1023 177.69 90.1023C177.198 90.1023 176.781 90.2292 176.44 90.483C176.103 90.7367 175.848 91.0909 175.673 91.5455C175.499 92 175.412 92.5303 175.412 93.1364ZM198.105 91.6818C198.105 92.9242 197.878 93.9924 197.423 94.8864C196.969 95.7765 196.346 96.4621 195.554 96.9432C194.766 97.4205 193.87 97.6591 192.866 97.6591C191.859 97.6591 190.959 97.4205 190.168 96.9432C189.38 96.4621 188.759 95.7746 188.304 94.8807C187.849 93.9867 187.622 92.9205 187.622 91.6818C187.622 90.4394 187.849 89.3731 188.304 88.483C188.759 87.589 189.38 86.9034 190.168 86.4261C190.959 85.9451 191.859 85.7045 192.866 85.7045C193.87 85.7045 194.766 85.9451 195.554 86.4261C196.346 86.9034 196.969 87.589 197.423 88.483C197.878 89.3731 198.105 90.4394 198.105 91.6818ZM196.366 91.6818C196.366 90.7348 196.213 89.9375 195.906 89.2898C195.603 88.6383 195.187 88.1458 194.656 87.8125C194.13 87.4754 193.533 87.3068 192.866 87.3068C192.196 87.3068 191.598 87.4754 191.071 87.8125C190.545 88.1458 190.128 88.6383 189.821 89.2898C189.518 89.9375 189.366 90.7348 189.366 91.6818C189.366 92.6288 189.518 93.428 189.821 94.0795C190.128 94.7273 190.545 95.2197 191.071 95.5568C191.598 95.8902 192.196 96.0568 192.866 96.0568C193.533 96.0568 194.13 95.8902 194.656 95.5568C195.187 95.2197 195.603 94.7273 195.906 94.0795C196.213 93.428 196.366 92.6288 196.366 91.6818ZM200.158 100.773V88.7727H201.817V90.1875H201.959C202.057 90.0057 202.199 89.7955 202.385 89.5568C202.571 89.3182 202.828 89.1098 203.158 88.9318C203.487 88.75 203.923 88.6591 204.464 88.6591C205.169 88.6591 205.798 88.8371 206.351 89.1932C206.904 89.5492 207.338 90.0625 207.652 90.733C207.97 91.4034 208.129 92.2102 208.129 93.1534C208.129 94.0966 207.972 94.9053 207.658 95.5795C207.343 96.25 206.911 96.767 206.362 97.1307C205.813 97.4905 205.186 97.6705 204.482 97.6705C203.951 97.6705 203.518 97.5814 203.18 97.4034C202.847 97.2254 202.586 97.017 202.396 96.7784C202.207 96.5398 202.061 96.3277 201.959 96.142H201.857V100.773H200.158ZM201.822 93.1364C201.822 93.75 201.911 94.2879 202.089 94.75C202.268 95.2121 202.525 95.5739 202.862 95.8352C203.199 96.0928 203.612 96.2216 204.101 96.2216C204.608 96.2216 205.033 96.0871 205.374 95.8182C205.714 95.5455 205.972 95.1761 206.146 94.7102C206.324 94.2443 206.413 93.7197 206.413 93.1364C206.413 92.5606 206.326 92.0436 206.152 91.5852C205.982 91.1269 205.724 90.7652 205.379 90.5C205.038 90.2348 204.612 90.1023 204.101 90.1023C203.608 90.1023 203.192 90.2292 202.851 90.483C202.514 90.7367 202.258 91.0909 202.084 91.5455C201.91 92 201.822 92.5303 201.822 93.1364ZM213.794 97.6761C212.934 97.6761 212.194 97.4924 211.572 97.125C210.955 96.7538 210.478 96.233 210.141 95.5625C209.807 94.8883 209.641 94.0985 209.641 93.1932C209.641 92.2992 209.807 91.5114 210.141 90.8295C210.478 90.1477 210.947 89.6155 211.55 89.233C212.156 88.8504 212.864 88.6591 213.675 88.6591C214.167 88.6591 214.644 88.7405 215.107 88.9034C215.569 89.0663 215.983 89.322 216.351 89.6705C216.718 90.0189 217.008 90.4716 217.22 91.0284C217.432 91.5814 217.538 92.2538 217.538 93.0455V93.6477H210.601V92.375H215.874C215.874 91.928 215.783 91.5322 215.601 91.1875C215.419 90.839 215.163 90.5644 214.834 90.3636C214.508 90.1629 214.125 90.0625 213.686 90.0625C213.209 90.0625 212.792 90.1799 212.436 90.4148C212.084 90.6458 211.811 90.9489 211.618 91.3239C211.429 91.6951 211.334 92.0985 211.334 92.5341V93.5284C211.334 94.1117 211.436 94.608 211.641 95.017C211.849 95.4261 212.139 95.7386 212.51 95.9545C212.881 96.1667 213.315 96.2727 213.811 96.2727C214.133 96.2727 214.427 96.2273 214.692 96.1364C214.957 96.0417 215.186 95.9015 215.379 95.7159C215.572 95.5303 215.72 95.3011 215.822 95.0284L217.43 95.3182C217.302 95.7917 217.071 96.2064 216.737 96.5625C216.408 96.9148 215.993 97.1894 215.493 97.3864C214.997 97.5795 214.43 97.6761 213.794 97.6761ZM221.122 92.3182V97.5H219.423V88.7727H221.054V90.1932H221.162C221.363 89.7311 221.677 89.3598 222.105 89.0795C222.537 88.7992 223.08 88.6591 223.736 88.6591C224.33 88.6591 224.851 88.7841 225.298 89.0341C225.745 89.2803 226.092 89.6477 226.338 90.1364C226.584 90.625 226.707 91.2292 226.707 91.9489V97.5H225.009V92.1534C225.009 91.5208 224.844 91.0265 224.514 90.6705C224.185 90.3106 223.732 90.1307 223.156 90.1307C222.762 90.1307 222.412 90.2159 222.105 90.3864C221.802 90.5568 221.562 90.8068 221.384 91.1364C221.209 91.4621 221.122 91.8561 221.122 92.3182ZM228.986 97.5V88.7727H230.685V97.5H228.986ZM229.844 87.4261C229.548 87.4261 229.295 87.3277 229.082 87.1307C228.874 86.9299 228.77 86.6913 228.77 86.4148C228.77 86.1345 228.874 85.8958 229.082 85.6989C229.295 85.4981 229.548 85.3977 229.844 85.3977C230.139 85.3977 230.391 85.4981 230.599 85.6989C230.812 85.8958 230.918 86.1345 230.918 86.4148C230.918 86.6913 230.812 86.9299 230.599 87.1307C230.391 87.3277 230.139 87.4261 229.844 87.4261ZM234.669 92.3182V97.5H232.97V88.7727H234.601V90.1932H234.709C234.91 89.7311 235.224 89.3598 235.652 89.0795C236.084 88.7992 236.627 88.6591 237.283 88.6591C237.877 88.6591 238.398 88.7841 238.845 89.0341C239.292 89.2803 239.639 89.6477 239.885 90.1364C240.131 90.625 240.254 91.2292 240.254 91.9489V97.5H238.555V92.1534C238.555 91.5208 238.391 91.0265 238.061 90.6705C237.732 90.3106 237.279 90.1307 236.703 90.1307C236.309 90.1307 235.959 90.2159 235.652 90.3864C235.349 90.5568 235.108 90.8068 234.93 91.1364C234.756 91.4621 234.669 91.8561 234.669 92.3182ZM246.192 100.955C245.499 100.955 244.902 100.864 244.402 100.682C243.906 100.5 243.5 100.259 243.186 99.9602C242.872 99.661 242.637 99.3333 242.482 98.9773L243.942 98.375C244.044 98.5417 244.18 98.7178 244.351 98.9034C244.525 99.0928 244.76 99.2538 245.055 99.3864C245.355 99.5189 245.739 99.5852 246.209 99.5852C246.853 99.5852 247.385 99.428 247.805 99.1136C248.226 98.803 248.436 98.3068 248.436 97.625V95.9091H248.328C248.226 96.0947 248.078 96.3011 247.885 96.5284C247.696 96.7557 247.434 96.9527 247.101 97.1193C246.768 97.286 246.334 97.3693 245.8 97.3693C245.11 97.3693 244.489 97.2083 243.936 96.8864C243.387 96.5606 242.951 96.0814 242.629 95.4489C242.311 94.8125 242.152 94.0303 242.152 93.1023C242.152 92.1742 242.309 91.3788 242.624 90.7159C242.942 90.053 243.377 89.5455 243.93 89.1932C244.483 88.8371 245.11 88.6591 245.811 88.6591C246.353 88.6591 246.79 88.75 247.124 88.9318C247.457 89.1098 247.716 89.3182 247.902 89.5568C248.091 89.7955 248.237 90.0057 248.339 90.1875H248.464V88.7727H250.129V97.6932C250.129 98.4432 249.955 99.0587 249.607 99.5398C249.258 100.021 248.786 100.377 248.192 100.608C247.601 100.839 246.934 100.955 246.192 100.955ZM246.175 95.9602C246.663 95.9602 247.076 95.8466 247.413 95.6193C247.754 95.3883 248.012 95.0587 248.186 94.6307C248.364 94.1989 248.453 93.6818 248.453 93.0795C248.453 92.4924 248.366 91.9754 248.192 91.5284C248.018 91.0814 247.762 90.733 247.425 90.483C247.088 90.2292 246.671 90.1023 246.175 90.1023C245.663 90.1023 245.237 90.2348 244.896 90.5C244.555 90.7614 244.298 91.1174 244.124 91.5682C243.953 92.0189 243.868 92.5227 243.868 93.0795C243.868 93.6515 243.955 94.1534 244.129 94.5852C244.304 95.017 244.561 95.3542 244.902 95.5966C245.247 95.839 245.671 95.9602 246.175 95.9602ZM258.947 90.9034L257.408 91.1761C257.343 90.9792 257.241 90.7917 257.101 90.6136C256.964 90.4356 256.779 90.2898 256.544 90.1761C256.309 90.0625 256.016 90.0057 255.663 90.0057C255.182 90.0057 254.781 90.1136 254.459 90.3295C254.137 90.5417 253.976 90.8163 253.976 91.1534C253.976 91.4451 254.084 91.6799 254.3 91.858C254.516 92.036 254.864 92.1818 255.345 92.2955L256.732 92.6136C257.535 92.7992 258.133 93.0852 258.527 93.4716C258.921 93.858 259.118 94.3598 259.118 94.9773C259.118 95.5 258.966 95.9659 258.663 96.375C258.364 96.7803 257.946 97.0985 257.408 97.3295C256.874 97.5606 256.254 97.6761 255.55 97.6761C254.572 97.6761 253.775 97.4678 253.158 97.0511C252.54 96.6307 252.161 96.0341 252.021 95.2614L253.663 95.0114C253.766 95.4394 253.976 95.7633 254.294 95.983C254.612 96.1989 255.027 96.3068 255.538 96.3068C256.095 96.3068 256.54 96.1913 256.874 95.9602C257.207 95.7254 257.374 95.4394 257.374 95.1023C257.374 94.8295 257.271 94.6004 257.067 94.4148C256.866 94.2292 256.557 94.089 256.141 93.9943L254.663 93.6705C253.849 93.4848 253.247 93.1894 252.857 92.7841C252.47 92.3788 252.277 91.8655 252.277 91.2443C252.277 90.7292 252.421 90.2784 252.709 89.892C252.997 89.5057 253.394 89.2045 253.902 88.9886C254.41 88.7689 254.991 88.6591 255.646 88.6591C256.589 88.6591 257.332 88.8636 257.874 89.2727C258.415 89.678 258.773 90.2216 258.947 90.9034Z" fill="#175574"/>
<g filter="url(#filter1_d_57_2357)">
<rect x="40" y="276.5" width="101" height="101" rx="30" fill="#175574"/>
<g clip-path="url(#clip1_57_2357)">
<path d="M79.5833 331.167C79.5833 331.719 79.3638 332.249 78.9731 332.64C78.5824 333.031 78.0525 333.25 77.5 333.25H75.4167C74.8641 333.25 74.3342 333.031 73.9435 332.64C73.5528 332.249 73.3333 331.719 73.3333 331.167C73.3333 330.614 73.5528 330.084 73.9435 329.694C74.3342 329.303 74.8641 329.083 75.4167 329.083H77.5C78.0525 329.083 78.5824 329.303 78.9731 329.694C79.3638 330.084 79.5833 330.614 79.5833 331.167ZM87.9167 329.083H85.8333C85.2808 329.083 84.7509 329.303 84.3602 329.694C83.9695 330.084 83.75 330.614 83.75 331.167C83.75 331.719 83.9695 332.249 84.3602 332.64C84.7509 333.031 85.2808 333.25 85.8333 333.25H87.9167C88.4692 333.25 88.9991 333.031 89.3898 332.64C89.7805 332.249 90 331.719 90 331.167C90 330.614 89.7805 330.084 89.3898 329.694C88.9991 329.303 88.4692 329.083 87.9167 329.083ZM77.5 337.417H75.4167C74.8641 337.417 74.3342 337.636 73.9435 338.027C73.5528 338.418 73.3333 338.947 73.3333 339.5C73.3333 340.053 73.5528 340.582 73.9435 340.973C74.3342 341.364 74.8641 341.583 75.4167 341.583H77.5C78.0525 341.583 78.5824 341.364 78.9731 340.973C79.3638 340.582 79.5833 340.053 79.5833 339.5C79.5833 338.947 79.3638 338.418 78.9731 338.027C78.5824 337.636 78.0525 337.417 77.5 337.417ZM87.9167 337.417H85.8333C85.2808 337.417 84.7509 337.636 84.3602 338.027C83.9695 338.418 83.75 338.947 83.75 339.5C83.75 340.053 83.9695 340.582 84.3602 340.973C84.7509 341.364 85.2808 341.583 85.8333 341.583H87.9167C88.4692 341.583 88.9991 341.364 89.3898 340.973C89.7805 340.582 90 340.053 90 339.5C90 338.947 89.7805 338.418 89.3898 338.027C88.9991 337.636 88.4692 337.417 87.9167 337.417ZM77.5 312.417H75.4167C74.8641 312.417 74.3342 312.636 73.9435 313.027C73.5528 313.418 73.3333 313.947 73.3333 314.5C73.3333 315.053 73.5528 315.582 73.9435 315.973C74.3342 316.364 74.8641 316.583 75.4167 316.583H77.5C78.0525 316.583 78.5824 316.364 78.9731 315.973C79.3638 315.582 79.5833 315.053 79.5833 314.5C79.5833 313.947 79.3638 313.418 78.9731 313.027C78.5824 312.636 78.0525 312.417 77.5 312.417ZM87.9167 312.417H85.8333C85.2808 312.417 84.7509 312.636 84.3602 313.027C83.9695 313.418 83.75 313.947 83.75 314.5C83.75 315.053 83.9695 315.582 84.3602 315.973C84.7509 316.364 85.2808 316.583 85.8333 316.583H87.9167C88.4692 316.583 88.9991 316.364 89.3898 315.973C89.7805 315.582 90 315.053 90 314.5C90 313.947 89.7805 313.418 89.3898 313.027C88.9991 312.636 88.4692 312.417 87.9167 312.417ZM77.5 320.75H75.4167C74.8641 320.75 74.3342 320.969 73.9435 321.36C73.5528 321.751 73.3333 322.281 73.3333 322.833C73.3333 323.386 73.5528 323.916 73.9435 324.306C74.3342 324.697 74.8641 324.917 75.4167 324.917H77.5C78.0525 324.917 78.5824 324.697 78.9731 324.306C79.3638 323.916 79.5833 323.386 79.5833 322.833C79.5833 322.281 79.3638 321.751 78.9731 321.36C78.5824 320.969 78.0525 320.75 77.5 320.75ZM87.9167 320.75H85.8333C85.2808 320.75 84.7509 320.969 84.3602 321.36C83.9695 321.751 83.75 322.281 83.75 322.833C83.75 323.386 83.9695 323.916 84.3602 324.306C84.7509 324.697 85.2808 324.917 85.8333 324.917H87.9167C88.4692 324.917 88.9991 324.697 89.3898 324.306C89.7805 323.916 90 323.386 90 322.833C90 322.281 89.7805 321.751 89.3898 321.36C88.9991 320.969 88.4692 320.75 87.9167 320.75ZM115 322.833V341.583C114.997 344.345 113.898 346.993 111.945 348.945C109.993 350.898 107.345 351.997 104.583 352H75.4167C72.655 351.997 70.0074 350.898 68.0546 348.945C66.1018 346.993 65.0033 344.345 65 341.583V312.417C65.0033 309.655 66.1018 307.007 68.0546 305.055C70.0074 303.102 72.655 302.003 75.4167 302H87.9167C90.6783 302.003 93.3259 303.102 95.2787 305.055C97.2315 307.007 98.33 309.655 98.3333 312.417H104.583C107.345 312.42 109.993 313.519 111.945 315.471C113.898 317.424 114.997 320.072 115 322.833ZM75.4167 347.833H94.1667V312.417C94.1667 310.759 93.5082 309.169 92.3361 307.997C91.164 306.825 89.5743 306.167 87.9167 306.167H75.4167C73.7591 306.167 72.1694 306.825 70.9973 307.997C69.8251 309.169 69.1667 310.759 69.1667 312.417V341.583C69.1667 343.241 69.8251 344.831 70.9973 346.003C72.1694 347.175 73.7591 347.833 75.4167 347.833ZM110.833 322.833C110.833 321.176 110.175 319.586 109.003 318.414C107.831 317.242 106.241 316.583 104.583 316.583H98.3333V347.833H104.583C106.241 347.833 107.831 347.175 109.003 346.003C110.175 344.831 110.833 343.241 110.833 341.583V322.833ZM104.583 329.083C104.171 329.083 103.769 329.206 103.426 329.434C103.083 329.663 102.816 329.989 102.659 330.369C102.501 330.75 102.46 331.169 102.54 331.573C102.62 331.977 102.819 332.348 103.11 332.64C103.402 332.931 103.773 333.13 104.177 333.21C104.581 333.29 105 333.249 105.381 333.091C105.761 332.934 106.087 332.667 106.316 332.324C106.544 331.982 106.667 331.579 106.667 331.167C106.667 330.614 106.447 330.084 106.056 329.694C105.666 329.303 105.136 329.083 104.583 329.083ZM104.583 337.417C104.171 337.417 103.769 337.539 103.426 337.768C103.083 337.997 102.816 338.322 102.659 338.703C102.501 339.083 102.46 339.502 102.54 339.906C102.62 340.311 102.819 340.682 103.11 340.973C103.402 341.264 103.773 341.463 104.177 341.543C104.581 341.624 105 341.582 105.381 341.425C105.761 341.267 106.087 341 106.316 340.657C106.544 340.315 106.667 339.912 106.667 339.5C106.667 338.947 106.447 338.418 106.056 338.027C105.666 337.636 105.136 337.417 104.583 337.417ZM104.583 320.75C104.171 320.75 103.769 320.872 103.426 321.101C103.083 321.33 102.816 321.655 102.659 322.036C102.501 322.417 102.46 322.836 102.54 323.24C102.62 323.644 102.819 324.015 103.11 324.306C103.402 324.598 103.773 324.796 104.177 324.877C104.581 324.957 105 324.916 105.381 324.758C105.761 324.6 106.087 324.333 106.316 323.991C106.544 323.648 106.667 323.245 106.667 322.833C106.667 322.281 106.447 321.751 106.056 321.36C105.666 320.969 105.136 320.75 104.583 320.75Z" fill="white"/>
</g>
</g>
<path d="M166.401 329.898C164.62 329.898 163.02 329.557 161.599 328.875C160.188 328.184 159.062 327.237 158.219 326.034C157.376 324.831 156.926 323.458 156.869 321.915H161.131C161.235 323.165 161.789 324.192 162.793 324.997C163.796 325.802 164.999 326.205 166.401 326.205C167.518 326.205 168.508 325.949 169.369 325.438C170.241 324.917 170.922 324.202 171.415 323.293C171.917 322.384 172.168 321.347 172.168 320.182C172.168 318.998 171.912 317.942 171.401 317.014C170.889 316.086 170.184 315.357 169.284 314.827C168.394 314.296 167.371 314.027 166.216 314.017C165.335 314.017 164.45 314.169 163.56 314.472C162.67 314.775 161.95 315.172 161.401 315.665L157.381 315.068L159.014 300.409H175.009V304.173H162.665L161.741 312.312H161.912C162.48 311.763 163.233 311.304 164.17 310.935C165.117 310.565 166.131 310.381 167.21 310.381C168.981 310.381 170.558 310.802 171.94 311.645C173.332 312.488 174.426 313.638 175.222 315.097C176.027 316.545 176.424 318.212 176.415 320.097C176.424 321.981 175.998 323.662 175.136 325.139C174.284 326.616 173.1 327.781 171.585 328.634C170.08 329.476 168.351 329.898 166.401 329.898ZM191.731 329.983C189.487 329.973 187.569 329.382 185.978 328.207C184.387 327.033 183.17 325.324 182.327 323.08C181.485 320.835 181.063 318.132 181.063 314.969C181.063 311.815 181.485 309.121 182.327 306.886C183.18 304.652 184.401 302.947 185.992 301.773C187.593 300.598 189.505 300.011 191.731 300.011C193.956 300.011 195.864 300.603 197.455 301.787C199.046 302.961 200.263 304.666 201.106 306.901C201.958 309.126 202.384 311.815 202.384 314.969C202.384 318.141 201.963 320.849 201.12 323.094C200.277 325.329 199.06 327.038 197.469 328.222C195.879 329.396 193.966 329.983 191.731 329.983ZM191.731 326.19C193.701 326.19 195.239 325.229 196.347 323.307C197.465 321.384 198.023 318.605 198.023 314.969C198.023 312.554 197.768 310.513 197.256 308.847C196.754 307.17 196.03 305.902 195.083 305.04C194.146 304.169 193.028 303.733 191.731 303.733C189.771 303.733 188.232 304.699 187.114 306.631C185.997 308.562 185.433 311.342 185.424 314.969C185.424 317.393 185.675 319.443 186.177 321.119C186.688 322.786 187.413 324.05 188.35 324.912C189.288 325.764 190.415 326.19 191.731 326.19ZM217.551 329.983C215.307 329.973 213.389 329.382 211.798 328.207C210.207 327.033 208.991 325.324 208.148 323.08C207.305 320.835 206.884 318.132 206.884 314.969C206.884 311.815 207.305 309.121 208.148 306.886C209 304.652 210.222 302.947 211.812 301.773C213.413 300.598 215.326 300.011 217.551 300.011C219.777 300.011 221.685 300.603 223.276 301.787C224.866 302.961 226.083 304.666 226.926 306.901C227.778 309.126 228.205 311.815 228.205 314.969C228.205 318.141 227.783 320.849 226.94 323.094C226.098 325.329 224.881 327.038 223.29 328.222C221.699 329.396 219.786 329.983 217.551 329.983ZM217.551 326.19C219.521 326.19 221.06 325.229 222.168 323.307C223.285 321.384 223.844 318.605 223.844 314.969C223.844 312.554 223.588 310.513 223.077 308.847C222.575 307.17 221.85 305.902 220.903 305.04C219.966 304.169 218.848 303.733 217.551 303.733C215.591 303.733 214.052 304.699 212.935 306.631C211.817 308.562 211.254 311.342 211.244 314.969C211.244 317.393 211.495 319.443 211.997 321.119C212.509 322.786 213.233 324.05 214.17 324.912C215.108 325.764 216.235 326.19 217.551 326.19ZM241.852 324.614V305.409H245.673V324.614H241.852ZM234.167 316.915V313.108H253.371V316.915H234.167Z" fill="#175574"/>
<path d="M164.943 350.648H163.17C163.102 350.269 162.975 349.936 162.79 349.648C162.604 349.36 162.377 349.116 162.108 348.915C161.839 348.714 161.538 348.562 161.205 348.46C160.875 348.358 160.525 348.307 160.153 348.307C159.483 348.307 158.883 348.475 158.352 348.812C157.826 349.15 157.409 349.644 157.102 350.295C156.799 350.947 156.648 351.742 156.648 352.682C156.648 353.629 156.799 354.428 157.102 355.08C157.409 355.731 157.828 356.223 158.358 356.557C158.888 356.89 159.485 357.057 160.148 357.057C160.515 357.057 160.864 357.008 161.193 356.909C161.527 356.807 161.828 356.657 162.097 356.46C162.366 356.263 162.593 356.023 162.778 355.739C162.968 355.451 163.098 355.121 163.17 354.75L164.943 354.756C164.848 355.328 164.665 355.854 164.392 356.335C164.123 356.812 163.777 357.225 163.352 357.574C162.932 357.919 162.451 358.186 161.909 358.375C161.367 358.564 160.777 358.659 160.136 358.659C159.129 358.659 158.231 358.42 157.443 357.943C156.655 357.462 156.034 356.775 155.58 355.881C155.129 354.987 154.903 353.92 154.903 352.682C154.903 351.439 155.131 350.373 155.585 349.483C156.04 348.589 156.661 347.903 157.449 347.426C158.237 346.945 159.133 346.705 160.136 346.705C160.754 346.705 161.33 346.794 161.864 346.972C162.402 347.146 162.884 347.403 163.312 347.744C163.741 348.081 164.095 348.494 164.375 348.983C164.655 349.468 164.845 350.023 164.943 350.648ZM170.584 358.676C169.766 358.676 169.052 358.489 168.442 358.114C167.832 357.739 167.358 357.214 167.021 356.54C166.684 355.866 166.516 355.078 166.516 354.176C166.516 353.271 166.684 352.479 167.021 351.801C167.358 351.123 167.832 350.597 168.442 350.222C169.052 349.847 169.766 349.659 170.584 349.659C171.402 349.659 172.116 349.847 172.726 350.222C173.336 350.597 173.809 351.123 174.146 351.801C174.483 352.479 174.652 353.271 174.652 354.176C174.652 355.078 174.483 355.866 174.146 356.54C173.809 357.214 173.336 357.739 172.726 358.114C172.116 358.489 171.402 358.676 170.584 358.676ZM170.589 357.25C171.12 357.25 171.559 357.11 171.908 356.83C172.256 356.549 172.514 356.176 172.68 355.71C172.851 355.244 172.936 354.731 172.936 354.17C172.936 353.614 172.851 353.102 172.68 352.636C172.514 352.167 172.256 351.79 171.908 351.506C171.559 351.222 171.12 351.08 170.589 351.08C170.055 351.08 169.612 351.222 169.26 351.506C168.911 351.79 168.652 352.167 168.482 352.636C168.315 353.102 168.232 353.614 168.232 354.17C168.232 354.731 168.315 355.244 168.482 355.71C168.652 356.176 168.911 356.549 169.26 356.83C169.612 357.11 170.055 357.25 170.589 357.25ZM176.548 358.5V349.773H178.179V351.193H178.287C178.469 350.712 178.766 350.337 179.179 350.068C179.592 349.795 180.086 349.659 180.662 349.659C181.245 349.659 181.734 349.795 182.128 350.068C182.526 350.341 182.819 350.716 183.009 351.193H183.099C183.308 350.727 183.639 350.356 184.094 350.08C184.548 349.799 185.09 349.659 185.719 349.659C186.51 349.659 187.156 349.907 187.656 350.403C188.16 350.9 188.412 351.648 188.412 352.648V358.5H186.713V352.807C186.713 352.216 186.552 351.788 186.23 351.523C185.908 351.258 185.524 351.125 185.077 351.125C184.524 351.125 184.094 351.295 183.787 351.636C183.48 351.973 183.327 352.407 183.327 352.938V358.5H181.634V352.699C181.634 352.225 181.486 351.845 181.19 351.557C180.895 351.269 180.51 351.125 180.037 351.125C179.715 351.125 179.418 351.21 179.145 351.381C178.876 351.547 178.658 351.78 178.491 352.08C178.329 352.379 178.247 352.725 178.247 353.119V358.5H176.548ZM190.689 361.773V349.773H192.348V351.188H192.49C192.589 351.006 192.731 350.795 192.916 350.557C193.102 350.318 193.359 350.11 193.689 349.932C194.018 349.75 194.454 349.659 194.996 349.659C195.7 349.659 196.329 349.837 196.882 350.193C197.435 350.549 197.869 351.062 198.183 351.733C198.501 352.403 198.661 353.21 198.661 354.153C198.661 355.097 198.503 355.905 198.189 356.58C197.875 357.25 197.443 357.767 196.893 358.131C196.344 358.491 195.717 358.67 195.013 358.67C194.482 358.67 194.049 358.581 193.712 358.403C193.378 358.225 193.117 358.017 192.928 357.778C192.738 357.54 192.592 357.328 192.49 357.142H192.388V361.773H190.689ZM192.354 354.136C192.354 354.75 192.443 355.288 192.621 355.75C192.799 356.212 193.056 356.574 193.393 356.835C193.731 357.093 194.143 357.222 194.632 357.222C195.14 357.222 195.564 357.087 195.905 356.818C196.246 356.545 196.503 356.176 196.678 355.71C196.856 355.244 196.945 354.72 196.945 354.136C196.945 353.561 196.857 353.044 196.683 352.585C196.513 352.127 196.255 351.765 195.911 351.5C195.57 351.235 195.143 351.102 194.632 351.102C194.14 351.102 193.723 351.229 193.382 351.483C193.045 351.737 192.789 352.091 192.615 352.545C192.441 353 192.354 353.53 192.354 354.136ZM203.104 358.693C202.551 358.693 202.051 358.591 201.604 358.386C201.157 358.178 200.803 357.877 200.541 357.483C200.284 357.089 200.155 356.606 200.155 356.034C200.155 355.542 200.25 355.136 200.439 354.818C200.628 354.5 200.884 354.248 201.206 354.062C201.528 353.877 201.888 353.737 202.286 353.642C202.683 353.547 203.089 353.475 203.501 353.426C204.024 353.366 204.448 353.316 204.774 353.278C205.1 353.237 205.337 353.17 205.484 353.08C205.632 352.989 205.706 352.841 205.706 352.636V352.597C205.706 352.1 205.566 351.716 205.286 351.443C205.009 351.17 204.596 351.034 204.047 351.034C203.475 351.034 203.024 351.161 202.695 351.415C202.369 351.665 202.143 351.943 202.018 352.25L200.422 351.886C200.611 351.356 200.888 350.928 201.251 350.602C201.619 350.273 202.041 350.034 202.518 349.886C202.996 349.735 203.498 349.659 204.024 349.659C204.373 349.659 204.742 349.701 205.132 349.784C205.526 349.864 205.893 350.011 206.234 350.227C206.579 350.443 206.861 350.752 207.081 351.153C207.301 351.551 207.411 352.068 207.411 352.705V358.5H205.751V357.307H205.683C205.573 357.527 205.409 357.742 205.189 357.955C204.969 358.167 204.687 358.343 204.342 358.483C203.998 358.623 203.585 358.693 203.104 358.693ZM203.473 357.33C203.943 357.33 204.344 357.237 204.678 357.051C205.015 356.866 205.27 356.623 205.445 356.324C205.623 356.021 205.712 355.697 205.712 355.352V354.227C205.651 354.288 205.534 354.345 205.359 354.398C205.189 354.447 204.994 354.491 204.774 354.528C204.554 354.562 204.34 354.595 204.132 354.625C203.924 354.652 203.75 354.674 203.609 354.693C203.28 354.735 202.979 354.805 202.706 354.903C202.437 355.002 202.221 355.144 202.058 355.33C201.899 355.511 201.82 355.754 201.82 356.057C201.82 356.477 201.975 356.795 202.286 357.011C202.596 357.223 202.992 357.33 203.473 357.33ZM211.372 353.318V358.5H209.673V349.773H211.304V351.193H211.412C211.613 350.731 211.927 350.36 212.355 350.08C212.787 349.799 213.33 349.659 213.986 349.659C214.58 349.659 215.101 349.784 215.548 350.034C215.995 350.28 216.342 350.648 216.588 351.136C216.834 351.625 216.957 352.229 216.957 352.949V358.5H215.259V353.153C215.259 352.521 215.094 352.027 214.764 351.67C214.435 351.311 213.982 351.131 213.406 351.131C213.012 351.131 212.662 351.216 212.355 351.386C212.052 351.557 211.812 351.807 211.634 352.136C211.459 352.462 211.372 352.856 211.372 353.318ZM219.236 358.5V349.773H220.935V358.5H219.236ZM220.094 348.426C219.798 348.426 219.545 348.328 219.332 348.131C219.124 347.93 219.02 347.691 219.02 347.415C219.02 347.134 219.124 346.896 219.332 346.699C219.545 346.498 219.798 346.398 220.094 346.398C220.389 346.398 220.641 346.498 220.849 346.699C221.062 346.896 221.168 347.134 221.168 347.415C221.168 347.691 221.062 347.93 220.849 348.131C220.641 348.328 220.389 348.426 220.094 348.426ZM226.982 358.676C226.122 358.676 225.381 358.492 224.76 358.125C224.143 357.754 223.665 357.233 223.328 356.562C222.995 355.888 222.828 355.098 222.828 354.193C222.828 353.299 222.995 352.511 223.328 351.83C223.665 351.148 224.135 350.616 224.737 350.233C225.343 349.85 226.052 349.659 226.862 349.659C227.355 349.659 227.832 349.741 228.294 349.903C228.756 350.066 229.171 350.322 229.538 350.67C229.906 351.019 230.196 351.472 230.408 352.028C230.62 352.581 230.726 353.254 230.726 354.045V354.648H223.788V353.375H229.061C229.061 352.928 228.97 352.532 228.788 352.188C228.607 351.839 228.351 351.564 228.021 351.364C227.696 351.163 227.313 351.062 226.874 351.062C226.396 351.062 225.98 351.18 225.624 351.415C225.271 351.646 224.999 351.949 224.805 352.324C224.616 352.695 224.521 353.098 224.521 353.534V354.528C224.521 355.112 224.624 355.608 224.828 356.017C225.036 356.426 225.326 356.739 225.697 356.955C226.069 357.167 226.502 357.273 226.999 357.273C227.321 357.273 227.614 357.227 227.879 357.136C228.144 357.042 228.374 356.902 228.567 356.716C228.76 356.53 228.908 356.301 229.01 356.028L230.618 356.318C230.489 356.792 230.258 357.206 229.925 357.562C229.595 357.915 229.18 358.189 228.68 358.386C228.184 358.58 227.618 358.676 226.982 358.676ZM239.151 351.903L237.611 352.176C237.546 351.979 237.444 351.792 237.304 351.614C237.168 351.436 236.982 351.29 236.747 351.176C236.512 351.062 236.219 351.006 235.866 351.006C235.385 351.006 234.984 351.114 234.662 351.33C234.34 351.542 234.179 351.816 234.179 352.153C234.179 352.445 234.287 352.68 234.503 352.858C234.719 353.036 235.067 353.182 235.548 353.295L236.935 353.614C237.738 353.799 238.336 354.085 238.73 354.472C239.124 354.858 239.321 355.36 239.321 355.977C239.321 356.5 239.17 356.966 238.866 357.375C238.567 357.78 238.149 358.098 237.611 358.33C237.077 358.561 236.457 358.676 235.753 358.676C234.776 358.676 233.978 358.468 233.361 358.051C232.743 357.631 232.365 357.034 232.224 356.261L233.866 356.011C233.969 356.439 234.179 356.763 234.497 356.983C234.815 357.199 235.23 357.307 235.741 357.307C236.298 357.307 236.743 357.191 237.077 356.96C237.41 356.725 237.577 356.439 237.577 356.102C237.577 355.83 237.474 355.6 237.27 355.415C237.069 355.229 236.76 355.089 236.344 354.994L234.866 354.67C234.052 354.485 233.45 354.189 233.06 353.784C232.673 353.379 232.48 352.866 232.48 352.244C232.48 351.729 232.624 351.278 232.912 350.892C233.2 350.506 233.598 350.205 234.105 349.989C234.613 349.769 235.194 349.659 235.849 349.659C236.793 349.659 237.535 349.864 238.077 350.273C238.618 350.678 238.976 351.222 239.151 351.903Z" fill="#175574"/>
<g filter="url(#filter2_d_57_2357)">
<rect x="260" y="146" width="101" height="101" rx="30" fill="#ABE0F8"/>
<path d="M305.833 175.167C305.833 172.865 307.698 171 310 171C312.302 171 314.166 172.865 314.166 175.167C314.166 177.469 312.302 179.333 310 179.333C307.698 179.333 305.833 177.469 305.833 175.167ZM304.483 189.708C305.623 189.921 306.71 189.206 306.941 188.081C307.235 186.633 308.523 185.583 310.002 185.583C311.481 185.583 312.768 186.633 313.062 188.081C313.264 189.069 314.133 189.75 315.102 189.75C315.237 189.75 315.379 189.735 315.518 189.708C316.646 189.479 317.375 188.379 317.146 187.25C316.458 183.869 313.454 181.415 310 181.415C306.546 181.415 303.541 183.869 302.854 187.25C302.627 188.379 303.354 189.477 304.481 189.708H304.483ZM327.708 183.5C330.01 183.5 331.875 181.635 331.875 179.333C331.875 177.031 330.01 175.167 327.708 175.167C325.406 175.167 323.541 177.031 323.541 179.333C323.541 181.635 325.406 183.5 327.708 183.5ZM295.352 192.248C295.554 193.235 296.423 193.917 297.391 193.917C297.527 193.917 297.668 193.902 297.808 193.875C298.935 193.646 299.664 192.546 299.435 191.417C298.748 188.035 295.743 185.581 292.289 185.581C288.835 185.581 285.833 188.037 285.146 191.419C284.918 192.548 285.646 193.646 286.773 193.877C287.912 194.094 289 193.375 289.231 192.25C289.525 190.802 290.812 189.752 292.291 189.752C293.771 189.752 295.058 190.8 295.352 192.248ZM292.291 183.5C294.593 183.5 296.458 181.635 296.458 179.333C296.458 177.031 294.593 175.167 292.291 175.167C289.989 175.167 288.125 177.031 288.125 179.333C288.125 181.635 289.989 183.5 292.291 183.5ZM334.854 191.419C334.166 188.037 331.162 185.583 327.708 185.583C324.254 185.583 321.25 188.037 320.562 191.419C320.335 192.548 321.062 193.646 322.189 193.877C323.329 194.094 324.416 193.375 324.648 192.25C324.941 190.802 326.229 189.752 327.708 189.752C329.187 189.752 330.475 190.802 330.768 192.25C330.971 193.237 331.839 193.919 332.808 193.919C332.943 193.919 333.085 193.904 333.225 193.877C334.352 193.648 335.083 192.548 334.854 191.419ZM326.173 209.65L316.264 205.935V196.225C316.264 193.067 314.023 190.319 311.05 189.835C309.218 189.54 307.366 190.048 305.968 191.24C304.568 192.429 303.764 194.165 303.764 196.002V211.758L301.65 210.075C301.635 210.062 301.614 210.06 301.6 210.05C299.077 207.858 295.248 208.021 292.95 210.483C290.596 213 290.729 216.962 293.221 219.296L294.383 220.417C294.771 220.792 295.289 221 295.829 221C297.704 221 298.625 218.719 297.275 217.417L296.091 216.275C295.252 215.487 295.208 214.165 295.996 213.325C296.777 212.487 298.096 212.448 298.933 213.225C298.954 213.244 298.981 213.248 299.002 213.267C299.025 213.285 302.625 216.171 302.625 216.171C303.616 216.96 304.941 217.108 306.083 216.56C307.225 216.008 307.935 214.879 307.935 213.612V196C307.935 195.387 308.204 194.808 308.671 194.41C309.146 194.01 309.754 193.84 310.383 193.946C311.348 194.102 312.102 195.102 312.102 196.223V207.377C312.102 208.246 312.641 209.023 313.452 209.329L324.712 213.55C327.025 214.417 328.612 216.569 328.756 219.037C328.821 220.144 329.739 220.998 330.833 220.998C330.875 220.998 330.914 220.998 330.958 220.994C332.106 220.927 332.983 219.942 332.914 218.792C332.675 214.681 330.027 211.092 326.175 209.646L326.173 209.65Z" fill="black"/>
</g>
<path d="M387.835 169.909V199H383.432V174.312H383.261L376.301 178.858V174.653L383.56 169.909H387.835ZM405.832 199.483C403.588 199.473 401.67 198.882 400.08 197.707C398.489 196.533 397.272 194.824 396.429 192.58C395.586 190.335 395.165 187.632 395.165 184.469C395.165 181.315 395.586 178.621 396.429 176.386C397.281 174.152 398.503 172.447 400.094 171.273C401.694 170.098 403.607 169.511 405.832 169.511C408.058 169.511 409.966 170.103 411.557 171.287C413.148 172.461 414.365 174.166 415.207 176.401C416.06 178.626 416.486 181.315 416.486 184.469C416.486 187.641 416.064 190.349 415.222 192.594C414.379 194.829 413.162 196.538 411.571 197.722C409.98 198.896 408.067 199.483 405.832 199.483ZM405.832 195.69C407.802 195.69 409.341 194.729 410.449 192.807C411.566 190.884 412.125 188.105 412.125 184.469C412.125 182.054 411.869 180.013 411.358 178.347C410.856 176.67 410.132 175.402 409.185 174.54C408.247 173.669 407.13 173.233 405.832 173.233C403.872 173.233 402.333 174.199 401.216 176.131C400.098 178.062 399.535 180.842 399.526 184.469C399.526 186.893 399.777 188.943 400.278 190.619C400.79 192.286 401.514 193.55 402.452 194.412C403.389 195.264 404.516 195.69 405.832 195.69ZM421.923 199V169.909H426.312V183.801H426.667L438.869 169.909H444.394L432.661 183.006L444.437 199H439.153L429.749 186.003L426.312 189.952V199H421.923ZM453.219 194.114V174.909H457.04V194.114H453.219ZM445.534 186.415V182.608H464.739V186.415H445.534Z" fill="#175574"/>
<path d="M374.705 217.875V216.364H383.71V217.875H380.08V228H378.33V217.875H374.705ZM386.916 228.193C386.363 228.193 385.863 228.091 385.416 227.886C384.969 227.678 384.615 227.377 384.354 226.983C384.096 226.589 383.967 226.106 383.967 225.534C383.967 225.042 384.062 224.636 384.251 224.318C384.441 224 384.696 223.748 385.018 223.562C385.34 223.377 385.7 223.237 386.098 223.142C386.496 223.047 386.901 222.975 387.314 222.926C387.837 222.866 388.261 222.816 388.587 222.778C388.912 222.737 389.149 222.67 389.297 222.58C389.445 222.489 389.518 222.341 389.518 222.136V222.097C389.518 221.6 389.378 221.216 389.098 220.943C388.821 220.67 388.409 220.534 387.859 220.534C387.287 220.534 386.837 220.661 386.507 220.915C386.181 221.165 385.956 221.443 385.831 221.75L384.234 221.386C384.424 220.856 384.7 220.428 385.064 220.102C385.431 219.773 385.854 219.534 386.331 219.386C386.808 219.235 387.31 219.159 387.837 219.159C388.185 219.159 388.554 219.201 388.945 219.284C389.339 219.364 389.706 219.511 390.047 219.727C390.392 219.943 390.674 220.252 390.893 220.653C391.113 221.051 391.223 221.568 391.223 222.205V228H389.564V226.807H389.496C389.386 227.027 389.221 227.242 389.001 227.455C388.782 227.667 388.5 227.843 388.155 227.983C387.81 228.123 387.397 228.193 386.916 228.193ZM387.286 226.83C387.755 226.83 388.157 226.737 388.49 226.551C388.827 226.366 389.083 226.123 389.257 225.824C389.435 225.521 389.524 225.197 389.524 224.852V223.727C389.464 223.788 389.346 223.845 389.172 223.898C389.001 223.947 388.806 223.991 388.587 224.028C388.367 224.062 388.153 224.095 387.945 224.125C387.736 224.152 387.562 224.174 387.422 224.193C387.092 224.235 386.791 224.305 386.518 224.403C386.25 224.502 386.034 224.644 385.871 224.83C385.712 225.011 385.632 225.254 385.632 225.557C385.632 225.977 385.787 226.295 386.098 226.511C386.409 226.723 386.804 226.83 387.286 226.83ZM395.185 216.364V228H393.486V216.364H395.185ZM401.232 228.176C400.372 228.176 399.631 227.992 399.01 227.625C398.393 227.254 397.915 226.733 397.578 226.062C397.245 225.388 397.078 224.598 397.078 223.693C397.078 222.799 397.245 222.011 397.578 221.33C397.915 220.648 398.385 220.116 398.987 219.733C399.593 219.35 400.302 219.159 401.112 219.159C401.605 219.159 402.082 219.241 402.544 219.403C403.006 219.566 403.421 219.822 403.788 220.17C404.156 220.519 404.446 220.972 404.658 221.528C404.87 222.081 404.976 222.754 404.976 223.545V224.148H398.038V222.875H403.311C403.311 222.428 403.22 222.032 403.038 221.688C402.857 221.339 402.601 221.064 402.271 220.864C401.946 220.663 401.563 220.562 401.124 220.562C400.646 220.562 400.23 220.68 399.874 220.915C399.521 221.146 399.249 221.449 399.055 221.824C398.866 222.195 398.771 222.598 398.771 223.034V224.028C398.771 224.612 398.874 225.108 399.078 225.517C399.286 225.926 399.576 226.239 399.947 226.455C400.319 226.667 400.752 226.773 401.249 226.773C401.571 226.773 401.864 226.727 402.129 226.636C402.394 226.542 402.624 226.402 402.817 226.216C403.01 226.03 403.158 225.801 403.26 225.528L404.868 225.818C404.739 226.292 404.508 226.706 404.175 227.062C403.845 227.415 403.43 227.689 402.93 227.886C402.434 228.08 401.868 228.176 401.232 228.176ZM408.56 222.818V228H406.861V219.273H408.491V220.693H408.599C408.8 220.231 409.115 219.86 409.543 219.58C409.974 219.299 410.518 219.159 411.173 219.159C411.768 219.159 412.289 219.284 412.736 219.534C413.183 219.78 413.529 220.148 413.776 220.636C414.022 221.125 414.145 221.729 414.145 222.449V228H412.446V222.653C412.446 222.021 412.281 221.527 411.952 221.17C411.622 220.811 411.17 220.631 410.594 220.631C410.2 220.631 409.849 220.716 409.543 220.886C409.24 221.057 408.999 221.307 408.821 221.636C408.647 221.962 408.56 222.356 408.56 222.818ZM420.497 219.273V220.636H415.73V219.273H420.497ZM417.009 217.182H418.707V225.438C418.707 225.767 418.757 226.015 418.855 226.182C418.954 226.345 419.08 226.456 419.236 226.517C419.395 226.574 419.567 226.602 419.753 226.602C419.889 226.602 420.009 226.593 420.111 226.574C420.213 226.555 420.293 226.54 420.349 226.528L420.656 227.932C420.558 227.97 420.418 228.008 420.236 228.045C420.054 228.087 419.827 228.11 419.554 228.114C419.107 228.121 418.69 228.042 418.304 227.875C417.918 227.708 417.605 227.451 417.366 227.102C417.128 226.754 417.009 226.316 417.009 225.79V217.182ZM428.776 221.403L427.236 221.676C427.171 221.479 427.069 221.292 426.929 221.114C426.793 220.936 426.607 220.79 426.372 220.676C426.137 220.562 425.844 220.506 425.491 220.506C425.01 220.506 424.609 220.614 424.287 220.83C423.965 221.042 423.804 221.316 423.804 221.653C423.804 221.945 423.912 222.18 424.128 222.358C424.344 222.536 424.692 222.682 425.173 222.795L426.56 223.114C427.363 223.299 427.961 223.585 428.355 223.972C428.749 224.358 428.946 224.86 428.946 225.477C428.946 226 428.795 226.466 428.491 226.875C428.192 227.28 427.774 227.598 427.236 227.83C426.702 228.061 426.082 228.176 425.378 228.176C424.401 228.176 423.603 227.968 422.986 227.551C422.368 227.131 421.99 226.534 421.849 225.761L423.491 225.511C423.594 225.939 423.804 226.263 424.122 226.483C424.44 226.699 424.855 226.807 425.366 226.807C425.923 226.807 426.368 226.691 426.702 226.46C427.035 226.225 427.202 225.939 427.202 225.602C427.202 225.33 427.099 225.1 426.895 224.915C426.694 224.729 426.385 224.589 425.969 224.494L424.491 224.17C423.677 223.985 423.075 223.689 422.685 223.284C422.298 222.879 422.105 222.366 422.105 221.744C422.105 221.229 422.249 220.778 422.537 220.392C422.825 220.006 423.223 219.705 423.73 219.489C424.238 219.269 424.819 219.159 425.474 219.159C426.418 219.159 427.16 219.364 427.702 219.773C428.243 220.178 428.601 220.722 428.776 221.403ZM443.06 220.04C442.95 219.695 442.802 219.386 442.616 219.114C442.435 218.837 442.217 218.602 441.963 218.409C441.709 218.212 441.42 218.062 441.094 217.96C440.772 217.858 440.418 217.807 440.031 217.807C439.376 217.807 438.785 217.975 438.259 218.312C437.732 218.65 437.315 219.144 437.009 219.795C436.705 220.443 436.554 221.237 436.554 222.176C436.554 223.119 436.707 223.917 437.014 224.568C437.321 225.22 437.741 225.714 438.276 226.051C438.81 226.388 439.418 226.557 440.099 226.557C440.732 226.557 441.283 226.428 441.753 226.17C442.226 225.913 442.592 225.549 442.849 225.08C443.111 224.606 443.241 224.049 443.241 223.409L443.696 223.494H440.366V222.045H444.94V223.369C444.94 224.347 444.732 225.195 444.315 225.915C443.902 226.631 443.33 227.184 442.599 227.574C441.872 227.964 441.039 228.159 440.099 228.159C439.046 228.159 438.122 227.917 437.327 227.432C436.535 226.947 435.918 226.259 435.474 225.369C435.031 224.475 434.81 223.415 434.81 222.188C434.81 221.259 434.938 220.426 435.196 219.688C435.454 218.949 435.815 218.322 436.281 217.807C436.751 217.288 437.302 216.892 437.935 216.619C438.571 216.343 439.266 216.205 440.02 216.205C440.649 216.205 441.234 216.297 441.776 216.483C442.321 216.669 442.806 216.932 443.23 217.273C443.658 217.614 444.012 218.019 444.293 218.489C444.573 218.955 444.762 219.472 444.861 220.04H443.06ZM450.709 228.176C449.891 228.176 449.177 227.989 448.567 227.614C447.957 227.239 447.483 226.714 447.146 226.04C446.809 225.366 446.641 224.578 446.641 223.676C446.641 222.771 446.809 221.979 447.146 221.301C447.483 220.623 447.957 220.097 448.567 219.722C449.177 219.347 449.891 219.159 450.709 219.159C451.527 219.159 452.241 219.347 452.851 219.722C453.461 220.097 453.934 220.623 454.271 221.301C454.608 221.979 454.777 222.771 454.777 223.676C454.777 224.578 454.608 225.366 454.271 226.04C453.934 226.714 453.461 227.239 452.851 227.614C452.241 227.989 451.527 228.176 450.709 228.176ZM450.714 226.75C451.245 226.75 451.684 226.61 452.033 226.33C452.381 226.049 452.639 225.676 452.805 225.21C452.976 224.744 453.061 224.231 453.061 223.67C453.061 223.114 452.976 222.602 452.805 222.136C452.639 221.667 452.381 221.29 452.033 221.006C451.684 220.722 451.245 220.58 450.714 220.58C450.18 220.58 449.737 220.722 449.385 221.006C449.036 221.29 448.777 221.667 448.607 222.136C448.44 222.602 448.357 223.114 448.357 223.67C448.357 224.231 448.44 224.744 448.607 225.21C448.777 225.676 449.036 226.049 449.385 226.33C449.737 226.61 450.18 226.75 450.714 226.75ZM460.747 219.273V220.636H455.98V219.273H460.747ZM457.259 217.182H458.957V225.438C458.957 225.767 459.007 226.015 459.105 226.182C459.204 226.345 459.33 226.456 459.486 226.517C459.645 226.574 459.817 226.602 460.003 226.602C460.139 226.602 460.259 226.593 460.361 226.574C460.463 226.555 460.543 226.54 460.599 226.528L460.906 227.932C460.808 227.97 460.668 228.008 460.486 228.045C460.304 228.087 460.077 228.11 459.804 228.114C459.357 228.121 458.94 228.042 458.554 227.875C458.168 227.708 457.855 227.451 457.616 227.102C457.378 226.754 457.259 226.316 457.259 225.79V217.182ZM466.997 228V216.364H468.753V221.42H474.554V216.364H476.315V228H474.554V222.926H468.753V228H466.997ZM478.736 228V219.273H480.435V228H478.736ZM479.594 217.926C479.298 217.926 479.045 217.828 478.832 217.631C478.624 217.43 478.52 217.191 478.52 216.915C478.52 216.634 478.624 216.396 478.832 216.199C479.045 215.998 479.298 215.898 479.594 215.898C479.889 215.898 480.141 215.998 480.349 216.199C480.562 216.396 480.668 216.634 480.668 216.915C480.668 217.191 480.562 217.43 480.349 217.631C480.141 217.828 479.889 217.926 479.594 217.926ZM482.72 228V219.273H484.362V220.659H484.453C484.612 220.189 484.893 219.82 485.294 219.551C485.699 219.278 486.158 219.142 486.669 219.142C486.775 219.142 486.9 219.146 487.044 219.153C487.192 219.161 487.307 219.17 487.391 219.182V220.807C487.322 220.788 487.201 220.767 487.027 220.744C486.853 220.718 486.679 220.705 486.504 220.705C486.103 220.705 485.745 220.79 485.43 220.96C485.12 221.127 484.874 221.36 484.692 221.659C484.51 221.955 484.419 222.292 484.419 222.67V228H482.72ZM492.31 228.176C491.45 228.176 490.709 227.992 490.088 227.625C489.471 227.254 488.993 226.733 488.656 226.062C488.323 225.388 488.156 224.598 488.156 223.693C488.156 222.799 488.323 222.011 488.656 221.33C488.993 220.648 489.463 220.116 490.065 219.733C490.671 219.35 491.38 219.159 492.19 219.159C492.683 219.159 493.16 219.241 493.622 219.403C494.084 219.566 494.499 219.822 494.866 220.17C495.234 220.519 495.524 220.972 495.736 221.528C495.948 222.081 496.054 222.754 496.054 223.545V224.148H489.116V222.875H494.389C494.389 222.428 494.298 222.032 494.116 221.688C493.935 221.339 493.679 221.064 493.349 220.864C493.024 220.663 492.641 220.562 492.202 220.562C491.724 220.562 491.308 220.68 490.952 220.915C490.599 221.146 490.327 221.449 490.134 221.824C489.944 222.195 489.849 222.598 489.849 223.034V224.028C489.849 224.612 489.952 225.108 490.156 225.517C490.365 225.926 490.654 226.239 491.026 226.455C491.397 226.667 491.83 226.773 492.327 226.773C492.649 226.773 492.942 226.727 493.207 226.636C493.473 226.542 493.702 226.402 493.895 226.216C494.088 226.03 494.236 225.801 494.338 225.528L495.946 225.818C495.817 226.292 495.586 226.706 495.253 227.062C494.923 227.415 494.509 227.689 494.009 227.886C493.512 228.08 492.946 228.176 492.31 228.176ZM501.206 228.17C500.501 228.17 499.873 227.991 499.32 227.631C498.77 227.267 498.339 226.75 498.024 226.08C497.714 225.405 497.558 224.597 497.558 223.653C497.558 222.71 497.715 221.903 498.03 221.233C498.348 220.562 498.784 220.049 499.337 219.693C499.89 219.337 500.517 219.159 501.217 219.159C501.759 219.159 502.195 219.25 502.524 219.432C502.857 219.61 503.115 219.818 503.297 220.057C503.482 220.295 503.626 220.506 503.729 220.688H503.831V216.364H505.53V228H503.871V226.642H503.729C503.626 226.828 503.479 227.04 503.286 227.278C503.096 227.517 502.835 227.725 502.501 227.903C502.168 228.081 501.736 228.17 501.206 228.17ZM501.581 226.722C502.07 226.722 502.482 226.593 502.82 226.335C503.161 226.074 503.418 225.712 503.592 225.25C503.77 224.788 503.859 224.25 503.859 223.636C503.859 223.03 503.772 222.5 503.598 222.045C503.424 221.591 503.168 221.237 502.831 220.983C502.494 220.729 502.077 220.602 501.581 220.602C501.07 220.602 500.643 220.735 500.303 221C499.962 221.265 499.704 221.627 499.53 222.085C499.359 222.544 499.274 223.061 499.274 223.636C499.274 224.22 499.361 224.744 499.536 225.21C499.71 225.676 499.967 226.045 500.308 226.318C500.653 226.587 501.077 226.722 501.581 226.722Z" fill="#175574"/>
<defs>
<filter id="filter0_d_57_2357" x="0" y="0.5" width="181" height="181" filterUnits="userSpaceOnUse" color-interpolation-filters="sRGB">
<feFlood flood-opacity="0" result="BackgroundImageFix"/>
<feColorMatrix in="SourceAlpha" type="matrix" values="0 0 0 0 0 0 0 0 0 0 0 0 0 0 0 0 0 0 127 0" result="hardAlpha"/>
<feOffset dy="25"/>
<feGaussianBlur stdDeviation="20"/>
<feComposite in2="hardAlpha" operator="out"/>
<feColorMatrix type="matrix" values="0 0 0 0 0.268333 0 0 0 0 0.268333 0 0 0 0 0.268333 0 0 0 0.1 0"/>
<feBlend mode="normal" in2="BackgroundImageFix" result="effect1_dropShadow_57_2357"/>
<feBlend mode="normal" in="SourceGraphic" in2="effect1_dropShadow_57_2357" result="shape"/>
</filter>
<filter id="filter1_d_57_2357" x="0" y="261.5" width="181" height="181" filterUnits="userSpaceOnUse" color-interpolation-filters="sRGB">
<feFlood flood-opacity="0" result="BackgroundImageFix"/>
<feColorMatrix in="SourceAlpha" type="matrix" values="0 0 0 0 0 0 0 0 0 0 0 0 0 0 0 0 0 0 127 0" result="hardAlpha"/>
<feOffset dy="25"/>
<feGaussianBlur stdDeviation="20"/>
<feComposite in2="hardAlpha" operator="out"/>
<feColorMatrix type="matrix" values="0 0 0 0 0.268333 0 0 0 0 0.268333 0 0 0 0 0.268333 0 0 0 0.1 0"/>
<feBlend mode="normal" in2="BackgroundImageFix" result="effect1_dropShadow_57_2357"/>
<feBlend mode="normal" in="SourceGraphic" in2="effect1_dropShadow_57_2357" result="shape"/>
</filter>
<filter id="filter2_d_57_2357" x="220" y="131" width="181" height="181" filterUnits="userSpaceOnUse" color-interpolation-filters="sRGB">
<feFlood flood-opacity="0" result="BackgroundImageFix"/>
<feColorMatrix in="SourceAlpha" type="matrix" values="0 0 0 0 0 0 0 0 0 0 0 0 0 0 0 0 0 0 127 0" result="hardAlpha"/>
<feOffset dy="25"/>
<feGaussianBlur stdDeviation="20"/>
<feComposite in2="hardAlpha" operator="out"/>
<feColorMatrix type="matrix" values="0 0 0 0 0.268333 0 0 0 0 0.268333 0 0 0 0 0.268333 0 0 0 0.1 0"/>
<feBlend mode="normal" in2="BackgroundImageFix" result="effect1_dropShadow_57_2357"/>
<feBlend mode="normal" in="SourceGraphic" in2="effect1_dropShadow_57_2357" result="shape"/>
</filter>
<clipPath id="clip0_57_2357">
<rect width="50" height="50" fill="white" transform="translate(65 41)"/>
</clipPath>
<clipPath id="clip1_57_2357">
<rect width="50" height="50" fill="white" transform="translate(65 302)"/>
</clipPath>
</defs>
</svg>
