<svg width="88" height="39" viewBox="0 0 88 39" fill="none" xmlns="http://www.w3.org/2000/svg">
<path d="M38.8786 38.8225V27.2745H34.8508V24.2651H46.1028V27.2745H42.0751V38.8225H38.8786Z" fill="url(#paint0_linear_27_12)"/>
<path d="M51.0423 27.2745V30.0373H56.7873V33.0467H51.0423V35.8132H57.4354V38.8225H47.886V24.2651H57.4354V27.2745H51.0423Z" fill="url(#paint1_linear_27_12)"/>
<path d="M72.7964 36.315C72.0986 37.1812 71.2112 37.8739 70.2033 38.3391C69.1954 38.8042 68.0942 39.0294 66.9855 38.9969C65.9518 39.0062 64.9269 38.806 63.972 38.4083C62.5936 37.8311 61.416 36.8569 60.5877 35.6084C59.7594 34.3599 59.3174 32.8931 59.3174 31.3927C59.3174 29.8922 59.7594 28.4254 60.5877 27.1769C61.416 25.9284 62.5936 24.9542 63.972 24.377C64.9274 23.981 65.952 23.7809 66.9855 23.7884C68.0466 23.7615 69.1005 23.97 70.0722 24.3991C70.9728 24.8274 71.7813 25.4285 72.4522 26.1686L70.2553 28.3244C69.8726 27.8785 69.4139 27.5048 68.9005 27.2208C68.3204 26.9166 67.6726 26.7659 67.0185 26.783C66.4124 26.7786 65.8111 26.8897 65.2463 27.1104C64.7117 27.3185 64.2265 27.6369 63.8219 28.0449C63.4103 28.4598 63.0865 28.9541 62.8699 29.498C62.411 30.7089 62.411 32.047 62.8699 33.2579C63.086 33.8074 63.4097 34.3078 63.8219 34.7294C64.2275 35.1361 64.7125 35.4543 65.2463 35.6639C65.8113 35.8833 66.4127 35.9932 67.0185 35.9876C67.7148 36.0054 68.4041 35.8446 69.0213 35.5204C69.6194 35.1824 70.1427 34.7255 70.5592 34.1776L72.7964 36.315Z" fill="url(#paint2_linear_27_12)"/>
<path d="M74.0626 24.2651H77.2225V29.8791H82.7661V24.2651H85.9224V38.8225H82.7661V32.8848H77.2225V38.8225H74.0626V24.2651Z" fill="url(#paint3_linear_27_12)"/>
<path d="M22.277 0.447963H29.7649C30.7501 0.433529 31.7295 0.601899 32.6539 0.944614C33.4536 1.23664 34.1833 1.69411 34.7959 2.28741C35.3799 2.86623 35.8343 3.56357 36.1287 4.33288C36.4385 5.15544 36.5937 6.02864 36.5864 6.9081C36.5923 7.52602 36.4843 8.1397 36.2679 8.71812C36.0563 9.2731 35.7665 9.7947 35.4074 10.2669C35.0445 10.7394 34.6196 11.1601 34.1441 11.5178C33.6645 11.8817 33.1433 12.1868 32.5916 12.4264V12.6766L37.7801 20.1264V20.406H32.8406L27.8243 13.2174H26.6013V20.406H22.277V0.447963ZM29.7649 9.20374C30.1001 9.22178 30.4355 9.1707 30.7503 9.05366C31.0652 8.93661 31.3529 8.75607 31.5957 8.52314C31.8134 8.30084 31.9843 8.03674 32.0981 7.74661C32.212 7.45649 32.2665 7.14629 32.2584 6.83453C32.2746 6.21331 32.0516 5.60977 31.636 5.14959C31.3896 4.90978 31.0955 4.72514 30.773 4.60783C30.4505 4.49051 30.1069 4.4432 29.7649 4.469H26.6013V9.20374H29.7649Z" fill="url(#paint4_linear_27_12)"/>
<path d="M40.0503 0.447964H44.3709V20.3986H40.0503V0.447964Z" fill="url(#paint5_linear_27_12)"/>
<path d="M48.3693 0.447964H53.3601L60.5148 12.7649H60.793L60.5148 8.90943V0.447964H64.7878V20.3986H60.2401L52.6424 7.36429H52.3641L52.6424 11.2087V20.406H48.3693V0.447964Z" fill="url(#paint6_linear_27_12)"/>
<path d="M77.9878 9.3141H87.7752C87.8412 9.59943 87.8925 9.888 87.9289 10.1786C87.9727 10.5117 87.9959 10.8471 87.9985 11.183C88.0198 12.4629 87.8127 13.7363 87.387 14.9428C86.9931 16.0183 86.3894 17.0039 85.6112 17.8418C84.7065 18.7972 83.6109 19.5494 82.3963 20.0491C81.0304 20.5992 79.5689 20.8694 78.0976 20.8438C76.697 20.8511 75.3082 20.5863 74.0077 20.0638C72.7582 19.566 71.6148 18.8331 70.639 17.9043C69.6682 16.9732 68.8947 15.8545 68.3652 14.6154C67.8142 13.2871 67.5305 11.8623 67.5305 10.4233C67.5305 8.98426 67.8142 7.55947 68.3652 6.23119C68.8947 4.99209 69.6682 3.87337 70.639 2.94226C71.6139 2.01228 72.7575 1.27916 74.0077 0.782745C75.3082 0.260301 76.697 -0.00453666 78.0976 0.0028183C79.6073 -0.0323872 81.1066 0.262605 82.4915 0.867358C83.7319 1.43429 84.8511 2.23764 85.7869 3.23289L82.8577 6.13186C82.2595 5.5246 81.5607 5.02664 80.7925 4.6603C79.9308 4.28295 78.997 4.10083 78.0573 4.12686C77.2355 4.11957 76.4204 4.27586 75.659 4.58672C74.9162 4.88028 74.2382 5.3178 73.6635 5.87434C73.0903 6.43652 72.6368 7.1099 72.3307 7.85358C71.6873 9.50955 71.6873 11.3481 72.3307 13.004C72.6389 13.7502 73.0977 14.4241 73.6781 14.9833C74.2552 15.5349 74.9328 15.9696 75.6737 16.2635C76.4496 16.5729 77.2775 16.7291 78.1123 16.7234C79.821 16.7234 81.1807 16.2684 82.1913 15.3585C82.5278 15.0518 82.821 14.7003 83.0627 14.3137C83.3366 13.8831 83.5555 13.4196 83.7145 12.9341H77.9878V9.3141Z" fill="url(#paint7_linear_27_12)"/>
<path d="M13.0498 9.35825H4.76004V0.624552H0V21.5428H4.73075V12.6877H12.3541C12.5921 11.5472 12.8045 10.5429 13.0498 9.35825Z" fill="url(#paint8_linear_27_12)"/>
<path d="M19.2013 18.1067C18.5422 14.8177 17.9161 11.7127 17.2936 8.61144C17.1105 7.70643 16.9787 6.77199 16.7077 5.90377C16.6052 5.57635 16.1622 5.13856 15.8766 5.13488C15.6809 5.17372 15.4981 5.26151 15.3452 5.39011C15.1922 5.51872 15.074 5.68399 15.0015 5.87066C14.1495 9.85858 13.3428 13.8661 12.5812 17.8933C12.5597 18.3286 12.7112 18.7547 13.0022 19.0779C15.9315 22.3889 15.6825 22.5728 18.6887 19.1073C18.9057 18.7997 19.0782 18.4629 19.2013 18.1067Z" fill="url(#paint9_linear_27_12)"/>
<path d="M13.881 2.48607C13.8925 3.0192 14.1127 3.52628 14.4938 3.89745C14.8748 4.26861 15.3861 4.47396 15.9168 4.469C16.4248 4.45267 16.9062 4.23715 17.258 3.86859C17.6098 3.50003 17.8039 3.00773 17.7989 2.49711C17.811 2.23389 17.7674 1.9711 17.671 1.72603C17.5747 1.48096 17.4277 1.25919 17.2399 1.07532C17.052 0.891446 16.8275 0.749653 16.5812 0.659274C16.3348 0.568896 16.0722 0.531984 15.8107 0.550972C15.5573 0.550002 15.3062 0.599367 15.0719 0.696226C14.8376 0.793084 14.6247 0.935526 14.4453 1.11536C14.266 1.2952 14.1238 1.50888 14.027 1.74412C13.9301 1.97935 13.8805 2.23151 13.881 2.48607Z" fill="url(#paint10_linear_27_12)"/>
<defs>
<linearGradient id="paint0_linear_27_12" x1="-0.286365" y1="19.4951" x2="87.7136" y2="19.4951" gradientUnits="userSpaceOnUse">
<stop stop-color="#E44B51"/>
<stop offset="1" stop-color="#9A2656"/>
</linearGradient>
<linearGradient id="paint1_linear_27_12" x1="0" y1="19.4951" x2="88" y2="19.4951" gradientUnits="userSpaceOnUse">
<stop stop-color="#E44B51"/>
<stop offset="1" stop-color="#9A2656"/>
</linearGradient>
<linearGradient id="paint2_linear_27_12" x1="0.267739" y1="19.499" x2="88" y2="19.499" gradientUnits="userSpaceOnUse">
<stop stop-color="#E44B51"/>
<stop offset="1" stop-color="#9A2656"/>
</linearGradient>
<linearGradient id="paint3_linear_27_12" x1="0" y1="19.4951" x2="88" y2="19.4951" gradientUnits="userSpaceOnUse">
<stop stop-color="#E44B51"/>
<stop offset="1" stop-color="#9A2656"/>
</linearGradient>
<linearGradient id="paint4_linear_27_12" x1="0" y1="19.5044" x2="87.9792" y2="19.5044" gradientUnits="userSpaceOnUse">
<stop stop-color="#E44B51"/>
<stop offset="1" stop-color="#9A2656"/>
</linearGradient>
<linearGradient id="paint5_linear_27_12" x1="0" y1="19.5108" x2="88.1492" y2="19.5108" gradientUnits="userSpaceOnUse">
<stop stop-color="#E44B51"/>
<stop offset="1" stop-color="#9A2656"/>
</linearGradient>
<linearGradient id="paint6_linear_27_12" x1="0" y1="19.5036" x2="88" y2="19.5036" gradientUnits="userSpaceOnUse">
<stop stop-color="#E44B51"/>
<stop offset="1" stop-color="#9A2656"/>
</linearGradient>
<linearGradient id="paint7_linear_27_12" x1="-0.000655645" y1="19.5114" x2="87.9936" y2="19.5114" gradientUnits="userSpaceOnUse">
<stop stop-color="#E44B51"/>
<stop offset="1" stop-color="#9A2656"/>
</linearGradient>
<linearGradient id="paint8_linear_27_12" x1="0.0740741" y1="19.5" x2="88" y2="19.5" gradientUnits="userSpaceOnUse">
<stop stop-color="#E24E52"/>
<stop offset="1" stop-color="#8E3248"/>
</linearGradient>
<linearGradient id="paint9_linear_27_12" x1="-0.119378" y1="19.496" x2="88" y2="19.496" gradientUnits="userSpaceOnUse">
<stop stop-color="#56382D"/>
<stop offset="1" stop-color="#AC4B5C"/>
</linearGradient>
<linearGradient id="paint10_linear_27_12" x1="13.881" y1="2.50814" x2="17.7989" y2="2.50814" gradientUnits="userSpaceOnUse">
<stop stop-color="#56382D"/>
<stop offset="1" stop-color="#AC4B5C"/>
</linearGradient>
</defs>
</svg>
